<svg width="53" height="53" viewBox="0 0 53 53" fill="none" xmlns="http://www.w3.org/2000/svg">
<g id="Menu Icons" clip-path="url(#clip0_1978_12270)">
<g id="Group">
<g id="Group_2">
<g id="Group_3">
<path id="Vector" d="M18.9737 0.500138C8.75343 0.554372 3.6224 18.1313 1.70744 27.1663C-0.207526 36.2014 1.79346 54.7362 16.6469 52.2775C19.0478 51.8801 19.6082 51.7987 21.5874 50.8052C25.1101 49.0369 29.2791 47.7927 33.0467 47.4171C34.5915 47.2632 36.545 46.7531 37.5788 46.5673C45.8689 45.0764 54.3293 37.0448 51.768 28.6291C49.8445 22.3091 44.2089 19.7649 38.5651 20.1147C35.4656 20.3068 32.1669 18.4886 31.5055 16.48C29.3509 9.93763 26.873 0.458294 18.9737 0.500138Z" fill="url(#paint0_linear_1978_12270)"/>
</g>
<g id="Group_4">
<path id="Vector_2" d="M46.5775 39.8996H6.7561V14.536C6.7561 13.5706 7.53864 12.7881 8.50399 12.7881H44.8298C45.7951 12.7881 46.5776 13.5706 46.5776 14.536V39.8996H46.5775Z" fill="#8383FF"/>
<path id="Vector_3" d="M43.7116 35.0595H9.62158C9.34117 35.0595 9.11377 34.8321 9.11377 34.5517V15.8203C9.11377 15.5399 9.34117 15.3125 9.62158 15.3125H43.7116C43.9921 15.3125 44.2195 15.5399 44.2195 15.8203V34.5517C44.2195 34.8321 43.9923 35.0595 43.7116 35.0595Z" fill="white"/>
<path id="Vector_4" d="M44.2195 21.9299V15.8203C44.2195 15.5399 43.9921 15.3125 43.7116 15.3125H9.62158C9.34117 15.3125 9.11377 15.5399 9.11377 15.8203V21.9299H44.2195Z" fill="#FFD9D9"/>
<g id="Group_5">
<g id="Group_6">
<g id="Group_7">
<path id="Vector_5" d="M41.3468 26.6934H23.5205C23.24 26.6934 23.0127 26.466 23.0127 26.1855C23.0127 25.9051 23.24 25.6777 23.5205 25.6777H41.3468C41.6273 25.6777 41.8546 25.9051 41.8546 26.1855C41.8546 26.466 41.6272 26.6934 41.3468 26.6934Z" fill="#F97226"/>
</g>
<g id="Group_8">
<path id="Vector_6" d="M41.3468 28.4707H23.5205C23.24 28.4707 23.0127 28.2433 23.0127 27.9629C23.0127 27.6825 23.24 27.4551 23.5205 27.4551H41.3468C41.6273 27.4551 41.8546 27.6825 41.8546 27.9629C41.8546 28.2433 41.6272 28.4707 41.3468 28.4707Z" fill="#F97226"/>
</g>
<g id="Group_9">
<path id="Vector_7" d="M41.3468 30.249H23.5205C23.24 30.249 23.0127 30.0216 23.0127 29.7412C23.0127 29.4608 23.24 29.2334 23.5205 29.2334H41.3468C41.6273 29.2334 41.8546 29.4608 41.8546 29.7412C41.8546 30.0216 41.6272 30.249 41.3468 30.249Z" fill="#F97226"/>
</g>
<g id="Group_10">
<path id="Vector_8" d="M41.3468 31.0107C41.6273 31.0107 41.8546 31.2381 41.8546 31.5186C41.8546 31.799 41.6273 32.0264 41.3468 32.0264H23.5205C23.24 32.0264 23.0127 31.799 23.0127 31.5186C23.0127 31.2381 23.24 31.0107 23.5205 31.0107H41.3468Z" fill="#F97226"/>
</g>
</g>
<g id="Group_11">
<g id="Group_12">
<g id="Group_13">
<path id="Vector_9" d="M17.0162 26.6934H11.9868C11.7063 26.6934 11.479 26.466 11.479 26.1855C11.479 25.9051 11.7063 25.6777 11.9868 25.6777H17.0162C17.2967 25.6777 17.524 25.9051 17.524 26.1855C17.524 26.466 17.2966 26.6934 17.0162 26.6934Z" fill="#8383FF"/>
</g>
<g id="Group_14">
<path id="Vector_10" d="M19.7584 28.4707H11.9868C11.7063 28.4707 11.479 28.2433 11.479 27.9629C11.479 27.6825 11.7063 27.4551 11.9868 27.4551H19.7584C20.0389 27.4551 20.2662 27.6825 20.2662 27.9629C20.2662 28.2433 20.0388 28.4707 19.7584 28.4707Z" fill="#8383FF"/>
</g>
</g>
<g id="Group_15">
<g id="Group_16">
<path id="Vector_11" d="M19.7584 30.249H11.9868C11.7063 30.249 11.479 30.0216 11.479 29.7412C11.479 29.4608 11.7063 29.2334 11.9868 29.2334H19.7584C20.0389 29.2334 20.2662 29.4608 20.2662 29.7412C20.2662 30.0216 20.0388 30.249 19.7584 30.249Z" fill="#8383FF"/>
</g>
<g id="Group_17">
<path id="Vector_12" d="M19.7584 32.0264H11.9868C11.7063 32.0264 11.479 31.799 11.479 31.5186C11.479 31.2381 11.7063 31.0107 11.9868 31.0107H19.7584C20.0389 31.0107 20.2662 31.2381 20.2662 31.5186C20.2662 31.799 20.0388 32.0264 19.7584 32.0264Z" fill="#8383FF"/>
</g>
</g>
<g id="Group_18">
<path id="Vector_13" d="M12.144 24.8604C12.4245 24.8604 12.6519 24.633 12.6519 24.3525C12.6519 24.0721 12.4245 23.8447 12.144 23.8447C11.8636 23.8447 11.6362 24.0721 11.6362 24.3525C11.6362 24.633 11.8636 24.8604 12.144 24.8604Z" fill="#F97226"/>
<path id="Vector_14" d="M13.7944 24.8604C14.0749 24.8604 14.3022 24.633 14.3022 24.3525C14.3022 24.0721 14.0749 23.8447 13.7944 23.8447C13.514 23.8447 13.2866 24.0721 13.2866 24.3525C13.2866 24.633 13.514 24.8604 13.7944 24.8604Z" fill="#F97226"/>
</g>
</g>
</g>
<path id="Vector_15" d="M46.5775 39.8996H6.7561V14.536C6.7561 13.5706 7.53864 12.7881 8.50399 12.7881H44.8298C45.7951 12.7881 46.5776 13.5706 46.5776 14.536V39.8996H46.5775Z" fill="url(#paint1_linear_1978_12270)"/>
<path id="Vector_16" d="M49.6189 38.5098V41.0702C49.6189 41.6308 49.1649 42.0858 48.6033 42.0858H4.73022C4.16858 42.0858 3.7146 41.6308 3.7146 41.0702V38.5098C3.7146 37.9491 4.16858 37.4941 4.73022 37.4941H18.5432C18.6906 37.4941 18.8308 37.5581 18.9271 37.6696L20.2348 39.1801H33.0987L34.4063 37.6696C34.5028 37.5582 34.6428 37.4941 34.7902 37.4941H48.6032C49.1649 37.4941 49.6189 37.9491 49.6189 38.5098Z" fill="#D9D9FF"/>
<path id="Vector_17" d="M10.8738 6.93457H10.5691V6.62988C10.5691 6.34947 10.3417 6.12207 10.0613 6.12207C9.78087 6.12207 9.55347 6.34947 9.55347 6.62988V6.93457H9.24878C8.96837 6.93457 8.74097 7.16197 8.74097 7.44238C8.74097 7.7228 8.96837 7.9502 9.24878 7.9502H9.55347V8.25488C9.55347 8.5353 9.78087 8.76269 10.0613 8.76269C10.3417 8.76269 10.5691 8.5353 10.5691 8.25488V7.9502H10.8738C11.1542 7.9502 11.3816 7.7228 11.3816 7.44238C11.3816 7.16197 11.1542 6.93457 10.8738 6.93457Z" fill="#F97226"/>
<path id="Vector_18" d="M17.9661 47.3711H17.6614V47.0664C17.6614 46.786 17.434 46.5586 17.1536 46.5586C16.8732 46.5586 16.6458 46.786 16.6458 47.0664V47.3711H16.3411C16.0607 47.3711 15.8333 47.5985 15.8333 47.8789C15.8333 48.1593 16.0607 48.3867 16.3411 48.3867H16.6458V48.6914C16.6458 48.9718 16.8732 49.1992 17.1536 49.1992C17.434 49.1992 17.6614 48.9718 17.6614 48.6914V48.3867H17.9661C18.2465 48.3867 18.4739 48.1593 18.4739 47.8789C18.4739 47.5985 18.2466 47.3711 17.9661 47.3711Z" fill="#F97226"/>
<path id="Vector_19" d="M44.5242 8.75879H44.2195V8.4541C44.2195 8.17369 43.9922 7.94629 43.7117 7.94629C43.4312 7.94629 43.2039 8.17369 43.2039 8.4541V8.75879H42.8992C42.6187 8.75879 42.3914 8.98619 42.3914 9.2666C42.3914 9.54702 42.6187 9.77441 42.8992 9.77441H43.2039V10.0791C43.2039 10.3595 43.4312 10.5869 43.7117 10.5869C43.9922 10.5869 44.2195 10.3595 44.2195 10.0791V9.77441H44.5242C44.8047 9.77441 45.032 9.54702 45.032 9.2666C45.032 8.98619 44.8048 8.75879 44.5242 8.75879Z" fill="#8383FF"/>
<path id="Vector_20" d="M15.3139 5.44326C15.1839 5.44326 15.054 5.39369 14.9548 5.29457L14.5014 4.84119L14.0481 5.29457C13.8497 5.49282 13.5283 5.49282 13.3299 5.29457C13.1316 5.09622 13.1316 4.77467 13.3299 4.57642L14.1424 3.76392C14.3408 3.56567 14.6622 3.56567 14.8606 3.76392L15.6731 4.57642C15.8714 4.77477 15.8714 5.09632 15.6731 5.29457C15.5738 5.39359 15.4439 5.44326 15.3139 5.44326Z" fill="#FF9D33"/>
<path id="Vector_21" d="M24.0537 49.621C23.9237 49.621 23.7938 49.5714 23.6946 49.4723L23.2412 49.0189L22.7878 49.4723C22.5895 49.6706 22.268 49.6706 22.0697 49.4723C21.8713 49.274 21.8713 48.9524 22.0697 48.7542L22.8822 47.9417C23.0805 47.7434 23.402 47.7434 23.6003 47.9417L24.4128 48.7542C24.6112 48.9525 24.6112 49.2741 24.4128 49.4723C24.3136 49.5713 24.1836 49.621 24.0537 49.621Z" fill="#8383FF"/>
<path id="Vector_22" d="M35.7394 10.124V19.8019C35.7394 20.0081 35.6145 20.1939 35.4225 20.2721L26.8588 23.7669C26.7359 23.8167 26.5978 23.8167 26.4749 23.7669L17.9111 20.2721C17.7192 20.1939 17.5942 20.0081 17.5942 19.8019V10.124H35.7394Z" fill="#4D4DFF"/>
<path id="Vector_23" d="M35.7394 10.124V12.8875L27.4346 16.2757C27.1899 16.3762 26.9309 16.427 26.6668 16.427C26.4028 16.427 26.1438 16.3762 25.899 16.2757L17.5942 12.8875V10.124H35.7394Z" fill="#3651DE"/>
<path id="Vector_24" d="M26.4747 3.46048L13.6499 8.69308C13.2287 8.86493 13.2287 9.4615 13.6499 9.63345L26.4747 14.8661C26.5977 14.9162 26.7355 14.9162 26.8585 14.8661L39.6833 9.63345C40.1045 9.46161 40.1045 8.86503 39.6833 8.69308L26.8585 3.46048C26.7355 3.41031 26.5977 3.41031 26.4747 3.46048Z" fill="#8383FF"/>
<path id="Vector_25" d="M34.1379 32.6958H31.5864C31.306 32.6958 31.0786 32.4684 31.0786 32.188V29.2397C31.0786 28.2546 31.8772 27.4561 32.8623 27.4561C33.8473 27.4561 34.6459 28.2546 34.6459 29.2397V32.188C34.6457 32.4684 34.4184 32.6958 34.1379 32.6958Z" fill="#FF7300"/>
<path id="Vector_26" d="M32.862 28.3017C33.9429 28.3017 34.819 27.4255 34.819 26.3447C34.819 25.2639 33.9429 24.3877 32.862 24.3877C31.7812 24.3877 30.905 25.2639 30.905 26.3447C30.905 27.4255 31.7812 28.3017 32.862 28.3017Z" fill="#FFC599"/>
<path id="Vector_27" d="M32.6535 11.953L25.4992 8.80206C25.2425 8.68891 24.9428 8.80531 24.8298 9.06216C24.7168 9.31881 24.8332 9.61852 25.0899 9.73156L31.3456 12.4868C32.04 12.7285 32.3761 12.957 32.3541 13.1722V24.5467H33.3697V12.7578C33.3217 12.3901 33.083 12.1217 32.6535 11.953Z" fill="#3651DE"/>
<path id="Vector_28" d="M33.5391 32.6953V30.6641C33.5391 30.3836 33.3118 30.1562 33.0313 30.1562C32.7507 30.1562 32.5234 30.3836 32.5234 30.6641V32.6953H33.5391Z" fill="#FF2C2C"/>
</g>
</g>
</g>
</g>
<defs>
<linearGradient id="paint0_linear_1978_12270" x1="-4.44322" y1="59.8874" x2="58.3774" y2="4.7361" gradientUnits="userSpaceOnUse">
<stop stop-color="#0023DE" stop-opacity="0"/>
<stop offset="0.468476" stop-color="#C8D1FA" stop-opacity="0.19"/>
<stop offset="0.79" stop-color="#9AA8F5"/>
</linearGradient>
<linearGradient id="paint1_linear_1978_12270" x1="26.6669" y1="39.8996" x2="26.6669" y2="12.7881" gradientUnits="userSpaceOnUse">
<stop stop-color="#FF4D4D" stop-opacity="0.4"/>
<stop offset="1" stop-color="#FF4D4D" stop-opacity="0"/>
</linearGradient>
<clipPath id="clip0_1978_12270">
<rect width="52" height="52" fill="white" transform="translate(0.666748 0.5)"/>
</clipPath>
</defs>
</svg>
