<svg width="39" height="35" viewBox="0 0 39 35" fill="none" xmlns="http://www.w3.org/2000/svg">
<path d="M15.4464 0.500854H1.82151C1.33956 0.500851 0.877258 0.689461 0.535849 1.02538C0.194439 1.3613 0.00175254 1.81715 0 2.29308V17.5532C0.00121413 21.7277 1.55249 25.757 4.36009 28.8779C7.16768 31.9988 11.0367 33.9947 15.2344 34.4877C15.4892 34.5154 15.7471 34.4896 15.9911 34.4121C16.2351 34.3345 16.4598 34.207 16.6505 34.0379C16.8411 33.8687 16.9935 33.6617 17.0976 33.4304C17.2017 33.1991 17.2553 32.9487 17.2547 32.6955V30.0791C17.2546 29.6475 17.0972 29.2303 16.8115 28.9037C16.5257 28.5771 16.1306 28.3628 15.6981 28.3C13.0769 27.9301 10.6786 26.639 8.94363 24.6637C7.20862 22.6884 6.25321 20.1615 6.25275 17.5466H15.4332C15.9163 17.5466 16.3796 17.3571 16.7212 17.0198C17.0627 16.6825 17.2547 16.2249 17.2547 15.7479V2.29308C17.2529 1.8194 17.0621 1.36552 16.7235 1.02997C16.385 0.694423 15.9261 0.504296 15.4464 0.500854Z" fill="#3651DE"/>
<path d="M15.4464 0.500854H1.82151C1.33956 0.500851 0.877258 0.689461 0.535849 1.02538C0.194439 1.3613 0.00175254 1.81715 0 2.29308V17.5532C0.00121413 21.7277 1.55249 25.757 4.36009 28.8779C7.16768 31.9988 11.0367 33.9947 15.2344 34.4877C15.4892 34.5154 15.7471 34.4896 15.9911 34.4121C16.2351 34.3345 16.4598 34.207 16.6505 34.0379C16.8411 33.8687 16.9935 33.6617 17.0976 33.4304C17.2017 33.1991 17.2553 32.9487 17.2547 32.6955V30.0791C17.2546 29.6475 17.0972 29.2303 16.8115 28.9037C16.5257 28.5771 16.1306 28.3628 15.6981 28.3C13.0769 27.9301 10.6786 26.639 8.94363 24.6637C7.20862 22.6884 6.25321 20.1615 6.25275 17.5466H15.4332C15.9163 17.5466 16.3796 17.3571 16.7212 17.0198C17.0627 16.6825 17.2547 16.2249 17.2547 15.7479V2.29308C17.2529 1.8194 17.0621 1.36552 16.7235 1.02997C16.385 0.694423 15.9261 0.504296 15.4464 0.500854Z" fill="black" fill-opacity="0.3"/>
<path d="M36.1849 0.500854H22.5534C22.0715 0.500851 21.6092 0.689461 21.2678 1.02538C20.9264 1.3613 20.7337 1.81715 20.7319 2.29308V17.5532C20.7331 21.7277 22.2844 25.757 25.092 28.8779C27.8996 31.9988 31.7686 33.9947 35.9664 34.4877C36.2217 34.5164 36.4802 34.4913 36.725 34.4142C36.9698 34.3371 37.1954 34.2098 37.3868 34.0405C37.5782 33.8713 37.7312 33.6639 37.8357 33.4321C37.9402 33.2003 37.9939 32.9493 37.9932 32.6955V30.0791C37.9931 29.6475 37.8358 29.2303 37.55 28.9037C37.2643 28.5771 36.8691 28.3628 36.4367 28.3C33.8142 27.9315 31.4144 26.641 29.6781 24.6656C27.9417 22.6902 26.9854 20.1624 26.9847 17.5466H36.1849C36.668 17.5466 37.1313 17.3571 37.4729 17.0198C37.8145 16.6825 38.0065 16.2249 38.0065 15.7479V2.29308C38.0047 1.81715 37.812 1.3613 37.4706 1.02538C37.1292 0.689461 36.6669 0.500851 36.1849 0.500854Z" fill="#3651DE"/>
<path d="M36.1849 0.500854H22.5534C22.0715 0.500851 21.6092 0.689461 21.2678 1.02538C20.9264 1.3613 20.7337 1.81715 20.7319 2.29308V17.5532C20.7331 21.7277 22.2844 25.757 25.092 28.8779C27.8996 31.9988 31.7686 33.9947 35.9664 34.4877C36.2217 34.5164 36.4802 34.4913 36.725 34.4142C36.9698 34.3371 37.1954 34.2098 37.3868 34.0405C37.5782 33.8713 37.7312 33.6639 37.8357 33.4321C37.9402 33.2003 37.9939 32.9493 37.9932 32.6955V30.0791C37.9931 29.6475 37.8358 29.2303 37.55 28.9037C37.2643 28.5771 36.8691 28.3628 36.4367 28.3C33.8142 27.9315 31.4144 26.641 29.6781 24.6656C27.9417 22.6902 26.9854 20.1624 26.9847 17.5466H36.1849C36.668 17.5466 37.1313 17.3571 37.4729 17.0198C37.8145 16.6825 38.0065 16.2249 38.0065 15.7479V2.29308C38.0047 1.81715 37.812 1.3613 37.4706 1.02538C37.1292 0.689461 36.6669 0.500851 36.1849 0.500854Z" fill="black" fill-opacity="0.3"/>
</svg>
