<svg width="201" height="177" viewBox="0 0 201 177" fill="none" xmlns="http://www.w3.org/2000/svg">
<g clip-path="url(#clip0_3427_8187)">
<path d="M116.494 40.0157L109.322 51.4668L70.0469 52.5254L83.0477 40.5382L116.494 40.0157Z" fill="#E9FFE0"/>
<path d="M67.3996 171.517L112.922 170.671L108.608 65.1523L108.248 55.8955L65.0513 57.1792L64.5293 64.0303L67.3996 171.517Z" fill="#E9FFE0"/>
<path d="M132.391 172.366L185.635 169.171L180.167 26.0825L177.472 20.0811L132.391 22.5659V32.1503V172.366Z" fill="#E9FFE0"/>
<path d="M187.057 7.30193L178.18 17.2413H134.164L146.588 3.7522L187.057 7.30193Z" fill="#E9FFE0"/>
<path d="M60.5426 60.2074C60.5426 58.4561 60.5426 57.1252 60.5426 55.7942C60.5779 53.3425 60.825 52.8871 63.2257 52.2917C64.179 52.0465 64.8144 51.5562 65.4499 50.8907C69.6865 46.1973 74.735 42.4496 79.8188 38.7019C81.5135 37.441 83.3493 36.8106 85.4676 36.7055C89.9865 36.5304 94.4702 36.2852 98.9892 36.1101C104.179 35.8999 109.333 35.7248 114.523 35.5497C116.218 35.4796 117.912 35.5497 119.572 35.3395C121.302 35.1644 122.573 35.6898 123.844 36.8456C124.761 37.6862 125.15 38.5618 125.256 39.7527C126.103 48.7542 126.95 57.7907 127.833 66.7921C127.868 67.2475 127.939 67.6678 128.257 68.1231C128.292 66.6871 128.363 65.216 128.363 63.78C128.363 50.0151 128.363 36.2852 128.363 22.5203C128.363 21.7498 128.468 20.9092 128.221 20.1736C127.692 18.6675 128.257 17.5467 129.21 16.496C131.363 14.0792 133.552 11.6625 135.741 9.24577C137.471 7.35441 139.307 5.49808 140.966 3.53667C142.52 1.71536 144.497 0.83973 146.827 0.559529C152.44 -0.0709242 158.054 -0.281075 163.702 0.244302C166.739 0.524504 169.775 0.83973 172.776 1.26003C177.718 1.96054 182.661 1.99556 187.639 1.89049C189.475 1.85546 191.205 2.24074 192.97 2.55596C194.135 2.76611 194.735 3.50164 194.806 4.62245C195.017 7.52954 195.265 10.4366 195.37 13.3087C195.688 22.6954 195.865 32.0822 196.253 41.4689C196.747 53.2024 197.383 64.9008 197.948 76.6342C198.301 84.1296 198.548 91.59 198.866 99.0853C199.219 107.001 199.607 114.952 199.925 122.867C200.137 128.226 200.172 133.585 200.313 138.979C200.419 143.007 200.596 147.035 200.772 151.028C200.843 152.639 200.56 154.11 199.784 155.546C196.853 160.975 193.958 166.404 191.063 171.833C190.746 172.428 190.357 172.988 189.898 173.479C189.227 174.214 188.168 174.53 187.462 173.934C185.979 172.603 184.32 172.918 182.661 172.988C174.894 173.339 167.127 173.724 159.36 174.109C151.028 174.53 142.696 174.915 134.364 175.3C134.152 175.3 133.905 175.3 133.694 175.3C130.622 175.335 128.892 173.829 128.751 170.712C128.61 168.05 128.645 165.353 128.645 162.656C128.645 160.66 128.645 158.628 128.61 156.632C128.61 156.246 128.468 155.826 128.398 155.441C127.48 155.441 127.374 156.071 127.127 156.492C124.726 160.555 122.325 164.582 120.031 168.68C119.219 170.116 118.583 171.693 117.912 173.234C117.701 173.724 117.63 174.319 117.418 174.845C116.959 175.896 116.006 176.491 114.982 176.071C113.464 175.44 111.911 175.545 110.322 175.545C98.389 175.545 86.4208 175.545 74.4879 175.475C71.3458 175.475 68.239 175.195 65.0969 175.02C64.073 174.95 63.4023 174.284 63.1904 173.374C62.9786 172.533 63.0139 171.587 62.9786 170.712C62.8727 167.7 62.8374 164.687 62.7315 161.675C62.7315 161.605 62.6256 161.5 62.555 161.43C62.0254 161.08 61.7429 161.57 61.4605 161.85C58.7774 165.038 56.0942 168.19 53.4817 171.412C52.6697 172.463 52.0342 173.654 51.434 174.845C50.7985 176.106 49.8453 176.701 48.5038 176.771C47.7271 176.806 46.9151 176.771 46.1384 176.771C34.9821 176.176 23.8259 176.106 12.6697 176.491C10.1984 176.561 7.72706 176.736 5.25574 176.841C4.69087 176.841 4.126 176.876 3.56113 176.841C1.7959 176.666 0.877985 175.825 0.807376 174.039C0.736767 172.043 0.913289 170.011 0.983898 168.015C1.16042 162.656 1.30164 157.297 1.47816 151.938C1.83121 141.116 2.21956 130.258 2.5726 119.435C2.92565 108.717 3.20808 97.9645 3.52582 87.2468C3.52582 86.2311 3.70234 85.2504 3.70234 84.2347C3.70234 82.5535 3.70234 80.8722 3.45521 79.2611C3.20808 77.79 3.73765 76.9144 4.9027 76.1789C6.5267 75.1631 8.11541 74.1124 9.73941 73.0967C15.4587 69.5241 21.1781 65.9515 26.8974 62.3439C29.1569 60.9079 31.5576 60.3125 34.276 60.3475C42.043 60.4175 49.8453 60.3125 57.6123 60.2774C58.4949 60.2774 59.3775 60.2774 60.7191 60.2774L60.5426 60.2074ZM177.612 21.7498C175.247 21.1894 168.398 21.0843 155.406 21.5046C148.027 21.7498 140.613 21.3645 133.34 22.065C133.164 22.5203 133.023 22.6954 132.987 22.9056C132.917 23.466 132.917 24.0264 132.917 24.5868C133.023 72.9916 133.129 121.396 133.27 169.801C133.27 169.906 133.27 170.011 133.34 170.116C133.376 170.221 133.482 170.292 133.764 170.642C136.871 170.817 140.225 170.397 143.543 170.291C146.933 170.221 150.287 169.976 153.676 169.801C157.171 169.626 160.666 169.486 164.126 169.311C167.515 169.171 170.869 169.031 174.258 168.855C177.577 168.68 180.931 168.61 184.461 168.085C184.461 166.824 184.497 165.703 184.461 164.617C184.25 159.153 184.002 153.69 183.755 148.191C183.12 134.566 182.484 120.941 181.884 107.351C181.531 99.4356 181.249 91.4849 180.896 83.5692C180.331 71.4155 179.731 59.2267 179.201 47.073C178.883 39.8227 178.601 32.5725 178.248 25.2873C178.177 24.0964 178.495 22.8005 177.612 21.7498ZM108.168 56.6699C107.498 56.3897 107.286 56.2495 107.109 56.2495C94.0466 56.4247 80.9839 56.6348 67.9212 56.81C67.3564 56.81 66.7915 56.915 66.2619 56.9501C66.156 56.9501 66.0501 57.0201 65.9442 57.0551C65.8383 57.1252 65.803 57.2303 65.3793 57.6506C65.6264 57.3353 65.5205 57.4404 65.4852 57.5105C65.4146 57.7206 65.3087 57.9308 65.3087 58.1409C65.8736 90.7493 66.4737 123.358 67.0739 155.966C67.1445 160.66 67.3917 165.353 67.5329 170.011C67.5329 170.116 67.5682 170.221 67.6388 170.327C67.7094 170.432 67.8153 170.467 67.9565 170.642C68.1684 170.677 68.4861 170.817 68.8038 170.817C82.7844 170.817 96.7297 170.852 110.71 170.852C111.24 170.852 111.769 170.642 112.476 170.502C111.028 132.429 109.581 94.5321 108.168 56.5998V56.6699ZM45.9618 172.008C46.1737 171.622 46.3855 171.447 46.3502 171.237C45.4323 141.746 44.5143 112.255 43.5964 82.7636C43.5964 82.3433 43.4199 81.923 43.2787 81.1875C39.4305 81.0824 35.6176 81.1524 31.84 81.1174C27.8859 81.1174 23.9671 81.0824 20.013 81.1174C16.2001 81.1524 12.4226 80.9423 8.53906 81.2925C8.39784 81.888 8.22132 82.3083 8.22132 82.7286C7.2681 112.22 6.35018 141.711 5.43227 171.202C5.43227 171.377 5.60879 171.587 5.85592 172.043C10.1984 172.148 14.6467 171.692 19.1304 171.657C23.6494 171.657 28.1331 171.657 32.652 171.657C37.1357 171.657 41.5841 172.218 45.9618 171.973V172.008ZM186.544 6.72396C185.697 6.65391 185.132 6.61888 184.603 6.58386C180.79 6.37371 176.977 6.23361 173.164 5.95341C170.128 5.70823 167.127 5.18285 164.126 4.93767C158.618 4.48235 153.111 4.48235 147.603 5.14783C146.191 5.32295 145.097 5.84833 144.108 6.89908C141.249 9.91125 138.354 12.8534 135.494 15.8655C135.247 16.1457 135.141 16.566 134.823 17.2315C149.792 17.0214 164.373 16.8112 178.813 16.6011C182.626 12.9234 185.167 9.66607 186.58 6.68893L186.544 6.72396ZM116.112 40.243C114.876 40.243 114.347 40.243 113.782 40.243C108.274 40.4182 102.767 40.5933 97.2593 40.8034C93.4464 40.9435 89.6335 41.1887 85.7853 41.3639C84.5143 41.4339 83.3493 41.7491 82.3608 42.5547C78.9362 45.2516 75.4764 47.9486 72.0166 50.6455C71.5929 50.9958 71.0986 51.346 71.6282 52.1866C84.0201 51.9415 96.4826 51.6963 109.086 51.4511C111.346 47.8435 113.57 44.2709 116.112 40.243ZM13.6229 75.6885C13.6935 75.8987 13.7641 76.1088 13.7994 76.354C14.4349 76.424 15.0704 76.4941 15.7059 76.4941C18.9539 76.4941 22.2372 76.4941 25.4852 76.4941C31.0986 76.4941 36.7121 76.4941 42.3255 76.4941C43.4905 76.4941 44.479 76.284 45.3264 75.3733C48.1507 72.3611 51.0457 69.419 53.9407 66.4068C54.2937 66.0216 54.788 65.6363 54.3996 65.0058C54.1878 64.9358 53.976 64.8307 53.7641 64.8307C46.8091 64.8307 39.8188 64.9008 32.8639 64.9008C31.6988 64.9008 30.675 65.286 29.6865 65.8464C27.2858 67.2825 24.8497 68.6485 22.449 70.1195C19.4835 71.9408 16.5532 73.7972 13.6229 75.6185V75.6885ZM61.8489 129.732C61.8489 127.176 61.8489 124.619 61.8489 122.027C61.8489 121.536 61.5311 121.081 61.3546 120.556C58.9892 122.027 53.517 126.72 49.81 130.398C49.8806 133.445 49.9865 136.702 50.0925 139.925C50.0925 140.1 50.3396 140.24 50.4808 140.415C52.4932 139.329 58.5655 133.62 61.8489 129.732ZM61.4252 104.164C60.8603 104.164 60.7191 104.129 60.6485 104.164C56.8356 106.791 53.4817 109.908 50.3396 113.271C49.6335 114.041 49.2098 114.882 49.2805 115.967C49.3864 118.314 49.4217 120.661 49.5276 123.008C49.5276 123.288 49.81 123.568 49.9512 123.848C50.2337 123.778 50.5161 123.813 50.6573 123.673C54.2937 120.346 57.9301 116.983 61.4605 113.726V104.094L61.4252 104.164ZM126.809 128.787C126.209 129.347 125.679 129.732 125.256 130.223C123.632 132.079 122.008 133.9 120.454 135.827C119.007 137.648 117.63 139.574 116.253 141.431C116.253 143.883 116.253 146.334 116.324 148.751C116.324 149.136 116.571 149.487 116.783 150.082C120.737 145.213 124.514 140.555 128.327 135.897C129.033 133.375 127.656 131.273 126.809 128.787ZM191.205 35.5146C191.487 29.4553 191.205 24.3766 190.463 22.6954C190.287 22.8005 190.039 22.8355 189.898 23.0107C187.427 25.8127 185.485 28.9649 183.791 32.2223C183.402 32.9578 183.296 33.9385 183.296 34.7791C183.367 37.5811 183.579 40.3481 183.72 43.1501C183.72 43.5704 183.72 44.0608 184.391 44.0958C186.58 41.2938 188.804 38.4918 191.169 35.4796L191.205 35.5146ZM114.806 108.577C114.912 111.624 115.017 114.391 115.159 117.158C115.159 117.614 115.441 118.069 115.618 118.629C119.572 114.917 122.255 110.504 125.785 106.791C126.138 106.441 126.244 105.775 126.244 105.25C126.244 103.499 125.997 101.782 125.432 99.7858C121.513 102.413 118.442 105.67 114.77 108.542L114.806 108.577ZM115.724 133.375C115.935 133.445 116.182 133.55 116.394 133.62C116.818 133.13 117.277 132.639 117.701 132.149C119.96 129.522 122.255 126.895 124.514 124.268C125.185 123.498 125.821 122.727 126.421 121.922C126.668 121.571 126.844 121.151 126.986 120.731C127.056 120.521 127.056 120.276 127.021 120.065C126.95 118.174 126.915 116.283 126.809 114.391C126.809 114.216 126.597 114.041 126.491 113.866C126.385 113.866 126.244 113.761 126.209 113.796C122.714 117.579 119.254 121.326 115.653 125.249C115.406 127.841 115.724 130.573 115.759 133.34L115.724 133.375ZM124.444 85.2154C121.443 87.1418 119.113 89.0331 116.959 91.0996C115.147 92.8509 114.276 94.964 114.347 97.4392C114.382 98.665 114.453 99.8909 114.558 101.082C114.594 101.467 114.806 101.852 115.053 102.693C118.195 99.7508 121.266 97.229 124.055 94.392C124.55 93.8666 124.973 93.026 124.973 92.3255C125.009 90.1189 124.973 87.9123 124.408 85.1803L124.444 85.2154ZM61.8489 136.597C60.1542 137.858 58.9892 139.084 57.7535 140.17C56.5885 141.221 55.4587 142.271 54.2584 143.287C52.9874 144.373 51.7165 145.424 50.3749 146.509C50.5161 149.627 50.3749 152.674 50.7279 155.686C51.8577 155.826 52.0342 155.056 52.4579 154.6C54.5761 152.148 56.6238 149.662 58.7421 147.21C59.8365 145.949 61.4252 144.898 61.9548 143.462C62.5196 141.886 62.1313 139.96 62.096 138.173C62.096 137.858 61.9901 137.543 61.8136 136.597H61.8489ZM195.229 124.444C194.523 124.689 194.241 124.689 194.135 124.829C192.228 127.176 190.322 129.522 188.521 131.939C188.027 132.604 187.851 133.62 187.851 134.461C187.851 137.368 188.027 140.275 188.133 143.182C188.133 143.567 188.415 143.918 188.663 144.548C189.934 143.217 190.498 141.711 191.346 140.415C191.911 139.574 192.299 138.629 193.005 137.893C193.641 137.193 194.558 136.737 195.229 136.282V124.479V124.444ZM60.7897 89.5235C60.2955 89.9087 59.7306 90.1889 59.3069 90.6443C56.1648 94.1118 53.058 97.6143 49.8806 101.082C49.2451 101.782 48.9274 102.553 48.998 103.499C49.0333 104.374 48.998 105.285 49.0333 106.16C49.0333 106.721 49.0333 107.281 49.7394 107.456C53.5876 104.059 57.4358 100.696 61.2134 97.4041C61.2134 94.9173 61.2134 92.5707 61.2134 90.259C61.2134 90.0839 61.0016 89.9087 60.7897 89.5235ZM189.227 164.057C189.475 164.057 189.686 164.092 189.934 164.127C190.781 162.586 191.628 161.045 192.511 159.469C195.123 154.705 196.241 149.65 195.865 144.303C195.865 143.918 195.618 143.567 195.512 143.182C195.194 143.322 195.088 143.322 195.017 143.392C192.546 146.264 191.346 149.977 188.91 152.884C188.733 153.094 188.698 153.514 188.733 153.83C188.91 157.227 189.086 160.66 189.263 164.057H189.227ZM113.535 74.3926C113.782 74.5327 114.029 74.6728 114.241 74.8479C117.1 71.9058 120.101 69.1388 123.032 65.9165C122.89 63.9551 122.784 61.8536 122.608 59.7521C122.573 59.2617 122.608 58.5962 121.69 58.4561C118.76 61.083 116.041 63.9901 113.499 66.7221V74.4276L113.535 74.3926ZM192.087 53.5876C192.017 51.5212 191.946 48.544 191.84 45.5318C191.84 44.9714 191.699 44.4461 191.593 43.8857C191.558 43.7105 191.31 43.5704 191.063 43.2902C187.886 46.0572 186.509 50.0151 184.25 53.3425C184.355 55.479 184.426 57.5805 184.532 59.682C184.532 60.1724 184.391 60.8378 184.956 60.9079C187.215 58.5962 189.369 56.3546 192.052 53.5526L192.087 53.5876ZM120.949 42.5547C120.454 42.975 120.031 43.1852 119.819 43.5004C117.63 46.8628 115.441 50.2252 113.323 53.6577C112.476 55.0237 112.723 58.1059 113.605 60.0673C115.159 58.9115 116.253 57.3353 117.595 56.0044C119.007 54.6034 120.419 53.1673 121.867 51.6963C121.69 48.6841 121.867 45.707 120.949 42.5547ZM194.629 107.772C193.817 108.402 193.429 108.577 193.182 108.892C192.158 110.048 191.134 111.239 190.145 112.465C188.145 114.94 187.192 117.742 187.286 120.871C187.286 121.887 187.286 122.867 187.427 123.848C187.427 124.198 187.709 124.514 187.992 125.074C189.228 123.673 190.145 122.412 191.275 121.361C192.405 120.346 193.711 119.54 195.123 118.524C194.982 115.232 194.841 111.834 194.664 107.737L194.629 107.772ZM60.6485 75.8987C57.1181 80.1367 54.0466 83.8144 50.9751 87.527C50.5514 88.0524 50.2337 88.6478 49.81 89.1732C48.3272 90.9945 48.5038 92.991 48.8568 95.0224C49.1745 95.0224 49.3158 95.0574 49.3864 95.0224C53.0227 91.0646 56.6591 87.1418 60.2602 83.1489C60.5426 82.8337 60.8956 82.4134 60.9309 82.0281C61.1075 80.1717 61.2487 78.3154 60.6838 75.8987H60.6485ZM192.899 75.8987C192.44 76.2139 192.052 76.389 191.805 76.7042C190.11 78.6306 188.486 80.6271 186.791 82.5535C185.909 83.5342 185.591 84.6199 185.697 85.9159C185.838 87.9123 185.874 89.9087 185.979 91.9402C185.979 92.3255 185.874 92.8509 186.65 93.026C188.804 90.1539 190.993 87.2118 193.323 84.0946C193.323 81.923 193.323 79.4712 193.323 77.0195C193.323 76.7393 193.146 76.424 192.97 75.8987H192.899ZM123.455 72.221C119.748 75.1982 117.065 78.2804 113.994 80.6971C113.994 82.4834 113.994 84.0245 113.994 85.6006C113.994 86.091 113.958 86.7565 114.77 86.8966C117.877 84.4098 121.019 81.923 124.161 79.4012C123.949 77.2296 123.738 75.1281 123.455 72.2561V72.221ZM194.205 100.696C194.064 98.1747 193.923 95.2676 193.711 92.3955C193.711 92.2904 193.393 92.1854 193.04 91.9752C191.734 93.3062 190.746 94.9173 189.651 96.4584C187.274 99.8209 186.262 103.51 186.615 107.526C186.615 107.877 186.897 108.227 187.109 108.822C189.51 106.055 191.699 103.499 194.17 100.661L194.205 100.696ZM192.758 69.2439C192.652 66.5119 192.581 63.9901 192.476 61.4333C192.476 61.2582 192.228 61.1181 191.981 60.8028C191.664 61.013 191.24 61.1531 190.957 61.4683C189.722 62.7292 188.486 64.0251 187.286 65.3561C185.626 67.2124 184.391 69.2089 185.026 71.9408C185.309 73.0967 185.132 74.3576 185.203 75.5834C185.203 75.9687 185.415 76.319 185.591 76.9144C188.345 74.5677 189.51 71.1703 192.723 69.2439H192.758ZM128.257 143.918C127.904 144.128 127.551 144.233 127.339 144.443C123.985 148.366 120.772 152.359 118.018 156.737C116.571 159.048 116.465 160.484 117.453 163.847C117.912 163.181 118.336 162.726 118.654 162.166C120.525 158.838 122.29 155.511 124.232 152.219C125.185 150.572 126.174 148.926 127.445 147.56C128.539 146.404 128.751 145.389 128.257 143.918ZM48.7509 82.8337C50.0925 81.7128 50.9751 80.3118 52.0342 79.0509C54.788 75.8636 57.0121 72.186 60.2249 69.349C61.0722 68.5784 60.7897 67.5977 60.472 66.6871C60.1895 66.6871 60.0483 66.687 59.9777 66.7221C56.3414 70.5048 52.705 74.2875 49.1039 78.1053C47.833 79.4362 47.8683 79.9616 48.7156 82.8337H48.7509ZM51.2575 166.719C51.8224 166.194 52.2107 165.948 52.4579 165.633C55.494 161.78 58.5655 157.928 61.5664 154.075C61.8842 153.655 62.2019 153.129 62.3431 152.604C62.5196 151.973 62.6256 151.273 61.6723 150.958C57.5417 154.705 54.4702 159.364 50.7279 163.742C50.8692 164.582 51.0457 165.493 51.2575 166.754V166.719ZM190.604 10.1214C187.886 13.3787 185.626 15.9706 183.438 18.6325C182.025 20.3137 182.626 22.065 183.261 24.2365C184.709 22.3102 185.909 20.734 187.074 19.1229C188.015 17.862 189.192 16.8229 190.604 16.0056V10.1214Z" fill="#45474B"/>
<path d="M43.8018 81.0408H8.20148L5.50586 171.928H23.4405H46.6342L43.8018 81.0408Z" fill="#E9FFE0"/>
<path d="M54.4571 64.5895H31.6679L13.3287 75.1075V76.5909L43.8018 77.2651L54.4571 65.6683V64.5895Z" fill="#E9FFE0"/>
</g>
<defs>
<clipPath id="clip0_3427_8187">
<rect width="200" height="176.842" fill="white" transform="translate(0.660156)"/>
</clipPath>
</defs>
</svg>
