<svg width="189" height="230" viewBox="0 0 189 230" fill="none" xmlns="http://www.w3.org/2000/svg">
<g clip-path="url(#clip0_3427_8097)">
<path d="M54.7883 69.1792C48.3083 75.648 45.4883 94.036 44.8883 102.421V122.188L39.4883 139.258L35.8883 156.328L30.4883 168.008L44.8883 174.297L65.5883 185.977H76.3883L90.7883 168.008C99.1883 162.018 117.428 149.32 123.188 146.445C130.388 142.852 133.088 132.07 144.788 122.188C154.148 114.281 152.288 89.5443 150.188 78.1641C148.988 73.0728 140.468 60.3745 115.988 50.312C85.3883 37.7339 62.8883 61.0933 54.7883 69.1792Z" fill="#FFE792"/>
<path d="M82.7514 182.764C83.235 184.8 83.7185 186.594 84.0639 188.423C84.5129 190.838 84.5475 193.219 83.9949 195.634C83.3731 198.429 82.1297 200.844 79.8156 202.535C78.5722 203.467 77.8814 204.536 77.7087 206.054C77.6051 206.917 77.2942 207.779 77.0179 208.608C74.4965 216.198 68.6593 220.477 60.6462 220.615C59.4373 220.615 58.2284 220.477 57.0195 220.373C55.9488 220.27 54.8435 220.132 53.5656 219.994C52.8057 221.236 52.0804 222.443 51.3205 223.651C50.5606 224.859 49.8353 226.101 48.9373 227.205C47.2103 229.344 44.8962 230.31 42.2021 229.862C37.2975 229.068 32.4965 227.929 27.9718 225.721C22.2037 222.892 17.5755 218.752 13.4998 213.887C13.0162 213.3 12.5672 212.679 12.1528 212.023C10.9784 210.126 10.633 208.125 11.4965 206.02C12.1182 204.502 12.8781 203.018 13.638 201.569C14.2251 200.396 14.9159 199.292 15.5722 198.084C14.8468 197.118 14.156 196.255 13.4998 195.358C11.9455 193.323 10.7021 191.149 9.90769 188.699C8.21525 183.662 8.90604 178.9 11.8419 174.518C13.0162 172.793 14.5014 171.309 15.9866 169.826C16.781 168.998 17.4028 168.273 17.5064 167.031C17.8863 163.27 19.9241 160.51 22.9291 158.336C24.9324 156.921 27.1429 155.921 29.457 155.231C30.5968 154.886 31.7712 154.61 33.1528 154.23C33.6363 152.85 34.1889 151.435 34.6725 149.986C37.0212 142.395 38.4028 134.598 39.3699 126.696C40.0606 121.003 39.9225 115.276 40.1988 109.548C40.8551 95.6088 42.9965 81.9799 49.9044 69.4897C53.2893 63.348 57.2958 57.724 62.5804 53.1005C78.5031 39.1611 96.36 36.2973 115.737 44.6472C122.99 47.7525 129.863 51.9274 136.322 56.4819C146.96 63.9691 153.73 74.1476 156.113 87.0174C157.771 95.7813 156.839 104.338 154.006 112.722C150.242 123.936 143.645 133.321 135.079 141.36C132.765 143.534 130.312 145.639 127.722 147.502C123.439 150.607 119.156 153.678 114.597 156.335C104.649 162.131 95.6692 169.205 87.5524 177.382C85.86 179.107 84.3057 180.936 82.7169 182.661L82.7514 182.764ZM36.7103 222.098C36.7103 222.098 36.9866 222.098 37.0212 222.064C38.3682 219.89 39.7153 217.682 41.0278 215.474C41.0278 215.405 40.8205 215.198 40.6824 215.06C38.9899 216.785 37.4356 219.614 36.7794 222.202C36.6067 222.236 36.2958 222.271 36.2613 222.34C36.1922 222.581 36.1922 222.892 36.1922 223.168C36.3995 223.03 36.6412 222.892 36.7449 222.685C36.8139 222.547 36.7103 222.305 36.6758 222.133L36.7103 222.098ZM96.4981 118.588C97.5689 117.346 98.5705 116.207 99.5722 115.034C102.163 111.998 104.926 109.169 108.207 106.857C109.727 105.787 111.35 104.752 113.077 104.131C117.74 102.406 122.057 104.959 123.094 109.824C123.508 111.756 123.094 113.551 122.23 115.276C120.261 119.313 117.256 122.211 112.973 123.729C109.036 125.109 104.995 125.351 100.919 124.73C99.9521 124.592 98.985 124.385 97.9488 124.212C97.258 125.006 96.5672 125.73 95.9801 126.489C91.1791 132.942 86.4817 139.463 82.5442 146.501C77.2597 155.921 72.0442 165.375 66.8287 174.829C65.7235 176.864 64.6873 178.935 63.6856 181.005C63.2021 181.971 62.5458 182.902 62.6495 184.076C65.5508 186.008 70.3863 187.284 74.6001 187.25C77.3287 181.66 81.4735 177.106 85.8945 172.793C93.735 165.133 102.404 158.578 111.73 152.815C115.391 150.573 119.018 148.261 122.541 145.846C128.136 142.05 133.11 137.565 137.531 132.458C142.781 126.386 146.926 119.692 149.551 112.101C152.797 102.716 153.592 93.1935 150.656 83.5326C146.684 70.5248 138.015 61.5884 126.029 55.6193C124.855 55.0327 123.646 54.4461 122.541 53.7906C120.572 52.6175 118.707 51.1683 116.669 50.1332C103.959 43.6466 90.9718 42.6805 77.7778 48.4771C70.2481 51.7894 64.2037 57.0339 59.2301 63.5206C53.3238 71.1458 49.7317 79.8407 47.3485 89.0876C45.3797 96.7474 45.1379 104.545 44.8271 112.343C44.5508 118.83 44.2399 125.316 43.3074 131.768C42.2021 139.394 40.6478 146.95 38.0574 154.23C37.0557 157.025 35.9504 159.785 34.2926 162.269C33.9472 162.787 33.7054 163.374 33.3945 163.926C36.2268 167.065 38.5064 170.481 42.3748 172.517C43.031 171.654 43.7218 170.93 44.2399 170.102C45.9669 167.41 47.7284 164.754 49.3863 162.028C53.3929 155.438 57.2958 148.779 61.3715 142.257C66.8633 133.459 71.457 124.178 75.5327 114.655C75.9126 113.758 76.1889 112.826 76.5343 111.86C75.8435 111.032 75.2218 110.273 74.6001 109.514C72.0787 106.512 70.3863 103.062 69.5228 99.2316C68.4521 94.4357 69.4537 90.0192 72.286 86.0858C72.9768 85.1197 73.9093 84.2226 74.911 83.6016C79.6083 80.6343 85.411 83.222 86.3781 88.6391C86.4817 89.2946 86.5853 89.9502 86.5508 90.6058C86.4472 92.5725 86.4126 94.5737 86.1018 96.5404C85.5491 100.129 84.4784 103.614 83.2004 107.029C82.786 108.134 82.0606 109.203 82.406 110.48C85.3419 112.722 92.6643 116.966 96.4981 118.554V118.588ZM58.4011 182.074C58.8156 181.246 59.0574 180.798 59.2991 180.315C60.5426 177.727 61.6824 175.105 62.9949 172.586C65.6199 167.617 68.4176 162.787 71.0426 157.818C77.2597 146.018 83.9949 134.563 92.1462 123.971C92.5261 123.488 93.1133 123.039 92.7333 122.073C88.7958 119.796 84.7202 117.449 80.4718 115C79.9537 116.035 79.5047 116.863 79.1248 117.76C74.9455 127.352 70.2827 136.668 64.6527 145.535C61.6478 150.262 58.7465 155.058 55.9143 159.923C53.2547 164.478 50.3879 168.929 47.2794 173.173C46.8995 173.69 46.5541 174.242 46.1051 174.932C50.1807 177.278 54.1528 179.59 58.4356 182.074H58.4011ZM72.7695 205.778C72.4587 205.744 72.1133 205.606 71.8024 205.64C65.1363 206.089 58.9537 204.329 52.8403 201.914C47.9011 199.947 43.2728 197.463 38.7827 194.668C34.3616 191.942 30.2169 188.872 26.4866 185.214C23.5508 182.35 20.9949 179.211 19.1297 175.519C18.9225 175.07 18.5426 174.725 18.0935 174.173C14.7778 177.347 13.1199 180.867 13.6725 185.249C13.7416 185.766 13.7761 186.353 14.7087 186.422C15.0195 185.973 15.3995 185.456 15.7794 184.938C16.263 184.317 16.6774 183.696 17.2301 183.144C18.059 182.35 19.1643 182.316 19.9241 182.971C20.6149 183.593 20.8222 184.455 20.3731 185.352C20.0278 186.042 19.5442 186.663 19.1643 187.319C18.2662 188.803 17.2301 190.217 16.6083 192.046C17.5409 193.15 18.4044 194.289 19.406 195.289C22.1001 198.084 25.1396 200.43 28.4899 202.397C33.4291 205.295 38.3337 208.228 43.3764 210.954C46.0705 212.403 48.9718 213.542 51.8386 214.646C53.8764 215.405 56.0524 215.922 58.332 215.957C59.5064 214.473 60.3353 212.782 61.1988 211.161C61.5442 210.471 61.9241 209.781 62.3731 209.194C62.8567 208.539 63.7893 208.366 64.4455 208.677C65.309 209.056 65.8616 209.919 65.6544 210.781C65.4126 211.713 64.9291 212.61 64.6182 213.542C64.411 214.094 63.8238 214.611 64.2728 215.301C68.8666 214.473 72.2169 210.643 72.7004 205.744L72.7695 205.778ZM35.1215 172.827C34.4998 173.242 33.9126 173.518 33.3945 173.932C32.462 174.691 31.5985 175.553 30.7004 176.347C29.3879 177.52 28.0409 177.658 27.212 176.726C26.383 175.795 26.5212 174.484 27.7646 173.242C28.5935 172.379 29.5606 171.654 30.4932 170.826C31.0458 170.343 31.5985 169.86 32.2893 169.274C31.4949 168.273 30.8386 167.376 30.1133 166.582C28.7317 165.03 28.3518 163.339 29.2843 161.407C29.457 161.027 29.7333 160.648 29.008 160.268C28.11 160.717 27.1083 161.131 26.1758 161.717C22.3074 164.167 21.0294 167.652 22.6528 171.93C23.3435 173.759 24.3797 175.484 25.4504 177.14C27.1774 179.728 29.3879 181.867 31.7366 183.869C36.6758 188.113 42.0985 191.701 47.9011 194.634C53.1166 197.29 58.5047 199.499 64.2728 200.637C66.8978 201.155 69.5228 201.293 72.1824 200.948C77.0179 200.327 79.6429 197.325 79.781 192.529C79.781 191.873 79.781 191.218 79.712 190.562C79.6429 190.079 79.8501 189.424 79.0902 189.251C76.7416 191.632 77.087 192.253 72.4587 191.528C71.7333 191.425 71.008 191.356 70.0754 191.252C69.9028 192.391 69.8682 193.357 69.6264 194.323C69.281 195.703 68.9356 197.083 68.383 198.395C68.0376 199.223 66.8978 199.533 66.1034 199.292C65.2399 199.016 64.5837 198.222 64.6182 197.325C64.6182 196.669 64.86 196.048 64.9981 195.393C65.2745 193.806 65.9307 192.218 65.5508 190.562C65.2054 190.355 64.9291 190.148 64.6182 190.045C60.5425 188.872 56.985 186.663 53.3929 184.524C51.0442 183.11 48.6264 181.798 46.2432 180.418C43.7909 178.969 41.3041 177.52 38.9208 175.967C37.5393 175.07 36.3649 173.932 35.0524 172.862L35.1215 172.827ZM36.7103 212.506C35.4324 211.644 34.3271 210.747 33.0837 210.126C28.6626 207.883 24.3797 205.433 20.4768 202.362C19.9932 201.983 19.4406 201.707 18.7153 201.293C17.8518 202.949 17.0919 204.433 16.2975 205.847C15.2613 207.71 15.3995 209.436 16.8847 210.954C19.1988 213.3 21.4439 215.715 23.8962 217.889C25.934 219.683 28.4208 220.925 31.1149 222.133C33.0491 218.993 34.8452 215.853 36.6758 212.506H36.7103ZM78.2613 106.305C78.2613 106.305 78.6412 106.029 78.7103 105.856C80.4718 101.578 81.6807 97.1269 81.957 92.4689C82.0261 91.3993 81.957 90.2607 81.7152 89.1911C81.3699 87.466 79.9537 86.7069 78.2268 87.0864C77.1906 87.2934 76.4652 87.949 75.8781 88.7771C74.3929 90.9163 73.5294 93.228 73.633 95.8848C73.8057 99.7492 75.1873 103.131 77.6741 106.098C77.7777 106.236 78.0541 106.236 78.2613 106.305ZM101.886 120.244C105.547 120.865 109.001 120.589 112.317 119.14C115.288 117.829 117.256 115.552 118.431 112.584C118.983 111.204 118.638 109.962 117.636 108.962C116.669 107.961 115.46 108.099 114.251 108.548C113.733 108.72 113.215 108.962 112.766 109.272C108.449 112.032 104.822 115.448 101.852 119.623C101.817 119.692 101.852 119.83 101.852 120.279L101.886 120.244ZM40.7514 224.962C42.5475 225.48 43.9291 225.859 45.0343 224.893C46.934 223.237 48.212 221.132 49.1445 218.579C47.7629 218.062 46.5541 217.578 45.1725 217.061C43.7218 219.683 42.3403 222.133 40.786 224.962H40.7514Z" fill="#45474B"/>
<path d="M178.395 40.6101C178.222 40.9206 178.049 41.5762 177.635 42.0592C177.117 42.6458 176.46 43.0598 175.839 43.5084C169.553 48.1664 163.232 52.7898 156.946 57.4478C156.428 57.8273 155.875 58.2414 155.322 58.5864C154.044 59.311 152.697 59.0694 152.076 58.1033C151.523 57.2063 151.696 55.9986 152.628 55.136C153.008 54.7565 153.492 54.446 153.906 54.1009C160.469 49.2705 167.031 44.4055 173.594 39.575C174.285 39.0574 175.079 38.6089 175.908 38.3674C177.186 37.9878 178.36 39.0229 178.36 40.6446L178.395 40.6101Z" fill="#45474B"/>
<path d="M104.652 28.9826C104.963 26.1878 105.274 23.4621 105.585 20.7018C106.241 14.8017 106.932 8.86709 107.588 2.967C107.657 2.41494 107.761 1.86289 107.968 1.37984C108.348 0.379241 109.35 -0.172814 110.351 -0.000296733C111.215 0.137717 111.975 0.86229 112.078 1.75938C112.147 2.51846 112.147 3.31203 112.078 4.07111C111.353 10.5233 110.593 16.9754 109.833 23.4275C109.661 25.0837 109.522 26.7054 109.315 28.3615C109.212 29.1206 109.073 29.8797 108.797 30.6043C108.521 31.4323 107.588 31.9154 106.656 31.8464C105.723 31.7774 105.032 31.1563 104.825 30.2247C104.756 29.8107 104.721 29.3621 104.687 28.9826H104.652Z" fill="#45474B"/>
<path d="M22.596 38.3678C23.0796 38.6094 23.874 38.9199 24.5993 39.3684C28.9513 41.9562 33.2687 44.5785 37.5861 47.1662C40.1421 48.6844 42.6634 50.237 45.1848 51.7897C45.8411 52.2037 46.4973 52.6178 47.0499 53.1353C47.8789 53.8944 47.9825 54.964 47.3953 55.8266C46.8082 56.7237 45.8065 57.0687 44.8049 56.6892C44.1832 56.4477 43.6305 56.1026 43.0434 55.7921C36.3772 51.7552 29.6766 47.7183 23.0105 43.6814C22.1815 43.1638 21.318 42.6118 20.6272 41.9562C19.9365 41.3006 19.8674 40.369 20.2819 39.5065C20.6618 38.7474 21.318 38.4023 22.5269 38.3678H22.596Z" fill="#45474B"/>
<path d="M189.003 135.184C189.038 136.668 188.14 137.703 186.965 137.565C186.136 137.461 185.273 137.151 184.513 136.771C181.991 135.46 179.505 134.046 176.983 132.665C172.355 130.112 167.761 127.593 163.133 125.04C162.753 124.833 162.339 124.626 161.993 124.385C160.75 123.488 160.404 122.349 161.061 121.279C161.613 120.313 162.684 119.968 163.962 120.451C164.791 120.762 165.551 121.21 166.311 121.624C168.728 122.935 171.112 124.247 173.529 125.592C177.847 127.973 182.164 130.354 186.516 132.769C187.103 133.079 187.725 133.356 188.174 133.839C188.623 134.287 188.83 134.908 189.038 135.219L189.003 135.184Z" fill="#45474B"/>
<path d="M14.4391 109.204C17.8585 109.204 21.2779 109.204 24.6974 109.204C25.5608 109.204 26.4589 109.308 27.2878 109.584C28.1858 109.86 28.7039 110.791 28.6348 111.654C28.5658 112.447 27.875 113.379 27.046 113.586C26.4243 113.724 25.7335 113.758 25.0773 113.758C17.9276 113.758 10.7434 113.689 3.59373 113.62C2.83386 113.62 2.07399 113.482 1.34866 113.275C0.485178 112.999 -0.0329141 112.068 0.00162542 111.205C0.0361649 110.377 0.726954 109.446 1.5559 109.273C2.31577 109.135 3.07564 109.1 3.83551 109.1C7.35853 109.1 10.8816 109.1 14.4046 109.1V109.239L14.4391 109.204Z" fill="#45474B"/>
<path d="M137.883 188.319C137.468 188.906 137.158 189.63 136.605 190.079C135.949 190.631 134.809 190.493 134.187 189.872C133.669 189.32 133.185 188.699 132.806 188.043C129.213 181.97 125.656 175.898 122.064 169.825C121.718 169.273 121.408 168.687 121.2 168.065C120.855 167.099 121.269 165.961 122.098 165.478C122.927 164.995 124.136 165.167 124.827 165.926C125.207 166.34 125.518 166.789 125.794 167.272C129.49 173.517 133.185 179.797 136.847 186.042C137.227 186.697 137.468 187.422 137.883 188.319Z" fill="#45474B"/>
<path d="M148.551 89.9856C148.413 95.1956 147.584 99.8536 146.202 104.408C142.023 118.037 134.873 129.906 124.719 139.947C121.196 143.466 117.258 146.502 112.802 148.745C111.939 149.194 111.006 149.573 110.039 149.849C109.072 150.125 108.001 149.435 107.656 148.538C107.311 147.71 107.518 146.744 108.278 146.157C108.796 145.743 109.383 145.433 109.97 145.157C113.873 143.259 117.362 140.74 120.47 137.773C131.626 127.042 139.225 114.242 142.886 99.1635C143.922 94.8506 144.268 90.4687 143.75 86.0522C143.681 85.5002 143.612 84.9481 143.646 84.4306C143.715 83.361 144.51 82.5329 145.511 82.4294C146.478 82.3259 147.48 82.9124 147.791 83.913C148.067 84.7411 148.24 85.6382 148.309 86.5008C148.447 87.8119 148.482 89.123 148.551 90.0201V89.9856Z" fill="#45474B"/>
</g>
<defs>
<clipPath id="clip0_3427_8097">
<rect width="189" height="230" fill="white"/>
</clipPath>
</defs>
</svg>
