<svg width="201" height="239" viewBox="0 0 201 239" fill="none" xmlns="http://www.w3.org/2000/svg">
<path d="M107.241 136.852C106.657 137.599 106.279 138.05 105.931 138.531C97.1536 150.951 88.3794 163.377 79.6087 175.81C78.7902 176.978 77.9411 178.012 76.3247 177.767C74.913 177.541 73.9718 176.374 73.6342 174.418C72.6112 168.518 71.6495 162.619 70.5651 156.741C68.4992 144.779 65.7669 132.941 62.3809 121.285C61.9614 119.923 61.5011 118.581 61.0203 117.086C59.8642 117.454 58.9742 117.71 58.1149 118.028L5.95071 137.241C5.15943 137.56 4.3456 137.82 3.51591 138.019C2.95335 138.166 2.3577 138.117 1.8264 137.881C1.2951 137.645 0.859577 137.235 0.591076 136.719C0.322575 136.203 0.236984 135.611 0.348299 135.039C0.459614 134.468 0.761248 133.952 1.20387 133.574C2.37995 132.461 3.63471 131.434 4.95838 130.502C38.1999 107.971 71.4415 85.4632 104.683 62.9797C131.916 44.545 159.146 26.1103 186.372 7.67558C189.339 5.62728 192.162 3.45608 195.057 1.33609C195.457 1.01498 195.877 0.720741 196.316 0.455316C196.693 0.201982 197.132 0.054842 197.586 0.0292801C198.039 0.00371817 198.492 0.100673 198.895 0.310007C199.299 0.519342 199.639 0.833369 199.88 1.21926C200.121 1.60515 200.253 2.04872 200.264 2.50362C200.406 4.03689 200.131 5.58 199.467 6.96892C191.743 24.5024 183.62 41.9949 176.551 59.8151C170.085 76.2015 163.456 92.5162 159.016 109.589C156.182 120.506 153.737 131.526 151.057 142.474C150.095 146.376 149.011 150.227 147.906 154.109C147.768 154.689 147.584 155.258 147.354 155.809C146.474 157.724 144.479 158.338 142.955 156.833C135.65 149.828 126.586 145.772 117.645 141.471C114.248 139.945 110.821 138.47 107.241 136.852ZM188.541 17.8761C185.543 19.6377 85.6036 119.923 84.7136 121.571C85.0205 121.725 85.3069 121.889 85.6138 122.012C99.8646 127.778 114.023 133.738 127.814 140.539C132.835 142.915 137.612 145.78 142.075 149.09C142.519 149.389 142.984 149.656 143.466 149.889C143.793 148.865 144.111 148.087 144.305 147.278C145.543 142.3 146.842 137.343 147.967 132.345C151.783 115.406 155.967 98.5485 162.351 82.3874C166.638 71.5007 170.535 60.4501 174.924 49.6146C178.945 39.7213 183.405 30.0123 187.671 20.2214C187.998 19.4636 188.254 18.6545 188.541 17.8761ZM162.965 35.7168L162.198 34.9487L65.5216 113.685C69.6751 125.709 72.2736 137.876 75.0153 150.033C75.4728 147.073 75.7801 144.092 75.936 141.102C76.2531 135.049 76.468 128.996 76.8158 122.944C76.8961 122.028 77.2212 121.151 77.757 120.404C78.5193 119.485 79.3504 118.626 80.2429 117.833C106.842 91.2053 133.41 64.615 159.947 38.0621C160.907 37.2225 161.914 36.4394 162.965 35.7168ZM23.1069 124.623L23.2808 124.992C23.6695 124.89 24.0583 124.838 24.4266 124.705C35.8913 120.506 47.3492 116.3 58.8003 112.088C59.3614 111.891 59.8866 111.604 60.3553 111.238C67.0254 105.759 73.6547 100.249 80.335 94.7899C99.3224 79.2979 118.323 63.8093 137.338 48.3241C138.187 47.6277 139.016 46.8903 139.865 46.1734L139.527 45.8047L23.1069 124.623ZM82.5345 126.416C81.1841 133.943 79.5984 163.029 80.4373 165.333L102.095 134.701L82.5345 126.416Z" fill="#3E3E3E"/>
<path d="M15.6441 238.914C14.8887 238.461 14.2099 237.906 13.6299 237.269C13.3301 236.844 13.2082 236.333 13.2871 235.831C13.366 235.33 13.6403 234.872 14.0584 234.544C14.826 233.854 15.6997 233.273 16.6512 232.819C22.2705 230.1 27.567 226.845 32.4545 223.107C33.9866 222.007 35.4759 221.968 36.5366 222.959C36.821 223.23 37.0387 223.555 37.175 223.911C37.3113 224.267 37.3629 224.646 37.3263 225.023C37.2897 225.399 37.1657 225.764 36.9629 226.091C36.76 226.419 36.4831 226.703 36.1509 226.923C34.5798 228.27 32.884 229.487 31.0831 230.56C26.6689 233.196 22.169 235.713 17.6798 238.25C17.026 238.532 16.3442 238.754 15.6441 238.914Z" fill="#3E3E3E"/>
<path d="M168.82 123.604C168.246 126.586 167.827 129.216 167.216 131.794C165.037 140.937 162.795 150.058 160.58 159.191C160.48 159.605 160.416 160.154 160.17 160.371C159.732 160.754 159.094 161.241 158.675 161.117C158.421 160.977 158.2 160.769 158.032 160.511C157.864 160.253 157.753 159.953 157.709 159.636C157.713 158.776 157.852 157.924 158.119 157.12C159.587 151.415 161.164 145.73 162.513 140.005C163.697 135.014 164.627 129.951 165.675 124.919C165.709 124.323 165.858 123.743 166.113 123.221C166.307 122.944 166.548 122.715 166.823 122.548C167.097 122.381 167.398 122.278 167.708 122.247C168.173 122.33 168.501 123.21 168.82 123.604Z" fill="#3E3E3E"/>
<path d="M66.9674 193.199C66.7135 193.948 66.4044 194.676 66.0427 195.379C63.0988 200.219 59.431 204.583 55.1662 208.32C54.7811 208.752 54.2742 209.059 53.7117 209.199C53.1492 209.339 52.5573 209.307 52.0136 209.106C51.6602 208.985 51.338 208.788 51.07 208.529C50.8019 208.27 50.5947 207.955 50.4632 207.606C50.3316 207.258 50.2789 206.885 50.309 206.513C50.339 206.142 50.451 205.782 50.6369 205.459C51.1399 204.644 51.7716 203.915 52.5075 203.301C55.6813 200.426 58.4556 197.142 60.7568 193.535C61.2126 192.792 61.7559 192.106 62.3751 191.491C62.737 191.097 63.2287 190.845 63.761 190.782C64.2933 190.718 64.8307 190.847 65.2755 191.146C65.932 191.749 66.5014 192.44 66.9674 193.199Z" fill="#3E3E3E"/>
<path d="M55.3465 85.2105C54.8396 84.7567 54.2719 84.4473 54.0692 83.9729C54.0013 83.7369 53.9861 83.4885 54.0247 83.2459C54.0633 83.0032 54.1547 82.7724 54.2922 82.5702C54.6804 82.1184 55.1479 81.7441 55.6709 81.4667L78.4901 67.0279C79.3518 66.4813 80.1628 65.8728 81.0042 65.2952C81.8456 64.7177 82.5958 64.6145 83.2648 65.4293C83.4065 65.594 83.5114 65.7879 83.5724 65.9977C83.6334 66.2076 83.649 66.4283 83.6182 66.6449C83.5873 66.8614 83.5108 67.0686 83.3938 67.2522C83.2768 67.4359 83.1222 67.5915 82.9405 67.7086C82.1802 68.3841 81.3664 68.9946 80.5075 69.5341C72.972 74.2989 65.4298 79.043 57.8809 83.7666C57.1003 84.3132 56.269 84.7051 55.3465 85.2105Z" fill="#3E3E3E"/>
<path d="M48.4488 129.168C48.1143 129.894 47.7226 130.586 47.2783 131.239C46.0031 132.771 44.6709 134.241 43.3291 135.711C38.6915 140.776 34.0508 145.831 29.4069 150.876C29.188 151.125 28.9977 151.518 28.7408 151.58C28.1032 151.746 27.2848 152.046 26.8375 151.756C26.0191 151.269 26.0857 150.265 26.6662 149.52C27.7701 148.06 28.893 146.601 30.1206 145.265C33.9271 141.207 37.7336 137.222 41.54 133.164C43.0055 131.59 44.3188 129.851 45.7938 128.299C46.027 128.101 46.2952 127.957 46.5818 127.877C46.8683 127.797 47.167 127.782 47.4591 127.833C47.7826 127.947 48.0491 128.62 48.4488 129.168Z" fill="#3E3E3E"/>
<path d="M113.389 183.359C111.83 183.257 111.162 182.339 111.496 181.319C111.855 180.357 112.306 179.426 112.844 178.536C115.595 173.642 118.412 168.758 121.141 163.864C121.776 162.743 122.355 161.58 122.89 160.418C122.993 160.042 123.251 159.717 123.61 159.512C123.97 159.307 124.402 159.237 124.816 159.317C125.049 159.349 125.272 159.427 125.47 159.544C125.667 159.661 125.835 159.815 125.963 159.997C126.09 160.178 126.174 160.382 126.209 160.595C126.244 160.809 126.228 161.026 126.164 161.234C125.984 162.061 125.669 162.859 125.228 163.599C121.85 169.635 118.446 175.654 115.016 181.656C114.552 182.283 114.006 182.855 113.389 183.359Z" fill="#3E3E3E"/>
<path d="M105.182 170.396C104.627 169.456 104.101 168.917 104.004 168.283C104.035 167.677 104.235 167.095 104.578 166.614C107.07 161.904 109.582 157.182 112.103 152.493C112.716 151.352 113.378 150.243 114.05 149.176C114.615 148.331 115.364 147.772 116.318 148.532C117.272 149.293 117.009 150.053 116.571 150.877C113.466 156.633 110.361 162.4 107.207 168.114C106.609 168.952 105.93 169.716 105.182 170.396Z" fill="#3E3E3E"/>
<path d="M7.64006 153.729C6.21222 153.668 5.58201 152.712 5.96605 151.695C6.14498 151.32 6.38103 150.977 6.66519 150.679C9.57996 147.242 12.5013 143.805 15.4292 140.369C16.7093 138.874 17.4873 138.589 18.2947 139.25C19.1022 139.911 19.0333 140.877 17.6842 142.494C15.0058 145.707 12.3273 148.909 9.59966 152.061C8.99945 152.681 8.34326 153.239 7.64006 153.729Z" fill="#3E3E3E"/>
<path d="M172.523 104.031C173.241 101.99 173.812 100.217 174.473 98.5192C175.064 96.9489 175.721 95.3881 176.446 93.8369C176.504 93.6225 176.614 93.4208 176.77 93.245C176.925 93.0692 177.122 92.9231 177.348 92.8162C177.574 92.7092 177.824 92.6438 178.082 92.6242C178.339 92.6045 178.599 92.631 178.844 92.702C179.908 92.969 180.188 93.8369 179.695 95.0575C178.575 97.9184 177.454 100.779 176.334 103.573C176.21 103.879 176.143 104.184 175.986 104.479C175.572 105.3 174.866 105.862 173.812 105.433C173.185 105.185 172.871 104.441 172.523 104.031Z" fill="#3E3E3E"/>
<path d="M44.7462 93.9052C44.3439 94.5187 43.8694 95.0887 43.3312 95.6048C40.7217 97.4335 38.0542 99.1977 35.4099 100.983L34.946 101.317C34.0994 101.898 33.1483 102.177 32.3365 101.403C32.137 101.231 31.9841 101.019 31.8899 100.782C31.7958 100.545 31.7633 100.291 31.7949 100.041C31.8266 99.7904 31.9215 99.5503 32.0721 99.3402C32.2226 99.1302 32.4245 98.956 32.6612 98.8319C35.2128 96.91 37.8029 95.0383 40.4318 93.2168C41.055 92.785 41.8246 92.5751 42.6006 92.6251C43.2964 92.7435 43.8995 93.3781 44.7462 93.9052Z" fill="#3E3E3E"/>
<path d="M143.82 150.025L84.5603 121.322L137.338 67.6179L189.19 17.6179L163.264 81.5068L154.931 106.507L143.82 150.025Z" fill="#D5B8FF"/>
<path d="M23.4492 125.025L60.4863 111.136L118.82 64.8401L140.116 45.3956L95.6714 75.0253L23.4492 125.025Z" fill="#D5B8FF"/>
<path d="M162.337 34.2845L65.1152 113.914L75.3004 150.951L77.1523 121.322L164.189 36.1364L162.337 34.2845Z" fill="#D5B8FF"/>
<path d="M103.078 134.285L79.93 166.692V146.322L82.7078 125.951L103.078 134.285Z" fill="#D5B8FF"/>
</svg>
