<svg width="201" height="191" viewBox="0 0 201 191" fill="none" xmlns="http://www.w3.org/2000/svg">
<ellipse cx="103.552" cy="98.2989" rx="82.0069" ry="82.0069" fill="#D4F7EE"/>
<path d="M200.235 98.6063C200.405 98.6063 200.568 98.5424 200.688 98.4285C200.808 98.3147 200.875 98.1602 200.875 97.9992C200.875 97.8382 200.808 97.6838 200.688 97.57C200.568 97.4561 200.405 97.3922 200.235 97.3922H189.652C189.478 85.3461 186.575 73.4766 181.138 62.5903C175.701 51.704 167.858 42.056 158.143 34.3019L169.06 21.6812C169.466 21.2158 169.579 20.7638 169.004 20.3793L155.129 11.1111C154.241 10.5175 152.421 11.1111 151.916 11.9273L143.884 25.0202C131.269 18.6235 117.203 15.2365 102.901 15.1516V1.26271C102.884 1.11187 102.809 0.97225 102.69 0.87077C102.571 0.769289 102.417 0.713135 102.257 0.713135C102.098 0.713135 101.944 0.769289 101.825 0.87077C101.706 0.97225 101.631 1.11187 101.614 1.26271V15.1246C93.1167 15.1363 84.6598 16.239 76.4738 18.4029C60.2946 22.7637 45.7663 31.4234 34.6016 43.3611C32.1065 41.6339 29.7322 39.7548 27.4938 37.7354C26.6835 36.9664 23.2291 38.2615 24.011 39.0372C26.5911 41.5061 29.5764 43.5095 32.4337 45.6613C30.1114 48.3158 27.9587 51.0999 25.9869 53.9987L25.7666 53.857C22.7671 51.8334 19.5828 50.0998 16.5833 48.1031C15.5953 47.4286 12.2617 48.8519 13.1005 49.4117C15.7375 51.1656 18.5095 52.744 21.1821 54.4439C21.708 54.7811 23.0941 55.5366 24.4019 56.4068C22.6225 59.1902 21.0135 62.0685 19.5828 65.0275C14.7172 75.2008 12.1669 86.2336 12.0983 97.4056H1.51471C1.34505 97.4056 1.18233 97.4696 1.06236 97.5835C0.942397 97.6973 0.875 97.8517 0.875 98.0127C0.875 98.1737 0.942397 98.3282 1.06236 98.442C1.18233 98.5559 1.34505 98.6198 1.51471 98.6198H12.1196C12.2156 114.018 16.703 129.104 25.1056 142.276C41.4536 167.842 71.2141 181.758 101.614 181.454V189.866C101.605 189.951 101.614 190.038 101.642 190.119C101.67 190.201 101.716 190.277 101.777 190.341C101.837 190.404 101.912 190.456 101.994 190.491C102.077 190.526 102.167 190.544 102.257 190.544C102.348 190.544 102.438 190.526 102.521 190.491C102.603 190.456 102.678 190.404 102.738 190.341C102.799 190.277 102.845 190.201 102.873 190.119C102.901 190.038 102.91 189.951 102.901 189.866V181.434C110.468 181.257 117.983 180.194 125.276 178.27C162.827 168.341 188.905 135.295 189.638 98.6063H200.235ZM185.906 97.3922H151.518C151.321 90.7058 149.646 84.1333 146.602 78.1003C143.558 72.0672 139.213 66.7081 133.848 62.3698L156.124 36.6291C174.597 51.7794 185.245 74.1811 185.906 97.3922ZM147.758 97.3922H110.087C109.875 95.5824 109.023 93.8941 107.67 92.6029L131.773 64.7374C141.405 73.2136 147.145 84.9398 147.758 97.3922ZM165.236 21.6542C165.266 21.6772 165.3 21.6954 165.336 21.7082L165.116 21.9645C164.966 21.9645 164.824 21.9645 164.682 21.924L164.853 21.7756C164.898 21.7456 164.937 21.7066 164.965 21.6611C164.993 21.6157 165.01 21.565 165.016 21.5126L165.236 21.6542ZM153.153 23.2664C152.262 24.0775 151.416 24.9307 150.616 25.8229C149.953 25.7224 149.275 25.7756 148.64 25.978C149.493 24.7032 152.194 20.9325 153.907 18.4771C153.534 20.0535 153.29 21.6546 153.174 23.2664H153.153ZM124.494 65.3243C123.547 66.4845 122.644 67.6672 121.786 68.8724C121.196 69.5469 120.613 70.2215 120.023 70.896C119.826 70.9051 119.629 70.9254 119.434 70.9567L119.796 70.3631C121.267 68.6228 122.881 66.9499 124.494 65.3243ZM158.548 27.9545L158.463 28.0287V27.9612C158.74 27.5093 159.038 27.0438 159.344 26.5649C159.955 26.0118 160.567 25.4519 161.185 24.9055C160.815 25.6138 159.87 26.6054 158.548 27.9545ZM112.582 82.1542C112.782 82.112 112.98 82.0556 113.172 81.9855C112.617 82.6601 112.07 83.2672 111.515 83.9012L112.582 82.1542ZM103.078 99.8947C102.97 99.6209 102.914 99.3306 102.915 99.038H103.057L103.384 99.6721L103.078 99.8947ZM99.29 96.522C99.4037 96.7985 99.5103 97.0751 99.6169 97.3584H98.9061C98.7358 96.7077 98.6076 96.0476 98.5223 95.382C98.7782 95.7665 99.0412 96.1645 99.29 96.5557V96.522ZM98.4299 100.616C98.6929 101.291 98.963 101.966 99.2544 102.606C98.5579 102.337 98.3944 101.5 98.4299 100.65V100.616ZM96.9017 97.3584C96.8591 97.2235 96.8236 97.0886 96.7809 96.9537C96.8591 97.0886 96.9373 97.2168 97.0084 97.3584H96.9017ZM100.633 102.681C100.637 102.647 100.637 102.613 100.633 102.579C100.264 101.446 99.8302 100.32 99.4463 99.2067C99.5405 99.2426 99.6381 99.2697 99.7378 99.2876C99.9379 99.3343 100.143 99.3592 100.349 99.3618C100.658 100.279 101.019 101.18 101.429 102.06C101.47 102.152 101.54 102.23 101.628 102.283V102.37C101.316 102.53 100.981 102.646 100.633 102.714V102.681ZM106.021 96.6097C106.111 96.853 106.187 97.1006 106.249 97.3517H105.922C105.967 97.1196 106 96.8854 106.021 96.6501V96.6097ZM100.335 92.6299C100.335 92.8929 100.335 93.1628 100.385 93.4258C100.186 93.1695 99.9936 92.9199 99.8088 92.6636C99.9936 92.6771 100.171 92.6838 100.349 92.6703L100.335 92.6299ZM97.115 93.979C97.115 94.1678 97.115 94.3499 97.115 94.5321C97.115 94.7142 97.0723 94.9031 97.0581 95.0852C96.916 94.8828 96.7738 94.6805 96.6174 94.4849C96.7761 94.3184 96.9472 94.1628 97.1292 94.0194L97.115 93.979ZM97.0226 101.959C97.0652 102.08 97.115 102.195 97.1647 102.316C97.0573 102.216 96.9553 102.11 96.8591 101.999L97.0226 101.959ZM101.6 103.659V103.955C101.298 103.992 100.994 104.008 100.69 104.003L100.52 103.969C100.895 103.922 101.262 103.831 101.614 103.699L101.6 103.659ZM102.887 102.984C103.716 102.451 104.423 101.762 104.962 100.96C105.091 100.92 105.202 100.839 105.277 100.732C105.352 100.624 105.386 100.495 105.374 100.367C105.456 100.27 105.497 100.147 105.488 100.023C105.693 99.5462 105.824 99.0442 105.879 98.5321H106.376C106.199 100.826 104.955 102.876 102.887 103.645V102.984ZM150.154 39.2531C149.99 39.2531 149.798 39.2531 149.592 39.2868C151.056 37.8433 152.478 36.3615 153.857 34.8416L153.914 34.8888L150.154 39.2531ZM114.316 73.3851C113.289 74.7262 112.41 76.1637 111.693 77.6752L103.825 90.5388C103.519 90.4578 103.213 90.3971 102.901 90.3432V53.2094C110.056 53.4789 117.035 55.3957 123.236 58.7947C120.26 63.6559 117.287 68.5194 114.316 73.3851ZM101.614 90.2082C97.1932 90.0126 92.5446 92.468 91.6633 97.3922H53.942C53.942 72.8185 76.0118 52.9261 101.614 53.1757V90.2082ZM91.5638 98.6063C91.4074 103.166 96.0559 106.93 100.712 106.701C101.017 106.701 101.323 106.66 101.614 106.62V143.497C101.003 143.497 100.392 143.497 99.7733 143.497C74.3273 143.066 54.6528 122.027 53.9563 98.6063H91.5638ZM102.936 106.364C104.849 105.956 106.578 104.988 107.878 103.595C109.178 102.203 109.983 100.457 110.179 98.6063H147.851C147.31 122.6 128.119 142.31 102.901 143.443L102.936 106.364ZM142.378 27.489L124.658 56.4945C117.926 53.1461 110.495 51.2591 102.901 50.9699V16.7907C116.764 17.3548 130.291 21.0205 142.378 27.489ZM15.8583 94.4579C16.3259 81.739 20.0277 69.316 26.648 58.2483C26.9616 58.551 27.1399 58.957 27.1455 59.3815C27.0034 60.6025 30.6994 59.9077 30.8487 58.8689C30.9909 57.6412 29.7186 56.4607 28.3539 55.4961C30.2088 52.6165 32.2453 49.8458 34.4524 47.1992C34.8433 47.5095 35.2342 47.8333 35.6109 48.1638C36.4568 48.9058 39.9112 47.577 39.0938 46.862C38.2764 46.1469 37.4163 45.4589 36.5421 44.7979C43.682 36.8759 52.3225 30.2935 62.0165 25.3912C74.2054 19.3205 87.8412 16.3438 101.6 16.7503V50.889H101.55C75.0665 50.4371 52.6555 70.4508 50.3099 95.1392C50.2317 95.8947 50.1891 96.6434 50.1607 97.3922H15.8157C15.8157 96.441 15.8512 95.436 15.8796 94.4579H15.8583ZM52.6342 165.204C29.6048 150.128 16.3843 124.833 15.8654 98.6063H50.1465C49.8266 123.227 71.0719 143.47 96.6245 145.663C98.2788 145.801 99.9395 145.859 101.6 145.838V179.903C84.1002 179.739 67.0503 174.621 52.6342 165.204ZM142.676 169.751C130.57 176.378 116.848 179.882 102.872 179.916V145.798C126.669 144.88 147.161 127.308 151.021 104.846C151.341 102.78 151.505 100.695 151.511 98.6063H185.906C185.906 98.6738 185.906 98.7412 185.906 98.8087C185.804 113.177 181.765 127.272 174.186 139.71C166.606 152.148 155.748 162.501 142.676 169.751Z" fill="#171717"/>
</svg>
