<svg width="207" height="156" viewBox="0 0 207 156" fill="none" xmlns="http://www.w3.org/2000/svg">
<path d="M184.815 86.2927C184.907 89.1673 185.052 92.0446 185.075 94.9199C185.1 99.0123 185.278 103.116 185.316 107.213C185.365 114.194 185.716 121.16 185.959 128.132C186.036 130.311 186.139 132.489 186.21 134.669C186.276 136.456 186.19 138.247 185.951 140.02C185.896 140.409 185.812 140.792 185.7 141.168C185.627 141.421 185.489 141.65 185.301 141.831C185.113 142.012 184.882 142.139 184.631 142.199C184.22 142.318 183.793 142.367 183.368 142.342C179.795 142.176 176.215 142.229 172.645 142.502C170.48 142.677 168.316 142.898 166.165 143.217C164.816 143.416 163.46 143.558 162.108 143.744C160.462 143.969 158.817 144.215 157.171 144.449C155.904 144.627 154.637 144.798 153.37 144.976C151.724 145.207 150.079 145.448 148.432 145.671C146.953 145.871 145.473 146.058 143.993 146.233C141.497 146.526 139.001 146.846 136.497 147.079C134.333 147.281 132.162 147.388 129.992 147.511C126.761 147.693 123.525 147.837 120.292 148.034C115.615 148.333 110.938 148.626 106.265 149.015C103.25 149.271 100.228 149.415 97.2168 149.712C92.7192 150.152 88.2077 150.386 83.7062 150.73C81.8462 150.876 79.9662 150.99 78.0946 151.115C74.9922 151.321 71.8831 151.428 68.7934 151.814C67.3133 151.992 65.8163 152.021 64.3302 152.118C62.1609 152.264 59.9942 152.428 57.8301 152.61C54.6425 152.886 51.4502 153.045 48.2516 153.053C44.4587 153.065 40.6707 153.193 36.8882 153.521C35.066 153.678 33.2523 153.977 31.4325 154.192C27.5818 154.676 23.741 155.143 19.8464 155.143C17.6242 155.15 15.4289 154.676 13.4045 153.752C10.1447 152.279 8.17237 149.704 7.52743 146.093C7.17583 144.034 6.95667 141.955 6.70836 139.88C6.18644 135.504 6.14569 131.096 5.82583 126.707C5.32821 119.757 5.15469 112.779 4.86688 105.81C4.29778 92.739 3.7872 79.6651 3.24736 66.5928C3.1557 64.3732 3.06393 62.1509 2.97216 59.9286C2.8156 56.1376 2.47838 52.3612 2.1784 48.5829C2.08257 47.5534 1.94373 46.5152 1.84258 45.486C1.80338 44.9206 1.83091 44.3521 1.92459 43.7925C2.02314 43.054 2.27069 42.3436 2.65149 41.7065C3.03229 41.0693 3.53797 40.5195 4.1363 40.092C4.69527 39.6812 5.28558 39.3174 5.90141 39.004C7.7101 38.1072 9.62147 37.4494 11.5893 37.0465C13.5921 36.614 15.6206 36.3227 17.6605 36.175C20.6347 35.962 23.6001 35.602 26.5858 35.5386C29.6512 35.4683 32.71 35.3684 35.7822 35.3333C39.358 35.2946 42.9344 35.2895 46.5112 35.3181C50.8559 35.3715 55.1969 35.2696 59.5394 35.2058C62.691 35.1558 65.8417 35.0212 68.9911 34.985C77.2163 34.8888 85.4237 34.3624 93.6318 33.8522C98.0112 33.5819 102.382 33.1674 106.758 32.8154L107.521 32.7604L127.545 31.3806C130.944 31.1406 134.343 30.8707 137.741 30.5927C140.161 30.3995 142.589 30.255 145 29.9695C149.706 29.4124 154.431 29.2366 159.156 29.077C160.9 29.0163 162.646 29.0945 164.389 29.1457C165.75 29.1861 167.108 29.2812 168.468 29.3517C171.618 29.5119 174.745 29.8534 177.862 30.3073C178.534 30.4154 179.195 30.5848 179.837 30.8134C180.327 30.9712 180.766 31.2597 181.11 31.6494C181.454 32.0391 181.69 32.516 181.794 33.0315C181.988 33.7893 182.101 34.5668 182.133 35.3505C182.246 38.3577 182.37 41.3635 182.505 44.3677L183.171 59.6579C183.25 61.5643 183.372 63.4876 183.581 65.3956C183.702 66.5193 183.731 67.6559 183.796 68.7879C183.903 70.6575 183.951 72.5326 184.211 74.3916C184.281 74.9094 184.295 75.4354 184.319 75.9582L184.745 86.2826L184.815 86.2927ZM61.5158 37.0382C59.6835 37.0816 57.854 37.1904 56.0239 37.2201C52.3181 37.2763 48.616 37.2913 44.9098 37.3366C43.6336 37.352 42.356 37.4656 41.0807 37.44C36.861 37.3802 32.6499 37.5929 28.4441 37.9336C28.1042 37.9644 27.7676 38.0115 27.4282 38.0559C25.9516 38.256 24.4728 38.4644 22.9933 38.6592C21.474 38.8561 19.9487 39.0395 18.4265 39.2311L11.8306 40.05C10.1744 40.2208 8.55205 40.6526 7.02112 41.33C6.5924 41.5195 6.18074 41.7476 5.79103 42.0116C5.50955 42.2093 5.26509 42.4575 5.06953 42.744C4.81059 43.0742 4.68876 43.4948 4.73055 43.9144C4.77234 44.3339 4.97437 44.7184 5.29267 44.9842C5.61027 45.2723 5.94815 45.5362 6.3036 45.7737C6.92483 46.2281 7.56621 46.6542 8.1799 47.1199C17.1793 53.9575 26.3522 60.5443 35.6988 66.8804C47.9803 75.2169 60.5229 83.1209 73.3267 90.5923C76.9762 92.7222 80.6581 94.8014 84.3418 96.8586C86.3843 98.0225 88.5354 98.976 90.7639 99.7055C93.2299 100.541 95.8264 100.912 98.4278 100.8C100.821 100.676 103.15 99.9406 105.204 98.6622C106.08 98.1213 106.944 97.5537 107.801 96.9891C116.818 91.1231 125.429 84.6212 133.569 77.5309C139.607 72.2344 145.468 66.7367 151.271 61.1737C158.82 53.9369 166.269 46.5851 173.958 39.5023C175.415 38.1384 176.529 36.4335 177.202 34.5352C177.312 34.2503 177.4 33.9576 177.467 33.6595C177.665 32.7079 177.259 32.0461 176.324 31.8068C176.119 31.755 175.908 31.7235 175.697 31.713C175.143 31.6782 174.589 31.6243 174.038 31.633C172.037 31.6577 170.041 31.6793 168.037 31.6196C166.032 31.5598 164.039 31.6468 162.035 31.5843C158.925 31.4849 155.818 31.7155 152.707 31.6543C143.985 32.0484 135.257 32.3529 126.55 33.1201C122.566 33.4715 118.578 33.7275 114.571 34.0309C111.214 34.285 107.858 34.55 104.502 34.8124C103.229 34.9067 101.952 34.9684 100.676 35.0438C98.5488 35.1758 96.4196 35.2588 94.2996 35.5624C83.3873 36.1109 72.4614 36.7801 61.5158 37.0382ZM82.9855 149.159L82.9842 149.127C83.533 149.055 84.0808 148.957 84.6338 148.92C87.7785 148.707 90.9253 148.543 94.0602 148.155C94.1853 148.149 94.3263 148.142 94.4406 148.136C97.2478 147.945 100.053 147.768 102.857 147.558C107.404 147.216 111.947 146.85 116.494 146.501L130.256 145.459C130.469 145.448 130.681 145.413 130.894 145.394L139.289 144.569C141.704 144.327 144.121 144.079 146.538 143.826C146.623 143.822 146.705 143.804 146.803 143.793C149.261 143.53 151.718 143.242 154.176 143.012C157.273 142.719 160.374 142.475 163.473 142.209C163.739 142.196 163.98 142.151 164.235 142.127C166.948 141.859 169.66 141.553 172.375 141.331C175.479 141.081 178.563 140.691 181.65 140.317C182.033 140.279 182.407 140.177 182.757 140.012C182.907 139.95 183.04 139.852 183.146 139.727C183.252 139.602 183.327 139.453 183.367 139.293C183.407 139.133 183.409 138.966 183.374 138.805C183.338 138.644 183.267 138.495 183.164 138.368C182.922 138.067 182.654 137.789 182.362 137.538C180.614 135.934 178.637 134.67 176.597 133.49C173.789 131.866 170.977 130.245 168.196 128.568C159.855 123.531 151.77 118.102 143.751 112.541C138.588 108.954 133.401 105.406 128.056 102.104C124.746 100.06 121.394 98.0983 117.952 96.2826C117.426 96.0035 116.882 95.7499 116.339 95.5071C114.968 94.8969 113.681 95.1092 112.481 96.0022C112.24 96.1809 112.008 96.3781 111.782 96.5833C111.36 96.954 110.947 97.3324 110.531 97.7082C108.91 99.2017 107.203 100.594 105.419 101.877C104.651 102.434 103.843 102.931 103.001 103.364C101.964 103.871 100.847 104.184 99.7048 104.289C98.1302 104.468 96.5389 104.268 95.0583 103.705C94.5841 103.519 94.1096 103.324 93.6401 103.124L83.2784 98.7354C82.4985 98.3938 81.6835 98.1421 80.8482 97.9848C79.763 97.7634 78.6482 97.7275 77.549 97.8786C75.6436 98.1956 73.859 99.0515 72.3968 100.349C71.8434 100.828 71.3183 101.345 70.7987 101.866C67.2849 105.382 63.4944 108.596 59.4661 111.474C57.1893 113.103 54.9238 114.747 52.6696 116.408C45.0518 122.046 37.5753 127.879 30.096 133.707C25.233 137.5 20.3781 141.293 15.6452 145.268C15.2149 145.629 14.7818 145.986 14.3766 146.372C14.092 146.637 13.8361 146.933 13.6133 147.254C12.82 148.443 12.9791 149.584 14.0435 150.507C14.4609 150.881 14.9464 151.166 15.4724 151.347C15.9975 151.518 16.532 151.657 17.0731 151.765C19.588 152.216 22.1401 152.424 24.6962 152.387C27.7179 152.357 30.7409 152.229 33.7634 152.088C35.9315 151.978 38.0964 151.792 40.2652 151.636C41.5809 151.543 42.9032 151.481 44.2141 151.336C46.8863 151.04 49.5681 150.913 52.2466 150.769L81.2165 149.249L82.9855 149.159ZM6.66223 96.675L6.69948 96.6731L6.79114 98.8927C6.95669 102.902 7.10351 106.909 7.28757 110.914C7.4115 113.527 7.59118 116.136 7.77352 118.744C8.03815 122.484 8.31509 126.22 8.60433 129.954C8.87841 133.428 9.17643 136.9 9.46914 140.373C9.58513 141.762 9.71177 143.15 9.83574 144.539C9.85028 144.712 9.87698 144.884 9.91564 145.053C9.95571 145.257 10.0433 145.448 10.171 145.61C10.2987 145.771 10.4627 145.898 10.6491 145.981C10.8356 146.063 11.0391 146.098 11.2422 146.083C11.4454 146.068 11.6423 146.003 11.8164 145.893C12.1443 145.687 12.4506 145.446 12.7304 145.176C13.9822 144.051 15.2226 142.91 16.4715 141.78C18.1366 140.271 19.8137 138.795 21.6073 137.427L45.0278 119.528C50.4089 115.436 55.775 111.303 60.9301 106.903C65.1326 103.317 69.2873 99.674 73.6023 96.233C73.8399 96.0453 74.0657 95.8425 74.2784 95.6258C75.1092 94.7651 75.0769 94.1772 74.1606 93.4839C73.9544 93.3299 73.7394 93.1886 73.5167 93.0607C73.1887 92.8644 72.8529 92.6739 72.5198 92.4834C68.0216 89.9405 63.628 87.2178 59.3141 84.36C53.3282 80.3904 47.3398 76.4264 41.349 72.468C36.5263 69.2975 31.6563 66.2058 26.8463 63.0183C20.1185 58.6182 13.6597 53.8034 7.50529 48.6004C7.21207 48.3423 6.91176 48.1064 6.59616 47.8876C6.38744 47.7419 6.16237 47.6223 5.92567 47.5312C5.76465 47.4692 5.5886 47.4594 5.42122 47.5029C5.25383 47.5465 5.10313 47.6415 4.98939 47.775C4.77443 47.992 4.64819 48.2846 4.63662 48.5925C4.62258 49.0271 4.62738 49.4662 4.64793 49.8991C4.82482 53.6018 5.02821 57.3003 5.18371 61.0013L6.57594 94.7144L6.66223 96.675ZM181.357 56.7722C181.189 51.8819 180.959 47.134 180.762 42.3871C180.714 41.2106 180.681 40.0333 180.617 38.8603C180.608 38.5122 180.554 38.1671 180.457 37.834C180.408 37.6547 180.318 37.4903 180.194 37.3542C180.071 37.2181 179.917 37.1142 179.746 37.0512C179.575 36.9881 179.391 36.9677 179.211 36.9916C179.03 37.0154 178.857 37.0829 178.706 37.1884C178.461 37.363 178.234 37.5628 178.029 37.7847C177.602 38.213 177.191 38.6594 176.764 39.0904C173.019 42.8656 169.273 46.6417 165.526 50.4188C156.469 59.5985 147.056 68.374 137.29 76.7453C132.3 81.0036 127.211 85.136 122.125 89.2737C121.49 89.7915 120.865 90.3225 120.256 90.8718C119.966 91.1272 119.705 91.415 119.478 91.7298C118.814 92.6858 118.872 93.5889 119.649 94.4503C119.88 94.7048 120.136 94.9342 120.413 95.1349C121.037 95.5864 121.663 96.0324 122.312 96.4472C126.668 99.2292 131.052 101.977 135.385 104.793C142.979 109.736 150.543 114.731 158.127 119.697C164.993 124.194 171.949 128.55 179.091 132.575C179.91 133.036 180.689 133.567 181.488 134.059C181.771 134.25 182.068 134.418 182.378 134.56C183.435 134.992 184.384 134.407 184.49 133.236C184.537 132.757 184.517 132.275 184.431 131.803C184.227 130.512 184.136 129.205 184.16 127.895C184.149 127.113 184.144 126.327 184.13 125.542C184.019 119.833 183.659 114.131 183.769 108.413C183.814 106.146 183.814 103.88 183.832 101.612C183.829 101.527 183.846 101.439 183.845 101.352C183.869 97.8627 183.914 94.3754 183.76 90.89C183.614 87.3495 183.136 83.8613 182.791 80.35C182.546 77.8817 182.257 75.4128 182.104 72.937C181.75 67.524 181.536 62.0794 181.357 56.7722Z" fill="black"/>
<path d="M174.159 15.6088C174.134 14.9526 174.192 14.2954 174.332 13.6532C174.627 11.8336 175.33 10.1059 176.384 8.60576C177.384 7.15924 178.879 6.15096 180.568 5.784C182.258 5.41703 184.015 5.71865 185.487 6.6281C185.961 6.8863 186.342 7.29103 186.577 7.78505C186.812 8.27907 186.889 8.83738 186.797 9.38103C186.776 9.55485 186.745 9.72722 186.703 9.89708C186.273 11.8177 185.572 13.6659 184.623 15.3834C183.958 16.5619 183.123 17.6312 182.146 18.5547C181.557 19.1306 180.876 19.5981 180.132 19.9361C177.287 21.1737 175.167 19.5418 174.484 17.4052C174.386 17.1173 174.309 16.8224 174.252 16.5228C174.197 16.2221 174.185 15.9137 174.159 15.6088ZM182.339 7.56378C181.366 7.70092 180.448 8.11176 179.686 8.75056C179.222 9.13498 178.797 9.56662 178.352 9.98011C177.23 11.0206 176.537 12.4602 176.417 14.0017C176.326 14.6954 176.386 15.4 176.59 16.0656C176.704 16.4169 176.892 16.7381 177.14 17.0065C177.388 17.2749 177.69 17.4841 178.026 17.6195C178.363 17.7548 178.724 17.8131 179.085 17.7902C179.447 17.7673 179.8 17.6637 180.119 17.4868C180.606 17.2097 181.033 16.8336 181.373 16.3816C181.88 15.7295 182.314 15.0215 182.666 14.271C183.288 12.9261 183.814 11.5369 184.238 10.1147C184.351 9.7833 184.397 9.43183 184.371 9.08252C184.356 8.79691 184.262 8.522 184.102 8.28861C183.942 8.05522 183.722 7.87257 183.465 7.76114C183.113 7.5993 182.725 7.53142 182.339 7.56378Z" fill="black"/>
<path d="M191.296 22.6739C191.007 22.6639 190.496 22.6734 189.992 22.6142C189.569 22.5716 189.152 22.4809 188.749 22.3437C186.957 21.7103 186.674 20.6182 186.919 19.1225C187.033 18.5675 187.213 18.0282 187.453 17.5165C188.27 15.6012 189.533 14.0076 191.005 12.5946C191.937 11.7007 193.119 11.283 194.345 11.0599C195.101 10.9325 195.868 10.881 196.633 10.9061C197.254 10.9046 197.864 11.0748 198.398 11.3988C198.931 11.7227 199.368 12.1885 199.664 12.7471C200.058 13.3957 200.295 14.1318 200.357 14.895C200.42 15.6582 200.304 16.4269 200.021 17.1382C199.601 18.2423 198.919 19.2233 198.037 19.9921C196.167 21.6601 193.984 22.5326 191.296 22.6739ZM192.552 20.8074C192.764 20.7974 192.975 20.7721 193.184 20.7318C194.953 20.3455 196.506 19.2583 197.503 17.708C197.851 17.1549 198.067 16.5262 198.134 15.8731C198.204 15.308 198.087 14.7364 197.8 14.2509C197.582 13.8501 197.235 13.5395 196.818 13.3715C196.402 13.2035 195.94 13.1883 195.511 13.3285C194.663 13.6221 193.877 14.0822 193.198 14.6829C192.36 15.4246 191.525 16.1716 190.696 16.9238C190.501 17.0962 190.324 17.2882 190.167 17.4968C189.976 17.7338 189.842 18.0138 189.776 18.3136C189.711 18.6134 189.716 18.9243 189.792 19.2205C189.868 19.5167 190.011 19.7897 190.211 20.0167C190.411 20.2437 190.661 20.4181 190.941 20.5256C191.447 20.7559 192.001 20.8554 192.555 20.8155L192.552 20.8074Z" fill="black"/>
<path d="M160.146 10.8242C160.133 8.94882 160.364 7.5041 160.91 6.10913C161.041 5.78631 161.189 5.47112 161.354 5.16506C163.058 1.89563 167.399 1.94973 169.289 4.21704C169.968 4.99965 170.471 5.92577 170.763 6.9308C171.054 7.93582 171.128 8.99554 170.979 10.036C170.954 10.2087 170.911 10.3785 170.853 10.5429C170.049 12.9792 168.47 14.6998 166.088 15.4711C163.707 16.2423 161.762 15.11 160.806 13.2275C160.419 12.4859 160.194 11.666 160.146 10.8242ZM162.549 10.8258C162.575 11.2594 162.629 11.6906 162.709 12.1168C163.033 13.5061 164.039 14.1444 165.395 13.682C165.558 13.6341 165.717 13.5721 165.871 13.4966C166.91 12.9786 167.817 12.2158 168.515 11.2709C169.007 10.5513 169.286 9.70239 169.318 8.827C169.349 7.95162 169.132 7.08742 168.693 6.33926C168.443 5.90748 168.092 5.54621 167.672 5.2873C167.252 5.02839 166.776 4.8798 166.285 4.85462C165.794 4.82944 165.304 4.92845 164.857 5.14291C164.411 5.35738 164.022 5.68072 163.725 6.08443C163.41 6.50315 163.175 6.97912 163.033 7.48681C162.683 8.56395 162.516 9.69371 162.541 10.8262L162.549 10.8258Z" fill="black"/>
<path d="M61.4574 37.0082C72.3943 36.7509 83.3116 36.0837 94.2367 35.5413C96.3556 35.2495 98.4826 35.1559 100.608 35.0243C101.884 34.96 103.16 34.8957 104.432 34.7935C107.785 34.5456 111.139 34.2814 114.492 34.0145C118.475 33.7131 122.476 33.4571 126.462 33.1065C135.162 32.3416 143.883 32.0381 152.598 31.6452C155.704 31.7063 158.808 31.4764 161.918 31.5754C163.916 31.638 165.913 31.5537 167.916 31.6106C169.918 31.6674 171.913 31.6486 173.912 31.624C174.463 31.6153 175.017 31.669 175.569 31.7037C175.781 31.7142 175.991 31.7456 176.197 31.7973C177.128 32.0387 177.534 32.6984 177.338 33.6442C177.272 33.9414 177.183 34.2333 177.074 34.5173C176.399 36.4161 175.282 38.121 173.819 39.4833C166.136 46.5444 158.699 53.8733 151.151 61.0881C145.352 66.634 139.496 72.1148 133.463 77.395C125.329 84.4635 116.725 90.9454 107.714 96.7934C106.851 97.3566 105.987 97.9225 105.12 98.4614C103.068 99.7358 100.74 100.469 98.349 100.593C95.7496 100.704 93.1552 100.334 90.6911 99.5014C88.4644 98.7742 86.315 97.8236 84.2742 96.6633C80.5929 94.6015 76.9112 92.5289 73.2678 90.4162C60.4719 82.957 47.9364 75.0748 35.6612 66.7695C26.3273 60.449 17.1616 53.8824 8.16413 47.0698C7.55092 46.6055 6.91005 46.1807 6.28932 45.7277C5.93232 45.4912 5.59293 45.2283 5.27386 44.9409C4.95582 44.6759 4.75395 44.2926 4.71219 43.8744C4.67044 43.4561 4.79217 43.0367 5.05091 42.7076C5.24673 42.4175 5.49274 42.1663 5.7767 41.9663C6.16557 41.6994 6.57676 41.4683 7.00536 41.2759C8.53508 40.6006 10.1561 40.1702 11.811 39.9999L18.4017 39.1834C19.9228 38.9925 21.4468 38.8096 22.9649 38.6134C24.4432 38.4192 25.9209 38.2114 27.3963 38.0119C27.7354 37.9676 28.0718 37.9207 28.4114 37.89C32.6135 37.5395 36.8211 37.3247 41.038 37.3979C42.3122 37.4207 43.5889 37.3101 44.8641 37.2948C48.5674 37.2497 52.2665 37.2347 55.9694 37.1787C57.7988 37.1681 59.6266 37.0515 61.4574 37.0082ZM142.845 48.0093C143.957 47.9564 145.036 47.5894 145.96 46.949C147.15 46.1599 148.149 45.141 149.149 44.1275C149.208 44.0634 149.261 43.9943 149.308 43.9208C149.406 43.8044 149.463 43.6581 149.47 43.5054C149.477 43.3527 149.434 43.2023 149.348 43.0781C149.263 42.9797 149.151 42.9098 149.026 42.8773C148.901 42.8448 148.769 42.8512 148.648 42.8958C148.409 42.9766 148.183 43.0906 147.975 43.2344C147.656 43.4518 147.363 43.7087 147.059 43.9526C146.525 44.389 145.945 44.7607 145.328 45.0601C144.618 45.423 143.838 45.6144 143.047 45.6194C142.255 45.6243 141.475 45.4427 140.766 45.0886C140.223 44.8439 139.745 44.4762 139.236 44.1645C138.884 43.9225 138.519 43.6994 138.143 43.4959C137.799 43.3209 137.419 43.2304 137.034 43.2314C136.648 43.2324 136.268 43.325 135.922 43.5017C135.541 43.696 135.174 43.9173 134.823 44.1638C134.222 44.5777 133.638 45.0234 133.04 45.4426C132.727 45.6697 132.401 45.8778 132.065 46.0658C131.633 46.3122 131.149 46.4428 130.656 46.4452C130.164 46.4476 129.68 46.3219 129.25 46.0798C128.915 45.8943 128.59 45.6889 128.279 45.4649C127.681 45.0516 127.098 44.6184 126.498 44.2133C126.182 43.9948 125.849 43.8023 125.502 43.6378C125.179 43.4685 124.822 43.3784 124.458 43.3745C124.094 43.3707 123.733 43.4532 123.405 43.6156C122.794 43.9184 122.187 44.2483 121.608 44.6148C120.739 45.1674 119.898 45.7675 119.043 46.3439C118.369 46.8055 117.644 47.1844 116.884 47.4729C116.006 47.8218 115.064 47.9667 114.128 47.8972C113.191 47.8277 112.282 47.5455 111.468 47.0711C111.059 46.8442 110.675 46.567 110.286 46.3145C110.037 46.1475 109.8 45.9662 109.557 45.8071C108.484 45.045 107.414 45.0744 106.363 45.8701C105.952 46.1819 105.564 46.5253 105.185 46.8763C104.615 47.4029 104.074 47.9607 103.498 48.4822C101.958 49.8848 100.267 50.1441 98.4228 49.2195C98.0039 49.0094 97.5899 48.7881 97.1784 48.564C96.6932 48.2973 96.2178 48.0084 95.7275 47.7474C95.3171 47.5222 94.8952 47.3191 94.4637 47.1391C92.7711 46.4653 91.1261 46.5564 89.5903 47.6132C88.8134 48.1503 88.0876 48.7636 87.3451 49.3588C87.2138 49.4688 87.0947 49.5935 86.9903 49.7304C86.5725 50.2547 86.566 50.8074 86.9686 51.2659C87.1397 51.4631 87.3781 51.5861 87.6357 51.61C87.8933 51.6339 88.1509 51.5569 88.3563 51.3946C88.6443 51.2087 88.8981 50.9701 89.169 50.7578C89.5741 50.4409 89.9676 50.1027 90.3925 49.8119C90.787 49.5422 91.2345 49.3645 91.7027 49.2915C92.551 49.1433 93.42 49.3408 94.1228 49.8416C94.8603 50.3486 95.578 50.8919 96.3186 51.4096C98.1437 52.7079 100.038 52.7213 101.97 51.6526C102.645 51.2813 103.282 50.8356 103.944 50.4404C104.523 50.0701 105.121 49.7321 105.735 49.4278C106.426 49.0802 107.187 48.9068 107.954 48.9221C108.721 48.9374 109.473 49.141 110.144 49.5157C110.482 49.7001 110.805 49.9096 111.143 50.0912C111.777 50.4542 112.505 50.6128 113.232 50.5464C113.738 50.4909 114.247 50.4381 114.747 50.3395C116.304 50.0394 117.769 49.3608 119.02 48.3611C119.556 47.9276 120.135 47.5536 120.748 47.2456C121.491 46.8563 122.309 46.6397 123.142 46.6114C123.975 46.5831 124.802 46.7437 125.565 47.0817C126.066 47.3147 126.555 47.5762 127.028 47.865C127.396 48.075 127.745 48.3268 128.12 48.5255C128.792 48.9077 129.551 49.1021 130.322 49.089C131.093 49.0759 131.848 48.8559 132.512 48.4511C132.845 48.2602 133.161 48.0321 133.479 47.8147C133.798 47.5973 134.035 47.4058 134.326 47.2279C135.013 46.7782 135.8 46.5132 136.612 46.4575C137.424 46.4018 138.235 46.5573 138.969 46.9096C139.357 47.0832 139.733 47.2873 140.124 47.4581C140.979 47.8439 141.908 48.0321 142.845 48.0093ZM105.957 61.2299C104.87 61.2127 103.793 61.4785 102.83 62.0024C101.701 62.6246 100.665 63.4099 99.7543 64.3339C99.665 64.4273 99.5853 64.5298 99.5165 64.6398C99.4636 64.7106 99.4301 64.7945 99.4193 64.8827C99.4085 64.971 99.4209 65.0604 99.4552 65.1418C99.4895 65.2231 99.5444 65.2936 99.6144 65.3458C99.6844 65.3981 99.7668 65.4302 99.8533 65.439C100.364 65.5161 100.885 65.4008 101.321 65.1147C101.657 64.9237 101.964 64.6851 102.294 64.4835C103.038 64.0031 103.888 63.7238 104.765 63.672C105.641 63.6202 106.515 63.7977 107.302 64.1875C107.721 64.3975 108.127 64.6313 108.519 64.888C108.883 65.1091 109.229 65.3637 109.595 65.5793C110.234 65.9705 110.952 66.2104 111.696 66.2816C112.44 66.3529 113.191 66.2536 113.895 65.991C114.496 65.7679 115.081 65.4993 115.644 65.1874C116.165 64.9108 116.707 64.6277 117.257 64.3932C118.52 63.8185 119.947 63.7582 121.245 64.2249C121.405 64.2822 121.569 64.331 121.731 64.3827C122.581 64.6706 123.486 64.7567 124.376 64.6346C125.266 64.5124 126.119 64.1852 126.87 63.6776C127.691 63.1298 128.468 62.5138 129.191 61.8357C129.314 61.7159 129.422 61.5806 129.512 61.4331C129.557 61.3591 129.583 61.2746 129.587 61.1877C129.591 61.1008 129.573 61.0144 129.535 60.937C129.497 60.8596 129.439 60.7938 129.369 60.7458C129.298 60.6979 129.216 60.6695 129.131 60.6633C128.835 60.6706 128.54 60.7119 128.252 60.7865C127.098 61.0868 125.947 61.406 124.794 61.7226C123.919 61.9472 122.999 61.8752 122.172 61.5174C121.855 61.3918 121.548 61.2414 121.231 61.1186C120.656 60.8832 120.031 60.7998 119.414 60.8761C118.796 60.9524 118.207 61.1858 117.699 61.5551C117.341 61.7907 117.023 62.087 116.679 62.3465C116.312 62.6442 115.929 62.9223 115.534 63.1796C115.005 63.5134 114.408 63.718 113.79 63.7775C113.172 63.8369 112.551 63.7496 111.973 63.5223C111.461 63.3121 110.965 63.0644 110.488 62.7809C110.115 62.5739 109.769 62.322 109.41 62.0897C108.34 61.3873 107.194 61.0016 105.957 61.2299Z" fill="#FFB864"/>
<path d="M83.0582 149.192L81.2724 149.281L52.3317 150.795C49.6555 150.929 46.9768 151.064 44.3073 151.359C42.9977 151.504 41.6767 151.565 40.3623 151.658C38.1957 151.813 36.0332 152.003 33.8671 152.107C30.8481 152.259 27.8277 152.376 24.8091 152.405C22.2556 152.442 19.706 152.234 17.1937 151.786C16.653 151.679 16.1191 151.54 15.5945 151.37C15.069 151.19 14.584 150.906 14.1671 150.534C13.1042 149.626 12.9453 148.491 13.7373 147.296C13.9598 146.977 14.2155 146.683 14.4999 146.419C14.9047 146.034 15.3373 145.678 15.7672 145.32C20.4847 141.367 25.3346 137.586 30.2034 133.813C37.6855 128.004 45.1437 122.196 52.7543 116.595C55.0025 114.939 57.2657 113.302 59.5439 111.685C63.5681 108.82 67.3548 105.621 70.865 102.122C71.3762 101.604 71.9088 101.089 72.4616 100.613C73.9223 99.3207 75.7051 98.4689 77.6085 98.1534C78.7067 98.0031 79.8203 98.0388 80.9045 98.2591C81.7389 98.4157 82.5531 98.6662 83.3322 99.0061L93.6835 103.374C94.1525 103.574 94.6265 103.767 95.1002 103.952C96.5794 104.513 98.169 104.712 99.7421 104.534C100.888 104.419 102.006 104.095 103.042 103.577C103.882 103.147 104.69 102.652 105.457 102.097C107.239 100.82 108.944 99.4346 110.563 97.9481C110.979 97.5741 111.393 97.1975 111.814 96.8286C112.04 96.6298 112.272 96.4334 112.512 96.2502C113.711 95.375 114.996 95.1501 116.366 95.7575C116.909 96.0018 117.452 96.2461 117.977 96.5293C121.408 98.3368 124.756 100.29 128.071 102.323C133.411 105.61 138.592 109.127 143.75 112.711C151.753 118.246 159.838 123.652 168.171 128.663C170.949 130.332 173.758 131.945 176.563 133.561C178.598 134.736 180.573 135.994 182.322 137.59C182.614 137.84 182.882 138.116 183.124 138.416C183.226 138.542 183.298 138.691 183.333 138.851C183.368 139.011 183.366 139.178 183.326 139.337C183.287 139.496 183.211 139.644 183.105 139.769C183 139.893 182.867 139.99 182.718 140.053C182.368 140.217 181.994 140.319 181.612 140.356C178.528 140.742 175.447 141.131 172.346 141.365C169.633 141.586 166.924 141.891 164.214 142.158C163.948 142.171 163.705 142.219 163.453 142.239C160.356 142.504 157.258 142.747 154.165 143.038C151.709 143.268 149.255 143.557 146.8 143.816C146.715 143.821 146.633 143.841 146.535 143.849C144.122 144.099 141.708 144.345 139.292 144.588L130.918 145.452C130.706 145.463 130.494 145.501 130.282 145.517L116.533 146.554C111.991 146.902 107.452 147.266 102.91 147.606C100.109 147.815 97.3065 147.991 94.5022 148.181C94.3772 148.187 94.2364 148.194 94.1221 148.2C90.9904 148.586 87.8467 148.75 84.7051 148.962C84.1524 148.99 83.6055 149.096 83.0572 149.167L83.0582 149.192ZM68.0135 134.067L60.7398 134.433C60.3577 134.439 59.9763 134.476 59.5992 134.542C58.9341 134.687 58.2807 134.855 57.7214 135.305C57.6943 135.336 57.6742 135.373 57.6625 135.413C57.6508 135.453 57.6478 135.495 57.6538 135.536C57.67 135.606 57.7516 135.71 57.8103 135.713C58.1897 135.745 58.5706 135.757 58.9515 135.748C61.2449 135.632 63.5384 135.517 65.8326 135.421C69.148 135.289 72.4396 134.841 75.7431 134.55C75.8706 134.543 76.0078 134.512 76.1244 134.498C77.9789 134.266 79.8337 134.04 81.6881 133.805C83.4177 133.599 85.1492 133.398 86.8828 133.204C89.2924 132.936 91.7008 132.638 94.1152 132.422C96.1051 132.243 98.0993 132.167 100.097 132.048C100.82 132.011 101.542 131.975 102.263 131.939C102.731 131.925 103.192 131.809 103.615 131.599C103.758 131.51 103.888 131.4 104.001 131.273C104.024 131.237 104.039 131.196 104.046 131.154C104.053 131.112 104.052 131.069 104.042 131.028C104.033 130.986 104.015 130.947 103.99 130.913C103.965 130.879 103.933 130.851 103.897 130.83C103.737 130.78 103.572 130.747 103.406 130.729C102.261 130.649 101.111 130.641 99.964 130.704L91.2005 131.425C91.0729 131.431 90.9357 131.463 90.8218 131.477L87.9063 131.811L85.6246 132.08C84.0216 132.278 82.419 132.484 80.8131 132.676C79.08 132.882 77.3496 133.089 75.6157 133.277C72.866 133.562 70.1161 133.844 68.0135 134.067ZM67.7505 142.5C68.3006 142.473 68.8575 142.48 69.4035 142.417C73.5874 141.908 77.7781 141.499 81.9857 141.306C82.7484 141.268 83.5079 141.151 84.2655 141.053C85.5739 140.881 86.8785 140.682 88.1878 140.529C89.2001 140.389 90.187 140.094 91.1155 139.654C91.1937 139.619 91.2694 139.578 91.3421 139.531C91.5449 139.412 91.6777 139.148 91.6101 138.994C91.5753 138.914 91.519 138.846 91.4477 138.797C91.3765 138.749 91.2931 138.722 91.2073 138.72C90.9112 138.708 90.6136 138.726 90.3155 138.73C88.4529 138.767 86.604 139.134 84.7496 139.369C83.3561 139.545 81.9704 139.78 80.5798 139.962C79.4835 140.112 78.3877 140.273 77.2867 140.374C74.9998 140.582 72.7111 140.769 70.4207 140.937L53.2379 142.141C52.9403 142.156 52.6427 142.171 52.3486 142.208C52.0969 142.245 51.8489 142.306 51.6078 142.389C51.2482 142.516 51.0366 142.809 51.1024 143.047C51.1457 143.171 51.2287 143.275 51.3379 143.344C51.4472 143.412 51.5762 143.441 51.7039 143.425C52.1278 143.436 52.5537 143.431 52.9788 143.407C57.9015 143.118 62.8386 143.049 67.7508 142.506L67.7505 142.5Z" fill="#FFB864"/>
<path d="M6.68725 96.5127L6.6061 94.5469L5.21085 60.7474C5.05767 57.0368 4.85118 53.3289 4.6739 49.6168C4.65597 49.1826 4.63783 48.743 4.66256 48.3068C4.67762 48 4.80606 47.7098 5.02178 47.4951C5.13576 47.3613 5.28679 47.2661 5.45454 47.2224C5.62229 47.1787 5.79872 47.1886 5.96009 47.2507C6.19855 47.3435 6.42511 47.4652 6.63493 47.6134C6.95121 47.8327 7.25251 48.0774 7.54604 48.328C13.7139 53.5443 20.1867 58.3714 26.9291 62.7828C31.7496 65.9785 36.6302 69.0781 41.4634 72.2567C47.4773 76.2101 53.4787 80.1843 59.4675 84.1792C63.7908 87.0443 68.194 89.774 72.702 92.3234C73.0358 92.5144 73.3723 92.7054 73.701 92.9022C73.9242 93.0304 74.1397 93.1721 74.3463 93.3265C75.2646 94.0216 75.2972 94.6164 74.4644 95.4738C74.2512 95.6911 74.0249 95.8945 73.7869 96.0826C69.4625 99.5325 65.2987 103.185 61.0871 106.779C55.9261 111.191 50.5425 115.324 45.1502 119.437L21.6917 137.373C19.9047 138.738 18.2133 140.219 16.5448 141.737C15.2931 142.87 14.05 144.014 12.7955 145.142C12.5151 145.413 12.2081 145.654 11.8795 145.861C11.7051 145.971 11.5077 146.036 11.3041 146.052C11.1005 146.067 10.8966 146.032 10.7097 145.949C10.5228 145.866 10.3585 145.739 10.2305 145.577C10.1025 145.415 10.0148 145.223 9.97462 145.019C9.93588 144.849 9.90912 144.677 9.89455 144.503C9.77031 143.111 9.64339 141.719 9.52715 140.327C9.23381 136.845 8.93513 133.364 8.66046 129.881C8.36696 126.136 8.08942 122.39 7.82784 118.642C7.6451 116.027 7.46503 113.413 7.34083 110.792C7.14571 106.777 7.00923 102.759 6.84332 98.7402L6.75146 96.515L6.68725 96.5127ZM12.1458 79.2458C12.5251 81.9628 12.7093 84.4843 12.8403 87.0113C12.8457 87.1424 12.8649 87.2837 12.8752 87.4036C13.1743 91.219 13.5356 95.0531 13.7605 98.8832C13.9202 102.151 14.2427 105.406 14.7269 108.638C14.8594 109.452 14.9678 110.267 15.1189 111.08C15.2006 111.507 15.317 111.926 15.4672 112.332C15.5281 112.499 15.6425 112.64 15.7917 112.732C15.9409 112.824 16.1162 112.861 16.2895 112.838C16.4597 112.811 16.6178 112.73 16.7419 112.607C16.8661 112.484 16.9502 112.325 16.9825 112.152C17.0307 111.939 17.0513 111.721 17.0439 111.503C17.0273 110.718 16.9611 109.935 16.8456 109.16C16.4394 107.022 16.0254 104.887 15.7968 102.715C15.5309 100.156 15.2198 97.6029 15.0443 95.0343C14.8509 92.163 14.6841 89.2849 14.3736 86.4249C14.1442 84.2969 14.0322 82.1657 13.9387 80.0308C13.9082 79.2909 13.8775 78.5482 13.847 77.8083C13.8301 77.504 13.7864 77.2022 13.7162 76.9065C13.6712 76.737 13.5721 76.5882 13.4347 76.4836C13.2973 76.379 13.1294 76.3247 12.9577 76.3292C12.7856 76.3408 12.6213 76.4089 12.4893 76.5236C12.3574 76.6382 12.2647 76.7932 12.2253 76.9654C12.1623 77.3083 12.1302 77.6561 12.1292 78.0045C12.0988 78.4958 12.1346 78.9755 12.1458 79.2458Z" fill="#FFB864"/>
<path d="M181.277 56.865C181.457 62.1863 181.671 67.6454 182.009 73.0984C182.162 75.5807 182.451 78.0561 182.698 80.531C183.046 84.0515 183.522 87.5601 183.668 91.099C183.813 94.5942 183.778 98.0903 183.754 101.589C183.758 101.676 183.743 101.764 183.741 101.849C183.722 104.124 183.723 106.395 183.678 108.669C183.564 114.401 183.929 120.118 184.039 125.843C184.053 126.63 184.059 127.418 184.07 128.203C184.046 129.515 184.136 130.827 184.341 132.121C184.428 132.594 184.448 133.078 184.401 133.557C184.294 134.731 183.343 135.318 182.283 134.885C181.973 134.742 181.675 134.574 181.391 134.383C180.59 133.876 179.81 133.368 178.989 132.895C171.829 128.851 164.857 124.492 157.975 119.982C150.379 115.003 142.797 109.995 135.18 105.039C130.837 102.21 126.442 99.4604 122.076 96.671C121.426 96.2551 120.798 95.808 120.173 95.3552C119.895 95.154 119.638 94.9239 119.407 94.6688C118.628 93.7969 118.569 92.8914 119.236 91.9411C119.463 91.6254 119.725 91.3368 120.015 91.0808C120.626 90.53 121.253 89.9976 121.889 89.4784C126.987 85.3297 132.088 81.1864 137.09 76.9167C146.898 68.5423 156.332 59.7435 165.392 50.5203C169.136 46.7228 172.891 42.9366 176.656 39.1618C177.084 38.7297 177.496 38.282 177.924 37.8526C178.13 37.6301 178.357 37.4298 178.602 37.2547C178.754 37.1489 178.927 37.0813 179.108 37.0574C179.29 37.0334 179.474 37.0539 179.645 37.1171C179.817 37.1804 179.971 37.2845 180.094 37.421C180.218 37.5574 180.309 37.7223 180.358 37.9021C180.455 38.2361 180.509 38.582 180.518 38.9311C180.567 40.108 180.615 41.2876 180.664 42.4673C180.876 47.2014 181.109 51.9617 181.277 56.865ZM172.185 85.6839C172.001 82.4533 171.689 79.2375 171.433 76.0161C171.353 74.9748 171.131 73.9435 171.245 72.8842C171.248 72.7093 171.213 72.5362 171.141 72.3778C171.106 72.276 171.042 72.1875 170.957 72.1236C170.872 72.0597 170.77 72.0232 170.664 72.0188C170.557 72.0133 170.451 72.0364 170.355 72.0859C170.259 72.1354 170.177 72.2095 170.117 72.3009C169.963 72.5155 169.88 72.775 169.881 73.0407C169.878 73.7387 169.856 74.4403 169.9 75.1358C170.263 80.5409 170.526 85.951 171.149 91.332C171.563 94.8875 171.668 98.475 172.125 102.026C172.3 103.412 172.424 104.804 172.588 106.192C172.626 106.449 172.7 106.698 172.808 106.933C172.853 107.033 172.926 107.117 173.018 107.173C173.11 107.229 173.216 107.256 173.324 107.249C173.452 107.248 173.578 107.205 173.682 107.127C173.786 107.048 173.863 106.938 173.902 106.812C173.978 106.517 174.014 106.213 174.011 105.909C173.978 104.686 173.883 103.466 173.727 102.254C173.253 99.2678 173.009 96.2702 172.723 93.2747C172.482 90.7421 172.327 88.2133 172.185 85.6839Z" fill="#FFC064"/>
<path d="M182.366 7.56595C182.756 7.53238 183.148 7.60107 183.504 7.76554C183.76 7.87701 183.981 8.0597 184.141 8.29314C184.301 8.52658 184.394 8.80155 184.41 9.08723C184.435 9.43662 184.39 9.78817 184.276 10.1196C183.852 11.5422 183.327 12.9317 182.704 14.2769C182.352 15.0276 181.918 15.7357 181.411 16.388C181.07 16.8401 180.643 17.2163 180.156 17.4935C179.837 17.6704 179.484 17.774 179.122 17.7969C178.761 17.8198 178.399 17.7615 178.063 17.6261C177.727 17.4907 177.424 17.2815 177.176 17.013C176.928 16.7445 176.741 16.4233 176.627 16.0719C176.422 15.4062 176.363 14.7014 176.453 14.0075C176.573 12.4657 177.266 11.0258 178.389 9.98503C178.834 9.57144 179.259 9.1397 179.724 8.75519C180.482 8.11732 181.397 7.70572 182.366 7.56595Z" fill="white"/>
<path d="M192.516 20.8137C191.962 20.8515 191.408 20.7501 190.903 20.5182C190.624 20.4108 190.373 20.2363 190.174 20.0093C189.974 19.7823 189.83 19.5093 189.755 19.213C189.679 18.9168 189.674 18.6058 189.739 18.306C189.804 18.0061 189.938 17.7261 190.13 17.4891C190.287 17.2805 190.464 17.0885 190.659 16.916C191.49 16.1636 192.324 15.4166 193.161 14.6749C193.84 14.0741 194.626 13.614 195.474 13.3204C195.903 13.1802 196.365 13.1953 196.782 13.3634C197.199 13.5314 197.545 13.842 197.763 14.2429C198.05 14.7284 198.168 15.3001 198.097 15.8653C198.031 16.5184 197.814 17.1472 197.466 17.7003C196.469 19.2508 194.916 20.3381 193.147 20.7245C192.939 20.7693 192.728 20.7992 192.516 20.8137Z" fill="white"/>
<path d="M162.54 10.8287C162.512 9.69288 162.675 8.55922 163.024 7.47798C163.166 6.97018 163.401 6.4941 163.717 6.07529C164.014 5.67149 164.402 5.34808 164.849 5.13356C165.296 4.91905 165.786 4.82002 166.277 4.84521C166.768 4.87039 167.245 5.01902 167.665 5.27799C168.085 5.53695 168.436 5.89831 168.686 6.33018C169.125 7.07851 169.342 7.94289 169.311 8.81847C169.279 9.69405 169 10.5432 168.508 11.2629C167.809 12.208 166.902 12.971 165.862 13.4891C165.709 13.5646 165.55 13.6266 165.387 13.6746C164.031 14.137 163.037 13.4979 162.7 12.109C162.62 11.6862 162.567 11.2586 162.54 10.8287Z" fill="white"/>
<path d="M142.704 47.9353C141.766 47.9579 140.836 47.7711 139.98 47.3882C139.59 47.2195 139.214 47.0178 138.826 46.8462C138.092 46.4982 137.282 46.3446 136.471 46.3996C135.659 46.4546 134.874 46.7165 134.187 47.1608C133.896 47.3392 133.626 47.5517 133.341 47.7406C133.056 47.9295 132.707 48.1808 132.374 48.3694C131.711 48.7694 130.956 48.9868 130.186 48.9997C129.415 49.0126 128.657 48.8206 127.986 48.4429C127.61 48.2466 127.262 47.9978 126.894 47.7903C126.421 47.505 125.933 47.2466 125.432 47.0164C124.67 46.6824 123.844 46.5237 123.011 46.5517C122.179 46.5797 121.362 46.7937 120.619 47.1783C120.006 47.4826 119.428 47.8521 118.892 48.2805C117.647 49.2716 116.185 49.9466 114.631 50.2483C114.132 50.3457 113.623 50.3979 113.117 50.4527C112.391 50.5183 111.664 50.3616 111.03 50.003C110.693 49.8235 110.37 49.6165 110.032 49.4344C109.363 49.0558 108.611 48.8466 107.842 48.8245C107.073 48.8025 106.309 48.9682 105.614 49.3078C105 49.6084 104.403 49.9424 103.825 50.3082C103.162 50.6988 102.529 51.139 101.852 51.506C99.9213 52.562 98.0284 52.5488 96.2047 51.2659C95.4731 50.7648 94.7557 50.2225 94.0106 49.7166C93.3084 49.2218 92.44 49.0267 91.5924 49.1731C91.1245 49.2452 90.6774 49.4208 90.2831 49.6873C89.8587 49.9773 89.4654 50.3087 89.0606 50.6219C88.7899 50.8317 88.5469 51.0669 88.2486 51.2511C88.0432 51.4115 87.7859 51.4875 87.5285 51.4639C87.2711 51.4403 87.0328 51.3188 86.8619 51.124C86.4596 50.6709 86.4661 50.1249 86.8835 49.6067C86.9879 49.4715 87.1069 49.3483 87.2381 49.2396C87.9806 48.6649 88.7056 48.0535 89.4815 47.5148C91.0161 46.4706 92.6599 46.3806 94.3513 47.0463C94.7824 47.2243 95.2039 47.4249 95.6141 47.6474C96.1034 47.8919 96.579 48.1908 97.0638 48.4542C97.475 48.6757 97.8807 48.8947 98.3073 49.102C100.15 50.0155 101.845 49.759 103.379 48.3734C103.954 47.8582 104.495 47.307 105.064 46.7867C105.443 46.4398 105.834 46.1005 106.241 45.7925C107.286 45.0066 108.355 44.9721 109.433 45.7303C109.677 45.9009 109.913 46.08 110.162 46.2316C110.55 46.4811 110.934 46.763 111.343 46.9792C112.156 47.4479 113.064 47.7267 114 47.7954C114.936 47.8641 115.877 47.7209 116.754 47.3762C117.516 47.095 118.243 46.724 118.92 46.271C119.774 45.6908 120.615 45.1112 121.483 44.5625C122.062 44.2004 122.669 43.8798 123.279 43.5752C123.607 43.4148 123.967 43.3332 124.331 43.337C124.694 43.3408 125.052 43.4299 125.374 43.5971C125.721 43.7597 126.053 43.9499 126.37 44.1658C126.969 44.5661 127.551 44.9941 128.149 45.4025C128.46 45.6238 128.784 45.8267 129.119 46.0101C129.549 46.2492 130.032 46.3735 130.525 46.3711C131.017 46.3687 131.501 46.2397 131.932 45.9962C132.268 45.8105 132.594 45.6048 132.907 45.3804C133.504 44.9662 134.087 44.5151 134.688 44.1169C135.038 43.8733 135.405 43.6547 135.786 43.4627C136.132 43.288 136.512 43.1966 136.897 43.1956C137.282 43.1946 137.662 43.2841 138.006 43.4569C138.381 43.658 138.745 43.8785 139.098 44.1176C139.606 44.4256 140.094 44.7776 140.627 45.0307C141.335 45.3805 142.115 45.56 142.905 45.5551C143.696 45.5502 144.476 45.3611 145.185 45.0025C145.801 44.7066 146.381 44.3394 146.914 43.9082C147.218 43.6672 147.511 43.4134 147.829 43.1986C148.042 43.0588 148.273 42.9496 148.516 42.874C148.637 42.83 148.769 42.8237 148.894 42.8558C149.018 42.8879 149.13 42.957 149.215 43.0542C149.302 43.177 149.345 43.3256 149.337 43.4764C149.33 43.6273 149.273 43.7718 149.176 43.8869C149.129 43.9595 149.075 44.0278 149.017 44.0911C148.018 45.0925 147.019 46.0992 145.83 46.879C144.904 47.517 143.821 47.8828 142.704 47.9353Z" fill="black"/>
<path d="M105.935 61.2954C107.172 61.0687 108.316 61.4464 109.389 62.1409C109.747 62.3715 110.093 62.6216 110.466 62.8272C110.942 63.1086 111.438 63.3546 111.95 63.5633C112.527 63.789 113.148 63.8757 113.766 63.8167C114.383 63.7576 114.979 63.5545 115.508 63.223C115.904 62.9676 116.286 62.6915 116.653 62.3958C116.997 62.1382 117.314 61.8441 117.672 61.6101C118.18 61.2435 118.769 61.0116 119.386 60.9359C120.003 60.8602 120.627 60.943 121.202 61.1767C121.519 61.2986 121.826 61.448 122.143 61.5726C122.969 61.9279 123.889 61.9994 124.763 61.7764C125.916 61.4621 127.066 61.1451 128.219 60.847C128.507 60.7729 128.802 60.7319 129.098 60.7246C129.183 60.7307 129.264 60.759 129.335 60.8066C129.406 60.8542 129.463 60.9196 129.501 60.9964C129.539 61.0733 129.557 61.159 129.553 61.2453C129.549 61.3315 129.524 61.4155 129.478 61.489C129.388 61.6354 129.28 61.7697 129.157 61.8887C128.434 62.5619 127.659 63.1736 126.837 63.7175C126.087 64.2215 125.235 64.5464 124.345 64.6677C123.455 64.789 122.552 64.7035 121.702 64.4176C121.54 64.3663 121.376 64.3178 121.217 64.2609C119.919 63.7976 118.493 63.8574 117.23 64.4281C116.681 64.6609 116.15 64.9414 115.618 65.2166C115.056 65.5263 114.471 65.793 113.87 66.0145C113.167 66.276 112.416 66.3753 111.672 66.305C110.928 66.2348 110.21 65.9968 109.57 65.6085C109.205 65.3945 108.859 65.1417 108.496 64.9221C108.103 64.6673 107.697 64.4351 107.279 64.2266C106.492 63.8395 105.619 63.6634 104.743 63.7148C103.868 63.7662 103.017 64.0435 102.274 64.5205C101.944 64.7207 101.637 64.9576 101.301 65.1473C100.866 65.4313 100.345 65.5458 99.8348 65.4692C99.7484 65.4605 99.6659 65.4286 99.596 65.3767C99.5261 65.3248 99.4712 65.2549 99.4369 65.1741C99.4026 65.0933 99.3903 65.0045 99.401 64.9169C99.4118 64.8293 99.4454 64.746 99.4982 64.6757C99.567 64.5665 99.6466 64.4647 99.7358 64.372C100.646 63.4546 101.682 62.6748 102.81 62.057C103.773 61.5387 104.849 61.2766 105.935 61.2954Z" fill="black"/>
<path d="M68.046 134.088C70.1471 133.87 72.8945 133.582 75.6423 133.303C77.3749 133.119 79.1041 132.917 80.8359 132.714C82.4406 132.526 84.042 132.325 85.6438 132.131L87.9239 131.867L90.8373 131.54C90.9621 131.534 91.0885 131.501 91.2157 131.489L99.9807 130.778C101.127 130.715 102.276 130.723 103.42 130.802C103.586 130.819 103.751 130.852 103.911 130.9C103.947 130.921 103.979 130.949 104.004 130.982C104.028 131.016 104.046 131.054 104.056 131.094C104.066 131.135 104.067 131.177 104.06 131.218C104.053 131.26 104.037 131.299 104.015 131.334C103.902 131.459 103.772 131.566 103.629 131.654C103.207 131.86 102.746 131.973 102.278 131.987C101.557 132.022 100.836 132.058 100.113 132.093C98.1199 132.21 96.1301 132.29 94.1361 132.46C91.7234 132.672 89.3168 132.964 86.9089 133.226C85.1802 133.418 83.4499 133.614 81.718 133.815C79.8645 134.034 78.0114 134.264 76.1583 134.494C76.0309 134.5 75.8939 134.533 75.7773 134.544C72.4762 134.83 69.187 135.268 65.874 135.397C63.5812 135.486 61.2905 135.623 58.9979 135.718C58.6173 135.726 58.2366 135.715 57.8575 135.684C57.7991 135.687 57.7173 135.579 57.7011 135.51C57.6952 135.47 57.6981 135.429 57.7098 135.39C57.7215 135.351 57.7416 135.314 57.7687 135.284C58.317 134.844 58.9806 134.678 59.6452 134.537C60.022 134.472 60.403 134.436 60.7849 134.43L68.046 134.088Z" fill="black"/>
<path d="M67.8012 142.566C62.8925 143.099 57.9589 143.166 53.0397 143.449C52.6148 143.47 52.1899 143.491 51.7658 143.467C51.6381 143.483 51.5092 143.455 51.4 143.388C51.2909 143.32 51.2079 143.218 51.1647 143.097C51.0909 142.864 51.3023 142.576 51.6696 142.451C51.9106 142.37 52.1584 142.31 52.4099 142.274C52.7036 142.233 53.0015 142.229 53.2987 142.209L70.4692 141.027C72.7581 140.866 75.0452 140.682 77.3304 140.475C78.4305 140.376 79.5256 140.218 80.6211 140.071C82.0104 139.885 83.3956 139.667 84.7879 139.489C86.641 139.259 88.4886 138.899 90.3499 138.863C90.6473 138.848 90.9447 138.833 91.241 138.853C91.3267 138.855 91.4101 138.881 91.4813 138.929C91.5525 138.976 91.6087 139.043 91.6435 139.121C91.7111 139.272 91.5783 139.532 91.3757 139.649C91.3031 139.694 91.2274 139.734 91.1493 139.769C90.2222 140.204 89.2361 140.497 88.2241 140.638C86.9158 140.788 85.6121 140.983 84.3046 141.151C83.5475 141.247 82.7887 141.365 82.0264 141.4C77.8218 141.589 73.6341 141.99 69.4532 142.49C68.9074 142.546 68.3615 142.538 67.8012 142.566Z" fill="black"/>
<path d="M12.2211 79.1215C12.2096 78.8479 12.1733 78.37 12.1695 77.8904C12.1704 77.5413 12.2031 77.1928 12.2672 76.8493C12.3074 76.6767 12.4016 76.5214 12.5359 76.4065C12.6702 76.2917 12.8374 76.2234 13.0126 76.2118C13.1873 76.2073 13.3582 76.2617 13.498 76.3665C13.6378 76.4713 13.7387 76.6204 13.7845 76.7902C13.8559 77.0865 13.9004 77.3889 13.9175 77.6938C13.9649 78.4343 13.9798 79.1793 14.0109 79.9207C14.1006 82.0601 14.22 84.1952 14.4535 86.3274C14.7694 89.193 14.9392 92.0768 15.136 94.9538C15.3146 97.5274 15.623 100.086 15.9018 102.649C16.1346 104.831 16.5558 106.965 16.9691 109.107C17.0866 109.884 17.154 110.668 17.1709 111.455C17.1784 111.673 17.1574 111.892 17.1084 112.105C17.0755 112.279 16.99 112.438 16.8636 112.561C16.7373 112.685 16.5764 112.765 16.4032 112.793C16.2269 112.816 16.0484 112.778 15.8966 112.686C15.7447 112.594 15.6284 112.453 15.5663 112.286C15.4136 111.879 15.295 111.459 15.2119 111.031C15.0582 110.217 14.9478 109.4 14.813 108.584C14.3202 105.346 13.992 102.084 13.8296 98.8102C13.6011 94.9835 13.2362 91.1417 12.9286 87.308C12.9231 87.1766 12.8982 87.0353 12.8931 86.915C12.7946 84.3703 12.5989 81.8442 12.2211 79.1215Z" fill="black"/>
<path d="M172.13 85.7488C172.275 88.2831 172.433 90.8168 172.678 93.3433C172.971 96.3446 173.22 99.348 173.703 102.34C173.862 103.554 173.959 104.777 173.993 106.002C173.996 106.307 173.959 106.611 173.881 106.907C173.841 107.033 173.763 107.143 173.657 107.222C173.551 107.301 173.423 107.344 173.292 107.345C173.182 107.351 173.073 107.325 172.979 107.268C172.886 107.212 172.811 107.128 172.766 107.028C172.656 106.793 172.58 106.543 172.541 106.285C172.373 104.895 172.247 103.501 172.068 102.111C171.613 98.5532 171.495 94.9593 171.073 91.3969C170.437 86.0056 170.168 80.585 169.799 75.1694C169.753 74.4726 169.775 73.7696 169.779 73.0703C169.778 72.8041 169.862 72.5441 170.02 72.3291C170.081 72.2375 170.164 72.1632 170.262 72.1137C170.36 72.0641 170.469 72.0409 170.578 72.0464C170.687 72.0518 170.793 72.0903 170.88 72.1569C170.967 72.2236 171.031 72.3152 171.065 72.4198C171.138 72.5785 171.174 72.752 171.171 72.9272C171.055 73.9885 171.281 75.0219 171.363 76.0651C171.624 79.29 171.945 82.5119 172.13 85.7488Z" fill="black"/>
</svg>
