<svg width="220" height="171" viewBox="0 0 220 171" fill="none" xmlns="http://www.w3.org/2000/svg">
<g clip-path="url(#clip0_3427_8244)">
<path d="M164.767 96.1793L195.339 108.452L182.173 105.105L177.04 107.337L171.015 117.378L172.577 128.313L146.245 108.452L142.006 112.692L136.873 115.593L132.411 122.064L128.84 125.858L125.939 128.313L121.476 130.767L118.575 128.313L115.451 125.858L112.327 117.378L82.8711 140.586V132.776L76.1775 120.949L84.8795 117.378L78.8545 115.593L69.0373 107.337L65.0192 100.642C63.8291 100.27 60.4226 99.5264 56.3178 99.5264C53.997 94.3493 59.962 86.8069 63.2345 83.6828L69.0373 86.5837L76.1775 88.3689L98.9386 86.5837L96.0361 79.2198L94.4757 74.98L91.3524 70.7403V65.1616L96.0361 58.0208L103.179 56.0125L106.078 58.0208L112.327 62.7069L127.725 65.1616H132.411L138.435 70.7403L144.237 58.0208H148.701L154.725 60.4755L162.759 67.6162V73.195L154.725 82.1208H164.767C171.759 80.0381 187.037 75.3371 192.214 73.195C190.608 82.1209 196.752 89.2616 200.025 91.7163H182.173L164.767 96.1793Z" fill="#F1D6D6"/>
<path d="M124.064 103.49C124.09 103.49 124.064 103.516 124.064 103.49Z" fill="#2C2C2C"/>
<path d="M125.734 76.0474C124.836 76.2104 123.983 76.3942 123.392 77.1558C123.177 77.4344 122.925 77.8019 123.126 78.1546C123.324 78.4984 123.735 78.5162 124.027 78.3087C124.296 78.119 124.411 77.7871 124.712 77.6063C125.02 77.4226 125.383 77.4018 125.723 77.3129C126.05 77.227 126.322 77.1558 126.375 76.7557C126.42 76.4179 126.124 75.9733 125.731 76.0444L125.734 76.0474Z" fill="#2C2C2C"/>
<path d="M118.288 79.7633C117.742 80.0923 117.006 80.5132 116.926 81.2333C116.861 81.832 117.499 82.2291 117.978 81.8083C118.217 81.5979 118.264 81.3311 118.539 81.1296C118.793 80.9429 119.133 80.851 119.254 80.528C119.472 79.9352 118.802 79.4521 118.288 79.7604V79.7633Z" fill="#2C2C2C"/>
<path d="M111.729 82.6849C111.747 82.676 111.065 83.0049 111.336 82.8716C110.867 83.1027 110.066 83.4258 110.406 84.1015C110.536 84.3623 110.793 84.4898 111.079 84.4661C111.242 84.4512 111.918 84.0808 111.567 84.2556C111.688 84.1964 111.812 84.1341 111.936 84.0748C111.508 84.2882 112.249 83.9415 112.32 83.8881C112.488 83.7518 112.603 83.6155 112.621 83.3784C112.654 82.9397 112.172 82.4833 111.732 82.6878L111.729 82.6849Z" fill="#2C2C2C"/>
<path d="M71.7577 45.6449C70.089 45.8998 71.1493 48.6738 72.6586 48.1077C74.3983 47.4528 73.2995 45.4108 71.7577 45.6449Z" fill="#2C2C2C"/>
<path d="M74.4121 48.1577C72.8171 49.0557 74.4268 51.7675 76.0779 50.8843C77.7231 50.0071 76.0602 47.2212 74.4121 48.1577Z" fill="#2C2C2C"/>
<path d="M143.79 96.7274C143.479 97.4832 147.257 98.7783 147.387 97.8655C147.473 97.2816 146.327 97.255 145.958 97.1305C145.512 96.9793 144.061 96.0576 143.79 96.7274Z" fill="#2C2C2C"/>
<path d="M134.365 112.927C134.372 112.916 134.372 112.916 134.365 112.927Z" fill="#2C2C2C"/>
<path d="M102.904 100.391C102.529 100.516 102.003 101.677 101.77 102.009C101.575 102.285 101.383 102.56 101.191 102.839C101.191 102.839 100.742 103.5 100.881 103.293C100.119 104.419 99.4392 105.397 98.7038 106.573C98.5856 106.76 98.1012 107.335 98.4556 107.513C98.7717 107.673 99.0582 106.968 99.1675 106.799C99.5957 106.132 100.059 105.444 100.482 104.804C100.494 104.783 100.508 104.766 100.52 104.745C100.573 104.662 100.78 104.359 100.884 104.202C101.105 103.867 101.462 103.346 101.728 102.958C102.095 102.424 102.478 101.903 102.83 101.36C102.933 101.203 103.557 100.166 102.901 100.391H102.904ZM100.895 103.278C100.872 103.311 100.872 103.311 100.895 103.278ZM101.321 103.562C101.303 103.588 101.303 103.588 101.321 103.562ZM100.901 104.185C100.901 104.185 100.892 104.196 100.889 104.202C100.892 104.196 100.898 104.191 100.901 104.185ZM100.884 104.217C100.878 104.226 100.824 104.306 100.884 104.217Z" fill="#2C2C2C"/>
<path d="M86.816 128.49C85.2299 128.795 85.9624 131.709 87.6548 130.95C89.0902 130.307 88.4375 127.642 86.816 128.49Z" fill="#2C2C2C"/>
<path d="M83.852 94.3027C83.2938 94.7473 84.3955 94.8154 84.5373 94.8214C85.0925 94.848 85.6478 94.8747 86.2031 94.9044C86.6018 94.9251 88.8229 95.3193 88.9765 94.9814C89.2542 94.3709 87.2309 94.4064 86.8706 94.3827C86.2858 94.3442 85.698 94.3235 85.1132 94.2938C84.8178 94.279 84.1031 94.1041 83.8491 94.3027H83.852Z" fill="#2C2C2C"/>
<path d="M108.528 69.1533C108.425 69.4201 112.79 71.4265 113.272 71.6903C113.263 71.6843 113.266 71.6873 113.281 71.6932C113.275 71.6903 113.266 71.6843 113.26 71.6814C113.47 71.797 114.208 72.3541 114.341 72.1585C114.527 71.8888 112.994 71.1568 112.782 71.0442C112.356 70.816 108.667 68.7888 108.525 69.1533H108.528ZM113.482 71.8059C113.495 71.8138 113.495 71.8138 113.482 71.8059ZM113.47 71.7999C113.454 71.7901 113.454 71.7901 113.47 71.7999Z" fill="#2C2C2C"/>
<path d="M107.121 70.7808C106.888 71.0979 107.875 71.6403 108.111 71.8448C108.595 72.2715 109.047 72.7339 109.499 73.1933C109.886 73.5904 110.261 73.9935 110.621 74.4143C110.813 74.6395 111.31 75.5168 111.608 75.1167C111.874 74.7611 109.907 72.9176 109.585 72.5887C109.313 72.3101 107.461 70.3125 107.118 70.7778L107.121 70.7808ZM108.598 72.2952C108.598 72.2952 108.607 72.3041 108.61 72.3071C108.607 72.3041 108.601 72.2982 108.598 72.2952Z" fill="#2C2C2C"/>
<path d="M177.217 122.738C175.921 122.738 175.977 124.729 177.217 124.732C178.511 124.735 178.461 122.738 177.217 122.738Z" fill="#2C2C2C"/>
<path d="M188.18 139.624C188.201 139.665 188.219 139.707 188.239 139.748C188.219 139.644 188.174 139.553 188.109 139.467C188.133 139.52 188.157 139.57 188.183 139.624H188.18Z" fill="#2C2C2C"/>
<path d="M193.895 149.836C193.895 149.836 193.897 149.836 193.897 149.834C193.897 149.834 193.897 149.834 193.895 149.836Z" fill="#2C2C2C"/>
<path d="M164.497 1.05528C163.673 1.57393 163.31 3.38476 163.008 4.24128C162.642 5.28747 162.303 6.34255 161.924 7.38578C161.083 9.7123 160.294 12.0121 159.644 14.4039C158.56 18.3841 157.518 22.3377 156.578 26.3565C156.292 27.5806 156.011 28.8075 155.719 30.0286C155.557 30.7073 155.424 31.4275 155.17 32.0765C154.889 32.7967 154.34 33.3065 153.778 33.8133C151.761 35.6359 149.924 37.5979 148.196 39.6992C147.331 40.7513 146.542 41.8686 145.789 43.0037C144.974 44.2366 144.132 45.4755 143.713 46.907C143.358 48.1162 142.921 49.7581 143.069 51.0206C143.092 51.2162 143.137 51.3525 143.069 51.5066C142.965 51.7408 142.623 51.9719 142.434 52.1438C141.934 52.6032 141.462 53.0656 141.037 53.599C140.062 54.823 139.554 56.2782 139.359 57.8223C139.258 58.6196 139.208 59.4909 139.362 60.2822C139.433 60.6497 139.566 60.9905 139.731 61.3284C139.879 61.6337 140.242 61.9775 140.345 62.2738C140.44 62.5495 140.083 63.0325 139.935 63.323C139.574 64.0284 139.229 64.7426 138.874 65.4539C138.195 66.8172 137.501 68.1568 136.751 69.4697C135.268 67.2025 133.266 64.138 130.259 64.1262C129.523 64.1262 128.791 64.2121 128.07 64.3544C127.736 64.4196 127.317 64.6063 126.98 64.6033C126.647 64.6003 126.254 64.4077 125.923 64.3158C124.331 63.8831 122.692 63.6757 121.079 63.3348C118.787 62.8518 116.533 62.0071 114.351 61.1832C113.352 60.8038 112.138 60.7001 111.27 60.1133C110.254 59.4287 109.25 58.7411 108.343 57.9142C107.179 56.8473 106.018 55.7803 104.828 54.743C104.483 54.4437 104.14 54.1414 103.794 53.8421C103.514 53.599 103.23 53.356 102.953 53.11C102.713 52.8996 102.01 52.458 101.907 52.1646C101.83 51.9512 101.972 51.4652 101.931 51.1955C101.883 50.8724 101.789 50.5494 101.671 50.2441C101.426 49.6099 100.988 49.1949 100.625 48.6615C99.8986 47.5916 99.2636 46.5572 98.3568 45.6148C96.3513 43.5224 94.4255 41.3648 92.3905 39.3021C91.4306 38.327 90.5799 37.266 89.6998 36.2228C88.7192 35.061 87.5879 34.0207 86.501 32.9656C85.355 31.8542 84.2917 30.7873 83.1014 29.6581C83.063 29.6196 82.9124 29.4151 82.8533 29.4151C82.49 29.0565 82.2005 28.7749 81.8372 28.4222C81.8638 28.4489 81.8874 28.4756 81.914 28.5023C81.0575 27.6606 80.198 26.8218 79.3385 25.9831C79.3828 26.0276 79.4271 26.072 79.4714 26.1165C79.0077 25.6601 78.544 25.2037 78.0773 24.7502C78.092 24.765 78.1098 24.7828 78.1245 24.7976C77.779 24.4538 77.3802 24.0715 77.079 23.7751C76.6477 23.3543 76.2195 22.9127 75.7971 22.477C75.3481 22.0117 74.9022 21.5405 74.4296 21.0959C74.1608 20.844 73.8861 20.598 73.5967 20.3698C73.4756 20.272 73.2718 20.1624 73.1772 20.0527C72.9941 19.8393 73.0916 19.9016 73.0325 19.6141C72.8464 18.6864 72.2616 17.7884 71.8097 16.9556C71.1127 15.6783 70.3565 14.4305 69.6418 13.165C68.8945 11.8373 68.1502 10.4532 67.143 9.30627C66.8329 8.95359 66.4519 8.38159 65.9143 8.67203C65.362 8.97137 65.6485 9.5078 65.9468 9.86345C66.9806 11.1052 67.7071 12.5308 68.4426 13.9652C69.1958 15.4352 70.0139 16.8875 70.6696 18.4019C69.692 17.8062 68.67 17.2224 67.5949 16.8223C67.1312 16.6504 66.0029 16.1643 65.4624 16.3955C64.9544 16.6118 65.1552 17.1809 65.5776 17.3379C66.1151 17.5365 66.7029 17.5454 67.2493 17.7766C68.2477 18.2004 69.2017 18.802 70.0819 19.4333C69.308 19.454 68.4928 19.2021 67.7426 19.2466C66.9747 19.294 66.9215 20.1268 67.5979 20.3906C69.054 20.9626 70.903 20.2602 72.2498 21.1434C73.641 22.0562 74.719 23.4491 75.8887 24.6168C77.0494 25.7756 78.3786 27.0856 79.6043 28.3037C81.8047 30.4969 84.014 32.687 86.1613 34.9335C87.9778 36.8362 89.4516 39.0086 91.3479 40.8402C92.3669 41.8271 93.3504 42.8556 94.3015 43.9047C95.4859 45.2147 96.7678 46.4298 97.9374 47.7516C96.2656 47.5412 94.7475 47.4523 93.0964 47.8524C91.2504 48.2999 89.4841 48.9341 87.8803 49.9714C84.9533 51.8653 83.1102 54.8645 82.2035 58.1809C80.4018 56.6991 78.6473 55.1491 76.8693 53.6346C75.8768 52.7899 74.9081 51.9216 73.9393 51.0532C73.5258 50.6827 73.1004 50.3212 72.684 49.9537C72.3414 49.6484 71.7477 48.8393 71.2633 48.8393C70.5101 48.8393 70.8055 49.598 71.1156 49.9092C71.5646 50.3627 72.049 50.7924 72.5274 51.2192C73.6321 52.209 74.722 53.2078 75.8621 54.1592C76.9342 55.0542 78.0537 55.8929 79.1317 56.785C79.5689 57.1466 80.003 57.5141 80.4461 57.8697C80.8064 58.1572 81.6216 58.5721 81.8756 58.9752C82.0499 59.2508 81.7988 59.891 81.728 60.2555C81.6364 60.7327 81.5566 61.2128 81.4887 61.6929C81.3853 62.4339 81.2997 63.1867 81.2997 63.9365C81.3026 65.6228 81.7693 67.1966 82.5166 68.6992C81.4858 67.9642 80.4697 67.2766 79.5216 66.429C78.4849 65.5013 77.5072 64.5025 76.4882 63.5542C75.3836 62.5287 74.3085 61.4677 73.2038 60.4423C72.7933 60.0599 72.3798 59.6746 71.9692 59.2923C71.8156 59.1501 71.346 58.4921 71.1215 58.4921C71.0329 58.4032 70.9443 58.3173 70.8291 58.2076C70.8468 58.2284 70.8646 58.2461 70.8852 58.2669C68.224 55.644 65.4358 53.1397 62.6358 50.6709C61.1619 49.3728 59.7442 48.0124 58.2851 46.6995C56.7551 45.3243 55.0716 44.1477 53.5977 42.7074C50.4728 39.6518 47.5015 36.2583 45.0884 32.6129C44.731 32.0765 44.1107 30.5502 43.2601 30.9236C42.2883 31.3534 43.266 32.5803 43.6027 33.1227C44.4504 34.486 45.3306 35.793 46.385 37.0052C49.0551 40.0756 51.6011 43.3505 54.7703 45.926C56.5779 47.393 58.226 49.0349 59.9185 50.6323C61.3421 51.9779 62.813 53.273 64.2366 54.6186C67.1607 57.3778 70.0494 60.1726 72.9971 62.9081C75.806 65.5161 78.5233 68.1776 81.7959 70.1988C82.3187 70.5219 82.8651 70.7827 83.3967 71.0879C83.6064 71.2094 83.9077 71.3547 84.0761 71.5266C84.2828 71.7399 84.3862 72.0245 84.6225 72.229C85.3225 72.8365 86.3474 72.9995 87.2246 72.7535C87.7386 72.6083 88.0635 72.2942 88.4976 72.0274C88.9111 71.7725 88.5981 71.8289 88.985 72.0511C89.1681 72.1549 89.3306 72.3712 89.4901 72.5105C89.8711 72.8484 90.1576 73.1714 90.6744 73.2455C90.8428 73.2692 90.9403 73.2129 91.1086 73.2455C91.3745 73.2989 91.5192 73.4293 91.72 73.5863C92.0686 73.856 92.3698 74.2147 92.6563 74.5496C93.0196 74.9734 93.6074 75.5128 93.8112 76.0403C94.0032 76.5352 93.9234 77.1784 93.9618 77.7029C94.0032 78.2572 94.0888 78.8084 94.204 79.3508C94.7534 81.9411 96.3749 84.0097 97.769 86.194C95.6631 86.0784 93.634 86.0014 91.528 86.1347C90.5504 86.197 89.5787 86.1644 88.601 86.1673C87.5023 86.1673 86.4242 86.3718 85.3284 86.4163C80.7621 86.6 76.0688 85.868 71.6591 84.7418C70.4865 84.4424 69.3257 84.0957 68.1886 83.6808C68.0232 83.6215 67.3084 83.4437 67.2198 83.3014C67.1489 83.1888 67.2228 82.7946 67.1932 82.6316C67.143 82.3412 67.0514 82.1041 66.8831 81.861C66.3337 81.0638 65.4742 80.5037 64.6649 79.9406C63.6636 79.2411 62.7244 78.4794 61.6375 77.9163C60.7514 77.457 59.3248 76.636 58.3501 77.2584C57.9838 77.4955 58.099 77.6881 57.6796 77.4925C57.4227 77.371 57.1746 77.1458 56.9383 76.9828C56.3357 76.5649 55.7361 76.1411 55.1307 75.7261C53.0011 74.271 50.8331 72.8721 48.7331 71.3695C40.5398 65.5102 33.079 58.6492 25.3523 52.2002C23.3114 50.496 21.3059 48.7741 19.1143 47.2656C18.0953 46.5661 17.0467 45.7422 15.9421 45.188C15.5109 44.9716 14.7459 44.7701 14.2969 45.0428C12.9914 45.8371 16.6362 47.9561 17.0143 48.2406C18.9755 49.7106 20.8421 51.2695 22.6675 52.9085C30.0308 59.5087 37.5301 66.014 45.3837 72.0185C46.3407 72.7506 47.3154 73.45 48.3108 74.1346C45.5255 75.7943 43.7445 79.0929 42.563 82.0122C41.2812 85.1834 40.6314 88.5828 40.6638 92.0058C40.0554 91.6117 39.1575 91.4427 38.4664 91.2294C37.471 90.9241 36.452 90.6811 35.4862 90.2928C33.6313 89.546 31.8001 88.7339 29.9304 88.0285C27.4671 87.1009 24.8797 86.5496 22.4105 85.6131C17.4248 83.7223 12.5307 81.4165 7.73695 79.2144C6.80066 78.7847 5.85255 78.3846 4.91034 77.9726C3.94451 77.5488 3.04366 76.8939 2.00989 76.7071C1.36601 76.5916 -0.0901256 76.4908 0.00439004 77.4866C0.0989057 78.4913 1.70567 79.1967 2.48838 79.576C8.43696 82.4597 14.486 85.1952 20.6147 87.6729C23.016 88.645 25.4527 89.5163 27.9013 90.361C30.1697 91.1434 32.3996 92.0444 34.7094 92.7112C36.6883 93.2832 38.614 94.1931 40.525 94.9725C42.6634 95.8409 44.7989 96.7478 46.9816 97.4976C46.5445 98.2771 47.1825 98.8254 47.7466 99.2284C47.7259 99.2106 47.7023 99.1929 47.6816 99.178C48.4378 99.7382 49.3416 100.023 50.2129 100.361C51.3234 100.79 52.5315 101.137 53.7011 101.362C54.2623 101.469 54.8323 101.502 55.4024 101.454C55.748 101.428 56.0699 101.469 56.1762 101.208C56.2885 100.936 56.1644 100.355 56.188 100.043C56.2767 98.7661 56.5336 97.5984 56.9205 96.3921C57.6176 94.2049 58.0045 91.9258 58.7282 89.7386C59.1801 88.3753 59.756 87.0594 60.4915 85.8265C60.7602 85.376 61.0349 84.9196 61.351 84.4988C61.5046 84.2943 61.7763 83.8645 62.0214 83.7608C62.3079 83.6422 62.4527 83.8112 62.7273 83.9712C67.3645 86.7038 72.9941 87.8952 78.2752 88.4998C81.2081 88.8347 84.1972 89.0629 87.1419 88.7458C88.3618 88.6154 89.5698 88.6509 90.7926 88.6035C92.107 88.5501 93.4065 88.3575 94.7209 88.3664C96.1741 88.3753 97.6095 88.4938 99.0598 88.4109C99.3965 88.3931 99.7391 88.3279 100.008 88.4761C100.35 88.6657 100.755 89.2703 100.988 89.5489C101.656 90.3462 102.332 91.3449 102.719 92.2578C102.84 92.5423 103.032 92.9276 103.065 93.2417C103.103 93.6063 103.257 93.298 102.92 93.6477C102.772 93.8019 102.542 93.9145 102.371 94.0449C101.7 94.5487 101.074 95.0911 100.504 95.7075C100.368 94.1308 99.7627 92.317 98.0142 91.9673C96.0116 91.5702 95.0428 93.6181 94.2838 95.0881C93.2854 97.0234 91.8648 98.6149 90.4736 100.266C89.8681 100.983 89.366 101.751 88.7192 102.426C87.9335 103.247 87.3191 104.243 86.9529 105.319C86.0845 104.631 84.2562 104.676 83.2077 104.791C82.109 104.913 80.7178 105.387 80.2836 106.522C79.9026 107.512 80.3988 108.57 80.9452 109.385C81.6659 110.458 82.5461 111.436 83.3436 112.453C83.6832 112.882 84.017 113.315 84.3508 113.751C84.6579 114.154 85.4997 114.936 85.5795 115.449C85.6592 115.965 84.0081 116.51 83.5297 116.7C83.1221 116.86 82.7174 117.02 82.3098 117.183C81.6364 117.449 81.6334 117.473 81.1077 117.017C80.5731 116.551 80.0828 116.095 79.5157 115.665C77.5161 114.154 75.3541 112.879 73.319 111.46C72.6397 110.988 71.9722 110.488 71.3637 109.922C70.1646 108.807 69.373 107.349 68.6789 105.882C68.2506 104.981 67.8076 104.083 67.3084 103.221C66.5848 101.973 65.5746 100.74 64.5143 99.7649C64.1155 99.3974 63.5219 98.7187 62.9105 98.9054C62.0451 99.1721 62.3729 100.067 62.878 100.47C62.4586 100.224 62.2075 99.999 61.7527 99.8627C61.2535 99.7145 60.7514 99.4626 60.2463 99.2847C59.2539 98.9291 58.2319 98.6446 57.2277 98.3186C57.207 98.443 57.1893 98.9232 57.1037 99.0091C57.1037 99.0121 57.1037 99.0239 57.1007 99.0299C57.0978 99.0447 57.08 99.2877 57.0269 99.4448C56.8881 99.8656 57.0062 100.645 57.0416 101.137C57.3045 101.036 57.2602 101.004 57.5467 101.033C57.7771 101.057 58.04 101.184 58.2615 101.256C58.8315 101.433 59.3957 101.623 59.951 101.851C60.9818 102.275 61.9949 102.797 62.9577 103.351C64.662 104.332 66.3957 105.509 67.5211 107.142C68.5696 108.662 69.4675 110.218 70.8616 111.469C72.1789 112.651 73.703 113.635 75.0764 114.755C76.5266 115.938 78.0034 117.04 79.4153 118.258C76.4085 119.248 73.2511 119.847 70.1852 120.629C66.9806 121.447 63.7907 122.446 60.6687 123.546C57.3754 124.708 54.2091 126.145 50.9897 127.482C48.3403 128.581 45.6939 129.642 43.1981 131.071C42.7137 131.346 41.6622 131.761 41.8394 132.484C42.0432 133.311 42.8791 132.902 43.3635 132.665C44.6601 132.04 45.9774 131.406 47.3183 130.881C50.266 129.728 53.2492 128.667 56.194 127.511C61.8826 125.279 67.8164 123.721 73.7118 122.147C74.1342 122.034 74.7279 121.765 75.1355 121.859C75.7676 122.011 76.4764 122.846 76.8958 123.315C78.0123 124.559 78.8393 126.121 79.5954 127.606C81.0043 130.371 82.1326 133.37 82.5904 136.453C82.7794 137.724 82.7145 138.954 82.7824 140.226C82.8178 140.886 82.5047 141.298 82.0647 141.823C80.8005 143.329 79.3946 144.698 77.8676 145.931C76.8427 146.758 75.8296 147.59 74.8224 148.438C74.081 149.06 73.3161 149.659 72.5599 150.267C72.2203 150.542 71.8747 150.8 71.5232 151.064C71.1481 151.342 70.3506 151.793 70.2384 152.294C69.9667 153.521 71.8481 152.798 72.2734 152.522C73.5878 151.671 74.8903 150.788 76.1958 149.92C78.6828 148.26 80.8389 146.325 83.0246 144.292C84.2503 143.154 85.4968 142.036 86.7077 140.883C87.901 139.748 89.1445 138.735 90.4234 137.695C92.9901 135.602 95.4593 133.376 97.9669 131.213C100.179 129.304 102.264 127.256 104.48 125.348C104.997 124.903 105.513 124.456 106.018 123.999C106.249 123.789 106.482 123.581 106.695 123.356C107.064 122.965 107.008 123.196 107.481 123.273C108.059 123.365 108.689 122.95 109.191 122.707C109.959 122.334 110.688 121.88 111.409 121.421C112.466 120.748 113.432 119.957 114.386 119.145C114.103 120.952 113.887 123.042 114.28 124.844C114.661 126.601 115.884 128.51 117.916 127.656C118.43 129.358 119.729 131.782 121.829 130.33C122.127 131.263 122.751 132.022 123.79 132.04C125.046 132.063 125.893 131.165 126.351 130.081C129.068 131.933 131.036 127.671 131.804 125.783C132.081 125.102 132.332 124.411 132.563 123.712C132.675 123.374 132.79 123.036 132.902 122.695C132.991 122.422 133.065 121.637 133.251 121.474C133.466 121.284 134.149 121.204 134.423 121.065C134.739 120.905 135.035 120.706 135.309 120.478C135.953 119.948 136.476 119.275 137.04 118.664C137.46 120.265 139.04 121.406 140.7 120.95C142.121 120.558 142.507 119.076 143.095 117.9C143.848 116.391 144.658 114.987 145.21 113.383C145.358 112.959 145.494 112.533 145.612 112.1C145.715 111.729 145.727 111.19 145.907 110.855C146.078 110.538 146.498 110.233 146.79 110.028C147.239 109.717 147.239 109.797 147.664 110.087C150.417 111.969 152.972 114.139 155.636 116.145C158.484 118.291 161.227 120.585 164.03 122.793C169.3 126.945 174.542 131.118 179.761 135.338C180.512 135.946 181.253 136.565 181.994 137.185C182.685 137.763 183.521 138.275 184.156 138.913C184.466 139.224 184.54 139.568 184.729 139.971C185.028 140.605 185.364 141.23 185.692 141.85C186.699 143.764 188.043 145.569 189.564 147.104C190.575 148.124 191.617 149.182 192.964 149.757C193.505 149.988 193.977 150.053 194.042 149.354C194.125 148.45 193.375 147.964 192.808 147.371C191.511 146.023 190.288 144.567 189.089 143.151C188.773 142.774 188.542 142.282 188.277 141.873C188.288 141.891 188.153 141.713 188.194 141.758C187.411 140.546 186.826 139.2 186.315 137.852C186.191 137.526 185.503 135.958 185.852 135.774C186.336 136.26 186.853 136.915 187.5 137.22C187.916 137.416 188.483 137.369 188.56 136.791C188.622 136.316 188.173 136.103 187.866 135.854C187.075 135.211 186.401 134.443 185.748 133.664C185.521 133.391 185.294 133.113 185.066 132.84C184.576 132.253 184.543 131.992 184.472 131.21C184.295 129.227 183.991 127.227 184.091 125.232C184.195 123.175 184.564 121.121 185.267 119.186C186.067 119.186 186.818 119.391 187.568 119.675C188.147 119.894 189.423 120.81 189.981 120.336C191.375 119.159 186.507 117.849 185.816 117.79C185.94 117.509 186.165 116.575 186.437 116.433C186.747 116.27 187.414 116.462 187.707 116.542C188.413 116.732 189.05 117.034 189.697 117.369C190.087 117.574 190.548 117.879 190.914 117.435C191.295 116.972 190.914 116.587 190.524 116.35C189.505 115.727 188.232 115.129 187.024 115.09C188.755 111.605 192.279 109.696 196.065 109.711C197.69 109.717 199.365 110.393 200.894 110.9C201.379 111.06 201.869 111.22 202.342 111.406C202.903 111.629 203.411 111.996 203.981 112.183C204.265 112.183 204.669 112.458 204.953 112.559C205.331 112.559 206.63 113.712 206.864 112.844C207.014 112.29 205.644 111.605 205.272 111.403C204.197 110.814 203.065 110.529 201.916 110.005C201.225 109.69 200.513 109.397 199.796 109.151C199.645 109.098 199.305 109.083 199.214 108.952C198.96 108.588 199.477 108.573 199.757 108.552C201.86 108.398 203.889 109.85 205.857 110.621C206.477 110.864 207.1 111.077 207.738 111.273C208.408 111.48 209.377 111.978 210.083 111.886C210.621 111.818 211.022 111.288 210.872 110.742C210.727 110.218 210.21 110.076 209.746 109.927C208.689 109.587 207.617 109.305 206.571 108.929C205.233 108.446 203.975 107.746 202.616 107.325C201.278 106.91 199.864 106.875 198.529 107.316C198.292 107.393 197.897 107.66 197.654 107.663C197.359 107.669 196.854 107.334 196.579 107.222C195.737 106.875 194.896 106.531 194.045 106.217C191.405 105.245 188.711 104.362 186.035 103.496C182.901 102.483 179.8 101.327 176.74 100.112C173.881 98.9735 170.974 97.9274 168.139 96.7241C173.19 95.9209 178.471 94.6643 183.71 94.2286C188.986 93.79 194.278 93.5144 199.557 93.1024C205.012 92.6756 210.494 92.8713 215.955 92.6845C216.631 92.6608 217.308 92.646 217.984 92.643C218.601 92.643 219.464 92.8357 219.83 92.1777C220.631 90.7403 218.439 90.7492 217.706 90.7344C215.364 90.687 213.013 90.6781 210.671 90.6811C210.148 90.6811 209.501 90.8085 208.99 90.7077C208.42 90.5981 207.844 90.0676 207.44 89.6764C206.427 88.6954 205.842 87.504 205.242 86.2503C205.112 85.9747 204.976 85.4027 204.731 85.2219C204.474 85.0293 204.161 85.0707 204.09 85.4353C204.034 85.7168 204.418 86.2918 204.527 86.5259C204.675 86.8401 204.826 87.1513 204.973 87.4625C205.588 88.7339 206.376 89.8927 207.525 90.7433C207.091 90.7314 206.261 90.8796 205.854 90.7315C205.313 90.5329 204.743 89.7919 204.386 89.3711C203.662 88.5116 203.246 87.5277 202.841 86.4904C202.702 86.1407 202.492 85.4027 201.946 85.7761C201.441 86.1229 202.014 87.0594 202.17 87.4684C202.652 88.7369 203.257 89.8453 204.268 90.7759C203.916 90.7789 203.568 90.7907 203.216 90.7967C202.758 90.8026 201.996 90.9508 201.568 90.8263C200.962 90.6485 200.236 89.8601 199.796 89.3918C198.047 87.5247 196.529 85.6665 195.584 83.251C194.781 81.2031 193.9 78.9507 193.608 76.7605C193.466 75.7054 193.578 74.7007 193.779 73.6604C193.877 73.1536 193.883 73.0707 194.237 72.8158C194.529 72.6083 194.949 72.4838 195.268 72.3445C194.845 73.8679 194.875 75.6876 195.037 77.2436C195.12 78.0349 195.289 78.7343 195.631 79.4545C195.862 79.9376 196.55 80.8 197.005 79.9524C197.264 79.4664 196.653 78.5861 196.544 78.109C196.364 77.3236 196.349 76.5026 196.334 75.6995C196.316 74.76 196.349 73.8294 196.526 72.9047C196.582 72.6113 196.609 72.1252 196.783 71.8852C196.99 71.5977 197.315 71.568 197.69 71.4436C197.229 72.9284 197.061 74.674 197.285 76.2211C197.335 76.5708 197.495 78.0675 198.05 78.0675C198.786 78.0675 198.23 76.9768 198.148 76.5856C197.849 75.1749 198.027 73.5597 198.393 72.1697C198.458 71.9207 198.529 71.6184 198.644 71.3873C198.871 70.9308 198.602 71.2509 199.057 70.9931C199.409 70.7916 199.902 70.7056 200.289 70.5782C201.27 70.2551 202.238 69.8965 203.213 69.5557C203.086 70.1336 202.72 72.9877 203.715 72.878C204.226 72.8217 204.09 72.2853 204.034 71.9533C203.934 71.3428 203.904 70.7412 204.002 70.1277C204.037 69.9054 204.049 69.5527 204.161 69.369C204.327 69.0993 204.714 69.0578 205.044 68.957C205.541 68.8059 206.034 68.6606 206.533 68.5243C207.549 68.2487 208.592 68.0412 209.599 67.733C210.086 67.5848 210.698 67.41 211.084 67.0632C211.241 66.9239 211.279 66.6424 211.398 66.5386C211.649 66.3163 211.95 66.3904 212.142 66.0437C212.703 65.0212 211.483 64.6448 210.733 64.7871C208.152 65.2761 205.668 66.0822 203.21 67.0039C201.949 67.4752 200.711 67.9968 199.462 68.4947C198.845 68.7377 198.289 68.7703 197.657 68.9363C196.969 69.1141 196.319 69.4016 195.664 69.6713C193.274 70.6552 190.837 71.5028 188.457 72.5135C187.349 72.9847 186.265 73.5211 185.143 73.9568C183.829 74.4695 182.461 74.8252 181.114 75.2371C178.799 75.9484 176.66 77.1458 174.344 77.8393C171.683 78.6395 168.939 79.247 166.231 79.8635C164.754 80.1984 163.286 80.3881 161.792 80.6133C160.288 80.8415 158.803 81.1972 157.296 81.4046C157.916 80.6785 158.563 79.9761 159.195 79.2619C159.801 78.5772 160.309 77.7711 160.947 77.1191C161.281 76.7812 161.316 76.9679 161.818 76.9739C162.208 76.9768 162.625 76.9027 162.997 76.796C163.927 76.5293 164.733 75.9366 165.439 75.2934C165.749 75.0119 166.03 74.6355 166.358 74.3865C166.709 74.1198 166.736 74.019 166.966 73.61C167.406 72.8276 168 71.9029 168.609 71.2509C169.114 70.7115 169.66 70.2551 170.091 69.6476C170.52 69.0459 170.525 68.5036 170.446 67.7863C171.087 68.0975 171.775 67.4129 172.292 67.0988C172.912 66.7194 173.514 66.3134 174.105 65.8925C175.346 65.0093 176.725 64.3544 177.963 63.4771C180.6 61.61 182.656 59.1293 184.345 56.3938C185.545 54.4496 186.611 52.5706 187.29 50.3893C187.715 49.0201 188.032 47.6123 188.525 46.2668C188.986 45.0072 189.653 43.8691 190.303 42.7014C193.383 37.1682 195.12 30.9562 197.093 24.9725C197.979 22.2874 198.546 19.543 199.087 16.7719C199.211 16.1406 199.338 15.5034 199.424 14.8632C199.489 14.3683 199.74 13.411 199.483 12.9457C199.131 12.3115 198.6 12.8064 198.535 13.3014C198.428 14.1253 198.396 14.9255 198.221 15.7494C197.51 19.0954 196.591 22.3288 195.416 25.5356C194.196 28.8638 193.126 32.2306 191.729 35.4937C191.36 34.7468 190.684 34.1778 190.105 33.5969C189.78 33.2709 189.092 32.121 188.604 32.2869C187.754 32.5744 189.178 33.8192 189.455 34.0978C189.978 34.6253 190.654 35.1529 190.944 35.8523C191.458 37.0852 190.551 38.3566 190.019 39.4562C189.222 41.101 188.173 42.6155 187.399 44.2663C187.24 43.7565 187.012 42.8496 186.661 42.4347C186.398 42.1265 185.822 42.0316 185.804 42.6244C185.799 42.897 186.056 43.226 186.156 43.472C186.351 43.961 186.528 44.4589 186.667 44.9687C186.85 45.6355 186.696 45.9467 186.472 46.5958C186.053 47.805 185.719 49.0408 185.299 50.25C184.496 52.5706 183.069 54.6304 181.702 56.6517C180.393 58.584 178.607 60.4689 176.716 61.8382C175.721 62.5583 174.628 63.1215 173.633 63.8476C173.066 64.2655 172.513 64.7011 171.928 65.0953C171.376 65.4658 170.632 65.7414 170.156 66.2067C169.187 61.8145 166.795 58.0802 163.632 54.9475C160.191 51.5392 156.401 48.4362 151.575 47.3426C149.011 46.7617 146.43 46.3409 144.602 48.6881C145.13 46.409 146.282 44.6456 147.664 42.7785C149.082 40.861 150.704 39.059 152.402 37.3905C153.12 36.6851 153.891 36.0479 154.67 35.4137C155.078 35.0817 155.489 34.7498 155.858 34.3734C156.259 33.9614 156.363 33.6858 156.93 33.5347C158.076 33.2235 159.349 33.2205 160.522 33.3568C161.23 33.4398 163.192 34.1837 163.434 33.102C163.824 31.3741 158.173 31.9343 157.163 32.1625C157.373 31.543 157.606 31.3889 158.165 31.0481C158.433 30.8851 158.782 30.7547 159.018 30.5502C159.358 30.2568 159.476 30.1145 159.981 30.0256C160.436 29.9426 160.956 30.1205 161.387 30.0049C161.821 29.8863 162.111 29.4329 161.839 28.9942C161.567 28.5556 160.879 28.6297 160.436 28.6179C159.514 28.5941 158.67 28.9261 157.887 29.3943C158.478 26.9463 158.997 24.4835 159.532 22.0236C160.09 19.4422 160.799 16.9141 161.446 14.3564C162.057 11.9321 162.858 9.59968 163.667 7.23759C164.125 5.90392 164.538 4.55543 164.97 3.2099C165.073 2.88389 165.15 2.49565 165.306 2.18742C165.392 2.01849 165.572 1.99181 165.617 1.76064C165.732 1.14123 164.987 0.764835 164.5 1.0701L164.497 1.05528ZM85.8098 32.284C85.8315 32.3057 85.8315 32.3057 85.8098 32.284ZM140.765 60.9105C140.153 59.3724 140.52 57.2977 141.264 55.8515C141.775 54.8586 142.62 54.251 143.399 53.4953C144.212 52.7069 144.687 51.643 145.429 50.7924C147.809 48.0658 151.847 49.0023 154.759 50.2737C157.208 51.2814 159.736 53.193 161.768 55.0661C163.02 56.2219 163.98 57.6149 164.949 58.9634C165.809 60.1607 166.565 61.4944 167.149 62.8518C167.699 64.1291 168.207 65.442 168.511 66.8024C168.638 67.3714 168.795 67.8012 168.414 68.2546C167.991 68.7584 167.492 69.1615 167.025 69.6238C166.934 68.2754 166.609 66.995 166.051 65.7651C165.927 65.4895 165.522 64.3721 165.085 64.4996C164.521 64.6626 165.374 65.7325 165.516 66.0526C165.835 66.7787 166.092 67.5878 166.21 68.3732C166.287 68.8918 166.452 69.7869 166.328 70.3174C166.178 70.9664 165.475 71.7311 165.052 72.2556C164.533 72.8988 163.921 73.5211 163.236 73.9864C163.794 73.1359 164.955 71.7162 164.524 70.7056C164.515 70.6849 164.379 70.6612 164.373 70.6493C164.344 70.5663 164.394 70.43 164.376 70.3411C164.314 69.9943 164.302 69.6713 164.196 69.3275C164.039 68.8266 163.827 68.3346 163.629 67.8486C162.586 65.3087 160.773 63.0385 158.743 61.2247C156.54 59.2538 153.959 58.0535 151.126 57.2681C149.936 56.9391 148.74 56.6487 147.532 56.3909C146.498 56.1686 145.343 55.8692 144.288 56.0826C143.494 56.2427 141.571 56.8117 141.725 57.8994C141.834 58.6818 142.567 58.1454 142.992 58.0239C142.372 59.156 141.627 60.217 140.992 61.3403C140.91 61.2039 140.833 61.0617 140.768 60.9165L140.765 60.9105ZM88.344 69.3038C86.7255 67.8604 84.2592 66.6157 84.0377 64.2477C83.828 62.0338 84.1824 59.405 85.1069 57.3837C87.0947 53.0359 91.6432 49.6899 96.5462 50.1967C97.837 50.33 98.9032 51.7645 99.8011 52.6417C99.7686 52.6062 99.7361 52.5736 99.7007 52.538C100.885 53.7028 102.185 54.7341 103.455 55.804C101.381 55.2795 99.5146 55.1224 97.4619 55.8248C95.5568 56.4768 93.9027 57.7305 92.5589 59.2123C91.1707 60.7416 90.1546 62.4339 89.7116 64.467C89.3069 66.3193 89.1858 68.5984 89.6525 70.4448C89.2095 70.0743 88.7753 69.692 88.344 69.3097V69.3038ZM112.744 104.403C110.662 102.017 108.748 99.4418 107.02 96.7834C106.5 95.9861 105.965 95.1948 105.629 94.3057C105.448 93.8285 105.28 93.3425 105.088 92.8713C104.5 91.4042 103.738 90.1091 102.693 88.9384C101.476 87.5751 100.46 86.108 99.4496 84.5847C98.3184 82.8806 96.9804 81.2505 96.3867 79.2619C95.9319 77.7385 96.1564 76.0047 95.099 74.7363C94.1804 73.6367 93.2086 72.6646 92.1424 71.7399C91.0584 70.8004 91.3863 68.9007 91.5428 67.6471C91.7584 65.8925 91.9711 64.061 92.9133 62.5317C94.8627 59.3664 98.1678 56.8117 102.019 57.2118C102.855 57.2978 103.7 57.4015 104.521 57.5793C104.934 57.6712 105.345 57.7808 105.747 57.9231C106.29 58.1128 106.662 58.5129 107.097 58.8863C108.514 60.1074 110.174 61.3047 111.896 62.0664C112.194 62.1997 112.416 62.1612 112.708 62.2264C113.066 62.3064 113.435 62.4961 113.769 62.6324C114.442 62.9081 115.08 63.2519 115.777 63.4445C116.268 63.5808 116.737 63.7646 117.21 63.9572C117.57 64.1024 117.848 64.0906 118.214 64.1676C119.13 64.3544 120.004 64.7841 120.922 65.0005C122.774 65.4361 124.727 65.7058 126.49 66.4467C128.451 67.2736 130.108 68.7318 131.839 69.9469C133.387 71.0316 135.07 71.8496 136.919 72.2556C137.271 72.3327 137.306 72.2793 137.442 72.549C137.534 72.7298 137.542 73.0292 137.625 73.2218C137.835 73.7079 138.207 74.0842 138.641 74.3717C139.415 74.8815 140.399 75.1749 141.323 75.1571C140.419 76.4315 138.866 76.8464 137.362 76.8939C135.339 76.9561 133.818 75.7736 132.309 74.5584C131.083 73.5715 129.662 72.4423 128.15 71.9385C127.618 71.7607 127.479 71.5058 127.169 71.0464C126.883 70.6256 126.602 70.2018 126.333 69.7691C125.967 69.1793 125.657 68.3435 124.795 68.5125C122.677 68.9303 125.515 72.2556 126.035 73.0321C126.939 74.3836 127.843 75.735 128.735 77.0954C129.054 77.5814 129.325 78.106 129.718 78.5417C130.167 79.0396 130.708 79.4426 131.163 79.9376C132.306 81.1823 133.103 82.7294 133.921 84.1994C134.949 86.0458 135.936 87.9248 136.789 89.8601C137.631 91.7717 138.609 93.79 138.904 95.8765C138.189 95.672 137.265 96.1699 136.718 96.6085C136.098 97.1064 135.903 97.7614 135.877 98.529C135.283 97.874 134.911 97.0412 134.491 96.2677C133.983 95.3311 133.499 94.3827 133.02 93.4314C132.134 91.665 131.18 89.789 130.04 88.0937C129.417 87.1691 128.685 86.3333 127.996 85.459C127.68 85.0589 127.397 84.6114 126.818 84.6914C126.416 84.7477 125.808 85.1093 125.625 85.4768C125.217 86.3066 126.298 87.4506 126.647 88.156C127.163 89.1992 127.615 90.278 128.076 91.3449C128.658 92.6934 129.166 94.0656 129.523 95.4912C129.878 96.9078 130.368 98.366 130.554 99.8152C129.207 98.8757 127.539 100.307 127.479 101.703C124.765 97.9511 122.99 93.6151 120.447 89.7653C120.022 89.1221 119.165 87.7322 118.276 87.7322C117.263 87.7322 117.074 88.8524 117.603 89.5134C118.27 90.3432 118.84 91.0871 119.354 92.0296C119.951 93.1202 120.559 94.199 121.182 95.2748C122.346 97.2931 123.808 99.347 124.304 101.638C123.793 101.084 122.417 100.55 121.702 101.054C120.958 101.582 121.12 102.687 121.363 103.428C117.047 100.31 115.889 94.8006 112.502 90.9033C112.124 90.4677 111.66 89.9075 111.031 90.3284C110.67 90.5714 110.558 91.2471 110.57 91.6561C110.582 92.1096 110.942 92.6816 111.108 93.0995C111.362 93.7455 111.61 94.3887 111.834 95.0437C112.688 97.551 113.884 99.9042 114.927 102.334C113.603 101.223 112.791 103.695 112.974 104.643C112.894 104.566 112.818 104.486 112.744 104.403ZM144.926 58.4714C145.003 58.3025 145.024 58.1276 144.988 57.9438C146.944 58.1068 148.926 58.7055 150.804 59.2627C152.706 59.8258 154.594 60.5845 156.224 61.7463C157.76 62.8399 159.169 64.1736 160.321 65.6673C161.369 67.0276 162.949 69.2415 162.775 70.8864C162.695 71.6421 162.081 72.7091 161.679 73.3463C161.198 74.105 160.406 74.754 159.783 75.3972C158.067 77.1695 156.233 78.9062 154.65 80.7971C154.478 80.9986 154.328 81.289 154.133 81.4639C153.858 81.7129 153.651 81.6684 153.253 81.6625C152.55 81.6477 151.85 81.5736 151.156 81.4609C149.72 81.2268 148.305 80.8978 146.882 80.6015C145.745 80.3644 144.602 80.145 143.456 79.9613C143.346 79.9435 143.234 79.9168 143.122 79.905C142.915 79.8842 142.528 80.0235 142.383 79.988C142.159 79.9317 141.725 79.336 141.545 79.17C141.293 78.9359 141.039 78.7076 140.791 78.4705C142.652 77.6644 144.256 75.5246 143.757 73.4085C143.204 71.0731 140.416 70.9842 138.502 70.5989C139.459 68.5895 140.564 66.6453 141.527 64.6359C142.543 62.5109 143.863 60.5193 144.929 58.4743L144.926 58.4714ZM133.23 68.5569C131.809 67.5344 130.424 66.4497 128.93 65.5339C130.223 65.448 131.166 65.6495 132.123 66.5623C132.955 67.3566 133.664 68.2813 134.32 69.2238C133.948 69.0133 133.585 68.791 133.23 68.5569ZM141.016 74.4369C139.843 74.3213 138.405 73.7523 138.109 72.4957C139.061 72.6824 140.083 72.8276 140.989 73.1862C141.344 73.3255 141.592 73.4382 141.683 73.8353C141.825 74.4429 141.53 74.4666 141.016 74.4369ZM178.899 78.4765C181.135 77.5251 183.492 76.9324 185.737 76.0107C187.969 75.0919 190.12 73.9746 192.359 73.0618C191.945 74.5851 191.771 76.0699 192.016 77.6348C192.261 79.2085 192.734 80.7289 193.203 82.2493C193.732 83.9505 194.337 85.6427 195.297 87.1542C196.231 88.6242 197.427 89.8631 198.738 90.9982C195.637 91.1849 192.539 91.4487 189.434 91.6354C186.439 91.8132 183.353 91.8962 180.447 92.3259C180.399 92.3348 180.228 92.3674 180.284 92.3556C178.288 92.6134 175.928 93.1647 173.833 93.6418C172.218 94.0093 170.632 94.5013 169.01 94.8362C168.334 94.9755 167.646 95.0911 166.978 95.2719C166.582 95.3815 166.054 95.6809 165.667 95.6483C165.2 95.6068 164.571 95.1504 164.146 94.9518C163.345 94.5813 162.533 94.2494 161.715 93.9204C160.327 93.3603 158.938 92.7438 157.654 91.9732C155.486 90.6751 153.619 88.9473 151.336 87.83C150.145 87.2461 148.881 86.7008 147.848 85.8561C146.575 84.8188 145.523 83.4348 144.41 82.2315C146.312 82.7502 148.208 83.3459 150.143 83.7311C152.449 84.1935 154.732 84.1401 157.063 83.9119C159.092 83.7134 161.08 83.2006 163.1 82.9309C165.221 82.6464 167.279 82.1841 169.356 81.6595C171.547 81.1083 173.822 80.56 175.925 79.7242C175.907 79.7301 175.889 79.7361 175.874 79.742C176.235 79.6056 176.775 79.3597 177.218 79.1789C177.198 79.1848 177.177 79.1937 177.156 79.1996C177.741 78.9655 178.32 78.7195 178.899 78.4735V78.4765ZM46.639 94.7532C45.8356 94.4272 45.0234 94.1279 44.223 93.793C43.9305 93.6715 43.266 93.5173 43.1154 93.2713C42.9765 93.0431 43.0888 92.4297 43.0888 92.1392C43.0888 89.4245 43.5584 86.766 44.3559 84.1757C45.1327 81.6654 46.388 79.1848 48.1572 77.2317C48.5618 76.7842 48.996 76.4226 49.507 76.0996C49.7019 75.9751 49.9293 75.7736 50.1361 75.6906C50.2306 75.4564 50.3576 75.4505 50.5142 75.6728C50.6677 75.7795 50.8213 75.8862 50.9779 75.9899C51.9289 76.639 52.9036 77.2465 53.8458 77.9074C52.6969 78.9833 51.9348 80.4859 51.1344 81.8255C50.3694 83.1028 49.7521 84.4128 49.2028 85.7939C48.6002 87.3113 48.1424 88.9117 47.8293 90.5151C47.5369 92.0118 47.5753 93.5737 47.5162 95.0911C47.2209 94.9844 46.9255 94.8718 46.6331 94.7562L46.639 94.7532ZM137.531 86.4933C136.621 84.6321 135.628 82.8005 134.565 81.0223C134.022 80.1124 133.449 79.2322 132.752 78.432C132.205 77.8037 131.423 77.3028 130.988 76.5945C132.899 78.109 134.884 79.3508 137.398 79.2559C137.95 79.2352 138.558 79.0011 139.096 79.0277C139.524 79.0485 139.938 79.6471 140.272 79.988C141.143 80.883 141.799 81.9174 142.502 82.9428C143.751 84.7685 145.077 86.8608 146.894 88.1619C148.719 89.4689 150.913 90.1446 152.745 91.4309C152.718 91.4101 152.692 91.3924 152.665 91.3716C154.644 92.8179 156.64 94.0686 158.85 95.1355C161.112 96.2291 163.469 97.1835 165.773 98.1882C169.796 99.9397 174.002 101.513 178.093 102.975C179.525 103.487 181.294 104.095 182.759 104.628C180.438 105.28 178.028 106.401 176.137 107.912C174.516 109.21 173.364 111.054 172.504 112.93C170.463 117.381 170.333 122.304 172.342 126.782C166.597 122.07 160.823 117.393 154.942 112.85C151.746 110.381 148.639 107.832 145.201 105.707C143.775 104.824 142.1 103.985 140.404 103.819C138.653 103.647 137.17 104.163 135.51 104.64C133.971 105.082 132.35 105.375 130.755 105.529C128.953 105.701 126.862 105.84 125.096 105.396C125.899 104.975 126.254 103.81 126.009 102.96C127.081 104.202 129.367 104.777 130.858 104.018C132.512 103.176 132.645 101.155 132.385 99.5218C132.149 98.0459 131.612 96.5789 131.18 95.1503C130.66 93.4314 129.91 91.8191 129.207 90.1713C130.87 92.9957 131.981 95.9031 133.582 98.689C134.196 99.756 135.076 100.814 136.376 100.959C137.386 101.072 138.538 100.675 139.359 100.088C140.274 99.4359 140.992 98.4875 141.034 97.3376C141.078 96.1017 140.8 94.8006 140.478 93.6151C139.814 91.1582 138.665 88.7576 137.531 86.4963V86.4933ZM55.0568 79.167C54.8117 78.8973 56.5041 77.5133 56.6843 77.8837C56.7345 77.9845 55.175 79.2945 55.0568 79.167ZM64.3459 82.0211C62.4999 80.9482 60.7868 79.6353 59.0294 78.4231C60.2197 78.8262 61.3598 79.5286 62.3818 80.2488C63.3712 80.9452 64.6295 81.5824 65.3856 82.5486C65.0341 82.3827 64.6886 82.2078 64.3459 82.0211ZM53.1576 82.0478C52.7323 81.9085 54.0053 80.1806 54.1707 80.4533C54.2859 80.6429 53.2906 82.0863 53.1576 82.0478ZM60.1252 82.1396C59.8564 81.9351 60.9168 80.9097 61.1619 80.9186C61.6138 80.9364 60.964 81.4313 60.902 81.4846C60.7514 81.618 60.3083 82.276 60.1252 82.1367V82.1396ZM58.1168 84.7773C57.9011 84.6143 58.7725 83.3133 58.9999 83.4852C59.2037 83.6393 58.3412 84.9463 58.1168 84.7773ZM51.7074 84.89C51.4416 84.804 52.0618 83.2747 52.2922 83.5385C52.4606 83.7282 51.9378 84.9611 51.7074 84.89ZM56.6783 88.1767C56.4686 88.0908 57.0239 86.4726 57.2927 86.5052C57.5969 86.5408 56.9205 88.2804 56.6783 88.1767ZM50.2424 88.402C50.0209 88.3308 50.4964 86.8134 50.7209 86.8342C50.9956 86.8608 50.5762 88.5027 50.2424 88.402ZM55.8307 91.3449C55.8425 91.0901 56.1319 89.2763 56.5011 89.6734C56.5897 89.7682 56.2087 90.9389 56.1821 91.0663C56.1585 91.173 56.1969 91.4635 56.0433 91.4872C55.9488 91.502 55.8248 91.499 55.8307 91.3449ZM49.38 91.3123C49.1378 91.2353 49.4804 89.8986 49.7551 89.9905C49.9973 90.0735 49.6399 91.3983 49.38 91.3123ZM55.0627 94.3887C55.0804 94.2168 55.364 92.5364 55.5973 93.2654C55.6446 93.4106 55.4674 94.2197 55.3817 94.3383C55.3817 94.3383 55.0155 94.8332 55.0598 94.3887H55.0627ZM48.6504 95.0259C48.488 94.8421 48.8129 93.1558 49.0728 93.4106C49.2441 93.5796 49.0285 94.2109 48.996 94.4183C48.9842 94.5072 48.9281 95.3371 48.6504 95.0259ZM97.5003 94.0123C98.215 93.6122 97.964 94.3887 97.8458 94.7621C97.7188 95.1681 96.8888 96.9197 96.2479 96.4544C95.985 96.2617 97.2285 94.1812 97.4943 94.0152C97.4943 94.0152 97.4943 94.0152 97.4973 94.0152L97.5003 94.0123ZM96.564 97.0708C97.7011 96.8663 98.2387 95.2808 98.4336 94.2968C99.7864 96.9819 97.4235 99.3944 96.0175 101.345C95.2585 102.397 94.5732 103.508 93.6753 104.45C93.3091 104.836 92.8808 105.274 93.2648 105.82C93.6812 106.41 94.2808 106.134 94.6825 105.734C96.3661 104.059 97.6125 101.946 99.1159 100.115C100.525 98.3986 102.049 96.5314 104.001 95.426C105.398 98.28 107.374 100.856 109.374 103.307C108.529 103.947 107.593 104.35 106.967 105.263C106.361 106.143 106.14 107.293 106.73 108.238C107.755 109.874 110.053 109.495 111.551 108.926C110.682 109.536 109.814 110.233 109.04 110.956C108.455 111.501 108.015 112.094 107.888 112.909C107.581 114.927 109.551 115.781 111.243 115.68C112.321 115.615 113.122 115.12 114.032 114.604C114.714 114.216 115.464 113.943 116.188 113.632C117.883 112.909 119.552 111.869 121.33 111.371C119.962 112.023 118.681 112.95 117.431 113.804C116.309 114.572 115.322 115.76 114.111 116.368C113.137 117.346 111.734 118.158 110.65 118.973C108.771 120.389 106.984 121.877 105.023 123.184C103.165 124.423 101.115 125.511 99.3787 126.913C98.407 127.695 97.5387 128.608 96.5787 129.405C95.6306 130.193 94.6618 130.958 93.7196 131.755C93.5217 129.011 92.4407 126.249 91.1352 123.86C89.939 121.67 88.474 119.139 86.4744 117.589C88.0959 116.551 89.3719 115.218 90.3318 113.543C90.5829 113.108 90.6508 112.87 90.0542 112.737C89.8386 112.69 89.5934 112.71 89.3896 112.793C89.0204 112.945 88.6749 113.297 88.3559 113.537C87.709 111.975 87.8626 110.135 88.1255 108.502C88.2732 107.589 88.4563 106.644 88.8019 105.784C89.112 105.008 89.6289 104.4 90.0867 103.718C91.7939 101.179 93.9943 99.427 95.7606 96.8545C95.923 97.0797 96.3159 97.1064 96.561 97.0679L96.564 97.0708ZM54.4188 97.7792C54.2652 97.6102 54.5429 96.1017 54.8264 96.1462C55.0834 96.1877 54.7024 98.0963 54.4188 97.7792ZM116.911 103.143C116.575 101.911 115.866 100.755 115.328 99.6019C114.805 98.4756 114.25 97.3642 113.795 96.2084C115.313 98.9232 116.805 101.866 119.23 103.89C118.808 103.724 118.37 103.603 117.945 103.452C117.721 103.372 116.956 103.244 116.911 103.146V103.143ZM136.538 98.9261C136.479 97.8888 136.721 97.2279 137.646 96.7122C137.947 96.5433 138.414 96.2588 138.771 96.407C139.031 96.5166 139.019 96.7478 139.022 97.0382C139.031 97.9511 137.477 99.1929 136.538 98.9232V98.9261ZM48.4259 98.5201C48.4525 98.2949 48.547 96.6856 48.869 97.3198C48.931 97.4413 48.8129 98.3334 48.7479 98.4519C48.7479 98.4519 48.3787 98.9676 48.4259 98.5201ZM54.1412 100.236C54.1471 100.002 54.091 98.7957 54.4986 99.341C54.5488 99.4092 54.4897 100.307 54.407 100.358C54.3007 100.423 54.1353 100.408 54.1412 100.239V100.236ZM57.0062 99.4803C57.0062 99.4803 57.0032 99.5011 57.0003 99.51C57.0003 99.5011 57.0032 99.4892 57.0062 99.4803ZM129.086 102.438C128.563 102.385 128.244 102.423 128.215 101.854C128.194 101.505 128.259 101.149 128.439 100.844C128.744 100.334 129.387 100.061 129.969 100.183C130.746 100.349 130.678 100.93 130.498 101.57C130.282 102.328 129.831 102.48 129.089 102.435L129.086 102.438ZM122.928 104.098C122.284 104.027 122.195 103.721 122.003 103.123C121.882 102.746 121.741 102.251 121.903 101.86C122.252 101.019 123.631 101.673 124.062 102.115C124.461 102.524 124.682 102.983 124.393 103.535C124.127 104.044 123.451 104.119 122.928 104.095V104.098ZM114.67 105.538C114.191 105.482 113.94 105.378 113.772 104.922C113.645 104.581 113.565 104.213 113.597 103.849C113.633 103.425 113.869 102.613 114.419 102.687C114.879 102.749 115.367 103.615 115.464 103.982C115.547 104.296 115.606 104.821 115.503 105.132C115.361 105.556 115.127 105.562 114.673 105.541L114.67 105.538ZM109.353 108.025C109.064 107.954 108.656 107.868 108.458 107.622C109.126 107.42 109.696 106.99 109.997 106.362C110.086 106.175 110.201 105.941 110.23 105.728C110.292 105.283 109.988 105.147 110.396 104.883C110.747 104.655 110.865 104.96 111.143 105.242C111.353 105.455 111.554 105.675 111.775 105.876C112.437 106.481 113.296 106.984 114.191 107.127C112.77 107.737 110.901 108.274 109.35 108.019L109.353 108.025ZM114.702 110.206C115.018 109.88 114.676 109.154 114.433 108.881C115.813 107.974 117.086 106.904 118.45 105.977C119.437 105.307 120.228 105.316 121.413 105.82C122.414 106.247 123.468 106.727 124.526 107.103C126.026 107.634 127.63 107.696 129.207 107.764C131.871 107.882 134.556 107.367 137.079 106.528C136.707 106.943 136.405 107.417 136.042 107.838C135.77 108.152 135.933 108.072 135.561 107.974C135.307 107.906 135.079 107.814 134.813 107.782C133.948 107.672 133.029 107.838 132.185 108.025C129.919 108.523 127.739 108.837 125.427 109.009C123.002 109.187 120.825 109.317 118.63 110.476C117.024 111.323 115.319 111.987 113.721 112.844C112.779 113.351 111.551 114.373 110.328 113.994C110.514 113.908 110.682 113.789 110.842 113.659C110.827 113.668 110.812 113.677 110.797 113.688C111.438 113.176 111.722 112.396 111.719 111.578C111.719 111.38 111.645 111.193 111.63 111.006C111.607 110.648 111.35 110.953 111.71 110.597C111.834 110.476 112.035 110.411 112.189 110.322C112.632 110.067 113.382 109.604 113.908 109.249C114.052 109.456 114.159 110.766 114.711 110.2L114.702 110.206ZM108.417 106.747C108.629 106.282 109.002 105.926 109.391 105.606C109.344 106.164 108.943 106.638 108.417 106.747ZM177.717 119.705C178.125 118.709 175.806 117.998 175.124 117.657C174.808 117.5 174.492 117.343 174.176 117.186C173.851 117.026 173.774 117.052 173.724 116.774C173.639 116.294 174.105 115.393 174.262 114.939C175.195 112.227 176.69 110.025 179.076 108.416C180.145 107.696 181.294 107.05 182.476 106.531C183.527 106.069 184.8 105.494 185.976 105.704C187.364 105.953 188.773 106.617 190.105 107.073C191.434 107.527 192.781 107.924 194.089 108.431C192.113 108.502 189.733 109.53 188.223 110.775C186.685 112.044 185.642 113.626 184.744 115.378C182.759 119.245 181.56 123.398 181.864 127.778C182.059 130.59 182.263 133.489 183.279 136.139C181.932 134.965 180.559 133.824 179.218 132.644C178.663 132.155 178.09 131.684 177.523 131.207C177.059 130.816 176.604 130.419 176.146 130.018C175.942 129.841 175.473 129.562 175.331 129.301C175.304 129.251 175.186 129.218 175.177 129.165C175.157 129.061 175.372 128.774 175.381 128.617C175.402 128.214 175.166 127.719 175.036 127.345C174.702 126.409 174.347 125.478 174.049 124.53C173.42 122.526 173.166 120.455 173.396 118.362C174.182 118.756 174.974 119.148 175.75 119.562C176.276 119.841 177.345 120.621 177.717 119.711V119.705ZM138.115 108.075C138.62 107.497 139.294 106.341 140.047 106.054C140.759 105.784 142.121 106.602 142.785 106.937C143.34 107.216 143.937 107.491 144.469 107.82C145.018 108.161 145.564 108.532 145.086 109.101C144.773 109.471 144.413 109.8 144.064 110.135C142.528 111.614 140.942 112.802 139.185 113.994C139.191 113.979 139.191 113.964 139.193 113.949C138.6 114.269 138.053 114.794 137.501 115.188C137.333 115.307 137.153 115.446 137.005 115.564C137.031 115.544 136.65 115.855 136.68 115.837C136.367 115.994 136.234 115.837 135.85 115.819C134.952 115.772 133.915 116.172 133.266 116.785C132.657 117.36 132.14 118.667 132.935 119.319C131.098 119.278 131.892 116.895 132.35 115.985C132.793 115.102 133.422 114.32 133.971 113.502C135.239 111.617 136.65 109.806 138.115 108.075ZM86.0845 113.315C85.0065 111.821 83.8693 110.357 82.8444 108.825C82.6554 108.543 82.1533 107.894 82.2744 107.536C82.36 107.281 83.0718 107.222 83.2875 107.198C83.7955 107.142 84.3153 107.165 84.8204 107.242C85.3461 107.322 85.9339 107.589 86.4626 107.482C86.0904 109.844 86.0136 112.334 87.0031 114.554C86.9234 114.604 86.1879 113.466 86.0816 113.315H86.0845ZM131.151 110.413C132.238 110.179 133.366 109.8 134.491 109.853C133.933 110.944 132.941 111.878 132.247 112.885C131.248 114.332 130.087 116.208 129.801 117.968C129.671 118.774 129.766 119.64 130.256 120.312C130.398 120.508 130.649 120.656 130.767 120.852C130.917 121.098 130.864 120.979 130.832 121.258C130.74 122.064 130.309 122.997 130.052 123.765C129.792 124.542 129.517 125.315 129.201 126.071C129.083 125.14 128.247 124.21 127.243 124.619C127.282 122.342 127.704 120.132 128.206 117.918C128.392 117.088 128.578 116.261 128.8 115.44C129.033 114.578 129.597 113.205 129.314 112.31C129.098 111.623 128.289 111.664 127.97 112.221C127.71 112.675 127.595 113.38 127.429 113.89C127.27 114.394 127.119 114.904 126.998 115.419C126.552 117.36 126.076 119.325 125.719 121.287C125.477 122.612 125.306 123.952 125.288 125.3C125.273 126.509 125.365 127.763 125.22 128.96C125.187 127.496 124.381 125.988 122.715 126.69C122.37 123.878 122.473 120.997 122.76 118.184C122.872 117.067 122.957 115.926 123.285 114.85C123.477 114.222 123.69 113.588 123.959 112.989C124.171 112.518 124.511 111.937 123.903 111.578C124.192 111.403 124.479 111.193 124.798 111.074C125.173 110.935 125.604 110.953 126.014 110.935C126.729 110.905 127.471 110.825 128.174 110.825C129.175 110.757 130.17 110.627 131.151 110.413ZM109.56 113.217C109.415 112.464 110.405 111.658 110.868 111.246C110.989 111.611 110.854 112.239 110.688 112.565C110.591 112.755 109.646 113.724 109.56 113.217ZM119.18 123.729C119.079 121.424 118.97 119.038 119.339 116.75C119.428 116.196 119.558 115.662 119.771 115.138C119.986 114.604 120.219 114.358 120.654 114.003C121.351 113.428 122.039 112.844 122.765 112.307C122.441 113.445 122.024 114.566 121.817 115.733C121.634 116.765 121.531 117.814 121.401 118.851C121.126 121.018 121.005 123.255 121.085 125.437C120.598 124.998 119.906 124.879 119.375 125.315C119.283 124.79 119.218 124.26 119.18 123.727V123.729ZM141.639 115.004C141.955 114.782 142.271 114.566 142.575 114.329C142.398 114.69 142.144 115.476 141.825 115.722C141.66 115.852 141.223 115.781 140.939 115.879C140.08 116.175 139.442 117.046 139.078 117.841C139.031 117.583 138.892 117.091 139.019 116.883C139.137 116.691 139.56 116.492 139.737 116.362C140.363 115.896 140.998 115.452 141.636 115.001L141.639 115.004ZM117.204 124.601C116.876 124.393 116.513 124.227 116.161 124.061C115.83 123.904 115.771 123.937 115.709 123.558C115.529 122.488 115.712 121.172 115.827 120.099C115.884 119.577 115.963 119.065 116.096 118.555C116.173 118.261 116.226 117.734 116.4 117.494C116.711 117.064 117.313 116.735 117.712 116.388C117.16 119.02 117.1 121.99 117.316 124.672C117.281 124.648 117.245 124.625 117.21 124.601H117.204ZM113.893 116.537C113.893 116.537 113.884 116.542 113.878 116.548C113.884 116.545 113.887 116.542 113.893 116.537ZM133.404 119.168C132.704 118.851 133.215 117.79 133.599 117.44C134.172 116.913 135.064 116.614 135.838 116.652C135.286 117.227 134.81 117.87 134.282 118.463C134.098 118.667 133.667 119.254 133.404 119.168ZM139.749 118.798C139.699 118.777 139.648 118.756 139.595 118.736C139.879 118.552 140.038 117.885 140.239 117.589C140.505 117.194 140.833 116.854 141.282 116.676C140.921 117.319 140.641 118.961 139.746 118.798H139.749ZM84.9976 138.839C84.8351 135.647 83.955 132.594 82.7322 129.654C81.4887 126.664 79.8524 123.398 77.395 121.228C79.3237 120.763 81.1697 120.004 82.998 119.245C83.3436 119.103 83.9195 118.7 84.2651 118.721C84.7879 118.753 85.7124 119.856 86.0727 120.265C87.5909 121.987 88.8403 124.079 89.8327 126.145C90.0749 126.649 90.2905 127.167 90.4884 127.695C90.6538 128.137 91.15 129.218 90.9403 129.595C90.7217 129.986 89.9626 130.336 89.5905 130.596C89.2479 130.834 88.9052 131.068 88.5626 131.305C88.1845 131.569 87.4432 131.915 87.4196 132.437C87.3871 133.16 88.1137 133.113 88.5301 132.858C89.4841 132.265 90.4234 131.583 91.3242 130.911C91.4896 131.634 91.658 132.538 91.6078 133.282C91.5753 133.735 91.1441 133.951 90.7896 134.257C90.4027 134.589 90.0187 134.926 89.6259 135.252C88.1107 136.512 86.566 137.745 84.9976 138.933C84.9946 138.809 84.971 138.924 84.9976 138.841V138.839ZM116.832 126.207C116.321 125.979 116.025 125.217 115.901 124.705C116.332 124.909 116.764 125.111 117.136 125.413C117.6 125.783 117.499 126.157 116.829 126.207H116.832ZM127.53 128.217C127.24 127.736 127.323 126.918 127.308 126.376C127.296 125.961 127.131 125.271 127.763 125.38C128.741 125.552 128.699 128.391 127.53 128.217ZM120.479 128.557C120.11 127.923 119.871 127.224 119.664 126.524C119.505 125.988 119.906 125.611 120.414 125.926C120.642 126.065 120.748 126.302 120.902 126.506C121.126 126.806 121.176 126.827 121.224 127.25C121.262 127.594 121.425 128.089 121.233 128.294C121.085 128.454 120.618 128.741 120.479 128.557ZM123.796 130.389C123.217 130.196 123.055 128.694 122.955 128.181C122.937 128.083 122.763 127.618 122.833 127.499C122.931 127.339 123.477 127.313 123.655 127.354C124.284 127.505 124.34 128.427 124.369 128.966C124.387 129.322 124.198 129.977 124.449 130.259C124.239 130.371 124.033 130.41 123.796 130.389Z" fill="#2C2C2C"/>
<path d="M114.135 116.362C114.144 116.355 114.144 116.355 114.135 116.362Z" fill="#2C2C2C"/>
<path d="M54.6053 77.8451C52.6559 78.8438 51.5188 81.2326 50.5855 83.1175C50.1011 84.0985 49.6669 85.0973 49.2298 86.099C49.0053 86.6177 48.7985 87.1333 48.6243 87.6698C48.5357 87.9424 48.453 88.2151 48.3762 88.4907C48.3437 88.6034 48.0985 89.5458 48.2432 88.9709C47.8032 90.7046 47.366 92.4562 47.1475 94.2374C47.0441 95.0909 46.9968 95.9563 47.112 96.8128C47.177 97.2811 47.1829 98.2828 47.5403 98.6326C47.7264 98.8134 48.0837 98.8963 48.3082 98.7185C48.5179 98.5525 48.453 98.3125 48.4766 98.0428C48.5563 97.2011 48.6213 96.3475 48.7306 95.5058C48.7483 95.3725 48.7956 95.1798 48.7808 95.0702C48.7808 95.085 48.6302 94.9783 48.6184 94.9072C48.5859 94.673 48.6951 94.3707 48.7306 94.1366C48.7542 93.9825 48.7395 93.4787 48.8546 93.3957C48.9876 93.3008 49.1293 93.3957 49.1175 93.5587C49.6551 91.6145 50.2901 89.7029 51.1673 87.8832C52.077 86.0012 53.164 84.1815 54.2125 82.3736C54.3927 82.0624 55.7218 80.1034 54.5138 80.2753C54.1062 80.3346 53.6631 81.4638 53.4091 81.8313C53.2319 82.0891 53.034 82.261 52.845 82.5663C52.7505 82.7204 52.6559 82.8774 52.5585 83.0316C52.4876 83.1471 52.4167 83.2657 52.3458 83.3813C52.2483 83.4583 52.2513 83.5235 52.3517 83.5769C52.2631 83.8881 52.1716 84.1963 52.0239 84.5016C51.8171 84.9372 51.4804 84.9787 51.7196 84.4186C51.5247 84.7387 51.3298 85.0617 51.1348 85.3818C51.7699 83.7043 52.4846 82.095 53.4505 80.5806C53.8492 79.9552 54.307 79.4129 54.9155 78.992C55.1606 78.8231 55.4146 78.7164 55.4176 78.3696C55.4205 77.9843 54.9598 77.6465 54.6024 77.8332L54.6053 77.8451ZM50.2517 88.3989C50.0302 88.3277 50.5057 86.8103 50.7302 86.831C51.0049 86.8577 50.5855 88.4996 50.2517 88.3989ZM49.3922 91.3092C49.15 91.2322 49.4926 89.8955 49.7673 89.9874C50.0066 90.0704 49.658 91.3863 49.3922 91.3092Z" fill="#2C2C2C"/>
<path d="M37.8257 84.8312C37.3354 86.1975 37.0016 87.5815 36.854 89.0308C36.786 89.7124 36.7506 90.406 36.7565 91.0906C36.7594 91.4136 36.9514 92.7354 37.5362 91.9856C37.8287 91.6063 37.619 90.5008 37.6426 90.0355C37.6839 89.2768 37.7578 88.521 37.8759 87.7712C37.997 86.9947 38.1979 86.239 38.4548 85.498C38.5523 85.2165 38.7325 84.8727 38.4371 84.6534C38.2333 84.5022 37.9173 84.5704 37.8257 84.8282V84.8312Z" fill="#2C2C2C"/>
<path d="M35.4089 86.6392C35.0869 87.5935 34.824 88.536 34.7059 89.5407C34.6675 89.8785 34.4873 90.6135 34.6911 90.9099C34.9215 91.2478 35.2789 91.1144 35.4059 90.7677C35.5359 90.4061 35.4591 89.8282 35.5034 89.4429C35.5595 88.9301 35.6392 88.4174 35.7751 87.9195C35.8608 87.6143 36.2063 87.0215 36.1236 86.7103C36.035 86.3813 35.5359 86.2569 35.4089 86.6392Z" fill="#2C2C2C"/>
<path d="M20.3516 80.2546C20.0119 80.4057 19.8052 81.1556 19.6782 81.4786C19.4862 81.9676 19.371 82.4863 19.2558 82.996C19.1879 83.2924 18.6149 85.5804 19.628 85.0262C20.0001 84.8246 19.8968 84.1904 19.9499 83.8318C20.0297 83.2746 20.136 82.7086 20.2955 82.1721C20.4255 81.7276 20.839 81.2059 20.8921 80.7644C20.9305 80.4591 20.7356 80.0797 20.3516 80.2546Z" fill="#2C2C2C"/>
<path d="M14.5584 79.8818C14.1803 80.7117 13.9263 81.5326 13.7402 82.4247C13.6811 82.7033 13.4626 83.1864 13.687 83.4324C13.8968 83.6636 14.1892 83.5983 14.3546 83.3672C14.5525 83.0916 14.52 82.5196 14.579 82.1906C14.6499 81.7934 14.7385 81.4022 14.8714 81.0229C14.963 80.7621 15.3263 80.2316 15.2643 79.953C15.1845 79.6033 14.712 79.544 14.5584 79.8818Z" fill="#2C2C2C"/>
<path d="M40.8424 67.0198C39.785 67.6599 39.0496 68.3594 38.4027 69.4233C38.1665 69.8116 37.7795 70.348 37.7146 70.8044C37.6496 71.2608 38.0158 71.5542 38.4205 71.2786C38.7454 71.0563 39.0348 70.2206 39.2534 69.8886C39.5369 69.4589 39.8412 68.9699 40.2163 68.6142C40.5441 68.3031 41.1289 68.1489 41.3948 67.7992C41.6724 67.4347 41.3386 66.7234 40.8395 67.0227L40.8424 67.0198Z" fill="#2C2C2C"/>
<path d="M39.7412 66.2014C38.7901 66.7141 38.2171 67.2772 37.653 68.2019C37.4551 68.5249 36.9973 69.094 36.9884 69.4911C36.9796 69.9446 37.3783 70.1431 37.7416 69.8912C38.0606 69.6689 38.2821 69.0614 38.48 68.7383C38.737 68.3234 38.9998 67.867 39.3809 67.5558C39.6614 67.3276 40.2758 67.1883 40.4028 66.8267C40.5357 66.4503 40.134 65.9939 39.7412 66.2043V66.2014Z" fill="#2C2C2C"/>
<path d="M38.1311 64.4343C37.3809 65.0241 36.7222 65.6909 36.2467 66.5296C36.0665 66.8497 35.656 67.4217 35.7475 67.807C35.8627 68.2812 36.3382 68.2308 36.5982 67.9493C36.8285 67.6973 36.9437 67.2706 37.1269 66.9801C37.3779 66.5771 37.6792 66.171 38.0129 65.8332C38.2788 65.5635 38.8931 65.2878 38.9345 64.8788C38.9788 64.4491 38.4678 64.1735 38.1281 64.4402L38.1311 64.4343Z" fill="#2C2C2C"/>
<path d="M24.4275 53.3953C24.1941 53.585 24.4865 53.9406 24.7199 53.7569C24.9562 53.5702 24.6608 53.2086 24.4275 53.3953Z" fill="#2C2C2C"/>
<path d="M24.3322 53.0601C23.5435 53.6647 22.8199 54.2811 22.2942 55.1436C22.111 55.4429 21.6414 56.0683 21.7123 56.4476C21.8068 56.9396 22.3444 56.9663 22.6516 56.6699C22.9617 56.3676 23.1507 55.8312 23.4165 55.4785C23.7267 55.0665 24.0781 54.6872 24.4769 54.3582C24.7663 54.1181 25.2596 53.9107 25.2389 53.4691C25.2182 53.0186 24.6807 52.7933 24.3322 53.063V53.0601Z" fill="#2C2C2C"/>
<path d="M26.1109 54.3941C25.7181 54.4622 25.3371 55.1291 25.1303 55.4254C24.8143 55.8818 24.5484 56.3827 24.3003 56.8777C24.0818 57.3133 23.686 57.9653 23.6476 58.4484C23.6122 58.8604 23.8868 59.2546 24.3387 58.9789C24.6725 58.7744 24.8556 57.8735 25.0151 57.5326C25.2307 57.0792 25.47 56.6287 25.7358 56.2019C25.9396 55.8759 26.5008 55.3899 26.5983 55.0372C26.6898 54.7112 26.5156 54.32 26.1109 54.3911V54.3941Z" fill="#2C2C2C"/>
<path d="M117.443 115.058C116.551 116.03 115.376 116.765 114.31 117.529C113.087 118.407 111.894 119.325 110.665 120.194C109.625 120.929 108.494 121.521 107.419 122.197C106.211 122.959 104.867 123.442 103.739 124.334C101.594 126.029 99.6006 127.914 97.5449 129.716C96.9571 130.229 96.3368 130.709 95.7225 131.192C95.2794 131.539 94.6178 131.874 94.2634 132.301C93.8824 132.757 94.163 133.323 94.7714 133.187C95.3592 133.056 96.0326 132.458 96.5584 132.158C98.6023 130.991 100.693 129.387 102.649 127.885C103.647 127.117 104.622 126.302 105.655 125.582C106.598 124.927 107.59 124.402 108.461 123.649C109.294 122.929 110.231 122.331 111.084 121.634C111.834 121.024 112.475 120.283 113.184 119.628C114.067 118.81 114.989 118.042 115.834 117.18C116.271 116.738 116.696 116.291 117.148 115.861C117.245 115.769 117.7 115.413 117.73 115.277C117.762 115.117 117.656 114.832 117.449 115.055L117.443 115.058ZM112.159 120.612C112.13 120.639 112.13 120.639 112.159 120.612ZM96.5554 132.152C96.5908 132.133 96.5908 132.133 96.5554 132.152ZM96.5968 132.129C96.6617 132.091 96.6617 132.091 96.5968 132.129Z" fill="#2C2C2C"/>
<path d="M139.782 110.553C139.292 110.665 140.089 112.052 140.258 112.304C140.467 112.615 141.599 113.759 141.986 113.229C142.257 112.855 141.551 112.82 141.368 112.731C141.141 112.615 140.931 112.396 140.775 112.198C140.562 111.922 140.122 110.479 139.779 110.556L139.782 110.553Z" fill="#2C2C2C"/>
<path d="M122.155 118.191C121.277 118.662 124.331 120.257 124.266 119.421C124.246 119.137 123.171 119.039 122.925 118.885C122.716 118.754 122.379 118.073 122.155 118.194V118.191Z" fill="#2C2C2C"/>
<path d="M118.358 119.604C117.498 119.799 120.174 121.186 120.112 120.416C120.092 120.137 119.557 120.108 119.368 120.037C119.12 119.945 118.621 119.545 118.358 119.604ZM119.099 119.927C119.099 119.927 119.111 119.933 119.117 119.936C119.111 119.936 119.105 119.93 119.099 119.927ZM119.79 120.167C119.804 120.169 119.804 120.169 119.79 120.167Z" fill="#2C2C2C"/>
<path d="M115.509 119.065C114.907 119.205 116.389 120.316 116.389 120.316C116.366 120.304 116.629 120.423 116.487 120.36C116.744 120.476 116.965 120.36 116.809 120.091C116.708 119.919 116.286 119.821 116.124 119.691C116.026 119.614 115.672 119.03 115.512 119.065H115.509Z" fill="#2C2C2C"/>
<path d="M105.121 109.311C104.365 109.913 103.677 110.559 103.015 111.264C102.687 111.614 102.365 111.964 102.052 112.325C101.849 112.559 101.571 113.063 102.132 112.915C102.386 112.85 102.841 112.138 103.027 111.937C103.414 111.525 103.804 111.113 104.211 110.722C104.471 110.47 104.743 110.233 105.024 110.002C105.139 109.907 105.505 109.699 105.514 109.513C105.523 109.314 105.29 109.181 105.124 109.311H105.121Z" fill="#2C2C2C"/>
<path d="M153.39 64.2488C153.337 64.6815 153.925 64.6548 154.188 64.7259C154.58 64.8326 154.938 65.0193 155.257 65.2742C155.886 65.7751 156.415 66.433 156.908 67.0613C157.386 67.6719 157.77 68.3298 158.122 69.0203C158.302 69.373 158.931 71.2757 159.43 70.9319C160.104 70.4696 157.756 67.0198 157.324 66.4745C156.781 65.7869 156.178 65.043 155.446 64.5481C155.145 64.3466 153.479 63.4693 153.387 64.2488H153.39Z" fill="#2C2C2C"/>
<path d="M153.461 66.5271C152.856 66.616 153.884 67.1969 153.967 67.2502C154.404 67.5436 154.764 67.9289 155.11 68.3231C155.44 68.6995 155.745 69.0937 156.028 69.5056C156.155 69.6894 156.471 70.4155 156.764 70.128C157.186 69.716 154.274 66.4115 153.461 66.5241V66.5271ZM156.321 69.9531C156.33 69.9689 156.33 69.9689 156.321 69.9531ZM156.338 69.9857C156.35 70.0055 156.35 70.0055 156.338 69.9857Z" fill="#2C2C2C"/>
<path d="M180.716 86.4291C180.132 86.6039 181.647 89.5943 182.087 89.2476C182.421 88.9868 181.603 87.9761 181.481 87.7094C181.354 87.4279 181.136 86.2987 180.716 86.4261V86.4291Z" fill="#2C2C2C"/>
<path d="M178.806 87.8133C178.386 88.0771 179.364 89.5826 179.771 89.3277C180.176 89.0729 179.228 87.5466 178.806 87.8133Z" fill="#2C2C2C"/>
<path d="M107.826 18.5838C106.583 18.7527 107.705 21.6749 107.882 22.3951C108.24 23.8473 108.65 25.2877 109.064 26.7251C109.498 28.2336 109.935 29.7392 110.402 31.2388C110.609 31.9027 111.105 34.5849 112.289 33.678C113.081 33.0734 111.941 30.9247 111.698 30.1511C111.223 28.6396 110.765 27.1252 110.316 25.6048C109.894 24.1822 109.486 22.7567 109.111 21.3193C108.955 20.7206 108.819 18.4415 107.826 18.5778V18.5838Z" fill="#2C2C2C"/>
<path d="M117.952 25.9336C117.509 26.2774 117.654 27.2109 117.645 27.7088C117.636 28.3727 117.656 29.0395 117.695 29.7005C117.719 30.1124 117.76 33.6926 118.986 32.4834C119.381 32.0922 119.113 31.2208 119.074 30.72C119.012 29.8931 118.953 29.0633 118.947 28.2304C118.944 27.6644 119.119 26.9116 118.994 26.3692C118.885 25.901 118.377 25.6076 117.952 25.9336Z" fill="#2C2C2C"/>
<path d="M138.71 27.8063C138.323 28.8673 137.726 30.1684 137.664 31.3065C137.599 32.5305 139.117 32.6224 139.466 31.5465C139.637 31.022 139.735 30.4707 139.9 29.9432C140.06 29.4334 140.402 28.817 140.443 28.2835C140.52 27.2966 139.073 26.7927 138.707 27.8063H138.71Z" fill="#2C2C2C"/>
<path d="M51.4783 55.1259C50.8846 55.7749 53.4159 57.4998 53.9003 57.9266C55.0404 58.9342 56.2218 59.8767 57.4062 60.828C59.5033 62.5085 61.7953 64.3786 63.851 65.8249C63.7535 65.7567 64.0046 65.9316 64.0253 65.9494C63.9278 65.8812 64.4654 66.2991 64.5687 66.3346C64.8611 66.4324 65.1713 66.3821 65.2924 66.059C65.5139 65.4692 64.4949 64.995 64.1168 64.7283C64.4092 64.9358 63.597 64.3549 63.5143 64.2926C63.1983 64.0644 62.8793 63.8333 62.5662 63.6021C62.0109 63.1901 61.4674 62.7663 60.921 62.3455C59.7957 61.4741 58.6733 60.5939 57.5539 59.7167C56.5172 58.9046 55.5041 58.0807 54.5117 57.2123C53.9859 56.75 53.4484 56.2995 52.9256 55.8342C52.6155 55.5556 51.9509 54.622 51.4813 55.1347L51.4783 55.1259ZM63.9721 65.9108C63.9573 65.899 63.8658 65.8367 63.9721 65.9108ZM63.8185 65.8012C63.8008 65.7893 63.7447 65.7478 63.8185 65.8012Z" fill="#2C2C2C"/>
<path d="M58.084 65.3624C56.6722 65.801 58.9346 67.0784 59.295 67.3007C59.7528 67.5822 60.2165 67.8578 60.6743 68.1394C61.0406 68.3646 61.5131 68.8418 61.968 68.6195C63.1524 68.0357 61.141 67.031 60.757 66.7998C60.2608 66.4975 59.7587 66.1982 59.2684 65.884C58.9317 65.6677 58.5241 65.2261 58.084 65.3624Z" fill="#2C2C2C"/>
<path d="M131.121 13.3966C130.22 13.4589 130.312 14.4132 130.342 15.0563C130.359 15.489 130.386 15.9247 130.38 16.3574C130.38 16.55 130.368 16.7397 130.356 16.9324C130.356 16.9146 130.3 17.7622 130.324 17.3799C130.04 21.5024 129.636 25.6161 129.476 29.7445C129.438 30.7374 129.26 31.9258 129.435 32.9068C129.556 33.6033 130.448 33.9648 130.894 33.298C131.325 32.6519 131.095 31.2264 131.13 30.4706C131.169 29.6171 131.234 28.4849 131.281 27.8151C131.464 25.1626 131.677 22.516 131.886 19.8635C131.99 18.5535 132.137 17.2287 132.123 15.9128C132.114 15.1601 132.35 13.3137 131.124 13.3966H131.121Z" fill="#2C2C2C"/>
<path d="M36.0431 107.88C35.5823 107.889 34.6283 107.811 34.2473 108.135C33.9283 108.404 33.9608 108.914 34.3152 109.139C34.7553 109.418 35.7359 109.252 36.2587 109.29C36.9026 109.335 37.5495 109.394 38.1933 109.447C39.4959 109.557 40.7984 109.664 42.101 109.782C42.7655 109.845 43.4301 109.907 44.0947 109.963C44.4018 109.99 44.709 110.016 45.0162 110.037C45.1225 110.046 46.0529 110.111 45.7339 110.088C46.0322 110.108 46.4782 110.138 46.6879 110.153C48.9297 110.304 51.2838 110.209 53.434 110.95C53.8386 111.089 54.2462 111.312 54.6509 111.045C55.0969 110.748 55.1382 110.091 54.7454 109.732C54.388 109.403 53.688 109.296 53.2332 109.163C52.6926 109.003 52.158 108.914 51.5998 108.852C49.0804 108.576 46.5284 108.561 44.0002 108.351C41.3655 108.134 38.6955 107.823 36.049 107.88H36.0431ZM46.4605 110.138C46.493 110.138 46.5255 110.141 46.558 110.144C46.5255 110.144 46.493 110.141 46.4605 110.138ZM46.9036 110.168C46.8386 110.162 46.7765 110.159 46.7116 110.156L46.9036 110.168ZM45.9495 110.102C45.8708 110.096 45.8708 110.096 45.9495 110.102Z" fill="#2C2C2C"/>
<path d="M54.7955 114.026C53.4191 114.314 52.0368 114.577 50.6516 114.838C50.182 114.927 49.5351 114.933 49.4199 115.52C49.2988 116.127 49.8246 116.382 50.3208 116.353C51.6972 116.27 53.1622 115.822 54.512 115.547C55.017 115.443 55.6905 115.416 55.7377 114.761C55.7732 114.257 55.2829 113.866 54.7985 114.029L54.7955 114.026Z" fill="#2C2C2C"/>
<path d="M103.916 142.046C102.921 143.258 101.967 144.502 101.075 145.792C100.658 146.393 100.189 146.989 99.8224 147.62C99.6423 147.931 99.4769 148.284 99.8047 148.578C100.035 148.785 100.357 148.761 100.596 148.592C101.166 148.189 101.624 147.217 102.032 146.654C102.513 145.987 102.995 145.317 103.497 144.665C103.937 144.096 104.761 143.412 105 142.739C105.231 142.09 104.386 141.471 103.916 142.043V142.046Z" fill="#2C2C2C"/>
<path d="M111.866 144.414C111.134 144.663 110.886 145.931 110.605 146.568C110.236 147.41 109.858 148.249 109.483 149.088C108.753 150.718 108.044 152.36 107.388 154.022C106.092 157.312 105.176 160.714 104.349 164.146C104.134 165.032 103.918 165.921 103.673 166.802C103.502 167.418 103.067 168.461 104.045 168.66C104.928 168.841 105.096 167.768 105.288 167.16C105.56 166.295 105.799 165.418 106.027 164.537C106.922 161.1 107.917 157.706 109.237 154.407C109.985 152.54 110.806 150.7 111.63 148.865C112.073 147.875 112.551 146.891 112.944 145.878C113.234 145.134 112.844 144.079 111.863 144.414H111.866Z" fill="#2C2C2C"/>
<path d="M120.628 147.295C119.657 147.337 119.86 148.504 119.875 149.15C119.896 150.081 119.875 151.012 119.846 151.942C119.816 152.959 119.784 153.975 119.763 154.992C119.751 155.647 119.66 156.844 120.693 156.663C121.591 156.506 121.373 155.273 121.393 154.615C121.423 153.655 121.461 152.695 121.491 151.738C121.517 150.816 121.538 149.891 121.514 148.967C121.5 148.332 121.568 147.254 120.631 147.295H120.628Z" fill="#2C2C2C"/>
<path d="M131.822 143.495C131.09 143.895 131.627 144.77 131.831 145.318C132.174 146.231 132.442 147.173 132.726 148.11C133.308 150.024 133.845 151.948 134.344 153.886C135.319 157.683 136.385 161.42 137.655 165.128C137.963 166.02 138.267 166.915 138.577 167.807C138.722 168.228 138.866 168.645 139.014 169.063C139.147 169.437 139.239 170.074 139.608 170.308C139.915 170.504 140.326 170.397 140.515 170.098C140.736 169.748 140.515 169.366 140.399 169.019C140.074 168.053 139.75 167.084 139.428 166.117C138.166 162.348 137.003 158.566 136.055 154.701C135.535 152.579 134.974 150.472 134.356 148.374C134.055 147.357 133.76 146.335 133.414 145.333C133.201 144.71 132.844 142.938 131.819 143.498L131.822 143.495Z" fill="#2C2C2C"/>
<path d="M142.764 139.805C142.064 140.185 142.714 141.189 142.909 141.678C143.269 142.594 143.635 143.507 144.002 144.42C144.368 145.336 144.734 146.249 145.124 147.152C145.331 147.636 145.706 149.197 146.536 148.747C147.283 148.341 146.385 146.989 146.17 146.474C145.792 145.561 145.434 144.639 145.068 143.72C144.708 142.817 144.347 141.913 143.99 141.009C143.801 140.532 143.544 139.382 142.761 139.805H142.764Z" fill="#2C2C2C"/>
<path d="M150.948 136.856C150.36 137.176 150.644 137.781 150.877 138.219C151.255 138.934 151.636 139.645 152.023 140.356C152.756 141.702 153.515 143.032 154.288 144.354C155.813 146.956 157.449 149.493 159.132 151.995C159.558 152.626 159.986 153.257 160.417 153.886C160.716 154.321 161.147 155.302 161.732 155.356C162.505 155.427 162.47 154.656 162.186 154.215C161.785 153.589 161.353 152.979 160.946 152.359C159.324 149.899 157.726 147.425 156.223 144.888C155.31 143.347 154.424 141.788 153.553 140.223C153.134 139.47 152.735 138.705 152.33 137.944C152.067 137.452 151.704 136.447 150.948 136.859V136.856Z" fill="#2C2C2C"/>
<path d="M157.484 131.89C156.829 132.515 158.376 133.905 158.745 134.373C159.109 134.83 160.225 136.878 160.99 136.166C161.658 135.544 160.03 134.13 159.676 133.683C159.298 133.208 158.226 131.19 157.484 131.89Z" fill="#2C2C2C"/>
<path d="M202.514 50.6001C200.571 52.2153 198.633 53.8395 196.734 55.5051C195.798 56.3231 194.862 57.1381 193.908 57.9383C193.562 58.2258 192.945 58.5458 192.965 59.0645C192.986 59.6306 193.556 59.7965 193.981 59.5594C194.469 59.2897 194.912 58.777 195.334 58.4184C195.827 58.0005 196.321 57.5856 196.808 57.1618C197.747 56.3408 198.684 55.514 199.635 54.7019C200.615 53.8661 201.599 53.0304 202.585 52.2005C202.892 51.9427 203.454 51.6433 203.519 51.2106C203.598 50.6861 202.952 50.2415 202.517 50.6001H202.514Z" fill="#2C2C2C"/>
</g>
<defs>
<clipPath id="clip0_3427_8244">
<rect width="220" height="169.459" fill="white" transform="translate(0 0.94606)"/>
</clipPath>
</defs>
</svg>
