<svg width="519" height="289" viewBox="0 0 519 289" fill="none" xmlns="http://www.w3.org/2000/svg">
<path d="M507.465 287.686L507.735 288.456L506.192 289L505.922 288.23C503.291 280.835 503.035 267.474 502.806 255.405C502.604 244.849 502.424 235.299 500.723 231.935C497.225 225.009 496.422 210.349 496.82 194.102C485.465 187.975 464.419 175.133 449.889 166.266C447.066 164.543 444.495 162.974 442.292 161.633C442.018 162.076 441.748 162.493 441.485 162.872H441.477L441.44 162.932V162.94C439.417 165.752 434.98 166.123 430.006 165.035C425.236 163.987 419.913 161.6 415.863 158.78C415.807 158.743 415.672 158.645 415.45 158.488C410.627 155.019 406.093 148.551 401.247 141.636C397.801 136.722 394.198 131.579 390.253 127.187C403.071 149.651 414.943 179.003 420.844 193.584C422.39 197.406 423.524 200.206 424.136 201.565C427.116 208.15 431.703 214.081 436.005 219.644C443.163 228.898 449.551 237.161 446.894 246.069C449.896 255.54 450.876 265.087 450.981 272.501C451.038 276.495 450.842 279.866 450.572 282.277C450.279 284.912 449.78 286.586 449.367 286.856C449.168 286.988 448.958 287.033 448.729 286.995C448.647 286.98 448.568 286.962 448.493 286.939C447.13 286.507 444.724 283.564 443.211 278.275C441.755 273.177 441.016 265.789 442.693 256.22C443.245 253.07 444.056 249.688 445.19 246.069C442.66 238.283 438.718 230.591 432.694 224.273C429.451 220.872 417.826 207.669 406.682 193.224C399.956 184.507 393.406 175.339 388.961 167.595C387.723 165.433 386.004 163.578 384.502 161.96C382.922 160.256 381.567 158.792 381.101 157.354C380.895 156.712 380.873 156.074 380.996 155.454C380.02 155.015 379.183 154.246 378.598 153.048C377.99 151.813 377.933 150.698 378.256 149.711C377.329 149.039 376.582 148.018 376.124 146.539C375.719 145.236 375.723 144.132 376.019 143.201C375.066 142.541 374.368 141.602 374.079 140.322C373.733 138.786 372.904 136.433 371.973 133.797C369.379 126.455 366.046 117.013 369.845 114.843C370.892 114.246 372.037 114.032 373.181 114.156C374.056 114.25 374.931 114.543 375.76 115.009C378.504 115.812 381.075 117.133 383.5 118.834C382.719 117.614 381.939 116.431 381.158 115.298C379.42 114.569 377.483 113.95 375.276 113.436C365.243 111.093 365.719 108.488 366.275 106.472C365.892 106.247 365.502 105.999 365.123 105.744C363.587 104.707 362.135 103.457 361.977 102.932V102.924C361.97 102.906 361.962 102.879 361.955 102.834C361.842 102.245 362.24 101.336 362.81 100.413C363.069 99.9924 363.373 99.5532 363.674 99.144C362.341 98.8925 361.054 98.9563 359.819 99.3918C357.829 100.094 350.675 110.729 341.351 124.585C322.621 152.421 295.262 193.081 280.777 194.335C277.053 194.658 273.405 194.057 269.955 192.732C267.448 191.767 265.046 190.419 262.801 188.764C261.348 189.901 259.738 190.99 257.959 192.022C245.636 199.189 234.484 196.67 225.75 189.665C221.658 193.629 216.02 196.122 208.543 196.171C196.427 196.253 187.276 191.669 180.966 184.976C178.613 186.628 175.936 187.904 172.922 188.681C166.027 190.453 159.8 189.627 154.616 187.251C150.712 185.46 147.406 182.799 144.853 179.709C142.297 176.62 140.492 173.091 139.587 169.577C139.148 167.873 138.923 166.168 138.93 164.52C137.455 164.93 135.972 165.271 134.501 165.538C128.398 166.641 122.52 166.439 118.293 164.314C112.651 161.476 108.11 157.699 102.937 151.257C97.825 144.891 92.0858 135.892 84.0082 122.562C78.8245 114.01 71.6252 99.7934 65.0602 84.0078C59.8391 71.4543 55.0045 57.8986 51.8928 45.3789C50.1174 38.2387 50.0949 31.6467 51.6939 25.7904C53.0451 20.8463 55.5412 16.4354 59.1071 12.6701C33.2001 12.7977 1.0022 13.4434 0.848302 13.4472L0.033782 13.4622L0 11.8329L0.81452 11.8179C0.968415 11.8179 34.4163 11.1422 60.7324 11.0671C60.9764 10.8419 61.2204 10.6204 61.4719 10.4026C62.185 9.77947 62.8682 9.41909 63.5138 9.2877C64.0168 9.18634 64.486 9.22388 64.9176 9.38905C65.3343 9.55048 65.7096 9.82452 66.0399 10.1999C66.2501 10.4402 66.4416 10.7292 66.6142 11.0558C67.1284 11.0558 67.6389 11.0558 68.1419 11.0558C67.9617 9.73818 67.9017 8.76964 67.988 8.28913C68.0293 8.07139 68.1006 7.85366 68.2057 7.63217C69.1404 5.68384 73.1116 3.4164 77.9274 1.87725C82.6531 0.368137 88.2609 -0.495289 92.6075 0.304318C93.7374 0.510789 94.7884 0.829881 95.7267 1.28036C103.538 5.02688 105.28 31.1399 105.828 39.3199C105.876 40.0256 105.914 40.5925 105.948 41.0505C106.169 43.8022 103.223 46.6965 99.8219 50.0339C96.4099 53.3862 92.5099 57.2191 91.2487 61.4536C90.2353 64.8548 93.7561 74.2135 98.5869 84.2931C105.265 98.2243 114.419 113.372 117.73 116.349C121.491 119.727 124.851 119.048 127.061 118.601C128.034 118.406 128.826 118.244 129.497 118.41C135.443 115.358 142.192 113.537 146.156 116.72C151.08 120.677 155.622 125.738 158.726 130.772C161.609 135.445 163.264 140.119 162.866 143.922C163.178 145.803 162.791 147.699 161.86 149.549C160.021 153.206 156.009 156.704 151.02 159.535C147.833 161.344 144.241 162.887 140.563 164.032C140.503 165.692 140.709 167.426 141.16 169.168C142 172.445 143.701 175.749 146.107 178.658C148.517 181.571 151.625 184.079 155.288 185.757C160.156 187.987 166.016 188.764 172.513 187.093C175.253 186.388 177.697 185.239 179.859 183.745C175.835 179.067 173.106 173.504 171.631 167.839C170.07 161.832 169.916 155.698 171.124 150.375C172.554 144.068 175.891 138.884 181.064 136.328C184.731 134.514 187.798 135.201 190.136 137.551C192.05 139.473 193.428 142.537 194.201 146.231C194.959 149.857 195.143 154.114 194.682 158.518C193.698 167.891 189.791 177.941 182.272 183.977C188.289 190.295 197.001 194.609 208.532 194.53C215.424 194.481 220.649 192.21 224.466 188.584C224.139 188.298 223.817 188.009 223.501 187.709C219.459 183.932 216.02 179.199 213.34 174.119C210.66 169.044 208.731 163.616 207.695 158.454C205.522 147.616 207.301 137.867 214.335 134.65C219.207 132.42 223.64 134.315 227.131 138.621C230.423 142.683 232.866 148.945 233.992 155.852C235.115 162.733 234.938 170.286 233.001 176.965C231.74 181.305 229.743 185.28 226.887 188.471C235.118 194.999 245.587 197.319 257.141 190.6C258.717 189.684 260.155 188.719 261.465 187.716C258.638 185.411 256.093 182.618 253.928 179.499C249.765 173.5 246.998 166.292 246.375 159.062C245.955 154.189 246.507 149.302 248.252 144.755C249.829 140.652 252.452 138.847 255.474 138.779C259.1 138.7 263.24 141.238 266.712 145.356C270.117 149.392 272.917 154.97 273.96 161.063C275.469 169.877 273.333 179.773 264.103 187.683C266.134 189.143 268.292 190.337 270.537 191.196C273.754 192.432 277.158 192.991 280.638 192.691C294.349 191.504 321.446 151.235 340 123.665C349.497 109.55 356.786 98.7161 359.282 97.8376C361.02 97.222 362.844 97.252 364.725 97.8113C364.867 97.6499 364.987 97.5185 365.078 97.4322C365.971 96.5763 366.707 96.0957 367.604 96.0394C368.471 95.9831 369.36 96.3473 370.554 97.1844C371.811 98.0666 371.567 99.617 370.836 101.269C371.027 101.423 371.215 101.569 371.406 101.731C371.537 101.423 371.661 101.119 371.785 100.826C372.45 99.2266 372.994 97.9164 373.658 97.6537C373.865 97.5748 374.131 97.5711 374.431 97.6349C375.013 97.7588 376.151 98.1942 377.179 98.7236C378.298 99.2942 379.334 100.019 379.6 100.698C379.69 100.931 379.716 101.167 379.664 101.404C379.311 103.048 380.204 105.072 381.833 107.061C383.699 109.344 386.503 111.532 389.543 113.101C392.009 114.374 394.641 115.204 397.017 115.677C399.888 116.247 402.35 116.296 403.679 115.958C407.421 115.012 420.893 124.12 432.739 132.127C436.08 134.387 439.293 136.557 441.992 138.313C447.059 141.61 450.67 143.851 450.865 143.55C452.044 141.737 447.325 138.475 441.68 134.574C434.368 129.522 425.63 123.481 425.258 116.728C425.254 116.626 425.247 116.529 425.247 116.428C424.62 116.743 423.952 117.009 423.258 117.231C421.531 117.779 419.617 118.046 417.695 118.027C415.769 118.008 413.836 117.711 412.076 117.13C410.053 116.465 408.247 115.433 406.911 114.036C406.596 114.171 406.243 114.273 405.845 114.34C395.493 116.048 387.302 111.577 383.121 106.487C381.668 104.719 380.685 102.86 380.253 101.149C379.795 99.3317 379.942 97.6499 380.775 96.3435C381.815 94.7143 383.868 93.7345 387.07 93.8921C390.632 93.7307 395.433 94.1774 400.691 94.673C410.785 95.619 422.589 96.7227 429.98 93.9109C431.193 93.4491 432.375 93.115 433.546 92.9349C433.512 92.8936 433.482 92.856 433.456 92.8147C432.788 91.8875 432.855 91.0278 433.985 90.2132C440.753 85.3292 454.322 95.6528 467.358 105.571C475.593 111.836 483.607 117.937 489.26 119.765C493.847 121.248 497.416 123.204 499.766 125.734C502.18 128.332 503.306 131.507 502.919 135.359C502.792 136.62 502.653 137.994 502.502 139.473C501.617 148.183 500.374 160.443 499.473 173.286C510.028 180.546 518.335 186.688 518.583 187.927C518.601 188.024 518.613 188.118 518.616 188.204C519.131 188.952 519.101 190.063 518.688 191.35C518.342 192.439 517.708 193.678 516.924 194.902C516.147 196.11 515.219 197.319 514.266 198.37C511.961 200.904 509.405 202.489 508.061 201.265C507.96 201.171 507.863 201.07 507.772 200.953C506.913 199.853 507.123 198.25 507.93 196.535C508.647 195.01 509.841 193.359 511.117 191.955C511.916 191.076 512.757 190.284 513.542 189.669C514.06 189.263 514.653 188.982 515.227 188.753C512.04 189.053 509.094 192.698 507.153 195.104C506.125 196.381 505.336 197.353 504.672 197.571C504.132 197.747 501.846 196.737 498.411 194.935C498.055 210.605 498.85 224.6 502.176 231.181C504.038 234.871 504.225 244.605 504.432 255.36C504.661 267.294 504.912 280.508 507.457 287.667L507.465 287.686ZM496.868 192.469C497.045 186.433 497.379 180.208 497.796 174.108C495.532 172.565 493.167 170.966 490.761 169.352C474.85 158.675 457.193 147.44 454.45 146.55C451.233 145.506 447.719 151.907 444.709 157.395C444.169 158.382 443.639 159.344 443.129 160.229C445.34 161.573 447.918 163.146 450.745 164.873C465.106 173.639 485.923 186.339 496.868 192.469ZM497.923 172.231C498.813 159.708 500.018 147.834 500.881 139.327C501.031 137.848 501.17 136.474 501.298 135.213C501.632 131.86 500.659 129.109 498.573 126.86C496.422 124.544 493.085 122.731 488.764 121.334C482.841 119.416 474.715 113.237 466.367 106.885C453.808 97.3271 440.727 87.3751 434.939 91.5534C434.755 91.6848 434.717 91.7899 434.781 91.88C434.98 92.1578 435.378 92.4656 435.907 92.8072C436.309 92.8222 436.714 92.856 437.116 92.9086C439.477 93.2314 441.849 94.2826 444.394 96.2759C446.627 98.0253 454.716 105.004 460.823 110.583C464.993 114.393 468.27 117.655 468.308 118.451C468.323 118.744 468.27 119.003 468.158 119.224C467.884 119.772 467.384 119.998 466.69 119.926C466.262 119.885 465.736 119.712 465.132 119.423C463.462 118.62 460.984 116.825 458.297 114.378C455.249 111.604 451.878 108.139 448.853 105.03C445.208 101.288 442.082 98.0704 440.764 97.3233C439.841 96.8015 438.951 96.3322 438.11 95.893C437.127 95.3787 436.215 94.8982 435.449 94.4365C433.858 94.4477 432.247 94.8156 430.558 95.4576C422.822 98.4007 410.811 97.2745 400.545 96.3135C397.73 96.0507 395.05 95.7992 392.644 95.649C392.955 95.8667 393.229 96.0957 393.462 96.336C393.961 96.8503 394.291 97.4134 394.4 97.999C394.524 98.6485 394.382 99.2904 393.92 99.8723C393.27 100.698 391.923 101.385 389.693 101.742C386.199 102.305 383.609 101.348 382.235 99.9924C382.002 99.7634 381.8 99.5194 381.631 99.2641C381.634 99.7371 381.706 100.244 381.837 100.77C382.213 102.26 383.083 103.893 384.378 105.47C388.263 110.2 395.898 114.344 405.582 112.749C405.672 112.734 405.755 112.715 405.837 112.692C405.079 111.502 404.617 110.117 404.554 108.533C404.449 105.999 405.132 105.004 406.051 104.966C406.731 104.94 407.429 105.526 407.962 106.438C408.39 107.17 408.758 108.161 408.927 109.182C409.155 110.579 409.032 112.032 408.232 113.056C409.366 114.19 410.886 115.039 412.586 115.594C414.197 116.123 415.961 116.397 417.714 116.413C419.47 116.428 421.208 116.187 422.77 115.692C423.693 115.399 424.556 115.012 425.315 114.535C425.57 111.998 426.456 109.922 427.274 108.803C427.585 108.379 427.912 108.06 428.216 107.876C428.764 107.546 429.282 107.553 429.71 107.943C430.025 108.232 430.202 108.732 430.172 109.46C430.055 112.035 428.798 114.029 426.887 115.444C426.872 115.834 426.876 116.24 426.898 116.649C427.225 122.603 435.607 128.395 442.615 133.242C448.969 137.634 454.284 141.309 452.239 144.451C451.334 145.84 446.976 143.513 441.106 139.695C438.227 137.822 435.089 135.701 431.827 133.497C420.262 125.677 407.114 116.792 404.077 117.558C402.542 117.944 399.809 117.91 396.705 117.295C394.194 116.795 391.416 115.913 388.796 114.566C385.561 112.899 382.569 110.556 380.568 108.109C378.68 105.804 377.648 103.367 378.035 101.231C377.847 100.968 377.179 100.567 376.436 100.188C375.599 99.7597 374.709 99.4068 374.206 99.2754C374.082 99.5494 373.718 100.428 373.29 101.464C373.099 101.922 372.9 102.402 372.69 102.887C375.693 105.68 378.771 109.419 381.856 113.807C389.427 116.968 393.304 122.002 398.57 128.838C399.171 129.619 399.787 130.419 400.327 131.113C401.303 132.367 407.369 136.838 414.29 141.673C422.706 147.556 432.349 153.945 435.704 155.8C436.628 156.31 438.756 157.587 441.725 159.385C442.224 158.518 442.738 157.579 443.268 156.611C446.582 150.574 450.445 143.532 454.945 144.996C457.816 145.927 475.653 157.256 491.658 167.997C493.787 169.427 495.885 170.846 497.916 172.235L497.923 172.231ZM499.349 175.171C498.944 181.237 498.621 187.397 498.46 193.351C501.71 195.134 503.809 196.152 504.177 196.035C504.383 195.968 505.036 195.161 505.892 194.102C508.174 191.275 511.699 186.909 515.906 187.12C513.463 185.017 507.104 180.482 499.349 175.174V175.171ZM445.456 99.2529C446.807 100.578 448.361 102.177 450.024 103.885C453.023 106.967 456.368 110.402 459.397 113.162C461.975 115.508 464.306 117.208 465.838 117.944C466.074 118.057 466.284 118.147 466.465 118.207C465.706 117.321 463.019 114.791 459.723 111.78C454.915 107.384 448.864 102.117 445.456 99.2529ZM387.017 95.5401C386 95.5927 385.107 95.7016 384.356 95.878C383.399 96.1032 382.869 96.5425 382.712 97.0417C382.633 97.2933 382.644 97.5711 382.738 97.8564C382.847 98.1792 383.061 98.5133 383.376 98.8249C384.438 99.8723 386.522 100.597 389.434 100.128C391.221 99.8423 392.223 99.3805 392.636 98.8587C392.779 98.6748 392.828 98.4833 392.79 98.2956C392.741 98.0403 392.565 97.7588 392.287 97.4735C391.375 96.5387 389.562 95.7504 387.437 95.5739C387.295 95.5627 387.152 95.5514 387.013 95.5439L387.017 95.5401ZM407.121 111.637C407.418 111.014 407.44 110.215 407.312 109.438C407.177 108.619 406.885 107.831 406.547 107.249C406.314 106.851 406.145 106.588 406.115 106.588C406.111 106.588 406.13 107.106 406.183 108.461C406.231 109.652 406.566 110.71 407.121 111.634V111.637ZM427.259 112.827C427.916 111.998 428.351 111.022 428.494 109.903C428.04 110.568 427.574 111.581 427.259 112.827ZM372.078 104.208C371.29 105.807 370.366 107.2 369.27 107.523C369.233 107.534 369.195 107.542 369.161 107.549C368.846 107.609 368.351 107.482 367.765 107.234C367.525 108.492 368.024 110.057 375.64 111.836C377.014 112.155 378.286 112.516 379.476 112.914C376.969 109.456 374.488 106.498 372.074 104.208H372.078ZM368.839 105.946C369.469 105.729 370.167 104.49 370.817 103.071C370.61 102.894 370.4 102.71 370.194 102.545C369.848 103.18 369.465 103.803 369.113 104.392C368.805 104.899 368.52 105.372 368.302 105.766C368.553 105.886 368.741 105.958 368.835 105.95L368.839 105.946ZM366.035 104.385C366.324 104.58 366.617 104.771 366.894 104.948C367.127 104.524 367.416 104.051 367.72 103.547C368.103 102.913 368.523 102.222 368.887 101.558C367.686 100.709 366.504 100.049 365.352 99.6133C364.972 100.105 364.548 100.698 364.195 101.269C363.839 101.843 363.569 102.331 363.557 102.496C363.704 102.729 364.815 103.562 366.035 104.385ZM367.701 97.6762C367.315 97.7025 366.909 97.9652 366.388 98.442C367.416 98.9075 368.463 99.5232 369.522 100.274C369.871 99.4443 369.987 98.7836 369.619 98.5246C368.749 97.9164 368.167 97.6424 367.705 97.6724L367.701 97.6762ZM397.279 129.833C392.809 124.029 389.371 119.57 383.71 116.51C384.784 118.121 385.857 119.806 386.923 121.548C392.798 126.74 397.839 133.933 402.583 140.701C407.346 147.496 411.802 153.855 416.404 157.162C416.449 157.196 416.58 157.286 416.798 157.436C420.686 160.143 425.784 162.433 430.352 163.435C434.717 164.393 438.535 164.179 440.111 161.986L440.141 161.941C440.385 161.588 440.637 161.202 440.892 160.789C437.945 159.002 435.832 157.737 434.916 157.23C431.534 155.357 421.824 148.926 413.356 143.006C406.322 138.092 400.124 133.505 399.04 132.112C398.364 131.245 397.812 130.528 397.276 129.829L397.279 129.833ZM517.141 190.877C517.284 190.427 517.367 190.025 517.367 189.706C517.1 189.822 516.804 189.931 516.492 190.044C515.839 190.284 515.084 190.558 514.555 190.971C513.853 191.523 513.08 192.251 512.337 193.07C511.154 194.372 510.058 195.878 509.417 197.24C508.865 198.415 508.651 199.429 509.067 199.962C509.094 199.996 509.128 200.03 509.169 200.067C509.683 200.533 511.357 199.159 513.065 197.282C513.958 196.298 514.833 195.164 515.557 194.031C516.274 192.912 516.845 191.808 517.141 190.87V190.877ZM386.064 122.971C383.812 120.955 381.443 119.247 378.932 118.004C379.093 118.241 379.247 118.488 379.39 118.744C380.647 120.944 381.342 123.827 380.989 127.13C380.677 130.028 379.803 132.112 378.65 133.287C377.952 134 377.145 134.394 376.282 134.458C375.434 134.522 374.559 134.255 373.711 133.643C373.684 133.625 373.658 133.606 373.632 133.583C374.529 136.121 375.317 138.381 375.674 139.962C375.843 140.72 376.252 141.305 376.819 141.745C377.156 141.335 377.562 140.975 378.024 140.664C379.183 139.879 380.677 139.421 382.171 139.214C383.643 139.012 385.133 139.049 386.296 139.256C387.955 139.552 389.082 140.269 389.051 141.275C389.025 142.206 387.982 143.059 386.432 143.637C385.358 144.035 383.999 144.342 382.588 144.47C381.169 144.598 379.683 144.541 378.365 144.215C378.08 144.143 377.806 144.061 377.536 143.967C377.404 144.56 377.434 145.255 377.686 146.058C377.99 147.042 378.478 147.751 379.082 148.239C379.341 147.92 379.641 147.62 379.972 147.334C380.719 146.7 381.634 146.167 382.61 145.743C383.571 145.322 384.589 145.007 385.542 144.797C387.997 144.256 390.211 144.511 390.628 145.532C391.007 146.463 389.975 147.807 388.222 148.87C387.422 149.358 386.465 149.812 385.448 150.154C384.42 150.499 383.32 150.736 382.246 150.773C381.391 150.803 380.553 150.713 379.78 150.469C379.66 151.036 379.731 151.659 380.062 152.331C380.437 153.093 380.978 153.6 381.619 153.908C381.826 153.566 382.074 153.236 382.351 152.917C383.196 151.956 384.345 151.107 385.557 150.462C386.773 149.816 388.061 149.362 389.179 149.196C390.583 148.986 391.784 149.226 392.418 150.06C392.918 150.713 392.617 151.576 391.754 152.436C391.157 153.029 390.249 153.694 389.179 154.279C388.117 154.861 386.889 155.368 385.658 155.665C384.619 155.912 383.568 156.014 382.588 155.894C382.539 156.216 382.558 156.543 382.663 156.858C383.016 157.951 384.254 159.287 385.703 160.853C387.269 162.538 389.059 164.472 390.388 166.788C394.798 174.476 401.303 183.58 407.981 192.233C419.084 206.622 430.656 219.768 433.884 223.154C439.409 228.951 443.23 235.858 445.835 242.942C446.398 235.738 440.854 228.571 434.728 220.65C430.367 215.012 425.716 208.998 422.661 202.245C422.023 200.837 420.889 198.032 419.343 194.207C413.014 178.564 399.712 145.683 386.075 122.975L386.064 122.971ZM375.122 116.525C372.288 115.722 370.655 115.909 370.092 117.201C369.405 118.766 369.848 121.792 371.263 126.413C372.209 129.503 373.433 131.436 374.66 132.318C375.182 132.694 375.693 132.863 376.166 132.825C376.624 132.791 377.074 132.559 377.487 132.138C378.395 131.211 379.097 129.462 379.367 126.954C379.683 124.018 379.075 121.473 377.975 119.543C377.34 118.432 376.541 117.527 375.666 116.882C375.49 116.75 375.31 116.63 375.126 116.521L375.122 116.525ZM378.331 142.514C378.466 142.556 378.605 142.597 378.748 142.631C379.889 142.912 381.188 142.961 382.438 142.848C383.699 142.736 384.904 142.462 385.853 142.113C386.784 141.767 387.407 141.437 387.411 141.238C387.411 141.163 386.841 141.02 386.007 140.874C384.99 140.694 383.684 140.66 382.389 140.84C381.113 141.016 379.863 141.392 378.932 142.022C378.71 142.173 378.512 142.338 378.331 142.518V142.514ZM380.595 148.99C381.101 149.118 381.638 149.166 382.186 149.148C383.095 149.114 384.037 148.911 384.926 148.611C385.831 148.307 386.676 147.905 387.374 147.481C388.432 146.839 389.164 146.287 389.108 146.152C389.006 145.9 387.591 146.028 385.883 146.403C385.016 146.595 384.108 146.876 383.256 147.248C382.419 147.612 381.642 148.063 381.019 148.588C380.865 148.72 380.722 148.855 380.595 148.994V148.99ZM383.327 154.294C383.954 154.313 384.615 154.227 385.275 154.073C386.371 153.814 387.456 153.363 388.395 152.849C389.326 152.342 390.102 151.775 390.602 151.28C390.842 151.04 391.202 151.164 391.116 151.055C390.887 150.751 390.241 150.694 389.412 150.818C388.47 150.957 387.37 151.347 386.323 151.903C385.272 152.462 384.284 153.187 383.575 153.994C383.489 154.092 383.406 154.193 383.331 154.291L383.327 154.294ZM449.348 272.527C449.255 265.853 448.444 257.421 446.042 248.911C445.287 251.584 444.713 254.114 444.296 256.501C442.671 265.789 443.377 272.925 444.777 277.828C445.948 281.924 447.509 284.368 448.549 285.145C448.639 284.638 448.778 283.594 448.943 282.1C449.21 279.731 449.401 276.424 449.345 272.524L449.348 272.527ZM255.264 178.579C257.415 181.676 259.952 184.439 262.763 186.684C271.701 179.161 273.78 169.731 272.346 161.352C271.355 155.556 268.694 150.255 265.462 146.422C262.298 142.672 258.623 140.356 255.504 140.423C253.147 140.476 251.075 141.962 249.772 145.349C248.121 149.647 247.603 154.291 248.004 158.931C248.605 165.876 251.262 172.805 255.268 178.575L255.264 178.579ZM224.612 186.526C224.939 186.83 225.273 187.131 225.607 187.424C228.332 184.413 230.235 180.644 231.429 176.526C233.298 170.091 233.463 162.793 232.375 156.13C231.29 149.493 228.97 143.509 225.858 139.665C222.844 135.945 219.076 134.282 215.007 136.144C208.769 139 207.267 148.025 209.294 158.146C210.3 163.165 212.177 168.44 214.782 173.369C217.383 178.294 220.709 182.878 224.612 186.523V186.526ZM173.211 167.437C174.634 172.914 177.276 178.283 181.173 182.78C188.364 177.051 192.11 167.385 193.056 158.364C193.499 154.125 193.326 150.041 192.602 146.576C191.893 143.182 190.661 140.408 188.98 138.715C187.152 136.876 184.723 136.354 181.788 137.803C177.089 140.127 174.041 144.906 172.72 150.743C171.567 155.819 171.717 161.682 173.215 167.437H173.211ZM139.016 162.797C139.114 161.9 139.283 161.025 139.531 160.177C139.144 159.959 138.739 159.708 138.322 159.422C135.083 157.211 130.815 152.909 127.208 148.1C125.567 145.912 124.028 143.719 122.61 141.7C119.701 137.555 117.325 134.165 116.345 133.85C115.681 133.636 114.645 133.437 113.391 133.197C107.866 132.131 98.2566 130.28 92.9829 121.987C89.1092 115.894 79.913 99.6733 73.7535 84.8712C69.846 75.4861 67.1585 66.6417 67.7816 61.2021C68.6486 53.6415 70.0412 50.2291 70.9984 47.8828C71.7341 46.0771 72.1957 44.9509 71.8729 42.9087C71.0509 37.6906 69.602 31.1624 68.187 24.7843C67.3462 20.989 66.5166 17.2462 65.8297 13.8451C65.7396 13.4059 65.6383 13.0079 65.5182 12.6513C64.1782 12.6513 62.8081 12.6551 61.4193 12.6626C57.4293 16.4729 54.6779 21.0415 53.2628 26.2221C51.7389 31.8081 51.7652 38.1223 53.473 44.9922C56.5622 57.4143 61.3705 70.895 66.5654 83.3846C73.1078 99.1102 80.2621 113.24 85.4007 121.721C93.4333 134.98 99.1387 143.922 104.206 150.236C109.217 156.479 113.597 160.128 119.021 162.857C122.906 164.813 128.428 164.978 134.204 163.935C135.8 163.646 137.41 163.266 139.013 162.805L139.016 162.797ZM140.09 158.619C140.131 158.525 140.169 158.435 140.214 158.341C140.6 157.5 141.295 157.009 142 156.851C142.346 156.772 142.695 156.776 143.021 156.851C143.374 156.933 143.693 157.106 143.949 157.369C144.35 157.778 144.568 158.375 144.452 159.13C144.376 159.625 144.211 160.027 143.964 160.338C143.386 161.078 142.496 161.258 141.389 160.969C141.272 160.939 141.156 160.905 141.036 160.864C140.912 161.322 140.811 161.791 140.736 162.272C144.072 161.187 147.319 159.764 150.221 158.12C154.943 155.439 158.719 152.177 160.408 148.817C160.52 148.592 160.626 148.363 160.719 148.138C159.541 149.564 157.968 151.006 156.249 152.26C152.987 154.64 149.14 156.382 146.362 156.059C146.167 156.036 145.972 156.002 145.78 155.957C143.142 155.345 139.046 151.066 135.417 146.249C131.033 140.431 127.26 133.7 127.538 131.673C127.654 130.82 127.996 129.995 128.51 129.206C129.993 126.935 132.966 124.93 136.051 123.571C139.137 122.212 142.383 121.477 144.391 121.751C144.981 121.83 145.484 121.999 145.885 122.258C148.719 124.108 152.315 127.964 155.461 131.939C157.608 134.657 159.556 137.45 160.918 139.717C160.325 137.191 159.068 134.424 157.345 131.631C154.338 126.755 149.924 121.841 145.138 117.997C141.832 115.339 135.923 116.964 130.545 119.701C130.533 119.825 130.503 119.956 130.462 120.091C130.259 120.745 129.572 121.679 128.619 122.708C127.718 123.677 126.566 124.761 125.361 125.768C122.351 128.283 118.909 130.261 117.741 129.139C117.257 128.673 117.283 128.031 117.749 127.265C118.18 126.556 119.085 125.591 120.324 124.517C121.529 123.474 123.064 122.314 124.79 121.173C125.143 120.94 125.504 120.711 125.868 120.478C123.428 120.839 120.211 120.771 116.642 117.565C113.215 114.487 103.876 99.0914 97.1193 84.9988C92.1346 74.604 88.5424 64.8322 89.6873 60.9881C91.0686 56.3519 95.1299 52.3614 98.6845 48.8701C101.792 45.8181 104.484 43.1715 104.326 41.1781C104.296 40.814 104.255 40.1983 104.206 39.4288C103.677 31.474 101.98 6.08176 95.0323 2.75194C94.2328 2.36903 93.317 2.09123 92.3223 1.91104C88.2534 1.16399 82.9384 1.99363 78.4304 3.43518C74.0087 4.84669 70.4316 6.78752 69.6846 8.33793C69.6433 8.42427 69.6133 8.50686 69.602 8.58569C69.5232 9.00614 69.5833 9.86957 69.7522 11.0634C70.9984 11.0671 72.2108 11.0746 73.3856 11.0821C73.547 10.534 73.9524 9.99345 74.553 9.4754C75.953 8.27036 78.5918 7.03153 81.467 6.13807C84.3272 5.24837 87.4614 4.69277 89.8825 4.84293C91.5903 4.94805 92.9904 5.41354 93.8012 6.35956C96.804 9.85455 99.2851 16.9422 100.835 23.8683C102.727 32.3261 103.17 40.6751 101.496 42.188C99.9044 43.6258 94.9422 45.2024 90.0063 45.8331C85.9975 46.3474 81.9399 46.2536 79.6052 44.9847C77.5821 43.8885 75.1047 37.9046 72.9615 31.0535C70.9421 24.5929 69.1779 17.28 68.3934 12.6438C68.0068 12.6438 67.6202 12.6438 67.2298 12.6438C67.3049 12.9216 67.3762 13.2107 67.4362 13.5185C68.1119 16.8896 68.9452 20.6324 69.786 24.4277C71.2048 30.8283 72.6612 37.3828 73.4907 42.6535C73.8848 45.1499 73.3631 46.43 72.5223 48.491C71.5989 50.7584 70.2552 54.0469 69.4144 61.3823C68.8251 66.5103 71.46 75.0807 75.2699 84.2405C81.3882 98.9375 90.5243 115.054 94.3717 121.105C99.2663 128.805 108.432 130.573 113.702 131.586C115.001 131.838 116.075 132.044 116.848 132.292C118.353 132.776 120.872 136.365 123.95 140.757C125.387 142.807 126.949 145.033 128.514 147.12C132.016 151.79 136.137 155.95 139.245 158.071C139.538 158.274 139.823 158.454 140.094 158.615L140.09 158.619ZM141.696 159.021C141.651 159.122 141.606 159.223 141.561 159.325C141.64 159.351 141.719 159.374 141.794 159.392C142.241 159.509 142.548 159.497 142.672 159.336C142.744 159.246 142.796 159.096 142.83 158.886C142.86 158.69 142.834 158.566 142.777 158.506C142.747 158.473 142.699 158.45 142.642 158.439C142.56 158.42 142.462 158.42 142.357 158.443C142.102 158.499 141.847 158.69 141.696 159.021ZM64.5835 11.0483C64.5047 10.9883 64.4221 10.9395 64.3358 10.9094C64.1857 10.8531 64.0168 10.8381 63.8328 10.8757C63.6864 10.9057 63.5288 10.962 63.3636 11.0483C63.7728 11.0483 64.1782 11.0483 64.5835 11.0483ZM161.219 143.963C160.802 142.21 157.795 137.521 154.177 132.945C151.129 129.09 147.672 125.37 144.992 123.624C144.801 123.5 144.523 123.414 144.17 123.369C142.447 123.132 139.538 123.819 136.704 125.066C133.87 126.316 131.168 128.11 129.873 130.096C129.486 130.689 129.231 131.29 129.152 131.89C128.927 133.531 132.549 139.729 136.719 145.266C140.157 149.827 143.922 153.851 146.141 154.369C146.268 154.399 146.403 154.422 146.542 154.437C148.892 154.707 152.315 153.112 155.284 150.942C158.261 148.772 160.727 146.073 161.177 144.136C161.189 144.08 161.2 144.023 161.211 143.967L161.219 143.963ZM127.726 121.255C127.024 121.672 126.341 122.104 125.691 122.532C124.017 123.639 122.542 124.754 121.39 125.749C120.343 126.653 119.581 127.438 119.209 127.997C120.084 127.806 122.238 126.237 124.306 124.51C125.462 123.541 126.566 122.509 127.418 121.593C127.523 121.477 127.628 121.364 127.726 121.255ZM118.95 128.005C118.86 127.941 118.789 127.881 118.867 127.96C118.89 127.979 118.916 127.994 118.95 128.005ZM70.0037 12.64C70.7882 17.0811 72.5336 24.2024 74.5229 30.5618C76.5536 37.06 78.787 42.6722 80.386 43.5394C82.3979 44.6281 86.0914 44.6844 89.8036 44.2076C94.4468 43.6145 99.0223 42.2105 100.404 40.9641C101.665 39.8267 101.027 32.1685 99.2438 24.2137C97.7424 17.5128 95.3814 10.6917 92.5625 7.41444C92.067 6.84007 91.0686 6.54726 89.7886 6.46842C87.5665 6.32953 84.6425 6.85509 81.9475 7.69224C79.2674 8.52188 76.8501 9.64808 75.6152 10.7105C75.4576 10.8456 75.3262 10.9733 75.2211 11.0896C84.3047 11.176 90.7871 11.4125 91.778 11.8817C93.4408 12.6701 94.9835 16.9759 96.1133 21.9087C97.5622 28.2343 98.4293 35.7461 97.9789 37.8934C97.9564 38.0022 97.9226 38.1111 97.885 38.2162C97.3708 39.5677 95.2275 40.9003 92.5437 41.7037C89.9801 42.4733 86.8609 42.8111 84.2259 42.2555C83.7116 42.1467 83.2162 42.0078 82.747 41.8276C80.3822 40.9341 77.9049 35.9413 76.0957 29.9348C74.3765 24.2287 73.1942 17.539 73.2693 12.6475C72.2108 12.64 71.1222 12.6363 70.0074 12.6363L70.0037 12.64ZM74.8983 12.6626C74.8195 17.3814 75.9756 23.8946 77.6572 29.4731C79.335 35.0403 81.4708 39.6052 83.3175 40.3072C83.7079 40.4574 84.1245 40.5737 84.5524 40.6638C86.9059 41.1594 89.7286 40.844 92.0708 40.142C94.2966 39.4738 96.0195 38.5165 96.3498 37.6456C96.3611 37.6156 96.3686 37.5893 96.3761 37.563C96.789 35.5996 95.9219 28.4182 94.5181 22.2766C93.4859 17.768 92.2209 13.9014 91.0798 13.3608C90.179 12.9329 83.8392 12.7301 74.9021 12.6663L74.8983 12.6626Z" fill="black"/>
</svg>
