<svg xmlns="http://www.w3.org/2000/svg" width="38" height="34" viewBox="0 0 38 34" fill="none">
  <path d="M22.5614 0H36.1863C36.6683 -3.14663e-06 37.1306 0.188607 37.472 0.524528C37.8134 0.860449 38.0061 1.31629 38.0078 1.79222V17.0523C38.0066 21.2269 36.4553 25.2561 33.6477 28.377C30.8401 31.498 26.9711 33.4939 22.7734 33.9869C22.5186 34.0145 22.2607 33.9887 22.0167 33.9112C21.7727 33.8337 21.548 33.7062 21.3573 33.537C21.1667 33.3678 21.0143 33.1608 20.9102 32.9295C20.8061 32.6982 20.7525 32.4478 20.7531 32.1947V29.5783C20.7533 29.1466 20.9106 28.7295 21.1963 28.4028C21.4821 28.0762 21.8773 27.8619 22.3097 27.7992C24.931 27.4292 27.3292 26.1381 29.0642 24.1628C30.7992 22.1876 31.7546 19.6606 31.7551 17.0458H22.5746C22.0916 17.0458 21.6283 16.8563 21.2867 16.5189C20.9451 16.1816 20.7531 15.7241 20.7531 15.247V1.79222C20.7549 1.31855 20.9457 0.864669 21.2843 0.529119C21.6228 0.193569 22.0818 0.00344182 22.5614 0Z" fill="#63B245"/>
  <path d="M1.82238 0H15.4539C15.9358 -3.14663e-06 16.3982 0.188607 16.7396 0.524528C17.081 0.860449 17.2736 1.31629 17.2754 1.79222V17.0523C17.2742 21.2269 15.7229 25.2561 12.9153 28.377C10.1077 31.498 6.23872 33.4939 2.04095 33.9869C1.78563 34.0155 1.52711 33.9904 1.2823 33.9134C1.03749 33.8363 0.811966 33.7089 0.620541 33.5397C0.429115 33.3704 0.276106 33.1631 0.171591 32.9313C0.0670776 32.6994 0.013422 32.4484 0.0141258 32.1947V29.5783C0.014246 29.1466 0.171532 28.7295 0.457294 28.4028C0.743055 28.0762 1.13822 27.8619 1.57067 27.7992C4.19312 27.4306 6.59292 26.1402 8.32927 24.1647C10.0656 22.1893 11.022 19.6616 11.0227 17.0458H1.82238C1.33928 17.0458 0.875988 16.8563 0.534389 16.5189C0.192791 16.1816 0.000865936 15.7241 0.000865936 15.247V1.79222C0.00261879 1.31629 0.195284 0.860449 0.536694 0.524528C0.878103 0.188607 1.34043 -3.14663e-06 1.82238 0Z" fill="#63B245"/>
</svg>