<svg xmlns="http://www.w3.org/2000/svg" viewBox="0 0 987.85 243.58"><defs><style>.cls-1{fill:#ed1b35;}</style></defs><g id="Layer_2" data-name="Layer 2"><g id="Layer_1-2" data-name="Layer 1"><path class="cls-1" d="M636.05,126.39v44a5.59,5.59,0,0,1-5.57,5.57h-16a5.57,5.57,0,0,1-5.57-5.57V32.64a5.57,5.57,0,0,1,5.57-5.58h16.54a5,5,0,0,1,5,5v94.33Z"/><path class="cls-1" d="M866.07,170.35a5.59,5.59,0,0,1-5.57,5.57h-16a5.57,5.57,0,0,1-5.57-5.57V32.64a5.57,5.57,0,0,1,5.57-5.58h16.54a5,5,0,0,1,5,5Z"/><path class="cls-1" d="M153.57,0h-141A12.6,12.6,0,0,0,0,12.6L.07,231a12.58,12.58,0,0,0,12.58,12.55H153.57a90,90,0,0,0,90-90V90a90,90,0,0,0-90-90m38.86,117.73a95.73,95.73,0,0,1-141.18.11,5,5,0,0,1,.19-6.89L63.71,98.68A5,5,0,0,1,71,98.9a67.56,67.56,0,0,0,101.47-.32,5,5,0,0,1,7.29-.24l12.51,12.51a5,5,0,0,1,.18,6.88"/><path class="cls-1" d="M387.43,27.06H370.36a5,5,0,0,0-5,5v35.6H321.47a38,38,0,0,0-7.36.72,39.19,39.19,0,0,0-29.94,38.07v30.3a39.17,39.17,0,0,0,39.17,39.17h26.29a4.94,4.94,0,0,0,2.95-1,3.94,3.94,0,0,0,.59-.49h0l12.19-12.24v8.71a5,5,0,0,0,5,5H387a5.62,5.62,0,0,0,5.32-3.79,3.86,3.86,0,0,0,.08-.84V32.06a5,5,0,0,0-5-5M365.36,148.85H322.83a11.59,11.59,0,0,1-11.59-11.59V106.31a11.59,11.59,0,0,1,11.58-11.59h42.54Z"/><path class="cls-1" d="M820.45,67.66h-66a38,38,0,0,0-7.36.72,39.19,39.19,0,0,0-29.94,38.07v30.3a39.17,39.17,0,0,0,39.17,39.17H782.8a5,5,0,0,0,3.52-1.45l12.34-12.21v8a5.66,5.66,0,0,0,5.64,5.64h15.75a5.62,5.62,0,0,0,5.32-3.79,3.86,3.86,0,0,0,.08-.84V72.66a5,5,0,0,0-5-5M798.38,149H755.71a11.59,11.59,0,0,1-11.59-11.59V106.31A11.59,11.59,0,0,1,755.7,94.72h42.68Z"/><path class="cls-1" d="M982.85,67.66h-66a38,38,0,0,0-7.36.72,39.19,39.19,0,0,0-29.94,38.07v30.3a39.17,39.17,0,0,0,39.17,39.17H945.2a5,5,0,0,0,3.52-1.45l12.34-12.21v8a5.65,5.65,0,0,0,5.64,5.64h15.75a5.62,5.62,0,0,0,5.32-3.79,3.86,3.86,0,0,0,.08-.84V72.66a5,5,0,0,0-5-5M960.78,149H918.11a11.59,11.59,0,0,1-11.59-11.59V106.31A11.59,11.59,0,0,1,918.1,94.72h42.68Z"/><path class="cls-1" d="M554.73,71.53a5.62,5.62,0,0,0-5.32-3.79H532.75a5,5,0,0,0-5,5v8.45l-.08-.1L515.78,69.2a5.76,5.76,0,0,0-3.53-1.46H485.72a39.16,39.16,0,0,0-39.16,39.16v30.31a39.19,39.19,0,0,0,29.94,38.07,38,38,0,0,0,7.36.72h43.89v.65a12.78,12.78,0,0,1-1.46,6.16,13,13,0,0,1-11.4,6.76H481.56A7.91,7.91,0,0,0,475.91,203l10.69,10.9a7.92,7.92,0,0,0,5.65,2.36H515a39.73,39.73,0,0,0,13.57-2.36,40.19,40.19,0,0,0,26.26-38V72.37a3.86,3.86,0,0,0-.08-.84m-27,77.33H485.2a11.59,11.59,0,0,1-11.58-11.59v-31a11.59,11.59,0,0,1,11.59-11.59h42.54Z"/><path class="cls-1" d="M433,72.66v98.26a5,5,0,0,1-5,5H411a5,5,0,0,1-5-5V72.66a5,5,0,0,1,5-5H428a5,5,0,0,1,5,5"/><path class="cls-1" d="M433,32.06V49.13a5,5,0,0,1-5,5H411a5,5,0,0,1-5-5V32.06a5,5,0,0,1,5-5H428a5,5,0,0,1,5,5"/><path class="cls-1" d="M595.41,72.66v98.26a5,5,0,0,1-5,5H573.34a5,5,0,0,1-5-5V72.66a5,5,0,0,1,5-5h17.07a5,5,0,0,1,5,5"/><path class="cls-1" d="M595.41,32.06V49.13a5,5,0,0,1-5,5H573.34a5,5,0,0,1-5-5V32.06a5,5,0,0,1,5-5h17.07a5,5,0,0,1,5,5"/><path class="cls-1" d="M636.05,119c5.44-5.83,38.81-38.8,48.66-49.41A5.87,5.87,0,0,1,689,67.74H711.4c5,0,7.8,6.08,4.25,9.62-13.79,13.8-44.91,44.47-44.91,44.47l44.93,45.35a5.11,5.11,0,0,1-3.65,8.74H688.6a5.88,5.88,0,0,1-4.26-1.84c-9.92-10.67-43.06-43.38-48.29-49Z"/></g></g></svg>
