<svg id="Layer_1" data-name="Layer 1" xmlns="http://www.w3.org/2000/svg" viewBox="0 0 84 32"><defs><style>.cls-1{fill:#ffce00;}.cls-2{fill:#fbb600;}</style></defs><path class="cls-1" d="M20.67,0H4A4,4,0,0,0,0,4.05v15.5a4.07,4.07,0,0,0,1.17,2.86l8.33,8.4a4,4,0,0,0,5.67,0l8.33-8.4a4,4,0,0,0,1.18-2.86V4.05A4,4,0,0,0,20.67,0ZM16.16,10l1-1a.71.71,0,0,1,1,0l1,1a.71.71,0,0,1,0,1l-1,1a.71.71,0,0,1-1,0l-1-1A.73.73,0,0,1,16.16,10ZM5.72,10l1-1a.71.71,0,0,1,1,0l1,1a.71.71,0,0,1,0,1l-1,1a.71.71,0,0,1-1,0l-1-1A.73.73,0,0,1,5.72,10Zm13.9,6.31A9.32,9.32,0,0,1,17.17,18l-.3.13-.44.2a10.91,10.91,0,0,1-3.54.79h-.83a10.82,10.82,0,0,1-3.89-.84l-.41-.17L7.54,18a10.05,10.05,0,0,1-2-1.27h0l-.07-.06a.87.87,0,0,1,0-1.31l.85-.84a1.06,1.06,0,0,1,1.37-.07,13.09,13.09,0,0,0,4.71,2.14,13,13,0,0,0,5.07-2.43.49.49,0,0,1,.65,0l1.54,1.52A.44.44,0,0,1,19.62,16.31Z"/><path class="cls-2" d="M81.53,6.43H79.91a.12.12,0,0,0-.1,0,.14.14,0,0,0,0,.12.13.13,0,0,0,0,.09s0,.06,0,.07h.65V8.53a.18.18,0,0,0,.06.15s.09,0,.16,0h.1a.13.13,0,0,1,.08,0V6.75h.57c.09,0,.14,0,.14-.18a.31.31,0,0,0,0-.09A.07.07,0,0,0,81.53,6.43Z"/><path class="cls-2" d="M84,8.4c0-.12,0-.25,0-.39s0-.29,0-.45,0-.3,0-.43,0-.26,0-.35,0-.18,0-.22a.18.18,0,0,0-.08-.11.45.45,0,0,0-.19,0,.25.25,0,0,0-.12,0l-.09,0c0,.08-.07.18-.11.27l-.13.33c0,.1-.1.23-.15.35s-.09.24-.15.36h0l-.12-.28-.12-.31-.12-.31a2.85,2.85,0,0,0-.12-.29.69.69,0,0,0-.11-.13.36.36,0,0,0-.19,0,.47.47,0,0,0-.17,0,.23.23,0,0,0-.09.06c0,.14,0,.26,0,.39s0,.27,0,.42,0,.29,0,.42,0,.26,0,.38,0,.22,0,.3v.17c0,.11.07.17.2.17a.16.16,0,0,0,.1,0H82c0-.18,0-.33,0-.47s0-.3,0-.44,0-.28,0-.43a3.78,3.78,0,0,0,0-.49h0l.2.52c.08.2.19.44.3.7,0,0,0,.05.08.08a.5.5,0,0,0,.13,0l.12,0s.07,0,.08,0c.12-.31.23-.56.31-.75s.15-.37.19-.49h0c0,.08,0,.19,0,.33s0,.25,0,.4,0,.3,0,.47,0,.34,0,.5a.16.16,0,0,0,.07.14.21.21,0,0,0,.14,0,.15.15,0,0,0,.1,0l.1,0A1.71,1.71,0,0,0,84,8.4Z"/><path class="cls-2" d="M39.63,7.61a7.23,7.23,0,0,0-4.88-1.4c-.64,0-1.34,0-2.06.11a7.69,7.69,0,0,0-1.88.38,1.53,1.53,0,0,0-.67.36.93.93,0,0,0-.24.69V21a1.3,1.3,0,0,0,.33,1,1.66,1.66,0,0,0,1.13.3,4.23,4.23,0,0,0,.74-.07,5.15,5.15,0,0,0,.53-.13V16.72h2.25a6.83,6.83,0,0,0,4.73-1.45,4.88,4.88,0,0,0,1.6-3.85A4.84,4.84,0,0,0,39.63,7.61Zm-2.16,6.12a4.49,4.49,0,0,1-2.75.76h-2.1V8.64c.29-.05.64-.09,1-.13s.76-.06,1.15-.06a4.48,4.48,0,0,1,2.73.72,2.66,2.66,0,0,1,1,2.25A2.72,2.72,0,0,1,37.47,13.73Z"/><path class="cls-2" d="M43.25,10.32a2.77,2.77,0,0,0-.73.08l-.52.12V21a1.14,1.14,0,0,0,.35.94,1.72,1.72,0,0,0,1.08.29,4,4,0,0,0,.73-.07,3.65,3.65,0,0,0,.49-.13V11.57a1.16,1.16,0,0,0-.34-1A1.62,1.62,0,0,0,43.25,10.32Z"/><path class="cls-2" d="M55.67,10.86a6,6,0,0,0-3.86-1.11,9,9,0,0,0-2.59.35,7.93,7.93,0,0,0-1.85.8,2.58,2.58,0,0,0-.75.71,1.91,1.91,0,0,0-.22,1V21a1.19,1.19,0,0,0,.34.95,1.77,1.77,0,0,0,1.09.28,3.86,3.86,0,0,0,.7-.07A3.65,3.65,0,0,0,49,22v-9.4a7.32,7.32,0,0,1,1.21-.52,5.15,5.15,0,0,1,1.58-.23,2.87,2.87,0,0,1,1.89.58,2.26,2.26,0,0,1,.7,1.84V21a1.15,1.15,0,0,0,.35.94,1.72,1.72,0,0,0,1.08.28,3.84,3.84,0,0,0,.71-.06,3.46,3.46,0,0,0,.51-.14V14.22A4,4,0,0,0,55.67,10.86Z"/><path class="cls-2" d="M80.72,11.46a5.4,5.4,0,0,0-1.9-1.28,7,7,0,0,0-4.94,0A5.25,5.25,0,0,0,72,11.45a5.9,5.9,0,0,0-1.22,2,7.52,7.52,0,0,0-.43,2.63,7.77,7.77,0,0,0,.43,2.64,5.62,5.62,0,0,0,1.21,2A5.25,5.25,0,0,0,73.86,22a7.27,7.27,0,0,0,5,0,5.13,5.13,0,0,0,1.89-1.27,6,6,0,0,0,1.21-2,7.54,7.54,0,0,0,.43-2.64,7.66,7.66,0,0,0-.43-2.62A6.1,6.1,0,0,0,80.72,11.46Zm-1.93,7.7a3.28,3.28,0,0,1-4.88,0,4.81,4.81,0,0,1-.86-3.08A4.8,4.8,0,0,1,73.94,13a3.22,3.22,0,0,1,4.84,0,4.84,4.84,0,0,1,.87,3.08A4.81,4.81,0,0,1,78.79,19.16Z"/><path class="cls-2" d="M67.85,6.24a2.71,2.71,0,0,0-.71.08l-.51.12v3.89a4.85,4.85,0,0,0-1.17-.42A6.05,6.05,0,0,0,64,9.75a7.23,7.23,0,0,0-2.32.36,5.23,5.23,0,0,0-1.89,1.15,5.6,5.6,0,0,0-1.28,2,8,8,0,0,0-.47,2.88,7.69,7.69,0,0,0,.45,2.8,5,5,0,0,0,3.33,3.12,9.06,9.06,0,0,0,2.64.36,7.38,7.38,0,0,0,2.29-.31,5.9,5.9,0,0,0,1.58-.69,2.27,2.27,0,0,0,.71-.65,1.57,1.57,0,0,0,.23-.88V7.47a1.16,1.16,0,0,0-.35-1A1.71,1.71,0,0,0,67.85,6.24ZM66.66,19.69a4.27,4.27,0,0,1-2.21.56,3.7,3.7,0,0,1-2.68-1,4.19,4.19,0,0,1-1-3.12,5.91,5.91,0,0,1,.29-2,3.53,3.53,0,0,1,.76-1.32,2.86,2.86,0,0,1,1.13-.76,4.15,4.15,0,0,1,1.4-.23,3.85,3.85,0,0,1,1.3.21,4.38,4.38,0,0,1,1,.48Z"/><path class="cls-2" d="M44.27,7.06l-.54-.54a.62.62,0,0,0-.47-.19.65.65,0,0,0-.47.18l-.54.54-.53.54a.6.6,0,0,0-.19.47.68.68,0,0,0,.19.47l.53.54.54.54a.63.63,0,0,0,.94,0l.54-.54.53-.54A.6.6,0,0,0,45,8.06a.68.68,0,0,0-.19-.47Z"/></svg>