<svg width="104" height="60" viewBox="0 0 104 60" fill="none" xmlns="http://www.w3.org/2000/svg">
<path d="M57.3537 13.5969C57.3537 14.5477 56.5864 15.3138 55.6343 15.3185C54.6821 15.3231 53.9148 14.5523 53.9102 13.6015C53.9056 12.6508 54.6775 11.8846 55.6296 11.88H55.6343C56.5818 11.8846 57.3537 12.6508 57.3537 13.5969Z" fill="white"/>
<path d="M87.25 42.7015C87.25 45.54 84.9435 47.8385 82.1055 47.8385C79.2628 47.8385 76.9609 45.5354 76.9609 42.7015C76.9609 39.8677 79.2628 37.5646 82.1055 37.5646C84.9435 37.5646 87.2454 39.8631 87.25 42.7015Z" fill="white"/>
<path d="M82.0996 13.0846L63.2363 47.3308H71.7274L82.0996 28.4954L92.4765 47.3308H100.963L82.0996 13.0846Z" fill="white"/>
<path d="M59.3318 19.9569V22.7723C59.3318 22.9892 59.1654 23.2292 59.036 23.34C58.8234 23.4462 58.7586 23.5015 58.4859 23.5015C58.2132 23.5015 57.9313 23.4508 57.6539 23.2015C57.3766 22.9523 57.3026 22.7077 57.3026 22.4215V19.9569H54.2335V22.7723C54.2335 23.2569 53.8591 23.5015 53.3137 23.5015C53.0317 23.4554 52.759 23.3585 52.5094 23.2154C52.2598 22.9754 52.1304 22.7077 52.1304 22.4215V19.9569H48.9595V22.2508C48.9595 22.6108 48.8902 22.8508 48.7469 22.9754C48.7469 22.9754 48.4141 23.1877 48.1137 23.1877H45.5715C45.1185 23.16 44.8458 23.1646 44.647 23.0123C44.4806 22.8138 44.3974 22.3938 44.3974 21.7523V13.1123H41.2266V22.6477C41.2266 23.5523 41.5224 24.3923 42.1279 25.1862C42.4792 25.5877 42.9599 25.8738 43.5747 26.0446C43.986 26.1508 44.4066 26.2154 44.8273 26.2477C44.8273 26.2477 47.804 26.2523 48.2523 26.2523C48.6591 26.2477 49.0658 26.1969 49.4634 26.1046C49.9903 25.9154 50.471 25.62 50.887 25.2415C51.3723 25.7308 51.8346 26.0815 52.2691 26.2938L52.6065 26.4554L53.0086 26.58C53.2259 26.6354 53.4431 26.6631 53.665 26.6585C54.5709 26.6585 55.4168 26.2662 56.2072 25.4769C57.0299 26.2662 57.9683 26.6585 59.0175 26.6585C60.002 26.6585 60.8294 26.2985 61.4996 25.5692C62.1745 24.8446 62.5073 23.8246 62.5073 22.5046V19.9477L59.3318 19.9569Z" fill="white"/>
<path d="M36.331 22.1769C36.331 22.2277 36.331 22.3015 36.3217 22.3846C36.3125 22.4862 36.294 22.5831 36.2616 22.68L36.1553 22.9431C35.952 23.1046 35.6839 23.1831 35.3649 23.1831H19.1594C18.4152 23.1831 17.9761 23.22 17.6942 23.0215C17.4816 22.8046 17.3706 22.5738 17.3706 22.3108V13.1123H14.1998V25.8969C14.1998 26.6031 13.9271 27.1892 13.377 27.6508C12.827 28.1077 12.203 28.3385 11.505 28.3385H8.90271C8.52831 28.3431 8.15391 28.2831 7.80262 28.1538C7.43747 27.9831 7.15551 27.7985 6.95675 27.6046C6.45755 27.1154 6.20795 26.5477 6.20795 25.9015V20.8431H3.03711V25.6431C3.03711 27.1708 3.56867 28.5323 4.64564 29.7231C5.72262 30.9138 6.99835 31.5092 8.50982 31.5092H11.6529C13.0858 31.5092 14.3985 31.0015 15.5911 29.9862C16.779 28.9708 17.3752 27.6554 17.3799 26.0354C17.6387 26.3908 18.0917 26.3631 18.0917 26.3631H36.0398C37.0012 26.3631 37.8147 25.9615 38.4942 25.1677C39.169 24.3738 39.5064 23.4738 39.5064 22.4677V19.98H36.331V22.1769Z" fill="white"/>
<path d="M35.5598 17.0215C35.5598 17.9538 34.8017 18.7062 33.8727 18.7062C32.9436 18.7062 32.1855 17.9492 32.1855 17.0215C32.1855 16.0938 32.939 15.3415 33.8727 15.3369C34.8017 15.3369 35.5598 16.0892 35.5598 17.0215Z" fill="white"/>
<path d="M39.3391 17.0215C39.3391 17.9538 38.5856 18.7062 37.652 18.7062C36.7183 18.7062 35.9648 17.9538 35.9648 17.0215C35.9648 16.0938 36.7183 15.3415 37.6473 15.3369C38.581 15.3369 39.3391 16.0892 39.3391 17.0215Z" fill="white"/>
<path d="M55.3791 17.0538C55.3791 18.0046 54.6118 18.7708 53.6597 18.7754C52.7075 18.78 51.9402 18.0092 51.9356 17.0585C51.9309 16.1077 52.7029 15.3415 53.655 15.3369H53.6597C54.6072 15.3369 55.3791 16.1031 55.3791 17.0538Z" fill="white"/>
<path d="M59.299 17.0538C59.299 18.0046 58.5318 18.7708 57.5796 18.7754C56.6274 18.78 55.8601 18.0092 55.8555 17.0585C55.8509 16.1077 56.6228 15.3415 57.575 15.3369H57.5796C58.5318 15.3369 59.299 16.1031 59.299 17.0538Z" fill="white"/>
<path d="M22.7501 46.0431H21.1554V47.46C21.1554 47.6538 21.3125 47.8108 21.5067 47.8108H23.1013V46.3938C23.1013 46.2 22.9442 46.0431 22.7501 46.0431ZM20.3696 46.0431H18.7703V47.46C18.7703 47.6538 18.9275 47.8108 19.1216 47.8108H20.7163V46.3938C20.7163 46.2 20.5591 46.0431 20.3696 46.0431ZM23.032 33.9138V38.8938C22.9534 40.2461 22.0891 41.1461 20.9335 41.1461H19.2788C18.1232 41.1461 17.0046 40.3569 17.0046 38.4923V31.1169C16.7735 31.3938 16.5193 31.6523 16.242 31.8877C15.8629 32.2154 15.4516 32.5015 15.0125 32.7508V43.1631C15.0078 45 13.5195 46.4861 11.6798 46.4908H8.7401C6.90508 46.4908 5.40748 45.1985 5.40748 43.6246V38.0769C5.40748 36.6323 4.04392 36.6692 3.41992 36.6692V43.7908C3.41992 46.1723 6.04072 48.12 9.24392 48.12H11.176C14.3792 48.12 17 46.1723 17 43.7908V42.1892C17.6471 42.6231 18.4098 42.8538 19.1909 42.8492H20.9012C22.7362 42.8492 25.0103 41.3077 25.0103 39.6508V32.2523C24.3863 32.2523 23.032 32.3954 23.032 33.9138ZM35.341 33.6923V38.9123C35.341 40.2508 34.2964 41.1646 33.1454 41.1646H31.0654C29.8544 41.1646 28.7636 40.3246 28.7636 38.8708V30.8261C28.7636 29.4092 27.4046 29.4092 26.776 29.4092V39.3C26.776 41.2292 28.8514 42.8492 31.1579 42.8492H33.187C35.4427 42.8492 37.3101 41.0261 37.3101 39.5077V32.2615C36.6814 32.2615 35.341 32.2338 35.341 33.6923ZM58.6046 29.6861H56.067C54.1303 29.6861 52.0596 30.9877 52.0596 32.9215V37.1631H52.0549V38.8154C52.0549 39.7661 51.5095 40.4677 50.3586 40.4677H50.0443V32.9908C50.0443 31.0569 47.9781 29.6861 46.0368 29.6861H43.4992C41.5579 29.6861 39.4917 31.0569 39.4917 32.9908V39.5446C39.4917 41.4785 41.5625 42.8492 43.4992 42.8492H46.0368C46.7255 42.8492 47.4327 42.6508 48.0567 42.3092L48.0891 42.2908V44.1461C48.0891 45.1938 46.952 46.14 45.1031 46.14H41.6734C40.4393 46.14 40.125 47.2615 40.125 47.8062H45.7225C47.4004 47.8062 50.0766 46.6246 50.0766 43.6061V42H50.5019C51.3015 42 51.9764 41.6308 52.4432 40.9892C53.1319 42.1569 54.8468 42.8492 56.2704 42.8492H58.355C60.2964 42.8492 62.6029 41.6585 62.6029 39.3461V32.9261C62.6121 30.9923 60.546 29.6908 58.6046 29.6861ZM48.066 39.0646C48.066 40.5277 47.1739 41.4415 45.9629 41.4415H43.5824C42.3714 41.4415 41.4793 40.6754 41.4793 39.2169V33.3277C41.4793 31.8692 42.3714 31.1215 43.5824 31.1215H45.9629C47.1739 31.1215 48.066 31.8692 48.066 33.3277V39.0646ZM60.6292 38.9723C60.6292 40.5969 59.7371 41.4185 58.5261 41.4185H56.1456C54.9346 41.4185 54.0425 40.7723 54.0425 39.1246V33.3277C54.0425 31.8692 54.9346 31.1031 56.1456 31.1031H58.5261C59.7371 31.1031 60.6292 31.8692 60.6292 33.3277V38.9723ZM32.8173 46.0431H31.218V47.46C31.218 47.6538 31.3751 47.8108 31.5693 47.8108H33.1639V46.3938C33.1639 46.2 33.0068 46.0431 32.8173 46.0431Z" fill="white"/>
</svg>
