<svg width="208" height="106" viewBox="0 0 208 106" fill="none" xmlns="http://www.w3.org/2000/svg">
<g clip-path="url(#clip0_2930_33816)">
<rect x="0.28125" width="208" height="105.564" rx="12.5113" fill="#FFE7D1"/>
<path d="M80.8926 73.4259H101.685" stroke="black" stroke-width="0.634869"/>
<line x1="0.116029" y1="-0.116029" x2="3.02614" y2="-0.116029" transform="matrix(-0.178059 -0.98402 0.986024 -0.166601 52.7598 32.9887)" stroke="black" stroke-width="0.232057" stroke-linecap="round"/>
<line x1="0.116029" y1="-0.116029" x2="3.11593" y2="-0.116029" transform="matrix(0.424821 -0.905277 0.935243 0.354006 53.5918 32.9445)" stroke="black" stroke-width="0.232057" stroke-linecap="round"/>
<line x1="0.116029" y1="-0.116029" x2="3.11593" y2="-0.116029" transform="matrix(0.88891 -0.458082 0.52503 0.851084 54.0977 33.679)" stroke="black" stroke-width="0.232057" stroke-linecap="round"/>
<path d="M43.6046 9.45204H105.34C109.802 9.45204 113.38 12.9109 113.38 17.1307V165.967C113.38 170.187 109.802 173.646 105.34 173.646H43.6046C39.1424 173.646 35.5641 170.187 35.5641 165.967V17.1307C35.5641 12.9109 39.1424 9.45204 43.6046 9.45204Z" fill="white" stroke="black" stroke-width="1.04616"/>
<path d="M101.139 17.1425H47.8131C43.7278 17.1425 40.416 20.4442 40.416 24.517V158.342C40.416 162.415 43.7278 165.716 47.8131 165.716H101.139C105.224 165.716 108.536 162.415 108.536 158.342V24.517C108.536 20.4442 105.224 17.1425 101.139 17.1425Z" fill="#F5F5F5"/>
<rect x="52.1348" y="25.486" width="37.6619" height="4.70774" rx="1.26974" fill="#F3F3F3"/>
<rect x="92.6717" y="25.7475" width="5.7539" height="4.18465" rx="1.0082" stroke="black" stroke-width="0.523082"/>
<rect x="44.7793" y="37.5115" width="56.979" height="8.25782" rx="1.26974" fill="#DDDDDD"/>
<rect x="54.7402" y="27.0538" width="32.4311" height="2.09233" rx="1.04616" fill="#D3D3D3"/>
<path d="M48.9854 27.5753H44.8008M44.8008 27.5753L46.1085 26.0061M44.8008 27.5753L46.1085 28.8831" stroke="black" stroke-width="0.523082" stroke-linecap="round"/>
<circle cx="102.865" cy="26.5292" r="0.523082" fill="black"/>
<circle cx="102.865" cy="28.0977" r="0.523082" fill="black"/>
<circle cx="102.865" cy="29.6677" r="0.523082" fill="black"/>
<rect x="44.8516" y="51.1364" width="56.8979" height="17.6765" rx="1.26974" fill="#DDDDDD"/>
<rect x="44.8516" y="89.1431" width="56.8979" height="17.6765" rx="1.26974" fill="#DDDDDD"/>
<rect x="79.0352" y="58.5649" width="19.8188" height="2.06446" rx="1.03223" fill="#BFBFBF"/>
<rect x="83.9961" y="61.8684" width="14.8641" height="2.06446" rx="1.03223" fill="#BFBFBF"/>
<rect x="45.6309" y="73.5038" width="27.6637" height="2.06446" rx="1.03223" fill="#C0C0C0"/>
<rect x="75.3457" y="73.5038" width="27.6637" height="2.06446" rx="1.03223" fill="#C0C0C0"/>
<rect x="45.6309" y="76.8072" width="27.6637" height="2.06446" rx="1.03223" fill="#C0C0C0"/>
<rect x="75.3457" y="76.8072" width="27.6637" height="2.06446" rx="1.03223" fill="#C0C0C0"/>
<rect x="45.6309" y="80.5215" width="27.6637" height="2.06446" rx="1.03223" fill="#C0C0C0"/>
<rect x="75.3457" y="80.5215" width="27.6637" height="2.06446" rx="1.03223" fill="#C0C0C0"/>
<rect x="45.6309" y="83.825" width="27.6637" height="2.06446" rx="1.03223" fill="#C0C0C0"/>
<rect x="75.3457" y="83.825" width="27.6637" height="2.06446" rx="1.03223" fill="#C0C0C0"/>
<path d="M167.116 50.4006H92.9404C88.1937 50.4006 84.3457 52.2717 84.3457 54.5797V88.7463C84.3457 91.0543 88.1937 92.9253 92.9404 92.9253H167.116C171.863 92.9253 175.711 91.0543 175.711 88.7463V54.5797C175.711 52.2717 171.863 50.4006 167.116 50.4006Z" fill="#FFF7F0"/>
<path d="M166.034 47.4545H93.5951C87.09 47.4545 81.8164 50.2684 81.8164 53.7392V90.0977C81.8164 93.5685 87.09 96.3824 93.5951 96.3824H135.59V103.031L151.659 96.3824H166.034C172.539 96.3824 177.813 93.5685 177.813 90.0977V53.7392C177.813 50.2684 172.539 47.4545 166.034 47.4545Z" fill="#FFF7F0" stroke="black" stroke-width="0.590051" stroke-miterlimit="10"/>
<path d="M167.684 81.9775V83.9985C167.684 85.0595 167.558 85.9268 167.301 86.6047C167.044 87.2825 166.611 87.8594 165.992 88.3309C165.373 88.8067 164.678 89.1225 163.908 89.2782V87.6615C164.455 87.3457 164.767 86.9247 164.842 86.3941H163.908V81.9775H167.684ZM162.64 81.9775V83.9985C162.64 85.0595 162.514 85.9268 162.257 86.6047C162 87.2825 161.567 87.8594 160.952 88.3309C160.337 88.8067 159.643 89.1225 158.859 89.2782V87.6615C159.407 87.3457 159.718 86.9247 159.794 86.3941H158.859V81.9775H162.636H162.64Z" fill="#FFF7F0"/>
<path d="M92.3125 65.6961V63.6751C92.3125 62.6141 92.4388 61.7468 92.6956 61.0689C92.9525 60.391 93.3861 59.8142 94.0051 59.3427C94.624 58.8669 95.3187 58.5511 96.0892 58.3953V60.0121C95.5418 60.3279 95.2303 60.7489 95.1545 61.2794H96.0892V65.6961H92.3125ZM97.3565 65.6961V63.6751C97.3565 62.6141 97.4828 61.7468 97.7397 61.0689C97.9965 60.391 98.4302 59.8142 99.0449 59.3427C99.6596 58.8669 100.354 58.5511 101.137 58.3953V60.0121C100.59 60.3279 100.279 60.7489 100.203 61.2794H101.137V65.6961H97.3607H97.3565Z" fill="#FFF7F0"/>
<path d="M79.2637 65.5551V83.7481" stroke="black" stroke-width="0.295026" stroke-miterlimit="10"/>
<path d="M79.2637 92.9035V85.8722" stroke="black" stroke-width="0.295026" stroke-miterlimit="10"/>
<path d="M95.582 61.2312C95.582 61.9201 95.171 62.3432 94.5344 62.3432H94.0388L94.0066 61.9967H94.5385C94.9696 61.9967 95.2435 61.7509 95.2476 61.3601H94.8447C94.2846 61.3601 94.063 61.1345 94.063 60.655C94.063 60.1474 94.3773 59.8009 94.8285 59.8009C95.2959 59.8009 95.582 60.1353 95.582 60.6752V61.2312ZM94.3974 60.6349C94.3974 60.9089 94.5143 61.0136 94.8648 61.0136H95.2476V60.6993C95.2476 60.3287 95.0945 60.1393 94.8084 60.1393C94.5586 60.1393 94.3974 60.3408 94.3974 60.6349ZM96.9506 61.2433C96.9506 61.9242 96.5195 62.3432 95.895 62.3432H95.7822L95.75 61.9967H95.887C96.3422 61.9967 96.6162 61.7187 96.6162 61.2433V60.0627H96.9506V61.2433ZM99.4263 59.7243V59.406H100.49V59.7243H99.4263ZM101.034 60.0627H101.368V60.7275C101.368 61.1224 101.102 61.3601 100.712 61.3601H99.2691C98.7857 61.3601 98.556 61.0821 98.556 60.6631V60.0627H98.8904V60.6188C98.8904 60.8605 99.0073 61.0136 99.2893 61.0136H100.712C100.901 61.0136 101.034 60.9008 101.034 60.7195V60.0627ZM102.784 61.0136C102.804 61.0136 102.824 61.0297 102.824 61.1909C102.824 61.348 102.804 61.3601 102.784 61.3601H102.679C102.264 61.3601 102.055 61.0982 102.055 60.655V58.7533H102.389V60.6389C102.389 60.8887 102.49 61.0136 102.695 61.0136H102.784ZM103.419 61.0136C103.249 60.8968 103.137 60.6752 103.137 60.4657C103.137 60.0265 103.471 59.7001 103.918 59.7001C104.337 59.7001 104.66 60.0184 104.66 60.4334C104.66 60.6671 104.539 60.8806 104.325 61.0136H104.921C105.159 61.0136 105.28 60.9129 105.28 60.7598C105.28 60.6631 105.244 60.5664 105.103 60.4213L104.285 59.5631L104.527 59.3174L105.361 60.2078C105.542 60.4012 105.614 60.5825 105.614 60.7638C105.614 61.1224 105.357 61.3601 104.921 61.3601H104.466C104.124 61.3601 103.995 61.348 103.894 61.2956C103.793 61.348 103.632 61.3601 103.306 61.3601H102.786C102.77 61.3601 102.746 61.348 102.746 61.1909C102.746 61.0297 102.77 61.0136 102.786 61.0136H103.419ZM103.878 61.0055C104.176 60.8806 104.337 60.6873 104.337 60.4657C104.337 60.2118 104.156 60.0386 103.898 60.0386C103.64 60.0386 103.459 60.2118 103.459 60.4657C103.459 60.6953 103.604 60.8806 103.878 61.0055ZM108.174 61.0136C108.194 61.0136 108.214 61.0297 108.214 61.1909C108.214 61.348 108.194 61.3601 108.174 61.3601H107.787C107.739 61.9766 107.344 62.3432 106.748 62.3432H106.252L106.22 61.9967H106.752C107.183 61.9967 107.457 61.7509 107.461 61.3601H107.058C106.498 61.3601 106.276 61.1345 106.276 60.655C106.276 60.1474 106.59 59.8009 107.042 59.8009C107.509 59.8009 107.795 60.1353 107.795 60.6752V61.0136H108.174ZM106.611 60.6349C106.611 60.9089 106.727 61.0136 107.078 61.0136H107.461V60.6993C107.461 60.3287 107.308 60.1393 107.022 60.1393C106.772 60.1393 106.611 60.3408 106.611 60.6349ZM108.265 61.0136C108.459 61.0136 108.551 60.929 108.551 60.7557V60.5906C108.551 60.0748 108.841 59.7606 109.321 59.7606C109.8 59.7606 110.066 60.0466 110.066 60.5744C110.066 61.074 109.78 61.3601 109.309 61.3601C109.027 61.3601 108.837 61.2715 108.745 61.1103C108.656 61.2836 108.515 61.3601 108.265 61.3601H108.173C108.156 61.3601 108.132 61.348 108.132 61.1909C108.132 61.0297 108.156 61.0136 108.173 61.0136H108.265ZM109.732 60.5744C109.732 60.2602 109.595 60.099 109.309 60.099C109.023 60.099 108.886 60.2602 108.886 60.5906C108.886 60.8524 109.039 61.0136 109.309 61.0136C109.587 61.0136 109.732 60.8726 109.732 60.5744ZM113.113 58.6485L114.426 58.1006L114.495 58.3182L113.113 58.8903V58.6485ZM112.383 61.3601C111.9 61.3601 111.67 61.0821 111.67 60.6631V60.0627H112.005V60.6188C112.005 60.8605 112.121 61.0136 112.403 61.0136H113.85C114.088 61.0136 114.221 60.9129 114.221 60.7598C114.221 60.651 114.172 60.5543 114.055 60.4334L113.113 59.4946V59.2046L114.579 58.6203L114.68 58.9427L113.503 59.406L114.301 60.2078C115.047 60.9532 115.147 61.0136 115.389 61.0136C115.405 61.0136 115.429 61.0297 115.429 61.1909C115.429 61.348 115.405 61.3601 115.389 61.3601C115.063 61.3601 114.934 61.2997 114.515 60.8806C114.491 61.1546 114.253 61.3601 113.85 61.3601H112.383ZM116.283 59.5793H115.856V59.2448H116.283V59.5793ZM116.468 60.7195C116.468 61.1224 116.203 61.3601 115.808 61.3601H115.389C115.373 61.3601 115.348 61.348 115.348 61.1909C115.348 61.0297 115.373 61.0136 115.389 61.0136H115.808C115.997 61.0136 116.134 60.9089 116.134 60.7155V60.0627H116.468V60.7195ZM117.69 61.2433C117.69 61.9242 117.259 62.3432 116.635 62.3432H116.352L116.32 61.9967H116.626C117.082 61.9967 117.356 61.7187 117.356 61.2433V60.0627H117.69V61.2433ZM118.553 61.3601C118.408 61.3601 118.335 61.2997 118.335 61.0942C118.335 60.518 118.38 60.4455 118.763 60.373V60.5986C118.545 60.647 118.537 60.6671 118.537 60.8927C118.702 60.8927 118.775 60.9491 118.775 61.1184C118.775 61.2956 118.702 61.3601 118.553 61.3601ZM120.944 60.6107C120.944 60.9008 121.049 61.0136 121.239 61.0136H121.335C121.355 61.0136 121.376 61.0297 121.376 61.1909C121.376 61.348 121.355 61.3601 121.335 61.3601H121.239C120.957 61.3601 120.763 61.2473 120.699 60.9773C120.578 61.1063 120.344 61.1627 120.123 61.1627C119.671 61.1627 119.417 60.9169 119.417 60.4334C119.417 59.9822 119.732 59.6115 120.203 59.6115H120.61V59.3335H120.944V60.6107ZM119.752 60.4254C119.752 60.6832 119.877 60.8162 120.143 60.8162C120.429 60.8162 120.61 60.7034 120.61 60.5261V59.9499H120.203C119.925 59.9499 119.752 60.1192 119.752 60.4254ZM121.515 59.5793V59.261H122.579V59.5793H121.515ZM122.929 61.0136C122.946 61.0136 122.97 61.0297 122.97 61.1869C122.97 61.348 122.946 61.3601 122.929 61.3601H122.805C122.567 61.3601 122.398 61.2836 122.321 61.1224C122.224 61.2836 122.047 61.3601 121.817 61.3601H121.334C121.318 61.3601 121.294 61.348 121.294 61.1909C121.294 61.0297 121.318 61.0136 121.334 61.0136H121.817C122.023 61.0136 122.16 60.9008 122.16 60.7155V60.0627H122.494V60.7074C122.494 60.9089 122.607 61.0136 122.817 61.0136H122.929ZM123.294 60.0507L123.338 59.7001H124.293C124.773 59.7001 124.982 59.9137 125.135 60.5503L124.817 60.7437C124.902 60.9491 125.01 61.0136 125.22 61.0136H125.486C125.502 61.0136 125.526 61.0338 125.526 61.1909C125.526 61.3561 125.502 61.3601 125.486 61.3601H125.208C124.89 61.3601 124.724 61.2513 124.567 60.9008L124.289 61.074C123.947 61.2876 123.677 61.3601 123.201 61.3601H122.931C122.915 61.3601 122.891 61.348 122.891 61.1909C122.891 61.0297 122.915 61.0136 122.931 61.0136H123.213C123.62 61.0136 123.85 60.9572 124.132 60.796L124.744 60.4375C124.66 60.1433 124.527 60.0507 124.237 60.0507H123.294ZM125.799 61.0136C126.041 61.0136 126.174 60.8887 126.174 60.6953V60.0627H126.512V60.6953C126.512 60.8968 126.625 61.0136 126.871 61.0136C127.113 61.0136 127.246 60.8887 127.246 60.6953V60.0627H127.58V60.6953C127.58 60.8968 127.697 61.0136 127.923 61.0136C128.148 61.0136 128.269 60.8968 128.269 60.6953V60.0627H128.603V60.6873C128.603 61.1103 128.338 61.3601 127.923 61.3601C127.645 61.3601 127.475 61.2715 127.399 61.1103C127.302 61.2715 127.125 61.3601 126.871 61.3601C126.573 61.3601 126.404 61.2715 126.327 61.1103C126.23 61.2715 126.053 61.3601 125.799 61.3601H125.485C125.469 61.3601 125.445 61.348 125.445 61.1909C125.445 61.0297 125.469 61.0136 125.485 61.0136H125.799ZM130.984 61.0136C131.004 61.0136 131.024 61.0297 131.024 61.1909C131.024 61.348 131.004 61.3601 130.984 61.3601H130.879C130.464 61.3601 130.254 61.0982 130.254 60.655V58.7533H130.589V60.6389C130.589 60.8887 130.69 61.0136 130.895 61.0136H130.984ZM132.581 61.0136C132.597 61.0136 132.621 61.0297 132.621 61.1869C132.621 61.348 132.597 61.3601 132.581 61.3601H132.456C132.219 61.3601 132.049 61.2836 131.973 61.1224C131.876 61.2836 131.699 61.3601 131.469 61.3601H130.986C130.969 61.3601 130.945 61.348 130.945 61.1909C130.945 61.0297 130.969 61.0136 130.986 61.0136H131.469C131.675 61.0136 131.812 60.9008 131.812 60.7155V60.0627H132.146V60.7074C132.146 60.9089 132.259 61.0136 132.468 61.0136H132.581ZM131.816 61.8678V62.1901H130.752V61.8678H131.816ZM133.478 59.5793H133.05V59.2448H133.478V59.5793ZM133.663 60.7195C133.663 61.1224 133.397 61.3601 133.002 61.3601H132.583C132.567 61.3601 132.543 61.348 132.543 61.1909C132.543 61.0297 132.567 61.0136 132.583 61.0136H133.002C133.191 61.0136 133.328 60.9089 133.328 60.7155V60.0627H133.663V60.7195ZM134.826 59.5672L135.064 59.3295L135.837 60.2199C136.018 60.4254 136.079 60.5946 136.079 60.7638C136.079 61.1103 135.833 61.3601 135.374 61.3601H134.226L134.193 61.0136H135.374C135.612 61.0136 135.745 60.9129 135.745 60.7598C135.745 60.6631 135.696 60.5704 135.579 60.4334L134.826 59.5672ZM139.124 58.6485L140.438 58.1006L140.506 58.3182L139.124 58.8903V58.6485ZM138.395 61.3601C137.912 61.3601 137.682 61.0821 137.682 60.6631V60.0627H138.016V60.6188C138.016 60.8605 138.133 61.0136 138.415 61.0136H139.862C140.099 61.0136 140.232 60.9129 140.232 60.7598C140.232 60.651 140.184 60.5543 140.067 60.4334L139.124 59.4946V59.2046L140.591 58.6203L140.692 58.9427L139.515 59.406L140.313 60.2078C141.058 60.9532 141.159 61.0136 141.401 61.0136C141.417 61.0136 141.441 61.0297 141.441 61.1909C141.441 61.348 141.417 61.3601 141.401 61.3601C141.075 61.3601 140.946 61.2997 140.527 60.8806C140.502 61.1546 140.265 61.3601 139.862 61.3601H138.395ZM142.295 59.5793H141.868V59.2448H142.295V59.5793ZM142.48 60.7195C142.48 61.1224 142.214 61.3601 141.82 61.3601H141.401C141.384 61.3601 141.36 61.348 141.36 61.1909C141.36 61.0297 141.384 61.0136 141.401 61.0136H141.82C142.009 61.0136 142.146 60.9089 142.146 60.7155V60.0627H142.48V60.7195ZM143.702 61.2433C143.702 61.9242 143.271 62.3432 142.646 62.3432H142.364L142.332 61.9967H142.638C143.094 61.9967 143.368 61.7187 143.368 61.2433V60.0627H143.702V61.2433ZM146.182 60.4536C146.182 60.2924 146.222 60.1675 146.319 60.0789H146.137C145.823 60.0789 145.642 60.2521 145.642 60.5462V62.3432H145.307V60.5462C145.307 60.0587 145.638 59.7404 146.158 59.7404H146.983C147.443 59.7404 147.672 59.9862 147.672 60.3931V60.6711C147.672 61.1143 147.411 61.3601 146.919 61.3601C146.427 61.3601 146.182 61.1063 146.182 60.7034V60.4536ZM146.931 61.0136C147.185 61.0136 147.338 60.9129 147.338 60.6671V60.4254C147.338 60.2118 147.205 60.0789 146.983 60.0789H146.855C146.629 60.0789 146.516 60.2239 146.516 60.4334V60.6389C146.516 60.9048 146.657 61.0136 146.931 61.0136ZM148.841 59.5672L149.079 59.3295L149.852 60.2199C150.034 60.4254 150.094 60.5946 150.094 60.7638C150.094 61.1103 149.848 61.3601 149.389 61.3601H148.241L148.209 61.0136H149.389C149.627 61.0136 149.76 60.9129 149.76 60.7598C149.76 60.6631 149.711 60.5704 149.595 60.4334L148.841 59.5672ZM151.316 60.7034C151.316 60.9008 151.432 61.0136 151.654 61.0136H151.706C151.722 61.0136 151.747 61.0338 151.747 61.1909C151.747 61.348 151.722 61.3601 151.706 61.3601H151.654C151.509 61.3601 151.372 61.3037 151.316 61.2231V61.2715C151.303 61.9242 150.884 62.3432 150.26 62.3432H149.978L149.946 61.9967H150.252C150.707 61.9967 150.981 61.7187 150.981 61.2433V60.0627H151.316V60.7034ZM152.821 61.0136C153.055 61.0136 153.192 60.9129 153.192 60.7598C153.192 60.651 153.144 60.5543 153.027 60.4334L152.08 59.4946V59.2046L153.551 58.6203L153.651 58.9427L152.475 59.406L153.281 60.2159C153.458 60.3931 153.527 60.5825 153.527 60.7638C153.527 61.1103 153.281 61.3601 152.821 61.3601H151.705C151.689 61.3601 151.665 61.348 151.665 61.1909C151.665 61.0297 151.689 61.0136 151.705 61.0136H152.821ZM159.24 59.273H158.817V58.9386H159.24V59.273ZM157.524 60.7034C157.524 60.8484 157.592 60.929 157.701 60.9653C158.205 60.0627 158.604 59.7042 159.051 59.7042C159.486 59.7042 159.808 60.0466 159.808 60.5341C159.808 61.0257 159.486 61.3601 158.966 61.3601H157.995C157.733 61.3601 157.584 61.3037 157.524 61.2312V61.2795C157.512 61.9121 157.069 62.3432 156.428 62.3432H156.251C155.57 62.3432 155.195 61.9282 155.195 61.2271V60.4657H155.53V61.2191C155.53 61.7268 155.779 61.9967 156.259 61.9967H156.428C156.887 61.9967 157.19 61.7106 157.19 61.2513V60.0627H157.524V60.7034ZM158.966 61.0136C159.293 61.0136 159.474 60.8283 159.474 60.5341C159.474 60.24 159.281 60.0386 159.027 60.0386C158.717 60.0386 158.418 60.3488 158.028 61.0136H158.966ZM162.37 61.0136C162.39 61.0136 162.41 61.0297 162.41 61.1909C162.41 61.348 162.39 61.3601 162.37 61.3601H161.983C161.934 61.9766 161.54 62.3432 160.943 62.3432H160.448L160.415 61.9967H160.947C161.378 61.9967 161.652 61.7509 161.656 61.3601H161.253C160.693 61.3601 160.472 61.1345 160.472 60.655C160.472 60.1474 160.786 59.8009 161.237 59.8009C161.705 59.8009 161.991 60.1353 161.991 60.6752V61.0136H162.37ZM160.806 60.6349C160.806 60.9089 160.923 61.0136 161.274 61.0136H161.656V60.6993C161.656 60.3287 161.503 60.1393 161.217 60.1393C160.967 60.1393 160.806 60.3408 160.806 60.6349ZM163.662 59.265H163.235V58.9306H163.662V59.265ZM162.872 61.0136C162.751 60.8968 162.707 60.7437 162.707 60.5825C162.707 60.1272 163.021 59.7888 163.492 59.7888C163.686 59.7888 163.867 59.8331 164.081 59.966L163.964 60.24C163.778 60.1554 163.629 60.1272 163.492 60.1272C163.235 60.1272 163.041 60.3166 163.041 60.5624C163.041 60.8242 163.206 61.0136 163.468 61.0136H164.189L164.157 61.3601H162.368C162.352 61.3601 162.328 61.348 162.328 61.1909C162.328 61.0297 162.352 61.0136 162.368 61.0136H162.872ZM167.322 60.6107C167.322 60.9008 167.427 61.0136 167.616 61.0136H167.713C167.733 61.0136 167.753 61.0297 167.753 61.1909C167.753 61.348 167.733 61.3601 167.713 61.3601H167.616C167.334 61.3601 167.141 61.2473 167.076 60.9773C166.955 61.1063 166.722 61.1627 166.5 61.1627C166.049 61.1627 165.795 60.9169 165.795 60.4334C165.795 59.9822 166.109 59.6115 166.581 59.6115H166.988V59.3335H167.322V60.6107ZM166.129 60.4254C166.129 60.6832 166.254 60.8162 166.52 60.8162C166.806 60.8162 166.988 60.7034 166.988 60.5261V59.9499H166.581C166.303 59.9499 166.129 60.1192 166.129 60.4254ZM168.09 58.6485L169.4 58.1006L169.468 58.3182L168.09 58.8903V58.6485ZM168.828 61.0136C169.061 61.0136 169.198 60.9129 169.198 60.7598C169.198 60.651 169.15 60.5543 169.033 60.4334L168.086 59.4946V59.2046L169.557 58.6203L169.658 58.9427L168.481 59.406L169.287 60.2159C169.464 60.3931 169.533 60.5825 169.533 60.7638C169.533 61.1103 169.287 61.3601 168.828 61.3601H167.712C167.695 61.3601 167.671 61.348 167.671 61.1909C167.671 61.0297 167.695 61.0136 167.712 61.0136H168.828ZM170.281 61.3601V58.7533H170.616V61.3601H170.281ZM156.752 65.9419H156.325V65.6075H156.752V65.9419ZM157.784 66.7275C157.784 66.9008 157.896 67.0136 158.098 67.0136H158.174C158.191 67.0136 158.215 67.0297 158.215 67.1909C158.215 67.348 158.191 67.3601 158.174 67.3601H158.11C157.969 67.3601 157.84 67.3118 157.784 67.2433V67.2916C157.772 67.9121 157.328 68.3432 156.688 68.3432H156.51C155.83 68.3432 155.455 67.9282 155.455 67.2271V66.4657H155.789V67.2191C155.789 67.7268 156.039 67.9967 156.518 67.9967H156.688C157.147 67.9967 157.449 67.7106 157.449 67.2513V66.0627H157.784V66.7275ZM159.29 67.0136C159.524 67.0136 159.661 66.9129 159.661 66.7598C159.661 66.651 159.612 66.5543 159.496 66.4334L158.549 65.4946V65.2046L160.019 64.6203L160.12 64.9427L158.944 65.406L159.749 66.2159C159.927 66.3931 159.995 66.5825 159.995 66.7638C159.995 67.1103 159.749 67.3601 159.29 67.3601H158.174C158.158 67.3601 158.134 67.348 158.134 67.1909C158.134 67.0297 158.158 67.0136 158.174 67.0136H159.29ZM165.709 65.273H165.286V64.9386H165.709V65.273ZM163.992 66.7034C163.992 66.8484 164.061 66.929 164.17 66.9653C164.673 66.0627 165.072 65.7042 165.52 65.7042C165.955 65.7042 166.277 66.0466 166.277 66.5341C166.277 67.0257 165.955 67.3601 165.435 67.3601H164.464C164.202 67.3601 164.053 67.3037 163.992 67.2312V67.2795C163.98 67.9121 163.537 68.3432 162.897 68.3432H162.719C162.038 68.3432 161.664 67.9282 161.664 67.2271V66.4657H161.998V67.2191C161.998 67.7268 162.248 67.9967 162.727 67.9967H162.897C163.356 67.9967 163.658 67.7106 163.658 67.2513V66.0627H163.992V66.7034ZM165.435 67.0136C165.761 67.0136 165.943 66.8283 165.943 66.5341C165.943 66.24 165.749 66.0386 165.495 66.0386C165.185 66.0386 164.887 66.3488 164.496 67.0136H165.435ZM168.838 67.0136C168.858 67.0136 168.878 67.0297 168.878 67.1909C168.878 67.348 168.858 67.3601 168.838 67.3601H168.451C168.403 67.9766 168.008 68.3432 167.412 68.3432H166.916L166.884 67.9967H167.416C167.847 67.9967 168.121 67.7509 168.125 67.3601H167.722C167.162 67.3601 166.94 67.1345 166.94 66.655C166.94 66.1474 167.255 65.8009 167.706 65.8009C168.173 65.8009 168.459 66.1353 168.459 66.6752V67.0136H168.838ZM167.275 66.6349C167.275 66.9089 167.392 67.0136 167.742 67.0136H168.125V66.6993C168.125 66.3287 167.972 66.1393 167.686 66.1393C167.436 66.1393 167.275 66.3408 167.275 66.6349ZM170.13 65.265H169.703V64.9306H170.13V65.265ZM169.34 67.0136C169.22 66.8968 169.175 66.7437 169.175 66.5825C169.175 66.1272 169.49 65.7888 169.961 65.7888C170.154 65.7888 170.336 65.8331 170.549 65.966L170.432 66.24C170.247 66.1554 170.098 66.1272 169.961 66.1272C169.703 66.1272 169.51 66.3166 169.51 66.5624C169.51 66.8242 169.675 67.0136 169.937 67.0136H170.658L170.626 67.3601H168.837C168.821 67.3601 168.797 67.348 168.797 67.1909C168.797 67.0297 168.821 67.0136 168.837 67.0136H169.34Z" fill="black"/>
<path d="M92.1441 75.7852C92.1643 75.7852 92.1844 75.8013 92.1844 75.9625C92.1844 76.1196 92.1643 76.1317 92.1441 76.1317H91.7573C91.709 76.7482 91.3141 77.1148 90.7178 77.1148H90.2222L90.19 76.7683H90.7219C91.153 76.7683 91.4269 76.5225 91.431 76.1317H91.0281C90.468 76.1317 90.2464 75.9061 90.2464 75.4266C90.2464 74.919 90.5607 74.5725 91.0119 74.5725C91.4793 74.5725 91.7654 74.9069 91.7654 75.4468V75.7852H92.1441ZM90.5808 75.4065C90.5808 75.6805 90.6977 75.7852 91.0482 75.7852H91.431V75.4709C91.431 75.1003 91.2779 74.9109 90.9918 74.9109C90.742 74.9109 90.5808 75.1124 90.5808 75.4065ZM92.2355 75.7852C92.4289 75.7852 92.5216 75.7006 92.5216 75.5274V75.3622C92.5216 74.8464 92.8117 74.5322 93.2911 74.5322C93.7706 74.5322 94.0365 74.8182 94.0365 75.346C94.0365 75.8456 93.7505 76.1317 93.2791 76.1317C92.997 76.1317 92.8077 76.0431 92.715 75.8819C92.6263 76.0552 92.4853 76.1317 92.2355 76.1317H92.1429C92.1267 76.1317 92.1026 76.1196 92.1026 75.9625C92.1026 75.8013 92.1267 75.7852 92.1429 75.7852H92.2355ZM93.7021 75.346C93.7021 75.0318 93.5651 74.8706 93.2791 74.8706C92.993 74.8706 92.856 75.0318 92.856 75.3622C92.856 75.6241 93.0091 75.7852 93.2791 75.7852C93.5571 75.7852 93.7021 75.6442 93.7021 75.346ZM96.9378 74.7135H96.5107V74.3791H96.9378V74.7135ZM97.9692 75.4991C97.9692 75.6724 98.0821 75.7852 98.2835 75.7852H98.3601C98.3762 75.7852 98.4003 75.8013 98.4003 75.9625C98.4003 76.1196 98.3762 76.1317 98.3601 76.1317H98.2956C98.1546 76.1317 98.0256 76.0834 97.9692 76.0149V76.0632C97.9572 76.6837 97.514 77.1148 96.8733 77.1148H96.6961C96.0151 77.1148 95.6404 76.6998 95.6404 75.9988V75.2373H95.9748V75.9907C95.9748 76.4984 96.2247 76.7683 96.7041 76.7683H96.8733C97.3326 76.7683 97.6348 76.4822 97.6348 76.0229V74.8344H97.9692V75.4991ZM99.6529 74.8344H99.9914V75.4911C99.9914 75.894 99.7254 76.1317 99.3306 76.1317H98.3596C98.3435 76.1317 98.3193 76.1196 98.3193 75.9625C98.3193 75.8013 98.3435 75.7852 98.3596 75.7852H99.3306C99.52 75.7852 99.6529 75.6805 99.6529 75.4871V74.8344ZM99.4636 76.6394V76.9617H98.3999V76.6394H99.4636ZM100.678 76.1317V73.5249H101.012V75.7852H101.548C101.737 75.7852 101.874 75.6724 101.874 75.4871V73.5249H102.209V75.4911C102.209 75.894 101.943 76.1317 101.548 76.1317H100.678ZM104.722 74.4959V74.1776H105.786V74.4959H104.722ZM106.33 74.8344H106.664V75.4991C106.664 75.894 106.398 76.1317 106.008 76.1317H104.565C104.082 76.1317 103.852 75.8537 103.852 75.4347V74.8344H104.186V75.3904C104.186 75.6321 104.303 75.7852 104.585 75.7852H106.008C106.197 75.7852 106.33 75.6724 106.33 75.4911V74.8344ZM108.08 75.7852C108.1 75.7852 108.12 75.8013 108.12 75.9625C108.12 76.1196 108.1 76.1317 108.08 76.1317H107.975C107.56 76.1317 107.351 75.8698 107.351 75.4266V73.5249H107.685V75.4105C107.685 75.6603 107.786 75.7852 107.991 75.7852H108.08ZM108.175 75.7852C108.368 75.7852 108.461 75.7006 108.461 75.5274V75.3622C108.461 74.8464 108.751 74.5322 109.23 74.5322C109.71 74.5322 109.976 74.8182 109.976 75.346C109.976 75.8456 109.69 76.1317 109.218 76.1317C108.936 76.1317 108.747 76.0431 108.654 75.8819C108.566 76.0552 108.425 76.1317 108.175 76.1317H108.082C108.066 76.1317 108.042 76.1196 108.042 75.9625C108.042 75.8013 108.066 75.7852 108.082 75.7852H108.175ZM109.641 75.346C109.641 75.0318 109.504 74.8706 109.218 74.8706C108.932 74.8706 108.795 75.0318 108.795 75.3622C108.795 75.6241 108.948 75.7852 109.218 75.7852C109.496 75.7852 109.641 75.6442 109.641 75.346ZM111.482 75.7852C111.671 75.7852 111.796 75.6925 111.796 75.5676C111.796 75.4508 111.72 75.2493 111.349 74.2501L111.659 74.1091L112.131 75.4468C112.215 75.6885 112.304 75.7852 112.497 75.7852H112.582C112.602 75.7852 112.622 75.8054 112.622 75.9625C112.622 76.1277 112.602 76.1317 112.582 76.1317H112.485C112.243 76.1317 112.082 76.0552 111.989 75.8779C111.889 76.0552 111.728 76.1317 111.482 76.1317H110.539L110.507 75.7852H111.482ZM113.881 74.0003H113.454V73.6659H113.881V74.0003ZM112.865 75.7852C113.272 75.7852 113.502 75.7288 113.784 75.5676L114.396 75.2091C114.312 74.9149 114.179 74.8223 113.889 74.8223H112.946L112.99 74.4717H113.945C114.425 74.4717 114.634 74.6853 114.787 75.3219L113.941 75.8456C113.599 76.0592 113.329 76.1317 112.853 76.1317H112.583C112.567 76.1317 112.543 76.1196 112.543 75.9625C112.543 75.8013 112.567 75.7852 112.583 75.7852H112.865ZM117.797 75.3823C117.797 75.6724 117.902 75.7852 118.091 75.7852H118.188C118.208 75.7852 118.228 75.8013 118.228 75.9625C118.228 76.1196 118.208 76.1317 118.188 76.1317H118.091C117.809 76.1317 117.615 76.0189 117.551 75.749C117.43 75.8779 117.196 75.9343 116.975 75.9343C116.524 75.9343 116.27 75.6885 116.27 75.205C116.27 74.7538 116.584 74.3831 117.055 74.3831H117.462V74.1051H117.797V75.3823ZM116.604 75.197C116.604 75.4548 116.729 75.5878 116.995 75.5878C117.281 75.5878 117.462 75.475 117.462 75.2977V74.7215H117.055C116.777 74.7215 116.604 74.8908 116.604 75.197ZM118.279 75.7852C118.472 75.7852 118.565 75.7006 118.565 75.5274V75.3622C118.565 74.8464 118.855 74.5322 119.335 74.5322C119.814 74.5322 120.08 74.8182 120.08 75.346C120.08 75.8456 119.794 76.1317 119.322 76.1317C119.04 76.1317 118.851 76.0431 118.758 75.8819C118.67 76.0552 118.529 76.1317 118.279 76.1317H118.186C118.17 76.1317 118.146 76.1196 118.146 75.9625C118.146 75.8013 118.17 75.7852 118.186 75.7852H118.279ZM119.745 75.346C119.745 75.0318 119.608 74.8706 119.322 74.8706C119.036 74.8706 118.899 75.0318 118.899 75.3622C118.899 75.6241 119.052 75.7852 119.322 75.7852C119.6 75.7852 119.745 75.6442 119.745 75.346ZM123.819 76.1921C123.819 76.0229 123.723 75.9383 123.521 75.9383H122.756V75.205C122.756 74.7618 123.042 74.4556 123.501 74.4556H124.013L124.041 74.79H123.493C123.255 74.79 123.094 74.9633 123.094 75.1929V75.5918H123.577C123.972 75.5918 124.154 75.8094 124.154 76.172C124.154 76.6877 123.67 77.1148 123.05 77.1148H122.739C122.059 77.1148 121.684 76.6998 121.684 75.9988V75.2373H122.018V75.9907C122.018 76.4984 122.268 76.7683 122.747 76.7683H123.05C123.513 76.7683 123.819 76.5225 123.819 76.1921ZM125.524 76.0149C125.524 76.6958 125.093 77.1148 124.468 77.1148H124.356L124.323 76.7683H124.46C124.916 76.7683 125.19 76.4903 125.19 76.0149V74.8344H125.524V76.0149ZM126.21 76.1317V73.5249H126.544V76.1317H126.21ZM127.751 74.3388L127.989 74.1011L128.763 74.9915C128.944 75.197 129.004 75.3662 129.004 75.5354C129.004 75.8819 128.759 76.1317 128.299 76.1317H127.151L127.119 75.7852H128.299C128.537 75.7852 128.67 75.6845 128.67 75.5314C128.67 75.4347 128.622 75.342 128.505 75.205L127.751 74.3388ZM131.478 74.4959V74.1776H132.542V74.4959H131.478ZM133.855 75.7852C133.871 75.7852 133.895 75.8013 133.895 75.9625C133.895 76.1196 133.871 76.1317 133.855 76.1317H133.734C133.496 76.1317 133.327 76.0552 133.251 75.894C133.154 76.0552 132.977 76.1317 132.743 76.1317H131.321C130.837 76.1317 130.608 75.8537 130.608 75.4347V74.8344H130.942V75.3904C130.942 75.6321 131.059 75.7852 131.341 75.7852H132.743C132.952 75.7852 133.085 75.6724 133.085 75.4911V74.8344H133.42V75.479C133.42 75.6805 133.533 75.7852 133.746 75.7852H133.855ZM134.015 75.7852C134.257 75.7852 134.39 75.6603 134.39 75.4669V74.8344H134.724V75.4548C134.724 75.62 134.785 75.7006 134.897 75.7409C135.405 74.8344 135.804 74.4758 136.251 74.4758C136.69 74.4758 137.013 74.8182 137.013 75.3058C137.013 75.7973 136.686 76.1317 136.167 76.1317H135.091C134.801 76.1317 134.628 76.0511 134.543 75.894C134.446 76.0552 134.269 76.1317 134.015 76.1317H133.854C133.838 76.1317 133.814 76.1196 133.814 75.9625C133.814 75.8013 133.838 75.7852 133.854 75.7852H134.015ZM136.167 75.7852C136.493 75.7852 136.678 75.5999 136.678 75.3058C136.678 75.0116 136.485 74.8102 136.227 74.8102C135.921 74.8102 135.619 75.1204 135.228 75.7852H136.167ZM138.237 75.475C138.237 75.6724 138.354 75.7852 138.575 75.7852H138.628C138.644 75.7852 138.668 75.8054 138.668 75.9625C138.668 76.1196 138.644 76.1317 138.628 76.1317H138.575C138.43 76.1317 138.293 76.0753 138.237 75.9947V76.0431C138.225 76.6958 137.806 77.1148 137.181 77.1148H136.899L136.867 76.7683H137.173C137.628 76.7683 137.902 76.4903 137.902 76.0149V74.8344H138.237V75.475ZM139.936 73.948H139.509V73.6135H139.936V73.948ZM139.34 75.7852C139.408 75.7852 139.493 75.7812 139.545 75.7691C139.11 75.6079 138.969 75.4468 138.969 75.1365C138.969 74.7054 139.296 74.371 139.743 74.371C140.234 74.371 140.52 74.6893 140.52 75.2373V75.3742C140.52 75.8779 140.178 76.1317 139.533 76.1317H138.627C138.611 76.1317 138.586 76.1196 138.586 75.9625C138.586 75.8013 138.611 75.7852 138.627 75.7852H139.34ZM140.041 75.7087C140.134 75.6321 140.186 75.5153 140.186 75.3541V75.2574C140.186 74.8908 140.029 74.7095 139.735 74.7095C139.497 74.7095 139.304 74.8988 139.304 75.1285C139.304 75.3863 139.461 75.5193 140.041 75.7087ZM142.978 74.3509H142.551V74.0165H142.978V74.3509ZM142.962 76.0149C142.962 76.6958 142.531 77.1148 141.907 77.1148H141.794L141.762 76.7683H141.899C142.354 76.7683 142.628 76.4903 142.628 76.0149V74.8344H142.962V76.0149ZM145.143 76.0028C145.143 76.6918 144.732 77.1148 144.095 77.1148H143.6L143.567 76.7683H144.099C144.53 76.7683 144.804 76.5225 144.808 76.1317H144.405C143.845 76.1317 143.624 75.9061 143.624 75.4266C143.624 74.919 143.938 74.5725 144.389 74.5725C144.857 74.5725 145.143 74.9069 145.143 75.4468V76.0028ZM143.958 75.4065C143.958 75.6805 144.075 75.7852 144.426 75.7852H144.808V75.4709C144.808 75.1003 144.655 74.9109 144.369 74.9109C144.119 74.9109 143.958 75.1124 143.958 75.4065ZM145.448 76.7683C145.903 76.7683 146.177 76.4903 146.177 76.0149V74.8344H146.511V75.475C146.511 75.6724 146.628 75.7852 146.85 75.7852H146.902C146.918 75.7852 146.942 75.8054 146.942 75.9625C146.942 76.1196 146.918 76.1317 146.902 76.1317H146.85C146.705 76.1317 146.568 76.0753 146.511 75.9947V76.0431C146.499 76.6958 146.08 77.1148 145.456 77.1148H145.343L145.311 76.7683H145.448ZM146.994 75.7852C147.187 75.7852 147.28 75.7006 147.28 75.5274V75.3622C147.28 74.8464 147.57 74.5322 148.05 74.5322C148.529 74.5322 148.795 74.8182 148.795 75.346C148.795 75.8456 148.509 76.1317 148.037 76.1317C147.755 76.1317 147.566 76.0431 147.473 75.8819C147.385 76.0552 147.244 76.1317 146.994 76.1317H146.901C146.885 76.1317 146.861 76.1196 146.861 75.9625C146.861 75.8013 146.885 75.7852 146.901 75.7852H146.994ZM148.46 75.346C148.46 75.0318 148.323 74.8706 148.037 74.8706C147.751 74.8706 147.614 75.0318 147.614 75.3622C147.614 75.6241 147.767 75.7852 148.037 75.7852C148.315 75.7852 148.46 75.6442 148.46 75.346ZM149.479 76.1317V73.5249H149.813V76.1317H149.479ZM152.759 74.7135H152.331V74.3791H152.759V74.7135ZM152.517 77.1148C151.836 77.1148 151.461 76.6998 151.461 75.9988V75.2373H151.796V75.9907C151.796 76.4984 152.045 76.7683 152.525 76.7683H152.694C153.153 76.7683 153.456 76.4822 153.456 76.0229V74.8344H153.79V75.9907C153.79 76.6958 153.335 77.1148 152.694 77.1148H152.517ZM155.205 75.7852C155.225 75.7852 155.246 75.8013 155.246 75.9625C155.246 76.1196 155.225 76.1317 155.205 76.1317H155.101C154.686 76.1317 154.476 75.8698 154.476 75.4266V73.5249H154.81V75.4105C154.81 75.6603 154.911 75.7852 155.117 75.7852H155.205ZM155.953 74.8344H156.287V75.4911C156.287 75.894 156.021 76.1317 155.626 76.1317H155.207C155.191 76.1317 155.167 76.1196 155.167 75.9625C155.167 75.8013 155.191 75.7852 155.207 75.7852H155.626C155.816 75.7852 155.953 75.6805 155.953 75.4871V74.8344ZM156.061 76.6394V76.9617H154.998V76.6394H156.061ZM157.7 75.7852C157.72 75.7852 157.74 75.8013 157.74 75.9625C157.74 76.1196 157.72 76.1317 157.7 76.1317H157.595C157.18 76.1317 156.971 75.8698 156.971 75.4266V73.5249H157.305V75.4105C157.305 75.6603 157.406 75.7852 157.611 75.7852H157.7ZM158.447 74.8344H158.782V75.4911C158.782 75.894 158.516 76.1317 158.121 76.1317H157.702C157.686 76.1317 157.662 76.1196 157.662 75.9625C157.662 75.8013 157.686 75.7852 157.702 75.7852H158.121C158.31 75.7852 158.447 75.6805 158.447 75.4871V74.8344ZM158.556 76.6394V76.9617H157.492V76.6394H158.556ZM157.847 77.5097V77.1954H158.201V77.5097H157.847ZM161.154 75.7852C161.175 75.7852 161.195 75.8013 161.195 75.9625C161.195 76.1196 161.175 76.1317 161.154 76.1317H161.05C160.635 76.1317 160.425 75.8698 160.425 75.4266V73.5249H160.76V75.4105C160.76 75.6603 160.86 75.7852 161.066 75.7852H161.154ZM162.361 74.0326V74.3509H161.297V74.0326H162.361ZM161.902 75.4871V74.8344H162.236V75.4911C162.236 75.894 161.97 76.1317 161.575 76.1317H161.156C161.14 76.1317 161.116 76.1196 161.116 75.9625C161.116 75.8013 161.14 75.7852 161.156 75.7852H161.575C161.765 75.7852 161.902 75.6805 161.902 75.4871ZM164.408 75.2373C164.758 74.6893 165.08 74.4758 165.403 74.4758C165.842 74.4758 166.164 74.8182 166.164 75.3058C166.164 75.4548 166.132 75.5838 166.068 75.6966C166.144 75.7651 166.257 75.7852 166.434 75.7852H166.527C166.543 75.7852 166.567 75.8013 166.567 75.9625C166.567 76.1196 166.543 76.1317 166.527 76.1317H166.434C166.164 76.1317 166.015 76.0914 165.882 75.9504C165.737 76.0672 165.544 76.1317 165.318 76.1317H163.759L163.727 75.7852H164.073V73.5249H164.408V75.2373ZM165.318 75.7852C165.645 75.7852 165.83 75.5999 165.83 75.3058C165.83 75.0116 165.637 74.8102 165.379 74.8102C165.068 74.8102 164.77 75.1204 164.379 75.7852H165.318ZM167.119 73.9882V73.67H168.183V73.9882H167.119ZM168.767 75.7852C168.783 75.7852 168.808 75.8013 168.808 75.9625C168.808 76.1196 168.783 76.1317 168.767 76.1317H168.232C167.905 76.1317 167.76 76.1156 167.659 76.0672C167.559 76.1156 167.393 76.1317 167.071 76.1317H166.527C166.511 76.1317 166.487 76.1196 166.487 75.9625C166.487 75.8013 166.511 75.7852 166.527 75.7852H167.172C166.991 75.6603 166.878 75.4468 166.878 75.2252C166.878 74.7981 167.212 74.4596 167.651 74.4596C168.103 74.4596 168.417 74.7659 168.417 75.205C168.417 75.4468 168.316 75.6402 168.103 75.7852H168.767ZM167.651 75.7772C167.949 75.6442 168.082 75.4387 168.082 75.2252C168.082 74.9673 167.917 74.7981 167.651 74.7981C167.393 74.7981 167.212 74.9794 167.212 75.2252C167.212 75.4589 167.369 75.6523 167.651 75.7772ZM170.075 73.948H169.648V73.6135H170.075V73.948ZM169.479 75.7852C169.548 75.7852 169.632 75.7812 169.685 75.7691C169.25 75.6079 169.108 75.4468 169.108 75.1365C169.108 74.7054 169.435 74.371 169.882 74.371C170.374 74.371 170.66 74.6893 170.66 75.2373V75.3742C170.66 75.8779 170.317 76.1317 169.673 76.1317H168.766C168.75 76.1317 168.726 76.1196 168.726 75.9625C168.726 75.8013 168.75 75.7852 168.766 75.7852H169.479ZM170.18 75.7087C170.273 75.6321 170.325 75.5153 170.325 75.3541V75.2574C170.325 74.8908 170.168 74.7095 169.874 74.7095C169.636 74.7095 169.443 74.8988 169.443 75.1285C169.443 75.3863 169.6 75.5193 170.18 75.7087ZM127.953 82.1317C127.808 82.1317 127.735 82.0672 127.735 81.89C127.735 81.7207 127.808 81.6603 127.953 81.6603C128.102 81.6603 128.174 81.7207 128.174 81.89C128.174 82.0672 128.102 82.1317 127.953 82.1317ZM129.966 82.1196L130.002 81.7852H131.634C131.65 81.7852 131.674 81.8013 131.674 81.9625C131.674 82.1196 131.65 82.1317 131.634 82.1317H131.215C131.255 82.172 131.275 82.2445 131.275 82.3211C131.275 82.7885 130.848 83.1148 130.183 83.1148H129.873C129.192 83.1148 128.817 82.6998 128.817 81.9988V81.2373H129.152V81.9907C129.152 82.4984 129.402 82.7683 129.881 82.7683H130.183C130.683 82.7683 130.941 82.5991 130.941 82.3291C130.941 82.1841 130.872 82.1196 130.715 82.1196H129.966ZM132.767 80.3509H132.34V80.0165H132.767V80.3509ZM132.118 81.7852C132.324 81.7852 132.461 81.6724 132.461 81.4871V80.8344H132.795V81.479C132.795 81.6805 132.908 81.7852 133.118 81.7852H133.23C133.246 81.7852 133.271 81.8013 133.271 81.9585C133.271 82.1196 133.246 82.1317 133.23 82.1317H133.105C132.868 82.1317 132.698 82.0552 132.622 81.894C132.525 82.0552 132.348 82.1317 132.118 82.1317H131.635C131.619 82.1317 131.595 82.1196 131.595 81.9625C131.595 81.8013 131.619 81.7852 131.635 81.7852H132.118ZM134.348 81.7852C134.582 81.7852 134.719 81.6845 134.719 81.5314C134.719 81.4226 134.671 81.3259 134.554 81.205L133.607 80.2663V79.9762L135.078 79.3919L135.178 79.7143L134.002 80.1776L134.808 80.9875C134.985 81.1647 135.053 81.3541 135.053 81.5354C135.053 81.8819 134.808 82.1317 134.348 82.1317H133.232C133.216 82.1317 133.192 82.1196 133.192 81.9625C133.192 81.8013 133.216 81.7852 133.232 81.7852H134.348ZM138.257 82.0028C138.257 82.6918 137.846 83.1148 137.21 83.1148H136.714L136.682 82.7683H137.214C137.645 82.7683 137.919 82.5225 137.923 82.1317H137.52C136.96 82.1317 136.738 81.9061 136.738 81.4266C136.738 80.919 137.052 80.5725 137.504 80.5725C137.971 80.5725 138.257 80.9069 138.257 81.4468V82.0028ZM137.073 81.4065C137.073 81.6805 137.189 81.7852 137.54 81.7852H137.923V81.4709C137.923 81.1003 137.77 80.9109 137.483 80.9109C137.234 80.9109 137.073 81.1124 137.073 81.4065ZM139.626 82.0149C139.626 82.6958 139.195 83.1148 138.57 83.1148H138.457L138.425 82.7683H138.562C139.017 82.7683 139.291 82.4903 139.291 82.0149V80.8344H139.626V82.0149ZM141.011 80.3509H140.584V80.0165H141.011V80.3509ZM140.995 82.0149C140.995 82.6958 140.564 83.1148 139.939 83.1148H139.827L139.794 82.7683H139.931C140.387 82.7683 140.661 82.4903 140.661 82.0149V80.8344H140.995V82.0149ZM142.364 82.0149C142.364 82.6958 141.933 83.1148 141.309 83.1148H141.196L141.164 82.7683H141.301C141.756 82.7683 142.03 82.4903 142.03 82.0149V80.8344H142.364V82.0149ZM146.576 79.9882H146.153V79.6538H146.576V79.9882ZM145.891 81.7852C145.71 81.6603 145.601 81.4468 145.601 81.2252C145.601 80.7981 145.936 80.4596 146.371 80.4596C146.822 80.4596 147.136 80.7659 147.136 81.205C147.136 81.4468 147.036 81.6402 146.822 81.7852H147.487C147.503 81.7852 147.527 81.8013 147.527 81.9625C147.527 82.1196 147.503 82.1317 147.487 82.1317H146.951C146.625 82.1317 146.48 82.1156 146.379 82.0672C146.278 82.1156 146.117 82.1317 145.791 82.1317H144.683C144.199 82.1317 143.97 81.8537 143.97 81.4347V80.8344H144.304V81.3904C144.304 81.6321 144.421 81.7852 144.703 81.7852H145.891ZM146.371 81.7772C146.669 81.6442 146.802 81.4387 146.802 81.2252C146.802 80.9673 146.641 80.7981 146.371 80.7981C146.113 80.7981 145.936 80.9794 145.936 81.2252C145.936 81.4589 146.089 81.6523 146.371 81.7772ZM149.083 81.7852C149.099 81.7852 149.123 81.8013 149.123 81.9585C149.123 82.1196 149.099 82.1317 149.083 82.1317H148.958C148.72 82.1317 148.551 82.0552 148.475 81.894C148.378 82.0552 148.201 82.1317 147.971 82.1317H147.487C147.471 82.1317 147.447 82.1196 147.447 81.9625C147.447 81.8013 147.471 81.7852 147.487 81.7852H147.971C148.176 81.7852 148.313 81.6724 148.313 81.4871V80.8344H148.648V81.479C148.648 81.6805 148.761 81.7852 148.97 81.7852H149.083ZM148.317 82.6394V82.9617H147.254V82.6394H148.317ZM150.423 79.9882H149.996V79.6538H150.423V79.9882ZM149.73 81.7852C149.548 81.6603 149.435 81.4468 149.435 81.2252C149.435 80.7981 149.77 80.4596 150.209 80.4596C150.66 80.4596 150.975 80.7659 150.975 81.205C150.975 81.4468 150.874 81.6402 150.66 81.7852H151.325C151.341 81.7852 151.365 81.8013 151.365 81.9625C151.365 82.1196 151.341 82.1317 151.325 82.1317H150.789C150.463 82.1317 150.318 82.1156 150.217 82.0672C150.116 82.1156 149.951 82.1317 149.629 82.1317H149.085C149.069 82.1317 149.045 82.1196 149.045 81.9625C149.045 81.8013 149.069 81.7852 149.085 81.7852H149.73ZM150.209 80.7981C149.951 80.7981 149.77 80.9794 149.77 81.2252C149.77 81.4589 149.927 81.6523 150.209 81.7772C150.507 81.6442 150.64 81.4387 150.64 81.2252C150.64 80.9673 150.475 80.7981 150.209 80.7981ZM152.621 80.0003H152.194V79.6659H152.621V80.0003ZM151.686 80.8223L151.731 80.4717H152.686C153.165 80.4717 153.375 80.6853 153.528 81.3219L153.209 81.5153C153.294 81.7207 153.403 81.7852 153.612 81.7852H153.878C153.894 81.7852 153.918 81.8054 153.918 81.9625C153.918 82.1277 153.894 82.1317 153.878 82.1317H153.6C153.282 82.1317 153.117 82.0229 152.96 81.6724L152.682 81.8456C152.339 82.0592 152.069 82.1317 151.594 82.1317H151.324C151.308 82.1317 151.283 82.1196 151.283 81.9625C151.283 81.8013 151.308 81.7852 151.324 81.7852H151.606C152.013 81.7852 152.242 81.7288 152.524 81.5676L153.137 81.2091C153.052 80.9149 152.919 80.8223 152.629 80.8223H151.686ZM155.082 80.0326V80.3509H154.018V80.0326H155.082ZM154.623 81.4871V80.8344H154.957V81.4911C154.957 81.894 154.691 82.1317 154.296 82.1317H153.877C153.861 82.1317 153.837 82.1196 153.837 81.9625C153.837 81.8013 153.861 81.7852 153.877 81.7852H154.296C154.486 81.7852 154.623 81.6805 154.623 81.4871ZM156.983 80.7457C156.641 80.7457 156.472 80.5241 156.472 80.2098C156.472 79.8513 156.641 79.6297 156.983 79.6297C157.33 79.6297 157.499 79.8513 157.499 80.2098C157.499 80.5241 157.33 80.7457 156.983 80.7457ZM157.149 82.1317H156.826L158.091 79.6659H158.418L157.149 82.1317ZM156.983 80.5362C157.205 80.5362 157.294 80.4113 157.294 80.2018C157.294 79.956 157.197 79.8392 156.983 79.8392C156.774 79.8392 156.677 79.956 156.677 80.2018C156.677 80.4113 156.77 80.5362 156.983 80.5362ZM158.265 82.172C157.922 82.172 157.749 81.9464 157.749 81.6361C157.749 81.2776 157.922 81.0519 158.265 81.0519C158.611 81.0519 158.78 81.2776 158.78 81.6361C158.78 81.9464 158.611 82.172 158.265 82.172ZM158.265 81.9585C158.486 81.9585 158.575 81.8376 158.575 81.6281C158.575 81.3783 158.478 81.2655 158.265 81.2655C158.055 81.2655 157.959 81.3783 157.959 81.6281C157.959 81.8376 158.047 81.9585 158.265 81.9585ZM160.773 82.1317H159.242V81.9343C159.367 81.62 159.628 81.3702 159.886 81.1446C160.269 80.7941 160.394 80.641 160.394 80.3791C160.394 80.1293 160.237 79.956 159.89 79.956C159.709 79.956 159.504 79.9963 159.33 80.0648V79.7384C159.487 79.67 159.733 79.6297 159.955 79.6297C160.475 79.6297 160.749 79.8956 160.749 80.3267C160.749 80.7014 160.567 80.8908 160.253 81.1809C160.031 81.3863 159.806 81.5676 159.701 81.8295H160.773V82.1317ZM161.893 82.172C161.676 82.172 161.406 82.1317 161.245 82.0592V81.757C161.422 81.8255 161.644 81.8698 161.849 81.8698C162.232 81.8698 162.429 81.6966 162.429 81.3742C162.429 81.064 162.312 80.9149 161.914 80.9149H161.233V80.6974L161.293 79.6659H162.619L162.59 79.9681H161.591L161.551 80.649H161.978C162.502 80.649 162.784 80.8424 162.784 81.3863C162.784 81.8698 162.478 82.172 161.893 82.172ZM165.069 81.7852C165.09 81.7852 165.11 81.8013 165.11 81.9625C165.11 82.1196 165.09 82.1317 165.069 82.1317H164.965C164.55 82.1317 164.34 81.8698 164.34 81.4266V79.5249H164.675V81.4105C164.675 81.6603 164.775 81.7852 164.981 81.7852H165.069ZM166.151 81.4911C166.151 81.894 165.885 82.1317 165.49 82.1317H165.071C165.055 82.1317 165.031 82.1196 165.031 81.9625C165.031 81.8013 165.055 81.7852 165.071 81.7852H165.49C165.68 81.7852 165.817 81.6805 165.817 81.4871V80.8344H166.151V81.4911ZM165.607 82.9778H165.18V82.6394H165.607V82.9778ZM169.29 82.0028C169.29 82.6918 168.879 83.1148 168.242 83.1148H167.746L167.714 82.7683H168.246C168.677 82.7683 168.951 82.5225 168.955 82.1317H168.552C167.992 82.1317 167.771 81.9061 167.771 81.4266C167.771 80.919 168.085 80.5725 168.536 80.5725C169.004 80.5725 169.29 80.9069 169.29 81.4468V82.0028ZM168.105 81.4065C168.105 81.6805 168.222 81.7852 168.572 81.7852H168.955V81.4709C168.955 81.1003 168.802 80.9109 168.516 80.9109C168.266 80.9109 168.105 81.1124 168.105 81.4065ZM170.658 82.0149C170.658 82.6958 170.227 83.1148 169.603 83.1148H169.49L169.458 82.7683H169.595C170.05 82.7683 170.324 82.4903 170.324 82.0149V80.8344H170.658V82.0149Z" fill="black"/>
<path d="M109.282 46.0196C109.294 46.3972 109.313 46.7752 109.316 47.153C109.319 47.6906 109.342 48.2298 109.347 48.7681C109.354 49.6853 109.4 50.6005 109.432 51.5164C109.442 51.8027 109.456 52.0888 109.465 52.3752C109.474 52.61 109.462 52.8452 109.431 53.0782C109.424 53.1293 109.413 53.1797 109.398 53.2291C109.388 53.2623 109.37 53.2923 109.345 53.3162C109.321 53.34 109.29 53.3566 109.257 53.3645C109.203 53.3802 109.147 53.3865 109.092 53.3833C108.622 53.3614 108.152 53.3684 107.683 53.4042C107.398 53.4272 107.114 53.4563 106.831 53.4982C106.654 53.5243 106.476 53.543 106.298 53.5674C106.082 53.597 105.866 53.6294 105.65 53.66C105.483 53.6835 105.317 53.7059 105.15 53.7294C104.934 53.7596 104.718 53.7914 104.502 53.8206C104.307 53.8469 104.113 53.8715 103.918 53.8945C103.59 53.9329 103.263 53.9749 102.934 54.0055C102.649 54.0321 102.364 54.0461 102.079 54.0623C101.654 54.0863 101.229 54.1052 100.805 54.131C100.19 54.1703 99.5757 54.2089 98.9618 54.2599C98.5657 54.2936 98.1686 54.3126 97.7731 54.3515C97.1822 54.4094 96.5895 54.44 95.998 54.4853C95.7537 54.5045 95.5067 54.5194 95.2608 54.5358C94.8532 54.5628 94.4447 54.577 94.0388 54.6276C93.8444 54.6511 93.6477 54.6549 93.4524 54.6677C93.1675 54.6868 92.8828 54.7084 92.5985 54.7323C92.1797 54.7685 91.7603 54.7893 91.3401 54.7905C90.8418 54.792 90.3441 54.8089 89.8471 54.8519C89.6077 54.8726 89.3695 54.9119 89.1304 54.9401C88.6245 55.0037 88.1199 55.065 87.6082 55.065C87.3163 55.0659 87.0278 55.0036 86.7619 54.8823C86.3336 54.6888 86.0745 54.3505 85.9898 53.8761C85.9436 53.6056 85.9148 53.3324 85.8821 53.0598C85.8136 52.4849 85.8082 51.9057 85.7662 51.3292C85.7008 50.416 85.678 49.4993 85.6402 48.5837C85.5654 46.8665 85.4984 45.1488 85.4274 43.4314C85.4154 43.1398 85.4033 42.8478 85.3913 42.5559C85.3707 42.0578 85.3264 41.5617 85.287 41.0653C85.2744 40.93 85.2562 40.7936 85.2429 40.6584C85.2377 40.5841 85.2414 40.5094 85.2537 40.4359C85.2666 40.3389 85.2991 40.2456 85.3492 40.1619C85.3992 40.0782 85.4656 40.0059 85.5442 39.9498C85.6177 39.8958 85.6952 39.848 85.7761 39.8068C86.0138 39.689 86.2649 39.6026 86.5234 39.5496C86.7865 39.4928 87.053 39.4546 87.321 39.4351C87.7118 39.4072 88.1014 39.3599 88.4936 39.3515C88.8964 39.3423 89.2982 39.3292 89.7018 39.3246C90.1716 39.3195 90.6415 39.3188 91.1114 39.3226C91.6822 39.3296 92.2525 39.3162 92.823 39.3078C93.2371 39.3012 93.651 39.2836 94.0648 39.2788C95.1454 39.2662 96.2237 39.197 97.3021 39.13C97.8774 39.0945 98.4516 39.04 99.0265 38.9938L99.1268 38.9865L101.758 38.8053C102.204 38.7737 102.651 38.7383 103.097 38.7017C103.415 38.6764 103.734 38.6574 104.051 38.6199C104.669 38.5467 105.29 38.5236 105.911 38.5026C106.14 38.4946 106.369 38.5049 106.598 38.5116C106.777 38.5169 106.955 38.5295 107.134 38.5387C107.548 38.5598 107.959 38.6046 108.368 38.6643C108.456 38.6785 108.543 38.7007 108.628 38.7307C108.692 38.7515 108.75 38.7894 108.795 38.8406C108.84 38.8918 108.871 38.9544 108.885 39.0222C108.91 39.1217 108.925 39.2239 108.929 39.3268C108.944 39.7219 108.96 40.1168 108.978 40.5115L109.066 42.5203C109.076 42.7708 109.092 43.0235 109.12 43.2741C109.135 43.4218 109.139 43.5711 109.148 43.7198C109.162 43.9654 109.168 44.2118 109.202 44.456C109.211 44.524 109.213 44.5931 109.216 44.6618L109.272 46.0182L109.282 46.0196ZM93.0827 39.5486C92.842 39.5543 92.6016 39.5686 92.3612 39.5725C91.8743 39.5798 91.3879 39.5818 90.901 39.5878C90.7333 39.5898 90.5655 39.6047 90.398 39.6013C89.8436 39.5935 89.2903 39.6214 88.7378 39.6662C88.6931 39.6702 88.6489 39.6764 88.6043 39.6823C88.4103 39.7085 88.216 39.7359 88.0216 39.7615C87.822 39.7874 87.6217 39.8115 87.4217 39.8366L86.5551 39.9442C86.3375 39.9667 86.1244 40.0234 85.9232 40.1124C85.8669 40.1373 85.8128 40.1673 85.7616 40.202C85.7246 40.2279 85.6925 40.2605 85.6668 40.2982C85.6328 40.3416 85.6168 40.3968 85.6223 40.4519C85.6278 40.5071 85.6543 40.5576 85.6962 40.5925C85.7379 40.6303 85.7823 40.665 85.829 40.6962C85.9106 40.7559 85.9949 40.8119 86.0755 40.8731C87.2578 41.7714 88.4629 42.6368 89.6909 43.4692C91.3044 44.5644 92.9523 45.6028 94.6344 46.5844C95.1139 46.8643 95.5976 47.1374 96.0816 47.4077C96.3499 47.5606 96.6325 47.6859 96.9253 47.7817C97.2493 47.8915 97.5904 47.9402 97.9322 47.9255C98.2466 47.9092 98.5526 47.8126 98.8224 47.6447C98.9375 47.5736 99.051 47.499 99.1635 47.4248C100.348 46.6542 101.48 45.8 102.549 44.8684C103.342 44.1726 104.112 43.4503 104.875 42.7195C105.866 41.7687 106.845 40.8028 107.855 39.8723C108.047 39.6931 108.193 39.4691 108.281 39.2197C108.296 39.1823 108.307 39.1438 108.316 39.1047C108.342 38.9796 108.289 38.8927 108.166 38.8613C108.139 38.8544 108.111 38.8503 108.084 38.8489C108.011 38.8444 107.938 38.8373 107.866 38.8384C107.603 38.8417 107.341 38.8445 107.077 38.8367C106.814 38.8288 106.552 38.8402 106.289 38.832C105.88 38.819 105.472 38.8493 105.063 38.8412C103.917 38.893 102.771 38.933 101.627 39.0338C101.103 39.08 100.579 39.1136 100.053 39.1535C99.612 39.1868 99.1711 39.2217 98.7302 39.2561C98.563 39.2685 98.3952 39.2766 98.2275 39.2865C97.9481 39.3039 97.6683 39.3148 97.3898 39.3547C95.9561 39.4267 94.5207 39.5146 93.0827 39.5486ZM95.9034 54.2789L95.9032 54.2746C95.9753 54.2652 96.0473 54.2523 96.1199 54.2475C96.5331 54.2195 96.9465 54.1979 97.3583 54.147C97.3748 54.1461 97.3933 54.1452 97.4083 54.1444C97.7771 54.1194 98.1457 54.0961 98.514 54.0685C99.1114 54.0236 99.7083 53.9756 100.306 53.9296L102.114 53.7927C102.142 53.7913 102.17 53.7867 102.197 53.7842L103.3 53.6758C103.618 53.644 103.935 53.6115 104.253 53.5782C104.264 53.5776 104.275 53.5753 104.288 53.5739C104.611 53.5393 104.933 53.5015 105.256 53.4712C105.663 53.4328 106.071 53.4007 106.478 53.3658C106.513 53.364 106.544 53.3581 106.578 53.355C106.934 53.3198 107.291 53.2796 107.647 53.2504C108.055 53.2176 108.46 53.1663 108.866 53.1172C108.916 53.1123 108.965 53.0988 109.011 53.0772C109.031 53.0689 109.048 53.0561 109.062 53.0396C109.076 53.0232 109.086 53.0037 109.091 52.9827C109.097 52.9616 109.097 52.9397 109.092 52.9185C109.088 52.8974 109.078 52.8778 109.065 52.8612C109.033 52.8216 108.998 52.7851 108.959 52.7521C108.73 52.5414 108.47 52.3753 108.202 52.2203C107.833 52.0069 107.464 51.794 107.098 51.5736C106.002 50.9119 104.94 50.1986 103.887 49.4681C103.208 48.9968 102.527 48.5307 101.825 48.0968C101.39 47.8283 100.949 47.5706 100.497 47.332C100.428 47.2954 100.357 47.262 100.285 47.2301C100.105 47.15 99.9361 47.1779 99.7784 47.2952C99.7468 47.3187 99.7164 47.3446 99.6867 47.3715C99.6312 47.4202 99.5769 47.4699 99.5222 47.5193C99.3093 47.7155 99.085 47.8984 98.8507 48.067C98.7497 48.1402 98.6435 48.2055 98.533 48.2623C98.3967 48.3289 98.25 48.3701 98.0999 48.3839C97.893 48.4075 97.684 48.3812 97.4895 48.3072C97.4272 48.2827 97.3648 48.2572 97.3032 48.2309L95.9418 47.6543C95.8394 47.6094 95.7323 47.5763 95.6226 47.5557C95.48 47.5266 95.3335 47.5219 95.1891 47.5417C94.9388 47.5834 94.7043 47.6958 94.5122 47.8663C94.4395 47.9291 94.3705 47.9972 94.3023 48.0655C93.8406 48.5275 93.3426 48.9497 92.8134 49.3279C92.5143 49.5418 92.2166 49.7579 91.9205 49.976C90.9197 50.7168 89.9374 51.4831 88.9548 52.2488C88.3159 52.7472 87.6781 53.2455 87.0563 53.7677C86.9997 53.8151 86.9428 53.862 86.8896 53.9128C86.8522 53.9476 86.8186 53.9864 86.7893 54.0286C86.6851 54.1848 86.706 54.3347 86.8458 54.456C86.9007 54.5051 86.9644 54.5425 87.0336 54.5663C87.1025 54.5887 87.1728 54.6071 87.2439 54.6213C87.5743 54.6804 87.9096 54.7078 88.2454 54.703C88.6424 54.6991 89.0395 54.6822 89.4366 54.6636C89.7214 54.6492 90.0059 54.6248 90.2908 54.6043C90.4637 54.592 90.6374 54.584 90.8096 54.5649C91.1607 54.526 91.513 54.5093 91.8649 54.4904L95.6709 54.2906L95.9034 54.2789ZM85.8761 47.3836L85.881 47.3833L85.893 47.6749C85.9148 48.2016 85.9341 48.7281 85.9582 49.2543C85.9745 49.5976 85.9981 49.9403 86.0221 50.2829C86.0569 50.7743 86.0932 51.2652 86.1312 51.7557C86.1672 52.2121 86.2064 52.6683 86.2449 53.1246C86.2601 53.3071 86.2767 53.4894 86.293 53.6718C86.2949 53.6946 86.2984 53.7172 86.3035 53.7394C86.3088 53.7663 86.3203 53.7913 86.3371 53.8126C86.3538 53.8338 86.3754 53.8505 86.3999 53.8613C86.4244 53.8722 86.4511 53.8768 86.4778 53.8748C86.5045 53.8727 86.5304 53.8642 86.5532 53.8498C86.5963 53.8227 86.6366 53.7911 86.6733 53.7555C86.8378 53.6077 87.0007 53.4579 87.1648 53.3094C87.3836 53.1112 87.6039 52.9172 87.8395 52.7375L90.9165 50.386C91.6235 49.8483 92.3285 49.3054 93.0057 48.7273C93.5579 48.2562 94.1037 47.7776 94.6706 47.3255C94.7018 47.3009 94.7315 47.2742 94.7594 47.2457C94.8686 47.1327 94.8643 47.0554 94.744 46.9643C94.7169 46.9441 94.6886 46.9255 94.6594 46.9087C94.6163 46.8829 94.5721 46.8579 94.5284 46.8329C93.9374 46.4988 93.3602 46.1411 92.7934 45.7656C92.007 45.2441 91.2203 44.7233 90.4332 44.2033C89.7996 43.7867 89.1598 43.3806 88.5278 42.9618C87.644 42.3837 86.7954 41.7511 85.9868 41.0676C85.9483 41.0337 85.9089 41.0027 85.8674 40.9739C85.84 40.9548 85.8104 40.9391 85.7793 40.9271C85.7582 40.919 85.735 40.9177 85.713 40.9234C85.6911 40.9291 85.6713 40.9416 85.6563 40.9591C85.6281 40.9877 85.6115 41.0261 85.61 41.0665C85.6081 41.1236 85.6088 41.1813 85.6114 41.2382C85.6347 41.7247 85.6614 42.2106 85.6818 42.6968L85.8647 47.126L85.8761 47.3836ZM108.827 42.1412C108.805 41.4987 108.775 40.8749 108.749 40.2513C108.743 40.0967 108.739 39.942 108.73 39.7879C108.729 39.7422 108.722 39.6969 108.709 39.6531C108.703 39.6296 108.691 39.6079 108.675 39.5901C108.658 39.5722 108.638 39.5585 108.616 39.5503C108.593 39.542 108.569 39.5393 108.545 39.5424C108.522 39.5456 108.499 39.5544 108.479 39.5683C108.447 39.5912 108.417 39.6175 108.39 39.6466C108.334 39.7029 108.28 39.7616 108.224 39.8182C107.732 40.3141 107.24 40.8103 106.747 41.3065C105.557 42.5125 104.321 43.6654 103.038 44.7652C102.382 45.3247 101.714 45.8676 101.045 46.4112C100.962 46.4792 100.88 46.549 100.8 46.6212C100.762 46.6547 100.728 46.6925 100.698 46.7339C100.61 46.8595 100.618 46.9781 100.72 47.0913C100.751 47.1247 100.784 47.1549 100.821 47.1812C100.902 47.2406 100.985 47.2992 101.07 47.3536C101.642 47.7191 102.218 48.0801 102.788 48.4501C103.785 49.0996 104.779 49.7557 105.775 50.4081C106.677 50.999 107.591 51.5713 108.53 52.1001C108.637 52.1606 108.74 52.2304 108.845 52.295C108.882 52.3202 108.921 52.3422 108.961 52.3608C109.1 52.4176 109.225 52.3407 109.239 52.1869C109.245 52.124 109.242 52.0607 109.231 51.9987C109.204 51.8291 109.192 51.6573 109.196 51.4853C109.194 51.3824 109.193 51.2792 109.192 51.176C109.177 50.426 109.13 49.6769 109.144 48.9257C109.15 48.6278 109.15 48.3302 109.152 48.0321C109.152 48.0211 109.154 48.0095 109.154 47.998C109.157 47.5396 109.163 47.0815 109.143 46.6235C109.124 46.1584 109.061 45.7001 109.016 45.2388C108.983 44.9145 108.946 44.5902 108.925 44.2649C108.879 43.5538 108.851 42.8384 108.827 42.1412Z" fill="black"/>
<path d="M93.0796 39.5435C94.5165 39.5097 95.9508 39.4221 97.3862 39.3508C97.6645 39.3125 97.944 39.3002 98.2232 39.2829C98.3908 39.2744 98.5585 39.266 98.7255 39.2526C99.1662 39.22 99.6067 39.1853 100.047 39.1502C100.571 39.1106 101.096 39.077 101.62 39.0309C102.763 38.9304 103.909 38.8906 105.054 38.8389C105.462 38.847 105.87 38.8168 106.278 38.8298C106.541 38.838 106.803 38.8269 107.066 38.8344C107.329 38.8419 107.591 38.8394 107.854 38.8361C107.926 38.835 107.999 38.8421 108.072 38.8466C108.099 38.848 108.127 38.8521 108.154 38.8589C108.276 38.8906 108.33 38.9773 108.304 39.1016C108.295 39.1406 108.284 39.179 108.269 39.2163C108.181 39.4657 108.034 39.6897 107.842 39.8687C106.832 40.7964 105.855 41.7592 104.863 42.7071C104.102 43.4357 103.332 44.1558 102.54 44.8495C101.471 45.7781 100.341 46.6297 99.1568 47.398C99.0433 47.472 98.9299 47.5464 98.8159 47.6172C98.5464 47.7846 98.2406 47.8809 97.9264 47.8972C97.5849 47.9118 97.2441 47.8633 96.9203 47.7538C96.6278 47.6583 96.3454 47.5334 96.0773 47.3809C95.5936 47.1101 95.1099 46.8378 94.6313 46.5602C92.9502 45.5802 91.3033 44.5447 89.6906 43.4535C88.4643 42.6231 87.2601 41.7604 86.078 40.8654C85.9975 40.8044 85.9133 40.7486 85.8317 40.6891C85.7848 40.658 85.7402 40.6235 85.6983 40.5857C85.6565 40.5509 85.63 40.5005 85.6245 40.4456C85.619 40.3906 85.635 40.3355 85.669 40.2923C85.6947 40.2542 85.7271 40.2212 85.7644 40.1949C85.8155 40.1598 85.8695 40.1295 85.9258 40.1042C86.1268 40.0155 86.3397 39.9589 86.5571 39.9366L87.423 39.8293C87.6229 39.8042 87.8231 39.7802 88.0225 39.7544C88.2167 39.7289 88.4109 39.7016 88.6047 39.6754C88.6493 39.6696 88.6935 39.6634 88.7381 39.6594C89.2901 39.6133 89.8429 39.5851 90.397 39.5947C90.5644 39.5977 90.7321 39.5832 90.8996 39.5812C91.3862 39.5752 91.8721 39.5733 92.3586 39.5659C92.599 39.5645 92.8391 39.5492 93.0796 39.5435ZM103.772 40.9888C103.918 40.9819 104.06 40.9337 104.182 40.8495C104.338 40.7459 104.469 40.612 104.6 40.4788C104.608 40.4704 104.615 40.4613 104.621 40.4517C104.634 40.4364 104.642 40.4172 104.643 40.3971C104.644 40.3771 104.638 40.3573 104.627 40.341C104.615 40.3281 104.601 40.3189 104.584 40.3146C104.568 40.3103 104.551 40.3112 104.535 40.317C104.503 40.3276 104.474 40.3426 104.446 40.3615C104.404 40.3901 104.366 40.4238 104.326 40.4559C104.256 40.5132 104.179 40.562 104.098 40.6014C104.005 40.6491 103.903 40.6742 103.799 40.6748C103.695 40.6755 103.592 40.6516 103.499 40.6051C103.428 40.573 103.365 40.5247 103.298 40.4837C103.252 40.4519 103.204 40.4226 103.155 40.3959C103.109 40.3729 103.059 40.361 103.009 40.3611C102.958 40.3613 102.908 40.3734 102.863 40.3966C102.813 40.4222 102.764 40.4512 102.718 40.4836C102.639 40.538 102.563 40.5966 102.484 40.6516C102.443 40.6815 102.4 40.7088 102.356 40.7335C102.299 40.7659 102.236 40.783 102.171 40.7833C102.106 40.7837 102.043 40.7671 101.986 40.7353C101.942 40.711 101.899 40.684 101.859 40.6546C101.78 40.6002 101.703 40.5433 101.625 40.4901C101.583 40.4614 101.539 40.4361 101.494 40.4145C101.451 40.3923 101.404 40.3804 101.357 40.3799C101.309 40.3794 101.261 40.3903 101.218 40.4116C101.138 40.4514 101.058 40.4947 100.982 40.5429C100.868 40.6155 100.758 40.6943 100.645 40.77C100.557 40.8307 100.461 40.8805 100.362 40.9184C100.246 40.9642 100.122 40.9832 99.9994 40.9741C99.8763 40.965 99.7569 40.9279 99.65 40.8656C99.5963 40.8358 99.5458 40.7993 99.4947 40.7662C99.462 40.7442 99.4309 40.7204 99.3989 40.6995C99.2579 40.5994 99.1174 40.6033 98.9793 40.7078C98.9253 40.7488 98.8744 40.7939 98.8245 40.84C98.7497 40.9092 98.6785 40.9825 98.6029 41.051C98.4006 41.2352 98.1784 41.2693 97.9361 41.1478C97.8811 41.1202 97.8267 41.0912 97.7726 41.0617C97.7089 41.0267 97.6464 40.9887 97.582 40.9544C97.5281 40.9248 97.4727 40.8982 97.416 40.8745C97.1936 40.786 96.9775 40.798 96.7757 40.9368C96.6736 41.0074 96.5783 41.0879 96.4807 41.1661C96.4635 41.1806 96.4478 41.197 96.4341 41.2149C96.3792 41.2838 96.3784 41.3564 96.4313 41.4167C96.4537 41.4426 96.4851 41.4587 96.5189 41.4619C96.5528 41.465 96.5866 41.4549 96.6136 41.4336C96.6514 41.4092 96.6848 41.3778 96.7204 41.3499C96.7736 41.3083 96.8253 41.2639 96.8811 41.2257C96.9329 41.1902 96.9917 41.1669 97.0532 41.1573C97.1647 41.1378 97.2789 41.1638 97.3712 41.2296C97.4681 41.2962 97.5624 41.3676 97.6597 41.4356C97.8994 41.6061 98.1483 41.6079 98.4022 41.4675C98.4908 41.4187 98.5745 41.3602 98.6615 41.3082C98.7376 41.2596 98.8161 41.2152 98.8968 41.1752C98.9875 41.1295 99.0875 41.1067 99.1883 41.1088C99.2891 41.1108 99.3878 41.1375 99.4761 41.1868C99.5205 41.211 99.5629 41.2385 99.6073 41.2624C99.6906 41.31 99.7862 41.3309 99.8817 41.3222C99.9482 41.3149 100.015 41.3079 100.081 41.295C100.285 41.2555 100.478 41.1664 100.642 41.0351C100.713 40.9781 100.789 40.929 100.869 40.8885C100.967 40.8374 101.074 40.8089 101.184 40.8052C101.293 40.8015 101.402 40.8226 101.502 40.867C101.568 40.8976 101.632 40.9319 101.694 40.9699C101.743 40.9975 101.788 41.0305 101.838 41.0567C101.926 41.1069 102.026 41.1324 102.127 41.1307C102.228 41.129 102.328 41.1001 102.415 41.0469C102.459 41.0218 102.5 40.9918 102.542 40.9633C102.584 40.9347 102.615 40.9095 102.653 40.8862C102.743 40.8271 102.847 40.7923 102.953 40.785C103.06 40.7776 103.167 40.7981 103.263 40.8444C103.314 40.8672 103.363 40.894 103.415 40.9164C103.527 40.9671 103.649 40.9918 103.772 40.9888ZM98.926 42.7257C98.7831 42.7235 98.6417 42.7584 98.5151 42.8272C98.3668 42.909 98.2307 43.0122 98.111 43.1335C98.0993 43.1458 98.0888 43.1593 98.0798 43.1737C98.0729 43.183 98.0684 43.1941 98.067 43.2056C98.0656 43.2172 98.0672 43.229 98.0717 43.2397C98.0762 43.2504 98.0835 43.2596 98.0927 43.2665C98.1019 43.2734 98.1127 43.2776 98.124 43.2787C98.1911 43.2889 98.2596 43.2737 98.3169 43.2361C98.361 43.211 98.4013 43.1797 98.4446 43.1532C98.5424 43.0901 98.6542 43.0534 98.7693 43.0466C98.8845 43.0398 98.9992 43.0631 99.1027 43.1143C99.1576 43.1419 99.211 43.1726 99.2626 43.2063C99.3103 43.2354 99.3558 43.2688 99.4039 43.2972C99.4879 43.3486 99.5822 43.3801 99.6799 43.3894C99.7776 43.3988 99.8763 43.3858 99.9688 43.3513C100.048 43.3219 100.125 43.2867 100.199 43.2457C100.267 43.2093 100.338 43.1721 100.411 43.1413C100.576 43.0658 100.764 43.0579 100.935 43.1192C100.955 43.1267 100.977 43.1332 100.998 43.14C101.11 43.1778 101.229 43.1891 101.346 43.173C101.463 43.157 101.575 43.114 101.673 43.0473C101.781 42.9754 101.883 42.8944 101.978 42.8053C101.995 42.7896 102.009 42.7718 102.021 42.7524C102.027 42.7427 102.03 42.7316 102.03 42.7202C102.031 42.7088 102.029 42.6974 102.024 42.6873C102.019 42.6771 102.011 42.6684 102.002 42.6621C101.992 42.6558 101.982 42.6521 101.971 42.6513C101.932 42.6523 101.893 42.6577 101.855 42.6675C101.703 42.7069 101.552 42.7489 101.401 42.7905C101.286 42.82 101.165 42.8105 101.056 42.7635C101.015 42.747 100.974 42.7272 100.933 42.7111C100.857 42.6802 100.775 42.6692 100.694 42.6793C100.613 42.6893 100.535 42.72 100.469 42.7685C100.422 42.7994 100.38 42.8383 100.335 42.8724C100.286 42.9116 100.236 42.9481 100.184 42.9819C100.115 43.0257 100.036 43.0526 99.955 43.0604C99.8739 43.0683 99.7922 43.0568 99.7164 43.0269C99.6491 42.9993 99.5839 42.9668 99.5213 42.9295C99.4722 42.9023 99.4267 42.8692 99.3796 42.8387C99.239 42.7464 99.0885 42.6957 98.926 42.7257Z" fill="white"/>
<path d="M95.9254 54.2792L95.6907 54.291L91.8885 54.4898C91.5369 54.5075 91.185 54.5252 90.8343 54.5639C90.6622 54.5829 90.4887 54.5909 90.316 54.6032C90.0314 54.6236 89.7473 54.6486 89.4627 54.6622C89.066 54.6822 88.6692 54.6975 88.2726 54.7014C87.9372 54.7062 87.6022 54.6789 87.2721 54.62C87.2011 54.6059 87.131 54.5876 87.062 54.5653C86.993 54.5417 86.9293 54.5044 86.8745 54.4556C86.7349 54.3363 86.714 54.1871 86.818 54.0302C86.8473 53.9882 86.8809 53.9495 86.9182 53.9149C86.9714 53.8644 87.0282 53.8176 87.0847 53.7705C87.7045 53.2512 88.3417 52.7545 88.9813 52.2587C89.9643 51.4955 90.9442 50.7325 91.944 49.9967C92.2394 49.7791 92.5368 49.5641 92.8361 49.3516C93.3648 48.9752 93.8623 48.555 94.3234 48.0952C94.3906 48.0272 94.4605 47.9594 94.5332 47.8969C94.7251 47.7272 94.9593 47.6153 95.2094 47.5738C95.3536 47.5541 95.5 47.5588 95.6424 47.5877C95.752 47.6083 95.859 47.6412 95.9613 47.6859L97.3213 48.2598C97.3829 48.2859 97.4452 48.3113 97.5074 48.3357C97.7017 48.4094 97.9106 48.4355 98.1173 48.412C98.2678 48.3969 98.4146 48.3544 98.5508 48.2864C98.6612 48.2298 98.7673 48.1649 98.8681 48.092C99.1022 47.9242 99.3262 47.7421 99.539 47.5469C99.5936 47.4977 99.6479 47.4482 99.7033 47.3998C99.733 47.3737 99.7634 47.3479 99.7949 47.3238C99.9525 47.2088 100.121 47.1792 100.301 47.259C100.373 47.2911 100.444 47.3232 100.513 47.3604C100.964 47.5979 101.404 47.8545 101.839 48.1216C102.541 48.5534 103.221 49.0156 103.899 49.4864C104.95 50.2136 106.013 50.9238 107.107 51.5821C107.472 51.8014 107.841 52.0133 108.21 52.2257C108.477 52.3799 108.737 52.5453 108.967 52.755C109.005 52.7878 109.04 52.8241 109.072 52.8635C109.085 52.8801 109.095 52.8996 109.099 52.9207C109.104 52.9417 109.104 52.9635 109.098 52.9845C109.093 53.0054 109.083 53.0248 109.069 53.0412C109.056 53.0575 109.038 53.0703 109.018 53.0786C108.973 53.1 108.923 53.1135 108.873 53.1183C108.468 53.1691 108.063 53.2201 107.656 53.251C107.3 53.28 106.944 53.32 106.587 53.3551C106.553 53.3568 106.521 53.3631 106.488 53.3658C106.081 53.4005 105.674 53.4324 105.267 53.4707C104.945 53.5009 104.622 53.5389 104.3 53.573C104.288 53.5735 104.278 53.5762 104.265 53.5772C103.948 53.6101 103.631 53.6424 103.313 53.6743L102.213 53.7879C102.185 53.7893 102.157 53.7942 102.13 53.7964L100.323 53.9326C99.7265 53.9783 99.1302 54.0262 98.5334 54.0708C98.1654 54.0983 97.7973 54.1214 97.4288 54.1464C97.4124 54.1472 97.3939 54.1482 97.3789 54.1489C96.9675 54.1996 96.5545 54.2211 96.1417 54.249C96.0691 54.2527 95.9973 54.2666 95.9252 54.276L95.9254 54.2792ZM93.9488 52.2921L92.9932 52.3402C92.943 52.341 92.8929 52.3458 92.8433 52.3545C92.756 52.3735 92.6701 52.3957 92.5966 52.4547C92.5931 52.4588 92.5904 52.4637 92.5889 52.4689C92.5873 52.4742 92.587 52.4797 92.5877 52.4851C92.5899 52.4943 92.6006 52.508 92.6083 52.5084C92.6581 52.5126 92.7082 52.5141 92.7582 52.5129C93.0595 52.4978 93.3609 52.4826 93.6623 52.4699C94.0978 52.4527 94.5303 52.3938 94.9643 52.3555C94.9811 52.3547 94.9991 52.3506 95.0144 52.3487C95.258 52.3183 95.5017 52.2885 95.7453 52.2577C95.9726 52.2306 96.2001 52.2043 96.4278 52.1788C96.7444 52.1436 97.0608 52.1044 97.378 52.076C97.6394 52.0525 97.9014 52.0425 98.1639 52.0268C98.2588 52.022 98.3537 52.0172 98.4484 52.0125C98.51 52.0107 98.5706 51.9955 98.6261 51.9679C98.6449 51.9561 98.662 51.9417 98.6768 51.925C98.6798 51.9203 98.6818 51.915 98.6827 51.9094C98.6837 51.9039 98.6835 51.8983 98.6822 51.8928C98.6809 51.8874 98.6786 51.8823 98.6753 51.8778C98.672 51.8733 98.6679 51.8696 98.6632 51.8668C98.6421 51.8603 98.6205 51.8559 98.5986 51.8536C98.4481 51.8431 98.2971 51.842 98.1464 51.8503L96.9951 51.945C96.9783 51.9459 96.9603 51.95 96.9453 51.9518L96.5623 51.9957L96.2625 52.0311C96.0519 52.0571 95.8414 52.0841 95.6304 52.1093C95.4027 52.1365 95.1754 52.1636 94.9476 52.1883C94.5863 52.2257 94.225 52.2628 93.9488 52.2921ZM93.9142 53.4001C93.9865 53.3964 94.0597 53.3974 94.1314 53.3892C94.6811 53.3222 95.2317 53.2685 95.7844 53.2432C95.8847 53.2381 95.9844 53.2227 96.084 53.2099C96.2559 53.1873 96.4273 53.1612 96.5993 53.1411C96.7323 53.1226 96.8619 53.0839 96.9839 53.0261C96.9942 53.0215 97.0041 53.0161 97.0137 53.01C97.0403 52.9944 97.0578 52.9596 97.0489 52.9394C97.0443 52.9289 97.0369 52.9199 97.0276 52.9136C97.0182 52.9072 97.0072 52.9037 96.996 52.9035C96.9571 52.9019 96.918 52.9042 96.8788 52.9047C96.6341 52.9096 96.3912 52.9578 96.1476 52.9886C95.9645 53.0118 95.7824 53.0427 95.5997 53.0665C95.4557 53.0863 95.3117 53.1074 95.1671 53.1208C94.8666 53.148 94.566 53.1727 94.265 53.1947L92.0076 53.3529C91.9685 53.3549 91.9294 53.3569 91.8907 53.3617C91.8577 53.3666 91.8251 53.3745 91.7934 53.3855C91.7462 53.4021 91.7184 53.4406 91.727 53.472C91.7327 53.4882 91.7436 53.5019 91.758 53.5109C91.7723 53.5199 91.7893 53.5236 91.8061 53.5215C91.8617 53.523 91.9177 53.5223 91.9735 53.5192C92.6203 53.4813 93.2689 53.4722 93.9143 53.4008L93.9142 53.4001Z" fill="white"/>
<path d="M85.8809 47.3591L85.8702 47.1008L85.6869 42.6602C85.6668 42.1728 85.6396 41.6856 85.6164 41.1979C85.614 41.1409 85.6116 41.0831 85.6149 41.0258C85.6168 40.9855 85.6337 40.9474 85.6621 40.9192C85.677 40.9016 85.6969 40.8891 85.7189 40.8833C85.741 40.8776 85.7641 40.8789 85.7853 40.8871C85.8167 40.8993 85.8464 40.9152 85.874 40.9347C85.9155 40.9635 85.9551 40.9957 85.9937 41.0286C86.804 41.7139 87.6544 42.3481 88.5402 42.9277C89.1735 43.3475 89.8147 43.7547 90.4497 44.1723C91.2398 44.6917 92.0283 45.2138 92.8151 45.7387C93.3831 46.1151 93.9616 46.4737 94.5538 46.8087C94.5977 46.8338 94.6419 46.8589 94.6851 46.8847C94.7144 46.9016 94.7427 46.9202 94.7698 46.9405C94.8905 47.0318 94.8948 47.1099 94.7854 47.2226C94.7573 47.2511 94.7276 47.2778 94.6963 47.3026C94.1282 47.7558 93.5812 48.2356 93.0279 48.7079C92.3498 49.2875 91.6425 49.8304 90.9341 50.3709L87.8521 52.7273C87.6174 52.9066 87.3951 53.1012 87.1759 53.3006C87.0115 53.4495 86.8482 53.5997 86.6834 53.7479C86.6465 53.7836 86.6062 53.8152 86.563 53.8424C86.5401 53.8568 86.5142 53.8654 86.4874 53.8674C86.4607 53.8694 86.4339 53.8648 86.4093 53.854C86.3848 53.8431 86.3632 53.8263 86.3464 53.8051C86.3296 53.7838 86.318 53.7586 86.3128 53.7317C86.3077 53.7095 86.3042 53.6868 86.3022 53.664C86.2859 53.4811 86.2692 53.2983 86.254 53.1154C86.2154 52.6579 86.1762 52.2005 86.1401 51.7429C86.1015 51.251 86.0651 50.7588 86.0307 50.2664C86.0067 49.9229 85.9831 49.5793 85.9667 49.2351C85.9411 48.7076 85.9232 48.1797 85.9014 47.6517L85.8893 47.3594L85.8809 47.3591ZM86.598 45.0906C86.6478 45.4475 86.672 45.7788 86.6893 46.1108C86.69 46.128 86.6925 46.1466 86.6938 46.1623C86.7331 46.6636 86.7806 47.1673 86.8101 47.6705C86.8311 48.0998 86.8735 48.5275 86.9371 48.952C86.9545 49.059 86.9688 49.1661 86.9886 49.273C86.9993 49.329 87.0146 49.384 87.0344 49.4374C87.0424 49.4594 87.0574 49.4779 87.077 49.4899C87.0966 49.502 87.1196 49.5069 87.1424 49.5039C87.1648 49.5003 87.1855 49.4897 87.2018 49.4735C87.2182 49.4574 87.2292 49.4365 87.2334 49.4137C87.2398 49.3858 87.2425 49.3571 87.2415 49.3285C87.2393 49.2253 87.2306 49.1225 87.2155 49.0206C87.1621 48.7397 87.1077 48.4592 87.0777 48.1739C87.0427 47.8378 87.0019 47.5023 86.9788 47.1648C86.9534 46.7876 86.9315 46.4095 86.8907 46.0337C86.8606 45.7542 86.8458 45.4742 86.8336 45.1937C86.8295 45.0965 86.8255 44.9989 86.8215 44.9017C86.8193 44.8617 86.8135 44.8221 86.8043 44.7832C86.7984 44.7609 86.7854 44.7414 86.7673 44.7277C86.7493 44.7139 86.7272 44.7068 86.7047 44.7074C86.6821 44.7089 86.6605 44.7178 86.6431 44.7329C86.6258 44.748 86.6136 44.7683 86.6084 44.791C86.6002 44.836 86.596 44.8817 86.5958 44.9275C86.5918 44.992 86.5965 45.055 86.598 45.0906Z" fill="white"/>
<path d="M108.833 42.1507C108.857 42.8498 108.885 43.567 108.929 44.2834C108.949 44.6095 108.987 44.9347 109.02 45.2599C109.065 45.7224 109.128 46.1833 109.147 46.6483C109.166 47.1075 109.162 47.5668 109.158 48.0264C109.159 48.0379 109.157 48.0495 109.157 48.0606C109.154 48.3595 109.154 48.6579 109.148 48.9566C109.134 49.7097 109.181 50.4608 109.196 51.2129C109.198 51.3163 109.199 51.4198 109.2 51.5229C109.197 51.6954 109.209 51.8677 109.236 52.0377C109.247 52.0999 109.25 52.1634 109.243 52.2264C109.229 52.3806 109.104 52.4578 108.965 52.4008C108.924 52.3821 108.885 52.36 108.848 52.3348C108.743 52.2683 108.64 52.2015 108.532 52.1394C107.592 51.6081 106.676 51.0354 105.772 50.4429C104.774 49.7887 103.778 49.1309 102.777 48.4797C102.206 48.108 101.629 47.7468 101.055 47.3803C100.97 47.3257 100.887 47.2669 100.805 47.2075C100.769 47.181 100.735 47.1508 100.705 47.1173C100.602 47.0027 100.595 46.8838 100.682 46.7589C100.712 46.7174 100.746 46.6795 100.784 46.6459C100.865 46.5735 100.947 46.5036 101.031 46.4354C101.7 45.8903 102.371 45.346 103.028 44.785C104.316 43.6848 105.556 42.5288 106.746 41.3171C107.238 40.8182 107.731 40.3208 108.226 39.8248C108.282 39.7681 108.336 39.7092 108.393 39.6528C108.42 39.6236 108.449 39.5973 108.482 39.5743C108.502 39.5604 108.524 39.5515 108.548 39.5483C108.572 39.5452 108.596 39.5479 108.619 39.5562C108.641 39.5645 108.661 39.5782 108.678 39.5961C108.694 39.614 108.706 39.6357 108.712 39.6593C108.725 39.7032 108.732 39.7487 108.733 39.7945C108.74 39.9491 108.746 40.1041 108.752 40.2591C108.78 40.8811 108.811 41.5065 108.833 42.1507ZM107.639 45.9368C107.614 45.5124 107.573 45.0899 107.54 44.6667C107.529 44.5299 107.5 44.3944 107.515 44.2552C107.515 44.2323 107.511 44.2095 107.501 44.1887C107.497 44.1753 107.488 44.1637 107.477 44.1553C107.466 44.1469 107.453 44.1421 107.439 44.1415C107.425 44.1408 107.411 44.1439 107.398 44.1504C107.385 44.1569 107.375 44.1666 107.367 44.1786C107.347 44.2068 107.336 44.2409 107.336 44.2758C107.335 44.3675 107.333 44.4597 107.338 44.551C107.386 45.2612 107.421 45.9719 107.502 46.6789C107.557 47.146 107.571 47.6173 107.631 48.0838C107.654 48.266 107.67 48.4489 107.691 48.6311C107.696 48.6649 107.706 48.6977 107.72 48.7285C107.726 48.7417 107.736 48.7526 107.748 48.7601C107.76 48.7675 107.774 48.7709 107.788 48.77C107.805 48.7699 107.822 48.7643 107.835 48.754C107.849 48.7437 107.859 48.7292 107.864 48.7126C107.874 48.6739 107.879 48.634 107.878 48.594C107.874 48.4333 107.862 48.273 107.841 48.1138C107.779 47.7215 107.747 47.3277 107.709 46.9341C107.678 46.6014 107.657 46.2692 107.639 45.9368Z" fill="white"/>
<path d="M103.76 40.9802C103.636 40.9832 103.514 40.9586 103.402 40.9083C103.35 40.8862 103.301 40.8597 103.25 40.8371C103.154 40.7914 103.047 40.7712 102.941 40.7784C102.834 40.7857 102.731 40.8201 102.641 40.8784C102.602 40.9019 102.567 40.9298 102.529 40.9546C102.492 40.9794 102.446 41.0125 102.402 41.0372C102.315 41.0898 102.216 41.1183 102.115 41.12C102.014 41.1217 101.914 41.0965 101.826 41.0469C101.777 41.0211 101.731 40.9884 101.682 40.9612C101.62 40.9237 101.556 40.8897 101.49 40.8595C101.39 40.8156 101.282 40.7947 101.172 40.7984C101.063 40.8021 100.956 40.8302 100.858 40.8807C100.778 40.9207 100.701 40.9693 100.631 41.0256C100.467 41.1558 100.275 41.2444 100.071 41.2841C100.006 41.2969 99.9389 41.3037 99.8724 41.3109C99.777 41.3196 99.6815 41.299 99.5982 41.2519C99.5539 41.2283 99.5115 41.2011 99.4671 41.1772C99.3792 41.1274 99.2805 41.0999 99.1794 41.097C99.0784 41.0941 98.9779 41.1159 98.8867 41.1605C98.806 41.2 98.7276 41.2439 98.6516 41.292C98.5646 41.3433 98.4813 41.4011 98.3924 41.4493C98.1388 41.5881 97.8901 41.5863 97.6505 41.4178C97.5544 41.3519 97.4601 41.2807 97.3622 41.2142C97.27 41.1492 97.1559 41.1236 97.0445 41.1428C96.983 41.1523 96.9243 41.1754 96.8725 41.2104C96.8168 41.2485 96.7651 41.292 96.7119 41.3332C96.6763 41.3607 96.6444 41.3916 96.6052 41.4158C96.5782 41.4369 96.5444 41.4469 96.5106 41.4438C96.4768 41.4407 96.4455 41.4247 96.423 41.3991C96.3702 41.3396 96.371 41.2679 96.4259 41.1998C96.4396 41.182 96.4552 41.1658 96.4725 41.1516C96.57 41.0761 96.6653 40.9957 96.7672 40.925C96.9688 40.7878 97.1848 40.776 97.407 40.8634C97.4636 40.8868 97.519 40.9131 97.5729 40.9424C97.6372 40.9745 97.6997 41.0138 97.7633 41.0484C97.8174 41.0775 97.8707 41.1063 97.9267 41.1335C98.1688 41.2535 98.3916 41.2198 98.593 41.0378C98.6685 40.9701 98.7396 40.8977 98.8144 40.8293C98.8642 40.7837 98.9155 40.7391 98.9691 40.6987C99.1064 40.5954 99.2468 40.5909 99.3884 40.6905C99.4204 40.7129 99.4515 40.7365 99.4841 40.7564C99.5352 40.7892 99.5857 40.8262 99.6393 40.8546C99.7461 40.9162 99.8654 40.9528 99.9884 40.9618C100.111 40.9709 100.235 40.952 100.35 40.9068C100.45 40.8698 100.546 40.8211 100.635 40.7615C100.747 40.6853 100.857 40.6092 100.972 40.5371C101.048 40.4895 101.127 40.4474 101.207 40.4074C101.251 40.3863 101.298 40.3756 101.346 40.3761C101.393 40.3766 101.44 40.3883 101.483 40.4103C101.528 40.4316 101.572 40.4566 101.613 40.485C101.692 40.5376 101.769 40.5938 101.847 40.6474C101.888 40.6765 101.931 40.7032 101.975 40.7273C102.031 40.7587 102.095 40.775 102.159 40.7747C102.224 40.7744 102.288 40.7574 102.344 40.7255C102.388 40.701 102.431 40.674 102.472 40.6445C102.551 40.5901 102.627 40.5309 102.706 40.4785C102.752 40.4465 102.801 40.4178 102.851 40.3926C102.896 40.3697 102.946 40.3576 102.997 40.3575C103.047 40.3574 103.097 40.3691 103.142 40.3918C103.192 40.4183 103.239 40.4472 103.286 40.4786C103.352 40.5191 103.417 40.5654 103.487 40.5986C103.58 40.6446 103.682 40.6681 103.786 40.6675C103.89 40.6669 103.992 40.642 104.085 40.5949C104.166 40.556 104.243 40.5078 104.313 40.4511C104.353 40.4195 104.391 40.3861 104.433 40.3579C104.461 40.3395 104.491 40.3252 104.523 40.3153C104.539 40.3095 104.556 40.3086 104.573 40.3129C104.589 40.3171 104.604 40.3262 104.615 40.3389C104.626 40.3551 104.632 40.3746 104.631 40.3944C104.63 40.4142 104.623 40.4332 104.61 40.4483C104.604 40.4579 104.597 40.4668 104.589 40.4752C104.458 40.6067 104.326 40.739 104.17 40.8414C104.048 40.9253 103.906 40.9733 103.76 40.9802Z" fill="black"/>
<path d="M98.9264 42.7321C99.0888 42.7023 99.2392 42.7519 99.3801 42.8432C99.4271 42.8735 99.4726 42.9064 99.5216 42.9334C99.5842 42.9703 99.6494 43.0027 99.7166 43.0301C99.7924 43.0597 99.874 43.0711 99.9551 43.0634C100.036 43.0556 100.115 43.0289 100.184 42.9854C100.236 42.9518 100.286 42.9155 100.334 42.8767C100.38 42.8428 100.421 42.8042 100.468 42.7734C100.535 42.7253 100.612 42.6948 100.693 42.6849C100.775 42.6749 100.857 42.6858 100.932 42.7165C100.974 42.7325 101.014 42.7522 101.056 42.7685C101.164 42.8152 101.285 42.8246 101.4 42.7953C101.551 42.754 101.702 42.7124 101.854 42.6732C101.892 42.6635 101.931 42.6581 101.969 42.6571C101.981 42.6579 101.991 42.6616 102.001 42.6679C102.01 42.6741 102.017 42.6827 102.022 42.6928C102.027 42.7029 102.03 42.7142 102.029 42.7255C102.029 42.7369 102.025 42.7479 102.019 42.7575C102.008 42.7768 101.993 42.7944 101.977 42.8101C101.882 42.8985 101.78 42.9789 101.672 43.0503C101.574 43.1165 101.462 43.1592 101.345 43.1752C101.228 43.1911 101.109 43.1799 100.998 43.1423C100.977 43.1356 100.955 43.1292 100.934 43.1217C100.764 43.0608 100.576 43.0687 100.41 43.1437C100.338 43.1743 100.268 43.2111 100.198 43.2473C100.125 43.288 100.048 43.323 99.9689 43.3521C99.8764 43.3865 99.7778 43.3995 99.68 43.3903C99.5823 43.381 99.488 43.3498 99.4039 43.2988C99.3559 43.2706 99.3104 43.2374 99.2627 43.2086C99.2112 43.1751 99.1579 43.1446 99.1029 43.1172C98.9995 43.0664 98.8849 43.0432 98.7698 43.05C98.6547 43.0567 98.543 43.0932 98.4453 43.1558C98.402 43.1821 98.3617 43.2132 98.3176 43.2382C98.2604 43.2755 98.1919 43.2905 98.1249 43.2805C98.1135 43.2793 98.1027 43.2751 98.0935 43.2683C98.0843 43.2615 98.0771 43.2523 98.0726 43.2417C98.0681 43.2311 98.0665 43.2194 98.0679 43.2079C98.0693 43.1964 98.0737 43.1855 98.0807 43.1762C98.0897 43.1619 98.1002 43.1485 98.1119 43.1363C98.2315 43.0158 98.3675 42.9133 98.5157 42.8322C98.6423 42.7641 98.7836 42.7296 98.9264 42.7321Z" fill="black"/>
<path d="M93.9482 52.2984C94.2242 52.2697 94.5852 52.232 94.9462 52.1953C95.1738 52.1711 95.401 52.1446 95.6285 52.1179C95.8393 52.0932 96.0497 52.0668 96.2602 52.0413L96.5597 52.0066L96.9425 51.9636C96.9589 51.9628 96.9755 51.9585 96.9922 51.957L98.1437 51.8635C98.2943 51.8553 98.4452 51.8564 98.5956 51.8667C98.6175 51.8689 98.6391 51.8733 98.6601 51.8796C98.6648 51.8823 98.669 51.886 98.6723 51.8904C98.6755 51.8948 98.6779 51.8998 98.6791 51.9051C98.6804 51.9104 98.6806 51.916 98.6797 51.9214C98.6787 51.9268 98.6767 51.932 98.6737 51.9366C98.6589 51.953 98.6419 51.9671 98.623 51.9786C98.5676 52.0057 98.5071 52.0206 98.4455 52.0223C98.3509 52.027 98.2561 52.0317 98.1612 52.0364C97.8993 52.0517 97.6379 52.0622 97.3759 52.0845C97.0589 52.1124 96.7427 52.1507 96.4264 52.1852C96.1993 52.2104 95.9719 52.2362 95.7444 52.2625C95.5009 52.2913 95.2574 52.3215 95.014 52.3517C94.9972 52.3525 94.9792 52.3569 94.9639 52.3584C94.5302 52.3958 94.0981 52.4535 93.6628 52.4704C93.3616 52.4821 93.0607 52.5001 92.7595 52.5126C92.7095 52.5137 92.6594 52.5122 92.6096 52.5081C92.602 52.5084 92.5912 52.4943 92.5891 52.4853C92.5883 52.48 92.5887 52.4746 92.5902 52.4694C92.5918 52.4643 92.5944 52.4595 92.598 52.4555C92.67 52.3978 92.7572 52.376 92.8445 52.3573C92.894 52.3488 92.9441 52.3441 92.9942 52.3433L93.9482 52.2984Z" fill="black"/>
<path d="M93.9186 53.4108C93.2737 53.4808 92.6256 53.4897 91.9793 53.5268C91.9235 53.5296 91.8676 53.5324 91.8119 53.5292C91.7951 53.5312 91.7782 53.5275 91.7639 53.5187C91.7495 53.5099 91.7386 53.4964 91.7329 53.4806C91.7233 53.4499 91.751 53.4121 91.7993 53.3957C91.8309 53.385 91.8635 53.3772 91.8965 53.3724C91.9351 53.367 91.9743 53.3664 92.0133 53.3638L94.2692 53.2086C94.5699 53.1875 94.8703 53.1633 95.1706 53.1361C95.3151 53.123 95.459 53.1023 95.6029 53.0829C95.7854 53.0585 95.9674 53.0299 96.1503 53.0065C96.3938 52.9763 96.6365 52.929 96.8811 52.9242C96.9201 52.9223 96.9592 52.9204 96.9981 52.923C97.0094 52.9233 97.0203 52.9267 97.0297 52.9329C97.0391 52.9391 97.0464 52.9479 97.051 52.9582C97.0599 52.9781 97.0424 53.0122 97.0158 53.0275C97.0063 53.0334 96.9963 53.0387 96.9861 53.0433C96.8643 53.1004 96.7347 53.1389 96.6018 53.1575C96.4299 53.1772 96.2586 53.2028 96.0868 53.2249C95.9874 53.2375 95.8877 53.253 95.7875 53.2575C95.2351 53.2824 94.685 53.3351 94.1357 53.4007C94.064 53.4081 93.9922 53.4071 93.9186 53.4108Z" fill="black"/>
<path d="M86.6105 45.0752C86.609 45.0392 86.6042 44.9764 86.6037 44.9134C86.6038 44.8676 86.6081 44.8218 86.6165 44.7767C86.6218 44.754 86.6342 44.7336 86.6518 44.7185C86.6695 44.7034 86.6915 44.6944 86.7145 44.6929C86.7374 44.6923 86.7599 44.6995 86.7782 44.7132C86.7966 44.727 86.8099 44.7466 86.8159 44.7689C86.8253 44.8078 86.8311 44.8476 86.8334 44.8876C86.8396 44.9849 86.8415 45.0828 86.8456 45.1802C86.8574 45.4612 86.8731 45.7418 86.9038 46.0219C86.9453 46.3984 86.9676 46.7772 86.9934 47.1552C87.0169 47.4933 87.0574 47.8295 87.094 48.1662C87.1246 48.4529 87.18 48.7332 87.2343 49.0147C87.2497 49.1168 87.2586 49.2198 87.2608 49.3231C87.2618 49.3518 87.259 49.3805 87.2526 49.4085C87.2482 49.4313 87.237 49.4523 87.2204 49.4685C87.2038 49.4847 87.1827 49.4953 87.1599 49.4988C87.1368 49.5019 87.1133 49.497 87.0934 49.4849C87.0734 49.4728 87.0581 49.4543 87.05 49.4323C87.0299 49.3788 87.0143 49.3237 87.0034 49.2675C86.9832 49.1604 86.9687 49.0531 86.951 48.9459C86.8863 48.5206 86.8431 48.092 86.8218 47.6619C86.7918 47.1591 86.7438 46.6544 86.7034 46.1507C86.7027 46.1335 86.6994 46.1149 86.6988 46.0991C86.6858 45.7648 86.6601 45.4329 86.6105 45.0752Z" fill="black"/>
<path d="M107.621 45.9468C107.64 46.2798 107.66 46.6127 107.693 46.9446C107.731 47.3389 107.764 47.7335 107.827 48.1265C107.848 48.2861 107.861 48.4467 107.865 48.6077C107.866 48.6477 107.861 48.6877 107.851 48.7265C107.845 48.7431 107.835 48.7576 107.821 48.768C107.807 48.7783 107.79 48.7839 107.773 48.7841C107.759 48.785 107.745 48.7815 107.732 48.774C107.72 48.7666 107.71 48.7556 107.704 48.7425C107.69 48.7116 107.68 48.6787 107.675 48.6449C107.653 48.4623 107.636 48.279 107.612 48.0965C107.553 47.6291 107.537 47.1569 107.482 46.6889C107.398 45.9806 107.363 45.2684 107.314 44.5569C107.308 44.4654 107.311 44.373 107.312 44.2811C107.312 44.2462 107.323 44.212 107.343 44.1838C107.351 44.1717 107.362 44.162 107.375 44.1555C107.388 44.1489 107.402 44.1459 107.417 44.1466C107.431 44.1473 107.445 44.1524 107.456 44.1611C107.468 44.1699 107.476 44.1819 107.481 44.1957C107.49 44.2165 107.495 44.2393 107.495 44.2623C107.479 44.4018 107.509 44.5375 107.52 44.6746C107.554 45.0983 107.596 45.5216 107.621 45.9468Z" fill="black"/>
</g>
<defs>
<clipPath id="clip0_2930_33816">
<rect x="0.28125" width="208" height="105.564" rx="12.5113" fill="white"/>
</clipPath>
</defs>
</svg>
