<svg width="43" height="40" viewBox="0 0 43 40" fill="none" xmlns="http://www.w3.org/2000/svg">
<path d="M21.0744 13.8467C17.4864 13.8467 14.5923 16.594 14.5923 20C14.5923 23.406 17.4864 26.1533 21.0744 26.1533C24.6624 26.1533 27.5566 23.406 27.5566 20C27.5566 16.594 24.6624 13.8467 21.0744 13.8467ZM21.0744 24.0004C18.7557 24.0004 16.8602 22.2064 16.8602 20C16.8602 17.7936 18.7501 15.9996 21.0744 15.9996C23.3987 15.9996 25.2887 17.7936 25.2887 20C25.2887 22.2064 23.3931 24.0004 21.0744 24.0004ZM29.3336 13.595C29.3336 14.3929 28.6567 15.0302 27.8217 15.0302C26.9811 15.0302 26.3098 14.3876 26.3098 13.595C26.3098 12.8024 26.9868 12.1598 27.8217 12.1598C28.6567 12.1598 29.3336 12.8024 29.3336 13.595ZM33.6269 15.0517C33.5309 13.1291 33.0683 11.4261 31.5846 10.023C30.1065 8.61988 28.3125 8.18074 26.2872 8.08435C24.1998 7.97188 17.9434 7.97188 15.856 8.08435C13.8363 8.17539 12.0423 8.61453 10.5586 10.0176C9.07486 11.4207 8.61789 13.1237 8.51634 15.0463C8.39787 17.0278 8.39787 22.9669 8.51634 24.9483C8.61225 26.8709 9.07486 28.5739 10.5586 29.977C12.0423 31.3801 13.8307 31.8193 15.856 31.9157C17.9434 32.0281 24.1998 32.0281 26.2872 31.9157C28.3125 31.8246 30.1065 31.3855 31.5846 29.977C33.0627 28.5739 33.5253 26.8709 33.6269 24.9483C33.7453 22.9669 33.7453 17.0331 33.6269 15.0517ZM30.9302 27.0744C30.4902 28.1241 29.6383 28.9327 28.5269 29.3558C26.8626 29.9824 22.9136 29.8378 21.0744 29.8378C19.2353 29.8378 15.2806 29.977 13.6219 29.3558C12.5162 28.9381 11.6643 28.1294 11.2186 27.0744C10.5586 25.4946 10.7109 21.7458 10.7109 20C10.7109 18.2542 10.5642 14.5001 11.2186 12.9256C11.6587 11.8759 12.5106 11.0673 13.6219 10.6442C15.2862 10.0176 19.2353 10.1622 21.0744 10.1622C22.9136 10.1622 26.8683 10.023 28.5269 10.6442C29.6326 11.0619 30.4845 11.8706 30.9302 12.9256C31.5903 14.5054 31.4379 18.2542 31.4379 20C31.4379 21.7458 31.5903 25.4999 30.9302 27.0744Z" fill="#F0F6ED"/>
</svg>
