<svg width="43" height="40" viewBox="0 0 43 40" fill="none" xmlns="http://www.w3.org/2000/svg">
<g id="Frame 4">
<path id="Vector" d="M14.2245 32H8.98281V15.9764H14.2245V32ZM11.6009 13.7907C9.92472 13.7907 8.56519 12.4728 8.56519 10.8817C8.56519 10.1174 8.88501 9.38444 9.45431 8.84402C10.0236 8.3036 10.7957 8 11.6009 8C12.406 8 13.1781 8.3036 13.7474 8.84402C14.3167 9.38444 14.6365 10.1174 14.6365 10.8817C14.6365 12.4728 13.2764 13.7907 11.6009 13.7907ZM33.8427 32H28.6122V24.1998C28.6122 22.3409 28.5727 19.9569 25.887 19.9569C23.1617 19.9569 22.7441 21.9766 22.7441 24.0659V32H17.508V15.9764H22.5352V18.1622H22.6086C23.3084 16.9032 25.0178 15.5746 27.5682 15.5746C32.8731 15.5746 33.8483 18.8908 33.8483 23.198V32H33.8427Z" fill="#F0F6ED"/>
</g>
</svg>
