<svg width="121" height="26" viewBox="0 0 121 26" fill="none" xmlns="http://www.w3.org/2000/svg">
<path d="M55.8418 19.2856H50.2404C48.6893 19.2856 47.2017 18.6935 46.1049 17.6395C45.008 16.5855 44.3918 15.156 44.3918 13.6655V12.8301C44.3918 11.3396 45.008 9.91009 46.1049 8.85612C47.2017 7.80214 48.6893 7.21003 50.2404 7.21003H53.0384V4.00146H55.8418V19.2856ZM50.2404 9.91023C49.4347 9.91124 48.6623 10.2192 48.0925 10.7665C47.5227 11.3138 47.2019 12.0559 47.2005 12.8301V13.6706C47.2016 14.4449 47.5222 15.1872 48.0921 15.7346C48.662 16.282 49.4346 16.5898 50.2404 16.5905H53.0384V9.91023H50.2404Z" fill="#63B245"/>
<path d="M100.174 24.9998C99.7011 24.9996 99.2298 24.9447 98.7704 24.8363L96.9614 24.4122L97.626 21.795L99.439 22.2191C99.891 22.325 100.362 22.3307 100.817 22.2361C101.271 22.1414 101.698 21.9486 102.063 21.6725C102.429 21.3963 102.725 21.0439 102.928 20.6418C103.131 20.2398 103.237 19.7986 103.237 19.3516V19.3094H100.445C98.8941 19.3094 97.4065 18.7173 96.3097 17.6633C95.2129 16.6094 94.5967 15.1799 94.5967 13.6893V12.8476C94.5984 11.3582 95.2154 9.93031 96.312 8.87772C97.4087 7.82513 98.8953 7.23389 100.445 7.23389H106.048V19.3452C106.047 20.8406 105.43 22.2747 104.331 23.3334C103.232 24.3921 101.741 24.989 100.185 24.9934L100.174 24.9998ZM100.44 9.93409C99.6344 9.9351 98.8621 10.2431 98.2925 10.7904C97.7229 11.3378 97.4024 12.0799 97.4013 12.854V13.6957C97.4024 14.4698 97.7229 15.2119 98.2925 15.7593C98.8621 16.3066 99.6344 16.6146 100.44 16.6156H103.231V9.93409H100.44Z" fill="#D3E3FC"/>
<path d="M83.0139 19.2482H77.2982C75.7614 19.2465 74.288 18.6591 73.2012 17.6149C72.1145 16.5706 71.5032 15.1548 71.5015 13.678V12.7685C71.5032 11.2917 72.1145 9.87587 73.2012 8.83161C74.288 7.78734 75.7614 7.19993 77.2982 7.19824H83.0139V14.5708H74.4497C74.6464 15.1472 75.0274 15.6492 75.5384 16.0054C76.0494 16.3616 76.6643 16.5537 77.2955 16.5544H83.0112L83.0139 19.2482ZM74.4497 11.8757H80.2132V9.89206H77.2955C76.6643 9.89277 76.0494 10.0849 75.5384 10.4411C75.0274 10.7972 74.6464 11.2993 74.4497 11.8757Z" fill="#D3E3FC"/>
<path d="M120.344 19.2482H114.628C113.091 19.2462 111.618 18.6587 110.531 17.6145C109.445 16.5703 108.833 15.1547 108.831 13.678V12.7685C108.833 11.2917 109.444 9.87587 110.531 8.83161C111.618 7.78734 113.091 7.19993 114.628 7.19824H120.344V14.5708H111.78C111.976 15.147 112.357 15.6489 112.868 16.005C113.378 16.3612 113.993 16.5534 114.624 16.5544H120.34L120.344 19.2482ZM111.78 11.8757H117.54V9.89206H114.624C113.993 9.89304 113.378 10.0853 112.868 10.4415C112.357 10.7976 111.976 11.2995 111.78 11.8757Z" fill="#D3E3FC"/>
<path d="M93.0017 7.26459C91.4421 7.2635 89.9258 7.75742 88.6883 8.66961V7.19434H85.885V14.0496C85.885 14.0687 85.885 14.0866 85.885 14.1045V17.2326V19.2494H88.6883V14.0496C88.7054 12.9607 89.1672 11.9219 89.9742 11.1573C90.7811 10.3927 91.8684 9.96345 93.0017 9.96223H93.447V7.26459H93.0017Z" fill="#D3E3FC"/>
<path d="M66.1234 19.2496L72.3721 4H69.3547L65.2807 13.9207L61.2651 4H58.1813L64.5044 19.2496H66.1234Z" fill="#D3E3FC"/>
<path d="M40.5159 19.2293H43.5345L37.2938 4.00391H35.6562L29.3438 19.2293H32.4276L33.2251 17.2469H39.6971L40.5159 19.2293ZM34.3204 14.5518L36.4471 9.3149L38.5991 14.5518H34.3204Z" fill="#63B245"/>
<path d="M4.59662 15.1591H0.34375V7.17709C0.346968 5.27641 1.10309 3.45449 2.44647 2.11051C3.78985 0.766523 5.61094 0.0100553 7.51075 0.00683594H15.7095V4.26434H7.51075C6.73774 4.26506 5.99659 4.57259 5.44999 5.11944C4.90338 5.66629 4.59599 6.40778 4.59527 7.18114L4.59662 15.1591Z" fill="#D3E3FC"/>
<path d="M17.1727 23.9921H8.97388V19.7346H17.1727C17.9456 19.7332 18.6864 19.4252 19.2326 18.8781C19.7789 18.3311 20.0861 17.5897 20.0868 16.8164V8.83447H24.3437V16.8164C24.3416 18.7187 23.5854 20.5424 22.2411 21.8876C20.8967 23.2327 19.074 23.9896 17.1727 23.9921Z" fill="#D3E3FC"/>
<path d="M4.82105 19.5464H0.368042V24.0001H4.82105V19.5464Z" fill="#63B245"/>
<path d="M14.89 9.44189H10.437V13.8956H14.89V9.44189Z" fill="#63B245"/>
<path d="M24.3167 0H19.8636V4.45367H24.3167V0Z" fill="#63B245"/>
</svg>
