<svg width="213" height="13" viewBox="0 0 213 13" fill="none" xmlns="http://www.w3.org/2000/svg">
<g id="objects" clip-path="url(#clip0_3138_12106)">
<path id="Vector" d="M4.27023 10.8835C4.29272 10.8769 4.53559 10.7989 4.59856 10.7788C4.72899 10.7387 4.85717 10.6986 4.9876 10.6585C5.39014 10.536 5.79267 10.4157 6.19521 10.2976C7.00253 10.0614 7.8121 9.83415 8.62617 9.6158C10.2543 9.17689 11.8937 8.77585 13.5376 8.40377C13.5218 8.40823 13.713 8.3659 13.8209 8.34139C13.9288 8.31911 14.12 8.27678 14.1043 8.28123C14.518 8.19434 14.9318 8.10745 15.3478 8.02278C16.2384 7.84232 17.1311 7.67076 18.0239 7.50812C19.6993 7.20511 21.3791 6.93107 23.0635 6.68821C29.5535 5.75245 36.3877 5.27789 43.1026 5.11302C57.0901 4.76991 71.0912 5.82598 84.9978 7.20288C98.7223 8.55973 112.404 10.3221 126.153 11.4249C139.734 12.5122 153.406 13.0358 167.018 12.1735C180.435 11.3247 193.869 9.08777 206.528 4.50478C208.014 3.96783 209.485 3.39078 210.944 2.78253C211.412 2.5887 213.672 1.73314 212.809 0.928837C212.006 0.18023 209.525 0.908785 208.727 1.24076C207.268 1.849 205.797 2.42382 204.31 2.963C203.618 3.21254 202.923 3.45762 202.226 3.69156C201.85 3.81855 201.472 3.94332 201.095 4.06586C200.933 4.11933 200.771 4.17058 200.609 4.22182C200.501 4.25747 200.494 4.2597 200.51 4.25524C200.476 4.26638 200.413 4.2842 200.299 4.31985C198.769 4.78773 197.231 5.22442 195.684 5.62769C194.962 5.81484 194.238 5.99753 193.512 6.17132C193.12 6.26489 192.727 6.35847 192.335 6.44759C192.167 6.48547 191.998 6.52557 191.83 6.56345C191.778 6.57459 191.456 6.64588 191.366 6.66593C185.02 8.02278 178.955 8.84269 172.589 9.34399C159.163 10.4023 145.662 9.95446 132.247 8.93849C118.514 7.89802 104.855 6.15795 91.1573 4.76768C77.1405 3.34399 63.0652 2.25895 48.9652 2.43274C34.9619 2.60429 20.9001 4.01462 7.37808 7.74428C5.59253 8.23667 3.82272 8.7803 2.05966 9.34176C1.56717 9.49995 -0.647903 10.4112 0.195399 11.1955C1.0432 11.9842 3.42243 11.1554 4.27698 10.8835H4.27023Z" fill="#262626"/>
</g>
<defs>
<clipPath id="clip0_3138_12106">
<rect width="213" height="12" fill="white" transform="translate(0 0.603516)"/>
</clipPath>
</defs>
</svg>
