<svg width="341" height="85" viewBox="0 0 341 85" fill="none" xmlns="http://www.w3.org/2000/svg">
<g clip-path="url(#clip0_3654_8588)">
<path d="M219.549 43.65V58.82C219.549 59.0721 219.5 59.3218 219.403 59.5547C219.307 59.7877 219.165 59.9994 218.987 60.1776C218.809 60.3559 218.597 60.4974 218.364 60.5938C218.131 60.6903 217.881 60.74 217.629 60.74H212.119C211.867 60.7413 211.616 60.6926 211.383 60.5966C211.149 60.5005 210.937 60.3592 210.759 60.1806C210.58 60.002 210.439 59.7898 210.343 59.5563C210.247 59.3228 210.198 59.0725 210.199 58.82V11.27C210.198 11.017 210.247 10.7663 210.343 10.5322C210.438 10.2981 210.58 10.0852 210.758 9.90588C210.936 9.72653 211.149 9.5842 211.382 9.48709C211.616 9.38998 211.866 9.33999 212.119 9.34H217.829C218.286 9.34264 218.724 9.52607 219.046 9.85022C219.368 10.1744 219.549 10.6129 219.549 11.07V43.65Z" fill="white"/>
<path d="M298.95 58.8C298.95 59.3092 298.747 59.7976 298.387 60.1577C298.027 60.5177 297.539 60.72 297.03 60.72H291.52C291.267 60.7213 291.017 60.6726 290.783 60.5765C290.55 60.4805 290.338 60.3391 290.159 60.1606C289.981 59.982 289.839 59.7699 289.743 59.5363C289.647 59.3028 289.598 59.0525 289.6 58.8V11.27C289.598 11.017 289.647 10.7663 289.743 10.5322C289.839 10.2981 289.98 10.0852 290.158 9.90588C290.337 9.72653 290.549 9.5842 290.783 9.48709C291.016 9.38998 291.267 9.33999 291.52 9.34H297.23C297.687 9.34264 298.124 9.52607 298.446 9.85022C298.769 10.1744 298.95 10.6129 298.95 11.07V58.8Z" fill="white"/>
<path d="M66.43 40.65C63.3337 44.0299 59.5682 46.7288 55.3728 48.5751C51.1774 50.4215 46.6437 51.375 42.06 51.375C37.4763 51.375 32.9426 50.4215 28.7472 48.5751C24.5518 46.7288 20.7863 44.0299 17.69 40.65C17.3931 40.3225 17.2345 39.8928 17.2475 39.4509C17.2606 39.009 17.4443 38.5894 17.76 38.28L21.99 34.04C22.1563 33.8734 22.355 33.7426 22.5739 33.6559C22.7927 33.5692 23.0271 33.5283 23.2624 33.5358C23.4976 33.5433 23.7289 33.599 23.9418 33.6995C24.1547 33.8 24.3447 33.9431 24.5 34.12C26.698 36.595 29.3973 38.5741 32.4188 39.9261C35.4403 41.278 38.7147 41.9718 42.0248 41.9614C45.3349 41.951 48.605 41.2367 51.6179 39.8658C54.6308 38.4948 57.3176 36.4987 59.5 34.01C59.6538 33.8311 59.8429 33.686 60.0555 33.5838C60.2681 33.4816 60.4996 33.4244 60.7353 33.416C60.9711 33.4075 61.206 33.4479 61.4254 33.5347C61.6447 33.6214 61.8438 33.7526 62.01 33.92L66.33 38.24C66.6442 38.5523 66.8266 38.9732 66.8396 39.416C66.8526 39.8588 66.6953 40.2898 66.4 40.62M52.98 -0.0200195H4.35001C3.19631 -0.0200195 2.08987 0.438306 1.27409 1.25409C0.458303 2.06987 0 3.17629 0 4.32999V79.72C0 80.871 0.457248 81.9749 1.27116 82.7888C2.08506 83.6028 3.18896 84.06 4.34 84.06H52.98C57.0552 84.06 61.0904 83.2565 64.8548 81.6955C68.6191 80.1345 72.0387 77.8466 74.918 74.9626C77.7973 72.0787 80.0797 68.6554 81.6346 64.8885C83.1896 61.1217 83.9866 57.0852 83.98 53.01V31.01C83.98 22.7883 80.7139 14.9033 74.9003 9.08969C69.0867 3.27606 61.2017 0.00997925 52.98 0.00997925" fill="white"/>
<path d="M126.12 51.38H111.44C110.379 51.38 109.362 50.9586 108.611 50.2084C107.861 49.4583 107.44 48.4409 107.44 47.38V36.7C107.44 35.6391 107.861 34.6217 108.611 33.8716C109.362 33.1214 110.379 32.7 111.44 32.7H126.13L126.12 51.38ZM133.74 9.38H127.84C127.613 9.38 127.389 9.42481 127.179 9.51187C126.97 9.59893 126.78 9.72652 126.62 9.8873C126.46 10.0481 126.334 10.2389 126.248 10.4487C126.162 10.6585 126.119 10.8833 126.12 11.11V23.35H110.97C110.117 23.3515 109.267 23.4352 108.43 23.6C105.483 24.3149 102.862 25.9988 100.987 28.3816C99.1121 30.7644 98.0918 33.7079 98.0898 36.74V47.2C98.0898 50.7857 99.5143 54.2246 102.05 56.7601C104.585 59.2956 108.024 60.72 111.61 60.72H120.69C121.05 60.7186 121.4 60.6031 121.69 60.39L121.89 60.22L126.1 56V59C126.102 59.4571 126.286 59.8945 126.61 60.2168C126.934 60.5391 127.373 60.72 127.83 60.72H133.58C133.983 60.719 134.376 60.5923 134.704 60.3575C135.032 60.1227 135.279 59.7915 135.41 59.41C135.42 59.3136 135.42 59.2164 135.41 59.12V11.07C135.411 10.8433 135.368 10.6186 135.282 10.4087C135.196 10.1989 135.069 10.0081 134.91 9.84729C134.75 9.68651 134.56 9.55893 134.35 9.47186C134.141 9.3848 133.917 9.33999 133.69 9.34" fill="white"/>
<path d="M275.591 51.44H260.861C259.8 51.44 258.782 51.0186 258.032 50.2684C257.282 49.5183 256.861 48.5009 256.861 47.44V36.65C256.861 35.5891 257.282 34.5717 258.032 33.8216C258.782 33.0714 259.8 32.65 260.861 32.65H275.591V51.44ZM283.211 23.35H260.441C259.588 23.3515 258.737 23.4352 257.901 23.6C254.954 24.3149 252.333 25.9988 250.458 28.3816C248.583 30.7644 247.562 33.7079 247.561 36.74V47.2C247.561 50.7857 248.985 54.2246 251.52 56.7601C254.056 59.2956 257.495 60.72 261.081 60.72H270.211C270.435 60.7219 270.658 60.6786 270.866 60.5927C271.074 60.5068 271.263 60.3801 271.421 60.22L275.691 56.01V58.78C275.691 59.2945 275.895 59.788 276.259 60.1518C276.623 60.5156 277.116 60.72 277.631 60.72H283.071C283.474 60.719 283.867 60.5923 284.195 60.3575C284.523 60.1227 284.77 59.7915 284.901 59.41C284.916 59.3173 284.916 59.2227 284.901 59.13V25.08C284.901 24.6229 284.72 24.1844 284.397 23.8602C284.075 23.5361 283.638 23.3526 283.181 23.35" fill="white"/>
<path d="M331.65 51.44H316.92C315.859 51.44 314.842 51.0186 314.092 50.2684C313.342 49.5183 312.92 48.5009 312.92 47.44V36.65C312.92 35.5891 313.342 34.5717 314.092 33.8216C314.842 33.0714 315.859 32.65 316.92 32.65H331.66L331.65 51.44ZM339.3 23.35H316.49C314.755 23.3472 313.037 23.6955 311.44 24.3741C309.843 25.0526 308.4 26.0474 307.198 27.2984C305.995 28.5494 305.058 30.0308 304.444 31.6534C303.829 33.276 303.549 35.0063 303.62 36.74V47.2C303.62 50.7857 305.045 54.2246 307.58 56.7601C310.116 59.2955 313.555 60.72 317.14 60.72H326.3C326.754 60.7193 327.189 60.5396 327.51 60.22L331.77 56.01V58.78C331.785 59.2914 331.996 59.7775 332.359 60.1384C332.722 60.4993 333.209 60.7074 333.72 60.72H339.16C339.564 60.719 339.957 60.5923 340.285 60.3575C340.613 60.1227 340.859 59.7915 340.99 59.41C341.001 59.3169 341.001 59.223 340.99 59.13V25.08C340.99 24.628 340.814 24.1939 340.498 23.8706C340.182 23.5473 339.752 23.3604 339.3 23.35Z" fill="white"/>
<path d="M182.17 51.38H167.48C166.419 51.38 165.401 50.9586 164.651 50.2084C163.901 49.4583 163.48 48.4409 163.48 47.38V36.7C163.48 35.6391 163.901 34.6217 164.651 33.8716C165.401 33.1214 166.419 32.7 167.48 32.7H182.16L182.17 51.38ZM191.48 24.65C191.349 24.2685 191.102 23.9373 190.774 23.7025C190.446 23.4677 190.053 23.341 189.65 23.34H183.9C183.672 23.3387 183.447 23.3825 183.236 23.469C183.026 23.5555 182.834 23.6828 182.673 23.8437C182.513 24.0047 182.385 24.1959 182.299 24.4064C182.212 24.6169 182.168 24.8424 182.17 25.07V27.99L178.07 23.88C177.731 23.5802 177.301 23.404 176.85 23.38H167.69C165.915 23.38 164.157 23.7298 162.517 24.4093C160.878 25.0889 159.388 26.0849 158.133 27.3405C156.878 28.5961 155.884 30.0866 155.205 31.7269C154.527 33.3671 154.178 35.125 154.18 36.9V47.36C154.179 50.3912 155.198 53.3346 157.071 55.7175C158.944 58.1005 161.564 59.7848 164.51 60.5C165.346 60.6648 166.197 60.7485 167.05 60.75H182.2V60.98C182.212 61.5673 182.106 62.1511 181.887 62.6964C181.668 63.2417 181.342 63.7373 180.928 64.1537C180.513 64.57 180.019 64.8985 179.475 65.1195C178.93 65.3405 178.347 65.4495 177.76 65.44H166.26C165.716 65.4251 165.18 65.5737 164.722 65.8664C164.263 66.1592 163.903 66.5827 163.687 67.0823C163.472 67.5819 163.412 68.1346 163.514 68.669C163.616 69.2033 163.875 69.6948 164.26 70.08L167.95 73.84C168.209 74.1066 168.52 74.317 168.864 74.458C169.208 74.5991 169.578 74.6679 169.95 74.66H177.79C179.389 74.6621 180.976 74.3846 182.48 73.84C185.158 72.85 187.465 71.0578 189.086 68.7079C190.708 66.358 191.564 63.5649 191.54 60.71V24.98C191.55 24.8836 191.55 24.7864 191.54 24.69" fill="white"/>
<path d="M149.481 25.08V59C149.478 59.4571 149.295 59.8945 148.971 60.2168C148.646 60.5391 148.208 60.72 147.751 60.72H141.861C141.634 60.7213 141.409 60.6778 141.2 60.5919C140.99 60.5061 140.799 60.3796 140.638 60.2198C140.477 60.0599 140.35 59.8699 140.263 59.6605C140.176 59.4512 140.131 59.2267 140.131 59V25.08C140.131 24.8528 140.176 24.6278 140.263 24.4179C140.349 24.208 140.477 24.0173 140.638 23.8567C140.798 23.696 140.989 23.5686 141.199 23.4817C141.409 23.3947 141.634 23.35 141.861 23.35H147.751C148.209 23.3526 148.647 23.5357 148.971 23.8596C149.295 24.1835 149.478 24.622 149.481 25.08Z" fill="white"/>
<path d="M149.481 11.07V16.96C149.478 17.4171 149.295 17.8545 148.971 18.1768C148.647 18.4991 148.208 18.68 147.751 18.68H141.861C141.634 18.6813 141.409 18.6378 141.2 18.5519C140.99 18.4661 140.799 18.3396 140.638 18.1798C140.477 18.0199 140.35 17.8298 140.263 17.6205C140.176 17.4112 140.131 17.1867 140.131 16.96V11.07C140.13 10.8424 140.173 10.6169 140.26 10.4064C140.346 10.1959 140.474 10.0047 140.635 9.84375C140.796 9.68284 140.987 9.55546 141.197 9.46899C141.408 9.38252 141.633 9.33867 141.861 9.34H147.751C148.21 9.34 148.65 9.52227 148.974 9.84671C149.299 10.1711 149.481 10.6112 149.481 11.07Z" fill="white"/>
<path d="M205.53 25.08V59C205.527 59.4571 205.344 59.8945 205.019 60.2168C204.695 60.5391 204.257 60.72 203.8 60.72H197.91C197.453 60.72 197.014 60.5391 196.69 60.2168C196.366 59.8945 196.182 59.4571 196.18 59V25.08C196.182 24.622 196.365 24.1835 196.689 23.8596C197.013 23.5357 197.452 23.3526 197.91 23.35H203.8C204.258 23.3526 204.696 23.5357 205.02 23.8596C205.344 24.1835 205.527 24.622 205.53 25.08Z" fill="white"/>
<path d="M205.53 11.07V16.96C205.519 17.4118 205.332 17.8417 205.009 18.1575C204.686 18.4733 204.252 18.6501 203.8 18.65H197.91C197.453 18.65 197.014 18.4691 196.69 18.1468C196.366 17.8245 196.182 17.3871 196.18 16.93V11.04C196.18 10.5812 196.362 10.1411 196.686 9.81671C197.011 9.49227 197.451 9.31 197.91 9.31H203.8C204.259 9.31 204.699 9.49227 205.023 9.81671C205.347 10.1411 205.53 10.5812 205.53 11.04" fill="white"/>
<path d="M219.551 41.07C221.431 39.07 232.951 27.68 236.351 24.02C236.54 23.82 236.768 23.6603 237.021 23.5503C237.273 23.4404 237.545 23.3824 237.821 23.38H245.561C245.943 23.3862 246.315 23.5015 246.633 23.7124C246.951 23.9232 247.203 24.2209 247.357 24.57C247.512 24.9192 247.563 25.3053 247.505 25.6827C247.448 26.0602 247.283 26.4132 247.031 26.7C242.271 31.46 231.531 42.05 231.531 42.05L247.041 57.71C247.286 57.9573 247.453 58.2719 247.519 58.614C247.586 58.9561 247.549 59.3103 247.414 59.6316C247.28 59.9529 247.052 60.2269 246.761 60.4189C246.471 60.6108 246.129 60.7122 245.781 60.71H237.691C237.417 60.7104 237.147 60.6547 236.895 60.5463C236.644 60.438 236.418 60.2792 236.231 60.08C232.801 56.4 221.361 45.08 219.551 43.16V41.07Z" fill="white"/>
</g>
<defs>
<clipPath id="clip0_3654_8588">
<rect width="340.99" height="84.08" fill="white"/>
</clipPath>
</defs>
</svg>
