<svg width="43" height="41" viewBox="0 0 43 41" fill="none" xmlns="http://www.w3.org/2000/svg">
<g id="Frame 4">
<path id="Vector" d="M14.9484 32.5H9.70669V16.4764H14.9484V32.5ZM12.3247 14.2907C10.6486 14.2907 9.28906 12.9728 9.28906 11.3817C9.28906 10.6174 9.60889 9.88444 10.1782 9.34402C10.7475 8.8036 11.5196 8.5 12.3247 8.5C13.1298 8.5 13.902 8.8036 14.4713 9.34402C15.0406 9.88444 15.3604 10.6174 15.3604 11.3817C15.3604 12.9728 14.0003 14.2907 12.3247 14.2907ZM34.5666 32.5H29.3361V24.6998C29.3361 22.8409 29.2966 20.4569 26.6108 20.4569C23.8856 20.4569 23.4679 22.4766 23.4679 24.5659V32.5H18.2318V16.4764H23.2591V18.6622H23.3325C24.0323 17.4032 25.7417 16.0746 28.292 16.0746C33.597 16.0746 34.5722 19.3908 34.5722 23.698V32.5H34.5666Z" fill="#252D31"/>
</g>
</svg>
