<svg width="43" height="41" viewBox="0 0 43 41" fill="none" xmlns="http://www.w3.org/2000/svg">
<g id="Frame 2">
<path id="Vector" d="M21.7993 14.3467C18.2113 14.3467 15.3171 17.094 15.3171 20.5C15.3171 23.906 18.2113 26.6533 21.7993 26.6533C25.3873 26.6533 28.2814 23.906 28.2814 20.5C28.2814 17.094 25.3873 14.3467 21.7993 14.3467ZM21.7993 24.5004C19.4806 24.5004 17.585 22.7064 17.585 20.5C17.585 18.2936 19.475 16.4996 21.7993 16.4996C24.1236 16.4996 26.0135 18.2936 26.0135 20.5C26.0135 22.7064 24.1179 24.5004 21.7993 24.5004ZM30.0585 14.095C30.0585 14.8929 29.3815 15.5302 28.5466 15.5302C27.706 15.5302 27.0346 14.8876 27.0346 14.095C27.0346 13.3024 27.7116 12.6598 28.5466 12.6598C29.3815 12.6598 30.0585 13.3024 30.0585 14.095ZM34.3517 15.5517C34.2558 13.6291 33.7932 11.9261 32.3095 10.523C30.8314 9.11988 29.0374 8.68074 27.0121 8.58435C24.9247 8.47188 18.6682 8.47188 16.5808 8.58435C14.5612 8.67539 12.7672 9.11453 11.2834 10.5176C9.79971 11.9207 9.34275 13.6237 9.2412 15.5463C9.12273 17.5278 9.12273 23.4669 9.2412 25.4483C9.3371 27.3709 9.79971 29.0739 11.2834 30.477C12.7672 31.8801 14.5555 32.3193 16.5808 32.4157C18.6682 32.5281 24.9247 32.5281 27.0121 32.4157C29.0374 32.3246 30.8314 31.8855 32.3095 30.477C33.7876 29.0739 34.2502 27.3709 34.3517 25.4483C34.4702 23.4669 34.4702 17.5331 34.3517 15.5517ZM31.655 27.5744C31.215 28.6241 30.3631 29.4327 29.2518 29.8558C27.5875 30.4824 23.6384 30.3378 21.7993 30.3378C19.9601 30.3378 16.0054 30.477 14.3468 29.8558C13.2411 29.4381 12.3892 28.6294 11.9435 27.5744C11.2834 25.9946 11.4358 22.2458 11.4358 20.5C11.4358 18.7542 11.2891 15.0001 11.9435 13.4256C12.3835 12.3759 13.2354 11.5673 14.3468 11.1442C16.011 10.5176 19.9601 10.6622 21.7993 10.6622C23.6384 10.6622 27.5931 10.523 29.2518 11.1442C30.3575 11.5619 31.2094 12.3706 31.655 13.4256C32.3151 15.0054 32.1628 18.7542 32.1628 20.5C32.1628 22.2458 32.3151 25.9999 31.655 27.5744Z" fill="#252D31"/>
</g>
</svg>
