<svg width="120" height="27" viewBox="0 0 120 27" fill="none" xmlns="http://www.w3.org/2000/svg">
<path d="M55.498 19.7854H49.8967C48.3455 19.7854 46.8579 19.1933 45.7611 18.1393C44.6643 17.0854 44.0481 15.6559 44.0481 14.1653V13.33C44.0481 11.8394 44.6643 10.4099 45.7611 9.35596C46.8579 8.30199 48.3455 7.70988 49.8967 7.70988H52.6947V4.50131H55.498V19.7854ZM49.8967 10.4101C49.091 10.4111 48.3186 10.719 47.7488 11.2663C47.1789 11.8137 46.8582 12.5558 46.8567 13.33V14.1704C46.8578 14.9447 47.1785 15.687 47.7484 16.2344C48.3183 16.7818 49.0909 17.0897 49.8967 17.0903H52.6947V10.4101H49.8967Z" fill="#63B245"/>
<path d="M99.8303 25.5C99.3573 25.4998 98.8861 25.4449 98.4267 25.3365L96.6176 24.9124L97.2822 22.2953L99.0953 22.7193C99.5472 22.8252 100.018 22.831 100.473 22.7363C100.927 22.6416 101.354 22.4489 101.72 22.1727C102.085 21.8965 102.381 21.5441 102.584 21.142C102.787 20.74 102.893 20.2988 102.893 19.8518V19.8096H100.102C98.5504 19.8096 97.0628 19.2175 95.9659 18.1636C94.8691 17.1096 94.2529 15.6801 94.2529 14.1895V13.3478C94.2547 11.8584 94.8717 10.4305 95.9683 9.37793C97.0649 8.32534 98.5515 7.7341 100.102 7.7341H105.704V19.8454C105.703 21.3408 105.086 22.7749 103.987 23.8336C102.888 24.8923 101.397 25.4892 99.841 25.4936L99.8303 25.5ZM100.096 10.4343C99.2906 10.4353 98.5184 10.7433 97.9487 11.2906C97.3791 11.838 97.0586 12.5801 97.0576 13.3542V14.1959C97.0586 14.97 97.3791 15.7121 97.9487 16.2595C98.5184 16.8069 99.2906 17.1148 100.096 17.1158H102.888V10.4343H100.096Z" fill="#455A64"/>
<path d="M82.6701 19.7484H76.9545C75.4176 19.7467 73.9442 19.1593 72.8575 18.115C71.7708 17.0707 71.1595 15.6549 71.1577 14.1781V13.2686C71.1595 11.7918 71.7708 10.376 72.8575 9.33173C73.9442 8.28746 75.4176 7.70005 76.9545 7.69836H82.6701V15.0709H74.1059C74.3026 15.6473 74.6836 16.1494 75.1946 16.5055C75.7056 16.8617 76.3205 17.0538 76.9518 17.0545H82.6675L82.6701 19.7484ZM74.1059 12.3758H79.8694V10.3922H76.9518C76.3205 10.3929 75.7056 10.585 75.1946 10.9412C74.6836 11.2974 74.3026 11.7994 74.1059 12.3758Z" fill="#455A64"/>
<path d="M120 19.7484H114.284C112.748 19.7463 111.274 19.1588 110.188 18.1146C109.101 17.0704 108.49 15.6548 108.488 14.1781V13.2686C108.489 11.7918 109.101 10.376 110.187 9.33173C111.274 8.28746 112.747 7.70005 114.284 7.69836H120V15.0709H111.436C111.632 15.6471 112.013 16.149 112.524 16.5052C113.035 16.8613 113.649 17.0536 114.28 17.0545H119.996L120 19.7484ZM111.436 12.3758H117.197V10.3922H114.28C113.649 10.3932 113.035 10.5854 112.524 10.9416C112.013 11.2977 111.632 11.7996 111.436 12.3758Z" fill="#455A64"/>
<path d="M92.6579 7.76477C91.0983 7.76368 89.582 8.2576 88.3446 9.16979V7.69452H85.5413V14.5498C85.5413 14.5689 85.5413 14.5868 85.5413 14.6047V17.7328V19.7496H88.3446V14.5498C88.3617 13.4609 88.8235 12.4221 89.6304 11.6575C90.4373 10.8928 91.5247 10.4636 92.6579 10.4624H93.1032V7.76477H92.6579Z" fill="#455A64"/>
<path d="M65.7795 19.7496L72.0282 4.5H69.0109L64.9368 14.4207L60.9212 4.5H57.8374L64.1605 19.7496H65.7795Z" fill="#455A64"/>
<path d="M40.1721 19.7293H43.1908L36.9501 4.50391H35.3125L29 19.7293H32.0838L32.8813 17.7469H39.3533L40.1721 19.7293ZM33.9766 15.0518L36.1034 9.8149L38.2554 15.0518H33.9766Z" fill="#63B245"/>
<path d="M4.25287 15.659H0V7.67699C0.00321792 5.77631 0.759344 3.9544 2.10272 2.61042C3.4461 1.26643 5.26719 0.509964 7.167 0.506744H15.3658V4.76425H7.167C6.39399 4.76497 5.65284 5.0725 5.10624 5.61935C4.55963 6.1662 4.25224 6.90769 4.25152 7.68105L4.25287 15.659Z" fill="#455A64"/>
<path d="M16.8289 24.492H8.63013V20.2345H16.8289C17.6018 20.233 18.3426 19.925 18.8889 19.378C19.4352 18.831 19.7423 18.0896 19.743 17.3163V9.33432H24V17.3163C23.9978 19.2185 23.2417 21.0422 21.8973 22.3874C20.553 23.7326 18.7303 24.4895 16.8289 24.492Z" fill="#455A64"/>
<path d="M4.47742 20.0464H0.0244141V24.5001H4.47742V20.0464Z" fill="#63B245"/>
<path d="M14.5463 9.94171H10.0933V14.3954H14.5463V9.94171Z" fill="#63B245"/>
<path d="M23.973 0.5H19.52V4.95367H23.973V0.5Z" fill="#63B245"/>
</svg>
