<svg width="120" height="26" viewBox="0 0 120 26" fill="none" xmlns="http://www.w3.org/2000/svg">
<path d="M55.498 19.2856H49.8967C48.3455 19.2856 46.8579 18.6935 45.7611 17.6395C44.6643 16.5855 44.0481 15.156 44.0481 13.6655V12.8301C44.0481 11.3396 44.6643 9.91009 45.7611 8.85612C46.8579 7.80214 48.3455 7.21003 49.8967 7.21003H52.6947V4.00146H55.498V19.2856ZM49.8967 9.91023C49.091 9.91124 48.3186 10.2192 47.7488 10.7665C47.1789 11.3138 46.8582 12.0559 46.8567 12.8301V13.6706C46.8578 14.4449 47.1785 15.1872 47.7484 15.7346C48.3183 16.282 49.0909 16.5898 49.8967 16.5905H52.6947V9.91023H49.8967Z" fill="#63B245"/>
<path d="M99.8303 24.9998C99.3573 24.9996 98.8861 24.9447 98.4267 24.8363L96.6176 24.4122L97.2822 21.795L99.0953 22.2191C99.5472 22.325 100.018 22.3307 100.473 22.2361C100.927 22.1414 101.354 21.9486 101.72 21.6725C102.085 21.3963 102.381 21.0439 102.584 20.6418C102.787 20.2398 102.893 19.7986 102.893 19.3516V19.3094H100.102C98.5504 19.3094 97.0628 18.7173 95.9659 17.6633C94.8691 16.6094 94.2529 15.1799 94.2529 13.6893V12.8476C94.2547 11.3582 94.8717 9.93031 95.9683 8.87772C97.0649 7.82513 98.5515 7.23389 100.102 7.23389H105.704V19.3452C105.703 20.8406 105.086 22.2747 103.987 23.3334C102.888 24.3921 101.397 24.989 99.841 24.9934L99.8303 24.9998ZM100.096 9.93409C99.2906 9.9351 98.5184 10.2431 97.9487 10.7904C97.3791 11.3378 97.0586 12.0799 97.0576 12.854V13.6957C97.0586 14.4698 97.3791 15.2119 97.9487 15.7593C98.5184 16.3066 99.2906 16.6146 100.096 16.6156H102.888V9.93409H100.096Z" fill="#D3E3FC"/>
<path d="M82.6701 19.2482H76.9545C75.4176 19.2465 73.9442 18.6591 72.8575 17.6149C71.7708 16.5706 71.1595 15.1548 71.1577 13.678V12.7685C71.1595 11.2917 71.7708 9.87587 72.8575 8.83161C73.9442 7.78734 75.4176 7.19993 76.9545 7.19824H82.6701V14.5708H74.1059C74.3026 15.1472 74.6836 15.6492 75.1946 16.0054C75.7056 16.3616 76.3205 16.5537 76.9518 16.5544H82.6675L82.6701 19.2482ZM74.1059 11.8757H79.8694V9.89206H76.9518C76.3205 9.89277 75.7056 10.0849 75.1946 10.4411C74.6836 10.7972 74.3026 11.2993 74.1059 11.8757Z" fill="#D3E3FC"/>
<path d="M120 19.2482H114.284C112.748 19.2462 111.274 18.6587 110.188 17.6145C109.101 16.5703 108.49 15.1547 108.488 13.678V12.7685C108.489 11.2917 109.101 9.87587 110.187 8.83161C111.274 7.78734 112.747 7.19993 114.284 7.19824H120V14.5708H111.436C111.632 15.147 112.013 15.6489 112.524 16.005C113.035 16.3612 113.649 16.5534 114.28 16.5544H119.996L120 19.2482ZM111.436 11.8757H117.197V9.89206H114.28C113.649 9.89304 113.035 10.0853 112.524 10.4415C112.013 10.7976 111.632 11.2995 111.436 11.8757Z" fill="#D3E3FC"/>
<path d="M92.6579 7.26459C91.0983 7.2635 89.582 7.75742 88.3446 8.66961V7.19434H85.5413V14.0496C85.5413 14.0687 85.5413 14.0866 85.5413 14.1045V17.2326V19.2494H88.3446V14.0496C88.3617 12.9607 88.8235 11.9219 89.6304 11.1573C90.4373 10.3927 91.5247 9.96345 92.6579 9.96223H93.1032V7.26459H92.6579Z" fill="#D3E3FC"/>
<path d="M65.7795 19.2496L72.0282 4H69.0109L64.9368 13.9207L60.9212 4H57.8374L64.1605 19.2496H65.7795Z" fill="#D3E3FC"/>
<path d="M40.1721 19.2293H43.1908L36.9501 4.00391H35.3125L29 19.2293H32.0838L32.8813 17.2469H39.3533L40.1721 19.2293ZM33.9766 14.5518L36.1034 9.3149L38.2554 14.5518H33.9766Z" fill="#63B245"/>
<path d="M4.25287 15.1591H0V7.17709C0.00321792 5.27641 0.759344 3.45449 2.10272 2.11051C3.4461 0.766523 5.26719 0.0100553 7.167 0.00683594H15.3658V4.26434H7.167C6.39399 4.26506 5.65284 4.57259 5.10624 5.11944C4.55963 5.66629 4.25224 6.40778 4.25152 7.18114L4.25287 15.1591Z" fill="#D3E3FC"/>
<path d="M16.8289 23.9921H8.63013V19.7346H16.8289C17.6018 19.7332 18.3426 19.4252 18.8889 18.8781C19.4352 18.3311 19.7423 17.5897 19.743 16.8164V8.83447H24V16.8164C23.9978 18.7187 23.2417 20.5424 21.8973 21.8876C20.553 23.2327 18.7303 23.9896 16.8289 23.9921Z" fill="#D3E3FC"/>
<path d="M4.47742 19.5464H0.0244141V24.0001H4.47742V19.5464Z" fill="#63B245"/>
<path d="M14.5463 9.44189H10.0933V13.8956H14.5463V9.44189Z" fill="#63B245"/>
<path d="M23.973 0H19.52V4.45367H23.973V0Z" fill="#63B245"/>
</svg>
