<svg width="106" height="42" viewBox="0 0 106 42" fill="none" xmlns="http://www.w3.org/2000/svg">
<g clip-path="url(#clip0_2930_32244)">
<mask id="mask0_2930_32244" style="mask-type:luminance" maskUnits="userSpaceOnUse" x="0" y="1" width="106" height="40">
<path d="M106 1H0.328125V41H106V1Z" fill="white"/>
</mask>
<g mask="url(#mask0_2930_32244)">
<path d="M73.8145 6.05762C73.8145 3.26437 76.112 1 78.9462 1H100.263C103.097 1 105.395 3.26437 105.395 6.05762V25.4381C105.395 26.7795 104.854 28.0659 103.892 29.0144L93.2332 39.5187C91.2291 41.4938 87.9799 41.4938 85.9758 39.5187L75.3175 29.0144C74.3551 28.0659 73.8145 26.7795 73.8145 25.4381V6.05762Z" fill="white"/>
<path d="M81.1399 14.7679C80.7841 14.4181 80.7841 13.8511 81.1399 13.5014L82.4282 12.2349C82.7839 11.8852 83.3607 11.8852 83.7165 12.2349L85.0048 13.5014C85.3605 13.8511 85.3605 14.4181 85.0048 14.7679L83.7165 16.0343C83.3607 16.3841 82.7839 16.3841 82.4282 16.0343L81.1399 14.7679Z" fill="#454545"/>
<path d="M94.4993 14.7679C94.1435 14.4181 94.1435 13.8511 94.4993 13.5014L95.7876 12.2349C96.1433 11.8852 96.7201 11.8852 97.0759 12.2349L98.3642 13.5014C98.7199 13.8511 98.7199 14.4181 98.3642 14.7679L97.0759 16.0343C96.7201 16.3841 96.1433 16.3841 95.7876 16.0343L94.4993 14.7679Z" fill="#454545"/>
<path d="M80.3013 20.587L82.2822 18.6831C82.5013 18.4726 82.8444 18.4624 83.0846 18.6486C89.8205 23.8696 98.3693 21.8755 98.3693 21.8755C91.0593 27.3725 83.2011 24.1712 80.285 21.3949C80.0527 21.1737 80.0701 20.8093 80.3013 20.587Z" fill="#454545"/>
<path d="M98.9112 20.59L96.937 18.6925C96.7132 18.4774 96.3588 18.4671 96.1128 18.6574C89.3787 23.867 80.8398 21.8752 80.8398 21.8752C88.1528 27.3745 96.0146 24.1683 98.9278 21.3911C99.1591 21.1706 99.1416 20.8115 98.9112 20.59Z" fill="#454545"/>
<path d="M66.5273 8.84585C66.2243 8.80329 65.9212 8.76074 65.6181 8.76074C64.9687 8.76074 64.4925 8.88842 64.1894 9.10122C63.8863 9.35659 63.7132 9.73963 63.7132 10.2929V18.8051C63.7132 19.8691 63.4101 20.6352 62.804 21.1459C62.1978 21.6567 61.3753 21.9121 60.3362 21.9121C59.5569 21.9121 58.8641 21.8269 58.258 21.6141C57.6519 21.4013 57.1324 21.1885 56.6994 20.9757V9.05866C56.676 9.05098 56.6497 9.04192 56.6209 9.03197C56.49 8.98677 56.3062 8.9233 56.0933 8.88842H56.05C55.7902 8.84586 55.4872 8.80329 55.1408 8.80329C54.4914 8.80329 54.0151 8.93098 53.7121 9.14379C53.409 9.39915 53.2358 9.7822 53.2358 10.3355V18.8477C53.2358 19.9117 52.9328 20.6778 52.3266 21.1885C51.7205 21.6992 50.8979 21.9546 49.8588 21.9546C49.0795 21.9546 48.3868 21.8695 47.7807 21.6567C47.1745 21.4439 46.655 21.2311 46.2221 21.0183V13.2296H46.1788V13.187C46.0056 13.1019 45.7891 13.0594 45.5293 13.0168C45.2263 12.9742 44.9232 12.9317 44.6201 12.9317C43.9707 12.9317 43.4945 13.0594 43.1914 13.2722C42.8884 13.5275 42.7152 13.9106 42.7152 14.4639V18.8051C42.7152 19.8691 42.4121 20.6352 41.806 21.1459C41.1999 21.6567 39.3382 21.6141 39.3382 21.6141L29.8133 21.5716C29.1639 21.5716 28.6876 21.4439 28.3846 21.1459C28.0815 20.848 27.8218 20.4224 27.6053 19.784L23.4923 8.84585C23.3191 8.84585 23.1026 8.84586 22.7996 8.88842C22.4965 8.93098 22.1934 9.0161 21.8904 9.14379C21.2842 9.35659 20.8946 9.65452 20.6781 9.95244C20.4616 10.2929 20.4616 10.7185 20.6781 11.2292L23.5789 18.8051V18.8477C24.0118 19.9968 23.1026 21.1885 21.8471 21.1885H15.4394C15.3528 21.3588 15.3096 21.5716 15.2663 21.8269C15.223 22.0823 15.1797 22.3802 15.1797 22.7207C15.1797 23.3591 15.3096 23.8273 15.526 24.1252C15.7858 24.4231 16.1754 24.5934 16.7383 24.5934H23.1892C25.0509 24.5934 26.09 23.4868 26.4796 22.8484C26.9559 23.5719 27.4321 24.0401 27.9516 24.338C28.4279 24.5934 29.1639 24.6785 29.77 24.6785C29.77 24.6785 39.7711 24.636 39.9443 24.636C41.7194 24.5508 43.1048 24.1252 44.1872 23.3166C44.7933 23.657 45.5293 23.955 46.4385 24.2103C47.4343 24.5083 48.56 24.6785 49.8155 24.6785C51.8937 24.6785 53.5389 24.2103 54.7511 23.3591C55.314 23.6571 56.05 23.955 56.9159 24.2529C57.9117 24.5508 59.0373 24.7211 60.2929 24.7211C62.4143 24.7211 64.1028 24.2529 65.3151 23.3166C66.5273 22.3802 67.1335 20.9331 67.1335 19.0179V9.10122C67.0469 8.97354 66.8304 8.88842 66.5273 8.84585Z" fill="white"/>
<path fill-rule="evenodd" clip-rule="evenodd" d="M15.3967 16.5928C15.3967 15.4011 15.2235 14.3371 14.8338 13.4008C14.4875 12.4644 13.9679 11.6557 13.3185 10.9748C12.6691 10.2938 11.8465 9.78303 10.9373 9.39998C9.98483 9.01693 8.98904 8.84668 7.86338 8.84668C6.73771 8.84668 5.69863 9.01693 4.78944 9.39998C3.83695 9.78303 3.05765 10.2937 2.40822 10.9322C1.7588 11.6132 1.23926 12.4218 0.892906 13.3582C0.546547 14.3371 0.330078 15.4011 0.330078 16.5928C0.330078 17.7845 0.503252 18.8486 0.892906 19.8275C1.23926 20.8064 1.7588 21.615 2.40822 22.2534C3.05765 22.9344 3.83695 23.4452 4.78944 23.7856C5.69863 24.1261 6.69442 24.2964 7.77679 24.3389L6.26148 26.0839C5.95841 26.5095 5.82852 26.8926 5.91511 27.2331C6.0017 27.5736 6.30476 27.9141 6.73771 28.2971C6.81351 28.3468 6.88563 28.3965 6.95621 28.4451C7.1275 28.5631 7.28976 28.6749 7.47372 28.7653C7.73349 28.893 7.90667 28.9781 8.07985 29.0206L14.0112 21.5725C14.3576 21.0617 14.704 20.5084 14.9204 19.87C15.2235 18.8486 15.3967 17.742 15.3967 16.5928ZM10.894 20.3382C10.158 21.232 9.16222 21.6576 7.82008 21.6576C6.52123 21.6576 5.48217 21.232 4.74616 20.3382C4.01014 19.4444 3.66379 18.2101 3.66379 16.5503C3.66379 14.9329 4.05343 13.6561 4.78944 12.7623C5.52545 11.8686 6.52123 11.4004 7.82008 11.4004C9.11892 11.4004 10.1147 11.8686 10.8507 12.7623C11.5867 13.6561 11.9331 14.9329 11.9331 16.5503C11.9764 18.2101 11.63 19.4444 10.894 20.3382Z" fill="white"/>
<path d="M44.058 11.9533L43.0189 10.9318C42.889 10.8041 42.8457 10.6339 42.8457 10.4636C42.8457 10.2934 42.889 10.1232 43.0189 9.99548L44.058 8.97402C44.1878 8.84633 44.361 8.80376 44.5342 8.80376C44.7074 8.80376 44.8806 8.84633 45.0104 8.97402L46.0495 9.99548C46.1794 10.1232 46.2227 10.2934 46.2227 10.4636C46.2227 10.6339 46.1794 10.8041 46.0495 10.9318L45.0104 11.9533C44.8806 12.081 44.7074 12.1235 44.5342 12.1235C44.361 12.1235 44.1878 12.081 44.058 11.9533Z" fill="white"/>
<path d="M54.9252 25.6154C54.7953 25.4877 54.6221 25.4451 54.449 25.4451C54.2758 25.4451 54.1026 25.4877 53.9727 25.6154L52.9336 26.6368C52.912 26.6581 52.9012 26.6794 52.8903 26.7007C52.8795 26.7219 52.8687 26.7432 52.847 26.7645C52.8254 26.7432 52.8146 26.7219 52.8037 26.7007C52.7929 26.6794 52.7821 26.6581 52.7605 26.6368L51.7214 25.6154C51.5915 25.4877 51.4183 25.4451 51.2451 25.4451C51.072 25.4451 50.8988 25.4877 50.7689 25.6154L49.7298 26.6368C49.5999 26.7645 49.5566 26.9347 49.5566 27.105C49.5566 27.2752 49.5999 27.4455 49.7298 27.5732L50.7689 28.5946C50.8988 28.7223 51.072 28.7649 51.2451 28.7649C51.4183 28.7649 51.5915 28.7223 51.7214 28.5946L52.7605 27.5732C52.7821 27.5519 52.7929 27.5306 52.8037 27.5093C52.8146 27.488 52.8254 27.4668 52.847 27.4455C52.8687 27.4668 52.8795 27.488 52.8903 27.5093C52.9012 27.5306 52.912 27.5519 52.9336 27.5732L53.9727 28.5946C54.1026 28.7223 54.2758 28.7649 54.449 28.7649C54.6221 28.7649 54.7953 28.7223 54.9252 28.5946L55.9643 27.5732C56.0942 27.4455 56.1374 27.2752 56.1374 27.105C56.1374 26.9347 56.0942 26.7645 55.9643 26.6368L54.9252 25.6154Z" fill="white"/>
<path d="M65.922 25.6154L66.9611 26.6368C67.091 26.7645 67.1343 26.9347 67.1343 27.105C67.1343 27.2752 67.091 27.4455 66.9611 27.5732L65.922 28.5946C65.7921 28.7223 65.6189 28.7649 65.4458 28.7649C65.2726 28.7649 65.0994 28.7223 64.9695 28.5946L63.9304 27.5732C63.9088 27.5519 63.898 27.5306 63.8872 27.5093C63.8763 27.488 63.8655 27.4668 63.8439 27.4455C63.8222 27.4668 63.8114 27.488 63.8006 27.5093C63.7897 27.5306 63.7789 27.5519 63.7573 27.5732L62.7182 28.5946C62.5883 28.7223 62.4151 28.7649 62.242 28.7649C62.0688 28.7649 61.8956 28.7223 61.7657 28.5946L60.7266 27.5732C60.705 27.5519 60.6942 27.5306 60.6833 27.5093C60.6725 27.488 60.6617 27.4668 60.64 27.4455C60.6184 27.4668 60.6076 27.488 60.5967 27.5093C60.5859 27.5306 60.5751 27.5519 60.5535 27.5732L59.5144 28.5946C59.3845 28.7223 59.2113 28.7649 59.0381 28.7649C58.865 28.7649 58.6918 28.7223 58.5619 28.5946L57.5228 27.5732C57.3929 27.4455 57.3496 27.2752 57.3496 27.105C57.3496 26.9347 57.3929 26.7645 57.5228 26.6368L58.5619 25.6154C58.6918 25.4877 58.865 25.4451 59.0381 25.4451C59.2113 25.4451 59.3845 25.4877 59.5144 25.6154L60.5535 26.6368C60.5751 26.6581 60.5859 26.6794 60.5967 26.7007C60.6076 26.7219 60.6184 26.7432 60.64 26.7645C60.6617 26.7432 60.6725 26.7219 60.6833 26.7007C60.6942 26.6794 60.705 26.6581 60.7266 26.6368L61.7657 25.6154C61.8956 25.4877 62.0688 25.4451 62.242 25.4451C62.4151 25.4451 62.5883 25.4877 62.7182 25.6154L63.7573 26.6368C63.7789 26.6581 63.7897 26.6794 63.8006 26.7007C63.8114 26.7219 63.8222 26.7432 63.8439 26.7645C63.8655 26.7432 63.8763 26.7219 63.8872 26.7007C63.898 26.6794 63.9088 26.6581 63.9304 26.6368L64.9695 25.6154C65.0994 25.4877 65.2726 25.4451 65.4458 25.4451C65.6189 25.4451 65.7921 25.4877 65.922 25.6154Z" fill="white"/>
</g>
</g>
<defs>
<clipPath id="clip0_2930_32244">
<rect width="106" height="41" fill="white" transform="translate(0 0.5)"/>
</clipPath>
</defs>
</svg>
