<svg width="279" height="5256" viewBox="0 0 279 5256" fill="none" xmlns="http://www.w3.org/2000/svg">
<path d="M110.907 1C2.21855 259.451 -24.2439 1036.34 128.532 1393.94C167.341 1484.78 233.814 1563.66 269.534 1699.77C314.184 1869.92 169.658 1986.76 128.532 2062.68C94.8316 2124.89 -43.0195 2374.44 15.1437 2626.96C73.3068 2879.49 266.009 3015.18 266.009 3213.32C266.009 3395.41 123.891 3497.84 52.7441 3630.82C-15.9941 3759.3 -10.7066 3948.83 143.22 4123.82C158.021 4143.35 195.839 4196.21 228.703 4251.4C269.784 4320.38 301.286 4555.82 143.22 4717.88C16.7677 4847.54 111.331 5176.16 204.642 5255" stroke="black" stroke-dasharray="10 10"/>
</svg>
